**ABCDEFGHIJKLMNOPQRSTUVWXYZabcdefghijklmnopqrstuvwxyz**************************
**PARASOLID !"#$%&'()*+,-./:;<=>?@[\]^_`{|}~0123456789**************************
**PART1;
MC=AMD64;
MC_MODEL=Intel64 Family 6 Model 60 Stepping 3, GenuineIntel;
MC_ID=unknown;
OS=Windows_NT;
OS_RELEASE=unknown;
FRU=Parasolid Version 32.1, build 230,  5-23-2020;
APPL=SOLIDWORKS 2021-2020273;
SITE=;
USER=unknown;
FORMAT=text;
GUISE=transmit;
KEY=makeProjectedPlanarWire;
FILE=makeProjectedPlanarWire.x_t;
DATE=Wed Aug 16 15:14:11 2023;
**PART2;
SCH=SCH_3201230_32001;
USFLD_SIZE=0;
**PART3;
**END_OF_HEADER*****************************************************************
T51 : TRANSMIT FILE created by modeller version 320123023 SCH_3201230_32001_1300
6229 0 12 34 CCCCCCI4 mesh1006 0 I8 polyline1008 0 CCCCCCCDI5 owner1040 0 CCCCCC
I13 boundary_mesh1006 0 I17 boundary_polyline1008 0 CCCA16 index_map_offset0 0 1
 dA9 index_map82 0 A17 node_id_index_map82 0 A20 schema_embedding_map82 0 A5 chi
ld12 0 A14 lowest_node_id0 0 1 dA16 mesh_offset_data206 0 Z1 805 0 0 0 0 0 0 0 0
 1e3 1e-8 0 2 0 1 0 3 1 3 4 5 6 0 0 7 8 9 0 0 0 0 0 0 0 13 255 3 262 0 1 0 10 0
 0 7 10 50 255 4 3 0 10 0 0 0 +0 0 .072408370247851 0 0 -1 -1 0 0 31 255 5 183 0
 8 11 0 0 -.03793290609094575 .01634372705104475 .072408370247851 0 0 -1 -1 0 0
 .002187305054609995 29 255 6 260 0 9 12 0 .03793290609094575 .01853103210565475
 .072408370247851 19 8 CCCCCCCA5 owner12 0 Z7 261 0 1 0 0 3 V0 16 255 8 181 0 ?1
3 0 14 5 0 0 1 18 255 9 258 0 15 0 16 6 ?1 17 255 15 0 0 0 0 9 17 18 0 13 -18 16
 255 0 19 9 20 12 ?1 17 19 0 21 13 22 16 23 14 0 24 +18 20 252 0 22 16 25 26 ?1
 29 12 257 0 16 26 6 .04012021114555575 .01634372705104475 .072408370247851 29 2
6 254 0 20 27 12 .04012021114555575 -.01465633390907524 .072408370247851 29 27 2
51 0 25 28 26 .03793290609094575 -.01684363896368525 .072408370247851 18 25 249
 0 29 20 30 27 ?1 29 28 248 0 30 31 27 -.03606723360933325 -.01684363896368525 .
072408370247851 18 30 246 0 32 25 33 28 ?1 29 31 245 0 33 34 28 -.03825453866394
325 -.01465633390907524 .072408370247851 18 33 243 0 35 30 36 31 ?1 29 34 242 0
 36 37 31 -.03825453866394325 .01634372705104475 .072408370247851 18 36 240 0 38
 33 39 34 ?1 29 37 239 0 39 40 34 -.03606723360933325 .01853103210565475 .072408
370247851 18 39 237 0 17 36 41 37 ?1 29 40 236 0 41 42 37 .01997111402895275 -.0
1844363896368525 .072408370247851 18 41 234 0 43 39 44 40 ?1 29 42 233 0 44 45 4
0 .03793290609094575 -.01844363896368525 .072408370247851 18 44 231 0 46 41 47 4
2 ?1 29 45 230 0 47 48 42 .04172021114555575 -.01465633390907524 .07240837024785
1 18 47 228 0 49 44 50 45 ?1 29 48 227 0 50 51 45 .04172021114555575 .0163437270
5104475 .072408370247851 18 50 225 0 52 47 53 48 ?1 29 51 224 0 53 54 48 .037932
90609094575 .02013103210565475 .072408370247851 18 53 222 0 55 50 56 51 ?1 29 54
 221 0 56 57 51 .03290620918427045 .02013103210565475 .072408370247851 18 56 219
 0 58 53 59 54 ?1 29 57 218 0 59 60 54 .03163497869226225 .0193970868388918 .072
408370247851 18 59 216 0 61 56 62 57 ?1 29 60 215 0 62 63 57 .0164617828166006 .
01939708683889175 .072408370247851 18 62 213 0 64 59 65 60 ?1 29 63 212 0 65 66
 60 .0151905523245924 .02013103210565475 .072408370247851 18 65 210 0 67 62 68 6
3 ?1 29 66 209 0 68 69 63 -.03606723360933325 .02013103210565475 .07240837024785
1 18 68 207 0 70 65 71 66 ?1 29 69 206 0 71 72 66 -.03985453866394325 .016343727
05104475 .072408370247851 18 71 204 0 73 68 74 69 ?1 29 72 203 0 74 75 69 -.0398
5453866394325 -.01465633390907524 .072408370247851 18 74 201 0 76 71 77 72 ?1 29
 75 200 0 77 78 72 -.03606723360933325 -.01844363896368525 .072408370247851 18 7
7 198 0 79 74 80 75 ?1 29 78 197 0 80 81 75 .00363591147477635 -.018443638963685
25 .072408370247851 18 80 195 0 82 77 83 78 ?1 29 81 194 0 83 84 78 .00363973992
971318 -.0184398105087484 .072408370247851 18 83 192 0 85 80 86 81 ?1 29 84 191
 0 86 0 81 .0199672855740159 -.0184398105087484 .072408370247851 18 86 189 0 87
 83 0 84 ?1 17 87 0 88 85 89 86 43 90 0 91 +15 255 88 7 0 87 10 21 17 85 0 88 82
 87 83 91 92 0 93 +17 89 0 88 87 46 41 94 95 0 0 +17 43 0 0 0 0 41 87 90 0 89 -1
6 90 9 0 ?87 92 0 96 0 0 1 17 91 0 0 0 0 86 85 92 0 0 -16 92 15 0 ?85 97 90 98 0
 0 1 16 97 21 0 ?82 99 92 100 0 0 1 30 255 98 17 0 92 96 100 0 +0 -.018439810508
7484 .072408370247851 -1 0 0 30 96 11 0 90 0 98 0 +.000763737532633637 .00076373
7532633645 .072408370247851 -.707106781186551 .707106781186544 0 30 100 23 0 97
 98 101 0 +.01103977521923076 -.01103977521923088 .072408370247851 -.70710678118
6551 -.707106781186544 0 30 101 29 0 99 100 102 0 +0 -.01844363896368525 .072408
370247851 -1 0 0 16 99 27 0 ?79 103 97 101 0 0 1 31 102 37 0 103 101 104 0 +-.03
606723360933325 -.01465633390907524 .072408370247851 0 0 -1 -1 0 0 .003787305054
609995 16 103 35 0 ?76 105 99 102 0 0 1 30 104 45 0 105 102 106 0 +-.03985453866
394325 -892083456655242e-32 .072408370247851 -2238348470615515e-31 1 0 16 105 43
 0 ?73 107 103 104 0 0 1 31 106 53 0 107 104 108 0 +-.03606723360933325 .0163437
2705104475 .072408370247851 0 0 -1 -1 0 0 .00378730505460999 16 107 51 0 ?70 109
 105 106 0 0 1 30 108 61 0 109 106 110 0 +-393484003121587e-32 .0201310321056547
5 .072408370247851 1 1954614155183125e-31 0 16 109 59 0 ?67 111 107 108 0 0 1 30
 110 69 0 111 108 112 0 +.0125146306850967 .02167597618454795 .072408370247851 .
866025403784438 -.5 0 16 111 67 0 ?64 113 109 110 0 0 1 30 112 75 0 113 110 114
 0 +-379138205046141e-32 .01939708683889175 .072408370247851 1 1954614155183125e
-31 0 16 113 73 0 ?61 115 111 112 0 0 1 30 114 81 0 115 112 116 0 +-.00049044030
7880935 .000849467531329498 .072408370247851 .866025403784438 .5 0 16 115 79 0 ?
58 117 113 114 0 0 1 30 116 87 0 117 114 118 0 +-393484003121587e-32 .0201310321
0565475 .072408370247851 1 1954614155183125e-31 0 16 117 85 0 ?55 119 115 116 0
 0 1 31 118 95 0 119 116 120 0 +.03793290609094575 .01634372705104475 .072408370
247851 0 0 -1 -1 0 0 .003787305054609995 16 119 93 0 ?52 121 117 118 0 0 1 30 12
0 103 0 121 118 122 0 +.04172021114555575 0 .072408370247851 0 -1 0 16 121 101 0
 ?49 123 119 120 0 0 1 31 122 111 0 123 120 124 0 +.03793290609094575 -.01465633
390907524 .072408370247851 0 0 -1 -1 0 0 .00378730505461 16 123 109 0 ?46 95 121
 122 0 0 1 30 124 119 0 95 122 125 0 +0 -.01844363896368525 .072408370247851 -1
 0 0 16 95 117 0 ?89 18 123 124 0 0 1 30 125 127 0 18 124 126 0 +-36221017663865
7e-32 .01853103210565475 .072408370247851 -1 -1954614155183125e-31 0 16 18 125 0
 ?17 127 95 125 0 0 1 31 126 135 0 127 125 128 0 --.03606723360933325 .016343727
05104475 .072408370247851 0 0 -1 -1 0 0 .00218730505460999 16 127 133 0 ?38 129
 18 126 0 0 1 30 128 143 0 129 126 130 0 +-.03825453866394325 -856269881125394e-
32 .072408370247851 2238348470615515e-31 -1 0 16 129 141 0 ?35 131 127 128 0 0 1
 31 130 151 0 131 128 132 0 --.03606723360933325 -.01465633390907524 .0724083702
47851 0 0 -1 -1 0 0 .002187305054609995 16 131 149 0 ?32 133 129 130 0 0 1 30 13
2 159 0 133 130 134 0 +0 -.01684363896368525 .072408370247851 1 0 0 16 133 157 0
 ?29 135 131 132 0 0 1 31 134 167 0 135 132 11 0 -.03793290609094575 -.014656333
90907524 .072408370247851 0 0 -1 -1 0 0 .00218730505461 16 135 165 0 ?22 14 133
 134 0 0 1 30 11 175 0 14 134 5 0 +.04012021114555575 0 .072408370247851 0 1 0 1
6 14 173 0 ?19 8 135 11 0 0 1 17 22 0 21 19 29 20 136 135 0 23 +15 21 8 0 17 10
 0 17 29 0 21 22 32 25 137 133 0 136 +17 136 0 0 0 0 25 22 135 0 0 -17 23 0 0 0
 0 20 19 14 0 0 -17 32 0 21 29 35 30 138 131 0 137 +17 137 0 0 0 0 30 29 133 0 0
 -17 35 0 21 32 38 33 139 129 0 138 +17 138 0 0 0 0 33 32 131 0 0 -17 38 0 21 35
 17 36 140 127 0 139 +17 139 0 0 0 0 36 35 129 0 0 -17 17 0 21 38 13 39 15 18 0
 140 +17 140 0 0 0 0 39 38 127 0 0 -17 13 0 21 17 19 9 24 8 0 0 +17 24 0 0 0 0 1
6 13 8 0 0 -14 255 10 1 0 ?0 0 88 3 4 +0 0 0 0 3 17 46 0 88 89 49 44 141 123 0 9
4 +17 49 0 88 46 52 47 142 121 0 141 +17 141 0 0 0 0 47 46 123 0 0 -17 94 0 0 0
 0 44 89 95 0 0 -17 52 0 88 49 55 50 143 119 0 142 +17 142 0 0 0 0 50 49 121 0 0
 -17 55 0 88 52 58 53 144 117 0 143 +17 143 0 0 0 0 53 52 119 0 0 -17 58 0 88 55
 61 56 145 115 0 144 +17 144 0 0 0 0 56 55 117 0 0 -17 61 0 88 58 64 59 146 113
 0 145 +17 145 0 0 0 0 59 58 115 0 0 -17 64 0 88 61 67 62 147 111 0 146 +17 146
 0 0 0 0 62 61 113 0 0 -17 67 0 88 64 70 65 148 109 0 147 +17 147 0 0 0 0 65 64
 111 0 0 -17 70 0 88 67 73 68 149 107 0 148 +17 148 0 0 0 0 68 67 109 0 0 -17 73
 0 88 70 76 71 150 105 0 149 +17 149 0 0 0 0 71 70 107 0 0 -17 76 0 88 73 79 74
 151 103 0 150 +17 150 0 0 0 0 74 73 105 0 0 -17 79 0 88 76 82 77 152 99 0 151 +
17 151 0 0 0 0 77 76 103 0 0 -17 82 0 88 79 85 80 93 97 0 152 +17 152 0 0 0 0 80
 79 99 0 0 -17 93 0 0 0 0 83 82 97 0 0 -1 0 
