#define no_icon_width 32
#define no_icon_height 32
static unsigned char no_icon_bits[] = {
   0x00, 0x00, 0x00, 0x00, 0x00, 0x00, 0x00, 0x00, 0x00, 0x00, 0x00, 0x00,
   0x00, 0x00, 0x00, 0x00, 0x00, 0x00, 0x00, 0x00, 0x00, 0xfe, 0xff, 0x00,
   0x00, 0x03, 0x80, 0x01, 0x00, 0x05, 0x40, 0x01, 0x00, 0x09, 0x20, 0x01,
   0x00, 0x11, 0x10, 0x01, 0x00, 0x01, 0x00, 0x01, 0x00, 0x01, 0x00, 0x01,
   0x00, 0x81, 0x03, 0x01, 0x00, 0x41, 0x04, 0x01, 0x00, 0x01, 0x04, 0x01,
   0x00, 0x01, 0x02, 0x01, 0x00, 0x01, 0x01, 0x01, 0x00, 0x01, 0x01, 0x01,
   0x00, 0x01, 0x00, 0x01, 0x00, 0x01, 0x01, 0x01, 0x00, 0x01, 0x00, 0x01,
   0x00, 0x01, 0x00, 0x01, 0x00, 0x11, 0x10, 0x01, 0x00, 0x09, 0x20, 0x01,
   0x00, 0x05, 0x40, 0x01, 0x00, 0x03, 0x80, 0x01, 0x00, 0xfe, 0xff, 0x00,
   0x00, 0x00, 0x00, 0x00, 0x00, 0x00, 0x00, 0x00, 0x00, 0x00, 0x00, 0x00,
   0x00, 0x00, 0x00, 0x00, 0x00, 0x00, 0x00, 0x00 };
