#define ebook_width 32
#define ebook_height 32
static unsigned char ebook_bits[] = {
   0x00, 0x00, 0x00, 0x00, 0x00, 0x00, 0x00, 0x00, 0x00, 0x00, 0x00, 0x00,
   0x00, 0x00, 0x00, 0x00, 0x00, 0x00, 0x00, 0x00, 0x00, 0xf0, 0xff, 0x03,
   0x00, 0x00, 0x00, 0x06, 0x00, 0xfc, 0xff, 0x04, 0x00, 0x00, 0x80, 0x05,
   0x00, 0xff, 0x3f, 0x05, 0x80, 0x00, 0x40, 0x05, 0x80, 0x00, 0x40, 0x05,
   0x80, 0xf0, 0x4f, 0x05, 0x80, 0x00, 0x40, 0x05, 0x80, 0xfe, 0x4f, 0x05,
   0x80, 0x00, 0x40, 0x05, 0x80, 0x3e, 0x40, 0x05, 0x80, 0x00, 0x40, 0x05,
   0x80, 0x00, 0x40, 0x05, 0x80, 0xf0, 0x4f, 0x05, 0x80, 0x00, 0x40, 0x05,
   0x80, 0xfe, 0x4f, 0x05, 0x80, 0x00, 0x40, 0x05, 0x80, 0x3e, 0x40, 0x01,
   0x80, 0x00, 0x40, 0x01, 0x80, 0x00, 0x40, 0x00, 0x80, 0x01, 0x60, 0x00,
   0x00, 0xff, 0x3f, 0x00, 0x00, 0x00, 0x00, 0x00, 0x00, 0x00, 0x00, 0x00,
   0x00, 0x00, 0x00, 0x00, 0x00, 0x00, 0x00, 0x00 };
