#define frame_room_width 50
#define frame_room_height 82
static unsigned char frame_room_bits[] = {
   0x00, 0x00, 0x00, 0x00, 0x00, 0x00, 0x00, 0x00, 0x00, 0x00, 0x00, 0x00,
   0x00, 0x00, 0x00, 0x00, 0x00, 0x00, 0x00, 0x00, 0x00, 0x00, 0x00, 0x00,
   0x00, 0x00, 0x00, 0x00, 0x00, 0x00, 0x00, 0x00, 0x00, 0x00, 0x00, 0x00,
   0x00, 0x00, 0x00, 0x00, 0x00, 0x00, 0x00, 0x00, 0x00, 0x00, 0x00, 0x00,
   0x00, 0x00, 0x00, 0x00, 0x00, 0x00, 0x00, 0x00, 0x00, 0x00, 0x00, 0x00,
   0x00, 0x00, 0x00, 0x00, 0x00, 0x00, 0x00, 0x00, 0x00, 0x00, 0x00, 0x00,
   0x00, 0x00, 0x00, 0x00, 0x00, 0x00, 0x00, 0x00, 0x00, 0x00, 0x00, 0x00,
   0x00, 0x00, 0x00, 0x00, 0x00, 0x00, 0x00, 0x00, 0x00, 0x00, 0x00, 0x00,
   0x40, 0x00, 0x00, 0x00, 0x00, 0x00, 0x00, 0x80, 0x00, 0x00, 0x00, 0x01,
   0x00, 0x02, 0x80, 0x00, 0x00, 0x00, 0x02, 0x00, 0x02, 0x00, 0x01, 0x00,
   0xf8, 0xff, 0x01, 0x02, 0x00, 0x01, 0x00, 0x08, 0x00, 0xf9, 0xff, 0x00,
   0x01, 0x00, 0x04, 0x80, 0x08, 0x82, 0x00, 0x01, 0x00, 0xf0, 0x7f, 0x08,
   0x82, 0x00, 0x01, 0x00, 0x80, 0x00, 0x08, 0x82, 0x00, 0x01, 0x00, 0x40,
   0x10, 0x08, 0x85, 0x00, 0x01, 0x00, 0xe0, 0x3f, 0x08, 0x89, 0x00, 0x01,
   0x00, 0x00, 0x22, 0x88, 0x90, 0x00, 0x01, 0x00, 0x00, 0x02, 0x48, 0xa0,
   0x00, 0x01, 0x00, 0xf0, 0x7f, 0x28, 0xa0, 0x00, 0x01, 0x00, 0x00, 0x02,
   0x08, 0x80, 0x00, 0x01, 0x00, 0x00, 0x02, 0x08, 0x80, 0x00, 0x01, 0x00,
   0xfc, 0xff, 0x09, 0xa0, 0x00, 0x01, 0x00, 0x00, 0x00, 0x08, 0x40, 0x00,
   0x01, 0x00, 0x00, 0x00, 0x00, 0x00, 0x00, 0x01, 0x00, 0x00, 0x00, 0x00,
   0x00, 0x00, 0x01, 0x00, 0x00, 0x00, 0x00, 0x00, 0x00, 0x01, 0x00, 0x00,
   0x00, 0x00, 0x00, 0x00, 0x01, 0x00, 0x00, 0x00, 0x00, 0x00, 0x00, 0x01,
   0x00, 0x00, 0x00, 0x00, 0x00, 0x00, 0x01, 0x00, 0x00, 0x00, 0x00, 0x00,
   0x00, 0x01, 0x00, 0x00, 0x00, 0x00, 0x00, 0x00, 0x01, 0x00, 0x00, 0x00,
   0x00, 0x00, 0x00, 0x01, 0x00, 0x00, 0x00, 0x00, 0x18, 0x00, 0x01, 0x00,
   0x00, 0x00, 0x00, 0x24, 0x2e, 0x01, 0x00, 0x00, 0x00, 0x00, 0x24, 0x31,
   0x01, 0x00, 0x00, 0x00, 0x00, 0x98, 0x20, 0x01, 0x00, 0x00, 0x00, 0x00,
   0x40, 0x00, 0x01, 0x00, 0x00, 0x00, 0x00, 0x40, 0x00, 0x01, 0x00, 0x00,
   0x00, 0x00, 0x40, 0x00, 0x01, 0x00, 0x00, 0x00, 0x00, 0x40, 0x00, 0x01,
   0x00, 0x00, 0x00, 0x00, 0x40, 0x00, 0x01, 0x00, 0x00, 0x00, 0x00, 0x40,
   0x00, 0x01, 0x00, 0x00, 0x00, 0x00, 0x80, 0x40, 0x01, 0x00, 0x00, 0x00,
   0x00, 0x00, 0x21, 0x01, 0x00, 0x00, 0x00, 0x00, 0x00, 0x1e, 0x01, 0x00,
   0x00, 0x00, 0x00, 0x00, 0x00, 0x01, 0x00, 0x00, 0x00, 0x00, 0x00, 0x00,
   0x01, 0x00, 0x00, 0x00, 0x00, 0x00, 0x00, 0x01, 0x00, 0x00, 0x00, 0x00,
   0x00, 0x00, 0x01, 0x00, 0x00, 0x00, 0x00, 0x00, 0x00, 0x01, 0x00, 0x00,
   0x00, 0x00, 0x00, 0x00, 0x01, 0x00, 0x00, 0x00, 0x00, 0x00, 0x00, 0x01,
   0x00, 0x00, 0x00, 0x00, 0x00, 0x00, 0x01, 0x00, 0x00, 0x00, 0x00, 0x00,
   0x23, 0x01, 0x00, 0x00, 0x00, 0x00, 0x80, 0x24, 0x01, 0x00, 0x00, 0x00,
   0x00, 0x80, 0x14, 0x01, 0x00, 0x00, 0x00, 0x00, 0x80, 0x14, 0x01, 0x00,
   0x00, 0x00, 0x00, 0x00, 0x0b, 0x01, 0x00, 0x00, 0x00, 0x00, 0x00, 0x08,
   0x01, 0x00, 0x00, 0x00, 0x00, 0x00, 0x04, 0x01, 0x00, 0x00, 0x00, 0x00,
   0x00, 0x04, 0x01, 0x00, 0x00, 0x00, 0x00, 0x00, 0x32, 0x01, 0x00, 0x00,
   0x00, 0x00, 0x00, 0x4a, 0x01, 0x00, 0x00, 0x00, 0x00, 0x00, 0x49, 0x01,
   0x00, 0x00, 0x00, 0x00, 0x00, 0x49, 0x01, 0x00, 0x00, 0x00, 0x00, 0x80,
   0x30, 0x01, 0x00, 0x00, 0x00, 0x00, 0x00, 0x80, 0x01, 0x00, 0x00, 0x00,
   0x00, 0x00, 0x80, 0x00, 0x00, 0x00, 0x00, 0x00, 0x00, 0xc0, 0x00, 0x00,
   0x00, 0x00, 0x00, 0x00, 0x60, 0x00, 0x00, 0xfe, 0xff, 0xff, 0xff, 0x3f,
   0x00, 0x00, 0x00, 0x00, 0x00, 0x00, 0x00, 0x00, 0x40, 0xff, 0xff, 0xff,
   0xff, 0x0f, 0x00, 0x00, 0x00, 0x00, 0x00, 0x00, 0x00, 0x00 };
