#define goback_width 32
#define goback_height 32
static unsigned char goback_bits[] = {
   0x00, 0x00, 0x00, 0x20, 0x00, 0x00, 0x00, 0x40, 0x00, 0x00, 0x00, 0x80,
   0x00, 0x00, 0x00, 0x80, 0x00, 0x00, 0x00, 0x80, 0x00, 0x20, 0x00, 0x80,
   0x00, 0x30, 0x00, 0x80, 0x00, 0x38, 0x00, 0x80, 0x00, 0x2c, 0x00, 0x80,
   0x00, 0x26, 0x00, 0x80, 0x00, 0x23, 0x00, 0x80, 0x80, 0x21, 0x00, 0x80,
   0xc0, 0xe0, 0xff, 0x87, 0x60, 0x00, 0x00, 0x8c, 0x30, 0x8c, 0x58, 0x99,
   0x18, 0x54, 0x45, 0x91, 0x0c, 0xcc, 0xc5, 0x90, 0x18, 0x54, 0x45, 0x91,
   0x30, 0x4c, 0x59, 0x99, 0x60, 0x00, 0x00, 0x8c, 0xc0, 0xe0, 0xff, 0x87,
   0x80, 0x21, 0x00, 0x80, 0x00, 0x23, 0x00, 0x80, 0x00, 0x26, 0x00, 0x80,
   0x00, 0x2c, 0x00, 0x80, 0x00, 0x38, 0x00, 0x80, 0x00, 0x30, 0x00, 0x80,
   0x00, 0x20, 0x00, 0x40, 0x00, 0x00, 0x00, 0x40, 0x00, 0x00, 0x00, 0x20,
   0x00, 0x00, 0x00, 0x98, 0xfa, 0xff, 0xff, 0xc7 };
