#define back1_width 32
#define back1_height 32
static unsigned char back1_bits[] = {
   0x00, 0x00, 0x00, 0x00, 0x00, 0x00, 0x00, 0x00, 0x00, 0x00, 0x00, 0x00,
   0x00, 0x00, 0x00, 0x00, 0x00, 0xc0, 0x00, 0x00, 0x00, 0xe0, 0x00, 0x00,
   0x00, 0xb0, 0x00, 0x00, 0x00, 0x98, 0x00, 0x00, 0x00, 0x8c, 0x00, 0x00,
   0x00, 0x86, 0x00, 0x00, 0x00, 0x83, 0xff, 0x07, 0x80, 0x81, 0x00, 0x08,
   0xc0, 0x80, 0x00, 0x10, 0x60, 0x80, 0x00, 0x10, 0x30, 0x80, 0x00, 0x10,
   0x18, 0x80, 0x00, 0x10, 0x30, 0x81, 0x00, 0x14, 0x60, 0x82, 0x00, 0x14,
   0xc0, 0x84, 0xf8, 0x13, 0x80, 0x89, 0x00, 0x08, 0x00, 0xb3, 0xff, 0x07,
   0x00, 0x86, 0x00, 0x00, 0x00, 0x8c, 0x00, 0x00, 0x00, 0x98, 0x00, 0x00,
   0x00, 0xb0, 0x00, 0x00, 0x00, 0xe0, 0x00, 0x00, 0x00, 0xc0, 0x00, 0x00,
   0x00, 0x00, 0x00, 0x00, 0x00, 0x00, 0x00, 0x00, 0x00, 0x00, 0x00, 0x00,
   0x00, 0x00, 0x00, 0x00, 0x00, 0x00, 0x00, 0x00 };
