0, 0, Header, 1, 3, 480
1, 0, Start_track
1, 0, Marker_t, "\377Y\377P\377Y,\001\000\000\377A"
1, 0, Title_t, "\272\311\314\301\324\302\311\253"
1, 0, Time_signature, 4, 2, 24, 8
1, 0, Tempo, 588235
1, 165120, Tempo, 705882
1, 165158, Tempo, 571428
1, 165619, Tempo, 600000
1, 166080, Tempo, 631578
1, 166541, Tempo, 666666
1, 166992, Tempo, 705882
1, 167453, Tempo, 750000
1, 167914, Tempo, 800000
1, 168374, Tempo, 857142
1, 168826, Tempo, 923076
1, 168826, End_track
2, 0, Start_track
2, 0, Title_t, "Piano"
2, 0, Instrument_name_t, "Microsoft GS \262\250\261\355\310\355\274\376\272\317\263\311\306\367"
2, 0, Program_c, 0, 0
2, 0, Control_c, 0, 10, 64
2, 0, Note_on_c, 0, 72, 80
2, 696, Note_off_c, 0, 72, 64
2, 720, Note_on_c, 0, 79, 80
2, 936, Note_off_c, 0, 79, 64
2, 960, Note_on_c, 0, 72, 80
2, 1176, Note_off_c, 0, 72, 64
2, 1200, Note_on_c, 0, 79, 80
2, 1416, Note_off_c, 0, 79, 64
2, 1440, Note_on_c, 0, 72, 80
2, 1656, Note_off_c, 0, 72, 64
2, 1680, Note_on_c, 0, 74, 80
2, 1896, Note_off_c, 0, 74, 64
2, 1920, Note_on_c, 0, 76, 80
2, 3648, Note_off_c, 0, 76, 64
2, 3840, Note_on_c, 0, 72, 80
2, 4536, Note_off_c, 0, 72, 64
2, 4560, Note_on_c, 0, 79, 80
2, 4776, Note_off_c, 0, 79, 64
2, 4800, Note_on_c, 0, 72, 80
2, 5016, Note_off_c, 0, 72, 64
2, 5040, Note_on_c, 0, 79, 80
2, 5256, Note_off_c, 0, 79, 64
2, 5280, Note_on_c, 0, 72, 80
2, 5496, Note_off_c, 0, 72, 64
2, 5520, Note_on_c, 0, 74, 80
2, 5736, Note_off_c, 0, 74, 64
2, 5760, Note_on_c, 0, 74, 80
2, 7488, Note_off_c, 0, 74, 64
2, 7680, Note_on_c, 0, 72, 80
2, 8376, Note_off_c, 0, 72, 64
2, 8400, Note_on_c, 0, 79, 80
2, 8616, Note_off_c, 0, 79, 64
2, 8640, Note_on_c, 0, 72, 80
2, 8856, Note_off_c, 0, 72, 64
2, 8880, Note_on_c, 0, 79, 80
2, 9096, Note_off_c, 0, 79, 64
2, 9120, Note_on_c, 0, 74, 80
2, 9336, Note_off_c, 0, 74, 64
2, 9360, Note_on_c, 0, 72, 80
2, 9576, Note_off_c, 0, 72, 64
2, 9600, Note_on_c, 0, 69, 80
2, 10776, Note_off_c, 0, 69, 64
2, 10800, Note_on_c, 0, 67, 80
2, 11016, Note_off_c, 0, 67, 64
2, 11040, Note_on_c, 0, 72, 80
2, 11256, Note_off_c, 0, 72, 64
2, 11280, Note_on_c, 0, 74, 80
2, 11496, Note_off_c, 0, 74, 64
2, 11520, Note_on_c, 0, 72, 80
2, 12216, Note_off_c, 0, 72, 64
2, 12240, Note_on_c, 0, 79, 80
2, 12456, Note_off_c, 0, 79, 64
2, 12480, Note_on_c, 0, 72, 80
2, 12696, Note_off_c, 0, 72, 64
2, 12720, Note_on_c, 0, 79, 80
2, 12936, Note_off_c, 0, 79, 64
2, 12960, Note_on_c, 0, 72, 80
2, 13176, Note_off_c, 0, 72, 64
2, 13200, Note_on_c, 0, 69, 80
2, 13416, Note_off_c, 0, 69, 64
2, 13440, Note_on_c, 0, 72, 80
2, 14616, Note_off_c, 0, 72, 64
2, 14640, Note_on_c, 0, 81, 80
2, 14748, Note_off_c, 0, 81, 64
2, 14760, Note_on_c, 0, 79, 80
2, 14868, Note_off_c, 0, 79, 64
2, 14880, Note_on_c, 0, 76, 80
2, 15096, Note_off_c, 0, 76, 64
2, 15120, Note_on_c, 0, 74, 80
2, 15336, Note_off_c, 0, 74, 64
2, 15360, Note_on_c, 0, 72, 80
2, 15576, Note_off_c, 0, 72, 64
2, 15600, Note_on_c, 0, 72, 80
2, 16056, Note_off_c, 0, 72, 64
2, 16080, Note_on_c, 0, 69, 80
2, 16296, Note_off_c, 0, 69, 64
2, 16320, Note_on_c, 0, 67, 80
2, 16752, Note_off_c, 0, 67, 64
2, 16800, Note_on_c, 0, 69, 80
2, 17232, Note_off_c, 0, 69, 64
2, 17280, Note_on_c, 0, 72, 80
2, 17496, Note_off_c, 0, 72, 64
2, 17520, Note_on_c, 0, 72, 80
2, 17976, Note_off_c, 0, 72, 64
2, 18000, Note_on_c, 0, 74, 80
2, 18216, Note_off_c, 0, 74, 64
2, 18240, Note_on_c, 0, 76, 80
2, 19104, Note_off_c, 0, 76, 64
2, 19200, Note_on_c, 0, 74, 80
2, 19416, Note_off_c, 0, 74, 64
2, 19440, Note_on_c, 0, 74, 80
2, 19896, Note_off_c, 0, 74, 64
2, 19920, Note_on_c, 0, 72, 80
2, 20136, Note_off_c, 0, 72, 64
2, 20160, Note_on_c, 0, 74, 80
2, 20592, Note_off_c, 0, 74, 64
2, 20640, Note_on_c, 0, 74, 80
2, 20856, Note_off_c, 0, 74, 64
2, 20880, Note_on_c, 0, 79, 80
2, 21096, Note_off_c, 0, 79, 64
2, 21120, Note_on_c, 0, 79, 80
2, 21336, Note_off_c, 0, 79, 64
2, 21360, Note_on_c, 0, 76, 80
2, 21576, Note_off_c, 0, 76, 64
2, 21600, Note_on_c, 0, 76, 80
2, 21816, Note_off_c, 0, 76, 64
2, 21840, Note_on_c, 0, 74, 80
2, 22056, Note_off_c, 0, 74, 64
2, 22080, Note_on_c, 0, 76, 80
2, 22944, Note_off_c, 0, 76, 64
2, 23040, Note_on_c, 0, 72, 80
2, 23256, Note_off_c, 0, 72, 64
2, 23280, Note_on_c, 0, 72, 80
2, 23496, Note_off_c, 0, 72, 64
2, 23520, Note_on_c, 0, 72, 80
2, 23736, Note_off_c, 0, 72, 64
2, 23760, Note_on_c, 0, 69, 80
2, 23976, Note_off_c, 0, 69, 64
2, 24000, Note_on_c, 0, 67, 80
2, 24432, Note_off_c, 0, 67, 64
2, 24480, Note_on_c, 0, 79, 80
2, 24912, Note_off_c, 0, 79, 64
2, 24960, Note_on_c, 0, 76, 80
2, 25176, Note_off_c, 0, 76, 64
2, 25200, Note_on_c, 0, 74, 80
2, 25416, Note_off_c, 0, 74, 64
2, 25440, Note_on_c, 0, 76, 80
2, 25656, Note_off_c, 0, 76, 64
2, 25680, Note_on_c, 0, 74, 80
2, 25896, Note_off_c, 0, 74, 64
2, 25920, Note_on_c, 0, 72, 80
2, 26784, Note_off_c, 0, 72, 64
2, 26880, Note_on_c, 0, 74, 80
2, 27096, Note_off_c, 0, 74, 64
2, 27120, Note_on_c, 0, 74, 80
2, 27576, Note_off_c, 0, 74, 64
2, 27600, Note_on_c, 0, 72, 80
2, 27816, Note_off_c, 0, 72, 64
2, 27840, Note_on_c, 0, 74, 80
2, 28056, Note_off_c, 0, 74, 64
2, 28080, Note_on_c, 0, 74, 80
2, 28296, Note_off_c, 0, 74, 64
2, 28320, Note_on_c, 0, 69, 80
2, 28536, Note_off_c, 0, 69, 64
2, 28560, Note_on_c, 0, 76, 80
2, 28776, Note_off_c, 0, 76, 64
2, 28800, Note_on_c, 0, 74, 80
2, 29016, Note_off_c, 0, 74, 64
2, 29040, Note_on_c, 0, 72, 80
2, 29256, Note_off_c, 0, 72, 64
2, 29280, Note_on_c, 0, 69, 80
2, 29496, Note_off_c, 0, 69, 64
2, 29520, Note_on_c, 0, 74, 80
2, 29736, Note_off_c, 0, 74, 64
2, 29760, Note_on_c, 0, 72, 80
2, 29976, Note_off_c, 0, 72, 64
2, 30000, Note_on_c, 0, 81, 80
2, 30108, Note_off_c, 0, 81, 64
2, 30120, Note_on_c, 0, 79, 80
2, 30228, Note_off_c, 0, 79, 64
2, 30240, Note_on_c, 0, 76, 80
2, 30456, Note_off_c, 0, 76, 64
2, 30480, Note_on_c, 0, 74, 80
2, 30696, Note_off_c, 0, 74, 64
2, 30720, Note_on_c, 0, 72, 80
2, 30936, Note_off_c, 0, 72, 64
2, 30960, Note_on_c, 0, 72, 80
2, 31416, Note_off_c, 0, 72, 64
2, 31440, Note_on_c, 0, 69, 80
2, 31656, Note_off_c, 0, 69, 64
2, 31680, Note_on_c, 0, 67, 80
2, 32112, Note_off_c, 0, 67, 64
2, 32160, Note_on_c, 0, 69, 80
2, 32592, Note_off_c, 0, 69, 64
2, 32640, Note_on_c, 0, 72, 80
2, 32856, Note_off_c, 0, 72, 64
2, 32880, Note_on_c, 0, 72, 80
2, 33336, Note_off_c, 0, 72, 64
2, 33360, Note_on_c, 0, 74, 80
2, 33576, Note_off_c, 0, 74, 64
2, 33600, Note_on_c, 0, 76, 80
2, 34464, Note_off_c, 0, 76, 64
2, 34560, Note_on_c, 0, 74, 80
2, 34776, Note_off_c, 0, 74, 64
2, 34800, Note_on_c, 0, 74, 80
2, 35256, Note_off_c, 0, 74, 64
2, 35280, Note_on_c, 0, 72, 80
2, 35496, Note_off_c, 0, 72, 64
2, 35520, Note_on_c, 0, 74, 80
2, 35952, Note_off_c, 0, 74, 64
2, 36000, Note_on_c, 0, 74, 80
2, 36216, Note_off_c, 0, 74, 64
2, 36240, Note_on_c, 0, 79, 80
2, 36456, Note_off_c, 0, 79, 64
2, 36480, Note_on_c, 0, 79, 80
2, 36696, Note_off_c, 0, 79, 64
2, 36720, Note_on_c, 0, 76, 80
2, 36936, Note_off_c, 0, 76, 64
2, 36960, Note_on_c, 0, 76, 80
2, 37176, Note_off_c, 0, 76, 64
2, 37200, Note_on_c, 0, 74, 80
2, 37416, Note_off_c, 0, 74, 64
2, 37440, Note_on_c, 0, 76, 80
2, 38304, Note_off_c, 0, 76, 64
2, 38400, Note_on_c, 0, 72, 80
2, 38616, Note_off_c, 0, 72, 64
2, 38640, Note_on_c, 0, 72, 80
2, 38856, Note_off_c, 0, 72, 64
2, 38880, Note_on_c, 0, 72, 80
2, 39096, Note_off_c, 0, 72, 64
2, 39120, Note_on_c, 0, 69, 80
2, 39336, Note_off_c, 0, 69, 64
2, 39360, Note_on_c, 0, 67, 80
2, 39792, Note_off_c, 0, 67, 64
2, 39840, Note_on_c, 0, 79, 80
2, 40272, Note_off_c, 0, 79, 64
2, 40320, Note_on_c, 0, 76, 80
2, 40536, Note_off_c, 0, 76, 64
2, 40560, Note_on_c, 0, 74, 80
2, 40776, Note_off_c, 0, 74, 64
2, 40800, Note_on_c, 0, 76, 80
2, 41016, Note_off_c, 0, 76, 64
2, 41040, Note_on_c, 0, 74, 80
2, 41256, Note_off_c, 0, 74, 64
2, 41280, Note_on_c, 0, 72, 80
2, 42144, Note_off_c, 0, 72, 64
2, 42240, Note_on_c, 0, 74, 80
2, 42456, Note_off_c, 0, 74, 64
2, 42480, Note_on_c, 0, 74, 80
2, 42936, Note_off_c, 0, 74, 64
2, 42960, Note_on_c, 0, 72, 80
2, 43176, Note_off_c, 0, 72, 64
2, 43200, Note_on_c, 0, 74, 80
2, 43416, Note_off_c, 0, 74, 64
2, 43440, Note_on_c, 0, 74, 80
2, 43656, Note_off_c, 0, 74, 64
2, 43680, Note_on_c, 0, 69, 80
2, 43896, Note_off_c, 0, 69, 64
2, 43920, Note_on_c, 0, 76, 80
2, 44136, Note_off_c, 0, 76, 64
2, 44160, Note_on_c, 0, 74, 80
2, 44376, Note_off_c, 0, 74, 64
2, 44400, Note_on_c, 0, 72, 80
2, 44616, Note_off_c, 0, 72, 64
2, 44640, Note_on_c, 0, 69, 80
2, 44856, Note_off_c, 0, 69, 64
2, 44880, Note_on_c, 0, 74, 80
2, 45096, Note_off_c, 0, 74, 64
2, 45120, Note_on_c, 0, 72, 80
2, 45336, Note_off_c, 0, 72, 64
2, 45360, Note_on_c, 0, 81, 80
2, 45468, Note_off_c, 0, 81, 64
2, 45480, Note_on_c, 0, 79, 80
2, 45588, Note_off_c, 0, 79, 64
2, 45600, Note_on_c, 0, 76, 80
2, 45816, Note_off_c, 0, 76, 64
2, 45840, Note_on_c, 0, 74, 80
2, 46056, Note_off_c, 0, 74, 64
2, 46080, Note_on_c, 0, 76, 80
2, 46296, Note_off_c, 0, 76, 64
2, 46320, Note_on_c, 0, 79, 80
2, 46776, Note_off_c, 0, 79, 64
2, 46800, Note_on_c, 0, 79, 80
2, 47016, Note_off_c, 0, 79, 64
2, 47040, Note_on_c, 0, 79, 80
2, 47472, Note_off_c, 0, 79, 64
2, 47520, Note_on_c, 0, 79, 80
2, 47952, Note_off_c, 0, 79, 64
2, 48000, Note_on_c, 0, 81, 80
2, 48216, Note_off_c, 0, 81, 64
2, 48240, Note_on_c, 0, 79, 80
2, 48456, Note_off_c, 0, 79, 64
2, 48480, Note_on_c, 0, 76, 80
2, 48696, Note_off_c, 0, 76, 64
2, 48720, Note_on_c, 0, 74, 80
2, 48936, Note_off_c, 0, 74, 64
2, 48960, Note_on_c, 0, 72, 80
2, 49824, Note_off_c, 0, 72, 64
2, 49920, Note_on_c, 0, 81, 80
2, 50136, Note_off_c, 0, 81, 64
2, 50160, Note_on_c, 0, 84, 80
2, 50376, Note_off_c, 0, 84, 64
2, 50400, Note_on_c, 0, 81, 80
2, 50616, Note_off_c, 0, 81, 64
2, 50640, Note_on_c, 0, 79, 80
2, 50856, Note_off_c, 0, 79, 64
2, 50880, Note_on_c, 0, 76, 80
2, 51096, Note_off_c, 0, 76, 64
2, 51120, Note_on_c, 0, 74, 80
2, 51336, Note_off_c, 0, 74, 64
2, 51360, Note_on_c, 0, 72, 80
2, 51576, Note_off_c, 0, 72, 64
2, 51600, Note_on_c, 0, 69, 80
2, 51816, Note_off_c, 0, 69, 64
2, 51840, Note_on_c, 0, 74, 80
2, 52272, Note_off_c, 0, 74, 64
2, 52320, Note_on_c, 0, 74, 80
2, 52536, Note_off_c, 0, 74, 64
2, 52560, Note_on_c, 0, 76, 80
2, 52776, Note_off_c, 0, 76, 64
2, 52800, Note_on_c, 0, 76, 80
2, 53016, Note_off_c, 0, 76, 64
2, 53040, Note_on_c, 0, 74, 80
2, 53712, Note_off_c, 0, 74, 64
2, 53760, Note_on_c, 0, 76, 80
2, 53976, Note_off_c, 0, 76, 64
2, 54000, Note_on_c, 0, 79, 80
2, 54456, Note_off_c, 0, 79, 64
2, 54480, Note_on_c, 0, 79, 80
2, 54696, Note_off_c, 0, 79, 64
2, 54720, Note_on_c, 0, 79, 80
2, 55152, Note_off_c, 0, 79, 64
2, 55200, Note_on_c, 0, 79, 80
2, 55632, Note_off_c, 0, 79, 64
2, 55680, Note_on_c, 0, 81, 80
2, 55896, Note_off_c, 0, 81, 64
2, 55920, Note_on_c, 0, 79, 80
2, 56136, Note_off_c, 0, 79, 64
2, 56160, Note_on_c, 0, 76, 80
2, 56376, Note_off_c, 0, 76, 64
2, 56400, Note_on_c, 0, 74, 80
2, 56616, Note_off_c, 0, 74, 64
2, 56640, Note_on_c, 0, 72, 80
2, 57504, Note_off_c, 0, 72, 64
2, 57600, Note_on_c, 0, 69, 80
2, 57816, Note_off_c, 0, 69, 64
2, 57840, Note_on_c, 0, 72, 80
2, 58056, Note_off_c, 0, 72, 64
2, 58080, Note_on_c, 0, 69, 80
2, 58296, Note_off_c, 0, 69, 64
2, 58320, Note_on_c, 0, 67, 80
2, 58536, Note_off_c, 0, 67, 64
2, 58560, Note_on_c, 0, 74, 80
2, 58992, Note_off_c, 0, 74, 64
2, 59040, Note_on_c, 0, 76, 80
2, 59472, Note_off_c, 0, 76, 64
2, 59520, Note_on_c, 0, 72, 80
2, 59736, Note_off_c, 0, 72, 64
2, 59760, Note_on_c, 0, 88, 80
2, 59868, Note_off_c, 0, 88, 64
2, 59880, Note_on_c, 0, 86, 80
2, 59988, Note_off_c, 0, 86, 64
2, 60000, Note_on_c, 0, 84, 80
2, 60216, Note_off_c, 0, 84, 64
2, 60240, Note_on_c, 0, 81, 80
2, 60456, Note_off_c, 0, 81, 64
2, 60480, Note_on_c, 0, 84, 80
2, 61344, Note_off_c, 0, 84, 64
2, 61440, Note_on_c, 0, 72, 80
2, 62136, Note_off_c, 0, 72, 64
2, 62160, Note_on_c, 0, 79, 80
2, 62376, Note_off_c, 0, 79, 64
2, 62400, Note_on_c, 0, 72, 80
2, 62616, Note_off_c, 0, 72, 64
2, 62640, Note_on_c, 0, 79, 80
2, 62856, Note_off_c, 0, 79, 64
2, 62880, Note_on_c, 0, 72, 80
2, 63096, Note_off_c, 0, 72, 64
2, 63120, Note_on_c, 0, 74, 80
2, 63336, Note_off_c, 0, 74, 64
2, 63360, Note_on_c, 0, 76, 80
2, 65088, Note_off_c, 0, 76, 64
2, 65280, Note_on_c, 0, 72, 80
2, 65976, Note_off_c, 0, 72, 64
2, 66000, Note_on_c, 0, 79, 80
2, 66216, Note_off_c, 0, 79, 64
2, 66240, Note_on_c, 0, 72, 80
2, 66456, Note_off_c, 0, 72, 64
2, 66480, Note_on_c, 0, 79, 80
2, 66696, Note_off_c, 0, 79, 64
2, 66720, Note_on_c, 0, 72, 80
2, 66936, Note_off_c, 0, 72, 64
2, 66960, Note_on_c, 0, 74, 80
2, 67176, Note_off_c, 0, 74, 64
2, 67200, Note_on_c, 0, 74, 80
2, 68928, Note_off_c, 0, 74, 64
2, 69120, Note_on_c, 0, 72, 80
2, 69816, Note_off_c, 0, 72, 64
2, 69840, Note_on_c, 0, 79, 80
2, 70056, Note_off_c, 0, 79, 64
2, 70080, Note_on_c, 0, 72, 80
2, 70296, Note_off_c, 0, 72, 64
2, 70320, Note_on_c, 0, 79, 80
2, 70536, Note_off_c, 0, 79, 64
2, 70560, Note_on_c, 0, 74, 80
2, 70776, Note_off_c, 0, 74, 64
2, 70800, Note_on_c, 0, 72, 80
2, 71016, Note_off_c, 0, 72, 64
2, 71040, Note_on_c, 0, 69, 80
2, 72216, Note_off_c, 0, 69, 64
2, 72240, Note_on_c, 0, 67, 80
2, 72456, Note_off_c, 0, 67, 64
2, 72480, Note_on_c, 0, 72, 80
2, 72696, Note_off_c, 0, 72, 64
2, 72720, Note_on_c, 0, 74, 80
2, 72936, Note_off_c, 0, 74, 64
2, 72960, Note_on_c, 0, 72, 80
2, 73656, Note_off_c, 0, 72, 64
2, 73680, Note_on_c, 0, 79, 80
2, 73896, Note_off_c, 0, 79, 64
2, 73920, Note_on_c, 0, 72, 80
2, 74136, Note_off_c, 0, 72, 64
2, 74160, Note_on_c, 0, 79, 80
2, 74376, Note_off_c, 0, 79, 64
2, 74400, Note_on_c, 0, 72, 80
2, 74616, Note_off_c, 0, 72, 64
2, 74640, Note_on_c, 0, 69, 80
2, 74856, Note_off_c, 0, 69, 64
2, 74880, Note_on_c, 0, 72, 80
2, 76056, Note_off_c, 0, 72, 64
2, 76080, Note_on_c, 0, 81, 80
2, 76188, Note_off_c, 0, 81, 64
2, 76200, Note_on_c, 0, 79, 80
2, 76308, Note_off_c, 0, 79, 64
2, 76320, Note_on_c, 0, 76, 80
2, 76536, Note_off_c, 0, 76, 64
2, 76560, Note_on_c, 0, 74, 80
2, 76776, Note_off_c, 0, 74, 64
2, 76800, Note_on_c, 0, 72, 80
2, 77016, Note_off_c, 0, 72, 64
2, 77040, Note_on_c, 0, 72, 80
2, 77496, Note_off_c, 0, 72, 64
2, 77520, Note_on_c, 0, 69, 80
2, 77736, Note_off_c, 0, 69, 64
2, 77760, Note_on_c, 0, 67, 80
2, 78192, Note_off_c, 0, 67, 64
2, 78240, Note_on_c, 0, 69, 80
2, 78672, Note_off_c, 0, 69, 64
2, 78720, Note_on_c, 0, 72, 80
2, 78936, Note_off_c, 0, 72, 64
2, 78960, Note_on_c, 0, 72, 80
2, 79416, Note_off_c, 0, 72, 64
2, 79440, Note_on_c, 0, 74, 80
2, 79656, Note_off_c, 0, 74, 64
2, 79680, Note_on_c, 0, 76, 80
2, 80544, Note_off_c, 0, 76, 64
2, 80640, Note_on_c, 0, 74, 80
2, 80856, Note_off_c, 0, 74, 64
2, 80880, Note_on_c, 0, 74, 80
2, 81336, Note_off_c, 0, 74, 64
2, 81360, Note_on_c, 0, 72, 80
2, 81576, Note_off_c, 0, 72, 64
2, 81600, Note_on_c, 0, 74, 80
2, 82032, Note_off_c, 0, 74, 64
2, 82080, Note_on_c, 0, 74, 80
2, 82296, Note_off_c, 0, 74, 64
2, 82320, Note_on_c, 0, 79, 80
2, 82536, Note_off_c, 0, 79, 64
2, 82560, Note_on_c, 0, 79, 80
2, 82776, Note_off_c, 0, 79, 64
2, 82800, Note_on_c, 0, 76, 80
2, 83016, Note_off_c, 0, 76, 64
2, 83040, Note_on_c, 0, 76, 80
2, 83256, Note_off_c, 0, 76, 64
2, 83280, Note_on_c, 0, 74, 80
2, 83496, Note_off_c, 0, 74, 64
2, 83520, Note_on_c, 0, 76, 80
2, 84384, Note_off_c, 0, 76, 64
2, 84480, Note_on_c, 0, 72, 80
2, 84696, Note_off_c, 0, 72, 64
2, 84720, Note_on_c, 0, 72, 80
2, 84936, Note_off_c, 0, 72, 64
2, 84960, Note_on_c, 0, 72, 80
2, 85176, Note_off_c, 0, 72, 64
2, 85200, Note_on_c, 0, 69, 80
2, 85416, Note_off_c, 0, 69, 64
2, 85440, Note_on_c, 0, 67, 80
2, 85872, Note_off_c, 0, 67, 64
2, 85920, Note_on_c, 0, 79, 80
2, 86352, Note_off_c, 0, 79, 64
2, 86400, Note_on_c, 0, 76, 80
2, 86616, Note_off_c, 0, 76, 64
2, 86640, Note_on_c, 0, 74, 80
2, 86856, Note_off_c, 0, 74, 64
2, 86880, Note_on_c, 0, 76, 80
2, 87096, Note_off_c, 0, 76, 64
2, 87120, Note_on_c, 0, 74, 80
2, 87336, Note_off_c, 0, 74, 64
2, 87360, Note_on_c, 0, 72, 80
2, 88224, Note_off_c, 0, 72, 64
2, 88320, Note_on_c, 0, 74, 80
2, 88536, Note_off_c, 0, 74, 64
2, 88560, Note_on_c, 0, 74, 80
2, 89016, Note_off_c, 0, 74, 64
2, 89040, Note_on_c, 0, 72, 80
2, 89256, Note_off_c, 0, 72, 64
2, 89280, Note_on_c, 0, 74, 80
2, 89496, Note_off_c, 0, 74, 64
2, 89520, Note_on_c, 0, 74, 80
2, 89736, Note_off_c, 0, 74, 64
2, 89760, Note_on_c, 0, 69, 80
2, 89976, Note_off_c, 0, 69, 64
2, 90000, Note_on_c, 0, 76, 80
2, 90216, Note_off_c, 0, 76, 64
2, 90240, Note_on_c, 0, 74, 80
2, 90456, Note_off_c, 0, 74, 64
2, 90480, Note_on_c, 0, 72, 80
2, 90696, Note_off_c, 0, 72, 64
2, 90720, Note_on_c, 0, 69, 80
2, 90936, Note_off_c, 0, 69, 64
2, 90960, Note_on_c, 0, 74, 80
2, 91176, Note_off_c, 0, 74, 64
2, 91200, Note_on_c, 0, 72, 80
2, 91416, Note_off_c, 0, 72, 64
2, 91440, Note_on_c, 0, 81, 80
2, 91548, Note_off_c, 0, 81, 64
2, 91560, Note_on_c, 0, 79, 80
2, 91668, Note_off_c, 0, 79, 64
2, 91680, Note_on_c, 0, 76, 80
2, 91896, Note_off_c, 0, 76, 64
2, 91920, Note_on_c, 0, 74, 80
2, 92136, Note_off_c, 0, 74, 64
2, 92160, Note_on_c, 0, 76, 80
2, 92376, Note_off_c, 0, 76, 64
2, 92400, Note_on_c, 0, 79, 80
2, 92856, Note_off_c, 0, 79, 64
2, 92880, Note_on_c, 0, 79, 80
2, 93096, Note_off_c, 0, 79, 64
2, 93120, Note_on_c, 0, 79, 80
2, 93552, Note_off_c, 0, 79, 64
2, 93600, Note_on_c, 0, 79, 80
2, 94032, Note_off_c, 0, 79, 64
2, 94080, Note_on_c, 0, 81, 80
2, 94296, Note_off_c, 0, 81, 64
2, 94320, Note_on_c, 0, 79, 80
2, 94536, Note_off_c, 0, 79, 64
2, 94560, Note_on_c, 0, 76, 80
2, 94776, Note_off_c, 0, 76, 64
2, 94800, Note_on_c, 0, 74, 80
2, 95016, Note_off_c, 0, 74, 64
2, 95040, Note_on_c, 0, 72, 80
2, 95904, Note_off_c, 0, 72, 64
2, 96000, Note_on_c, 0, 81, 80
2, 96216, Note_off_c, 0, 81, 64
2, 96240, Note_on_c, 0, 84, 80
2, 96456, Note_off_c, 0, 84, 64
2, 96480, Note_on_c, 0, 81, 80
2, 96696, Note_off_c, 0, 81, 64
2, 96720, Note_on_c, 0, 79, 80
2, 96936, Note_off_c, 0, 79, 64
2, 96960, Note_on_c, 0, 76, 80
2, 97176, Note_off_c, 0, 76, 64
2, 97200, Note_on_c, 0, 74, 80
2, 97416, Note_off_c, 0, 74, 64
2, 97440, Note_on_c, 0, 72, 80
2, 97656, Note_off_c, 0, 72, 64
2, 97680, Note_on_c, 0, 69, 80
2, 97896, Note_off_c, 0, 69, 64
2, 97920, Note_on_c, 0, 74, 80
2, 98352, Note_off_c, 0, 74, 64
2, 98400, Note_on_c, 0, 74, 80
2, 98616, Note_off_c, 0, 74, 64
2, 98640, Note_on_c, 0, 76, 80
2, 98856, Note_off_c, 0, 76, 64
2, 98880, Note_on_c, 0, 76, 80
2, 99096, Note_off_c, 0, 76, 64
2, 99120, Note_on_c, 0, 74, 80
2, 99792, Note_off_c, 0, 74, 64
2, 99840, Note_on_c, 0, 76, 80
2, 100056, Note_off_c, 0, 76, 64
2, 100080, Note_on_c, 0, 79, 80
2, 100536, Note_off_c, 0, 79, 64
2, 100560, Note_on_c, 0, 79, 80
2, 100776, Note_off_c, 0, 79, 64
2, 100800, Note_on_c, 0, 79, 80
2, 101232, Note_off_c, 0, 79, 64
2, 101280, Note_on_c, 0, 79, 80
2, 101712, Note_off_c, 0, 79, 64
2, 101760, Note_on_c, 0, 81, 80
2, 101976, Note_off_c, 0, 81, 64
2, 102000, Note_on_c, 0, 79, 80
2, 102216, Note_off_c, 0, 79, 64
2, 102240, Note_on_c, 0, 76, 80
2, 102456, Note_off_c, 0, 76, 64
2, 102480, Note_on_c, 0, 74, 80
2, 102696, Note_off_c, 0, 74, 64
2, 102720, Note_on_c, 0, 72, 80
2, 103584, Note_off_c, 0, 72, 64
2, 103680, Note_on_c, 0, 69, 80
2, 103896, Note_off_c, 0, 69, 64
2, 103920, Note_on_c, 0, 72, 80
2, 104136, Note_off_c, 0, 72, 64
2, 104160, Note_on_c, 0, 69, 80
2, 104376, Note_off_c, 0, 69, 64
2, 104400, Note_on_c, 0, 67, 80
2, 104616, Note_off_c, 0, 67, 64
2, 104640, Note_on_c, 0, 74, 80
2, 105072, Note_off_c, 0, 74, 64
2, 105120, Note_on_c, 0, 76, 80
2, 105552, Note_off_c, 0, 76, 64
2, 105600, Note_on_c, 0, 72, 80
2, 105816, Note_off_c, 0, 72, 64
2, 105840, Note_on_c, 0, 88, 80
2, 105948, Note_off_c, 0, 88, 64
2, 105960, Note_on_c, 0, 86, 80
2, 106068, Note_off_c, 0, 86, 64
2, 106080, Note_on_c, 0, 84, 80
2, 106296, Note_off_c, 0, 84, 64
2, 106320, Note_on_c, 0, 81, 80
2, 106536, Note_off_c, 0, 81, 64
2, 106560, Note_on_c, 0, 84, 80
2, 107424, Note_off_c, 0, 84, 64
2, 107520, Note_on_c, 0, 72, 80
2, 107736, Note_off_c, 0, 72, 64
2, 107760, Note_on_c, 0, 72, 80
2, 108216, Note_off_c, 0, 72, 64
2, 108240, Note_on_c, 0, 69, 80
2, 108456, Note_off_c, 0, 69, 64
2, 108480, Note_on_c, 0, 72, 80
2, 108696, Note_off_c, 0, 72, 64
2, 108720, Note_on_c, 0, 72, 80
2, 109176, Note_off_c, 0, 72, 64
2, 109200, Note_on_c, 0, 69, 80
2, 109416, Note_off_c, 0, 69, 64
2, 109440, Note_on_c, 0, 72, 80
2, 109656, Note_off_c, 0, 72, 64
2, 109680, Note_on_c, 0, 69, 80
2, 109896, Note_off_c, 0, 69, 64
2, 109920, Note_on_c, 0, 72, 80
2, 110136, Note_off_c, 0, 72, 64
2, 110160, Note_on_c, 0, 74, 80
2, 110376, Note_off_c, 0, 74, 64
2, 110400, Note_on_c, 0, 74, 80
2, 110832, Note_off_c, 0, 74, 64
2, 110880, Note_on_c, 0, 72, 80
2, 111312, Note_off_c, 0, 72, 64
2, 111360, Note_on_c, 0, 72, 80
2, 111576, Note_off_c, 0, 72, 64
2, 111600, Note_on_c, 0, 72, 80
2, 112056, Note_off_c, 0, 72, 64
2, 112080, Note_on_c, 0, 69, 80
2, 112296, Note_off_c, 0, 69, 64
2, 112320, Note_on_c, 0, 72, 80
2, 112536, Note_off_c, 0, 72, 64
2, 112560, Note_on_c, 0, 72, 80
2, 113016, Note_off_c, 0, 72, 64
2, 113040, Note_on_c, 0, 69, 80
2, 113256, Note_off_c, 0, 69, 64
2, 113280, Note_on_c, 0, 74, 80
2, 113496, Note_off_c, 0, 74, 64
2, 113520, Note_on_c, 0, 72, 80
2, 113736, Note_off_c, 0, 72, 64
2, 113760, Note_on_c, 0, 74, 80
2, 113976, Note_off_c, 0, 74, 64
2, 114000, Note_on_c, 0, 76, 80
2, 114216, Note_off_c, 0, 76, 64
2, 114240, Note_on_c, 0, 67, 80
2, 114672, Note_off_c, 0, 67, 64
2, 114720, Note_on_c, 0, 67, 80
2, 115152, Note_off_c, 0, 67, 64
2, 115200, Note_on_c, 0, 72, 80
2, 115416, Note_off_c, 0, 72, 64
2, 115440, Note_on_c, 0, 72, 80
2, 115896, Note_off_c, 0, 72, 64
2, 115920, Note_on_c, 0, 69, 80
2, 116136, Note_off_c, 0, 69, 64
2, 116160, Note_on_c, 0, 72, 80
2, 116376, Note_off_c, 0, 72, 64
2, 116400, Note_on_c, 0, 72, 80
2, 116856, Note_off_c, 0, 72, 64
2, 116880, Note_on_c, 0, 69, 80
2, 117096, Note_off_c, 0, 69, 64
2, 117120, Note_on_c, 0, 79, 80
2, 117336, Note_off_c, 0, 79, 64
2, 117360, Note_on_c, 0, 76, 80
2, 117576, Note_off_c, 0, 76, 64
2, 117600, Note_on_c, 0, 76, 80
2, 117816, Note_off_c, 0, 76, 64
2, 117840, Note_on_c, 0, 74, 80
2, 118056, Note_off_c, 0, 74, 64
2, 118080, Note_on_c, 0, 72, 80
2, 118512, Note_off_c, 0, 72, 64
2, 118560, Note_on_c, 0, 72, 80
2, 118992, Note_off_c, 0, 72, 64
2, 119040, Note_on_c, 0, 72, 80
2, 119256, Note_off_c, 0, 72, 64
2, 119280, Note_on_c, 0, 72, 80
2, 119736, Note_off_c, 0, 72, 64
2, 119760, Note_on_c, 0, 69, 80
2, 119976, Note_off_c, 0, 69, 64
2, 120000, Note_on_c, 0, 72, 80
2, 120216, Note_off_c, 0, 72, 64
2, 120240, Note_on_c, 0, 72, 80
2, 120696, Note_off_c, 0, 72, 64
2, 120720, Note_on_c, 0, 69, 80
2, 120936, Note_off_c, 0, 69, 64
2, 120960, Note_on_c, 0, 72, 80
2, 121176, Note_off_c, 0, 72, 64
2, 121200, Note_on_c, 0, 69, 80
2, 121416, Note_off_c, 0, 69, 64
2, 121440, Note_on_c, 0, 72, 80
2, 121656, Note_off_c, 0, 72, 64
2, 121680, Note_on_c, 0, 74, 80
2, 121896, Note_off_c, 0, 74, 64
2, 121920, Note_on_c, 0, 72, 80
2, 122784, Note_off_c, 0, 72, 64
2, 122880, Note_on_c, 0, 88, 80
2, 122880, Note_on_c, 0, 76, 80
2, 123096, Note_off_c, 0, 88, 64
2, 123096, Note_off_c, 0, 76, 64
2, 123120, Note_on_c, 0, 91, 80
2, 123120, Note_on_c, 0, 79, 80
2, 123336, Note_off_c, 0, 79, 64
2, 123360, Note_on_c, 0, 79, 80
2, 123576, Note_off_c, 0, 91, 64
2, 123576, Note_off_c, 0, 79, 64
2, 123600, Note_on_c, 0, 91, 80
2, 123600, Note_on_c, 0, 79, 80
2, 123816, Note_off_c, 0, 91, 64
2, 123816, Note_off_c, 0, 79, 64
2, 123840, Note_on_c, 0, 91, 80
2, 123840, Note_on_c, 0, 79, 80
2, 124272, Note_off_c, 0, 91, 64
2, 124272, Note_off_c, 0, 79, 64
2, 124320, Note_on_c, 0, 91, 80
2, 124320, Note_on_c, 0, 79, 80
2, 124752, Note_off_c, 0, 91, 64
2, 124752, Note_off_c, 0, 79, 64
2, 124800, Note_on_c, 0, 93, 80
2, 124800, Note_on_c, 0, 81, 80
2, 125016, Note_off_c, 0, 93, 64
2, 125016, Note_off_c, 0, 81, 64
2, 125040, Note_on_c, 0, 91, 80
2, 125040, Note_on_c, 0, 79, 80
2, 125256, Note_off_c, 0, 91, 64
2, 125256, Note_off_c, 0, 79, 64
2, 125280, Note_on_c, 0, 88, 80
2, 125280, Note_on_c, 0, 76, 80
2, 125496, Note_off_c, 0, 88, 64
2, 125496, Note_off_c, 0, 76, 64
2, 125520, Note_on_c, 0, 86, 80
2, 125520, Note_on_c, 0, 74, 80
2, 125736, Note_off_c, 0, 86, 64
2, 125736, Note_off_c, 0, 74, 64
2, 125760, Note_on_c, 0, 84, 80
2, 125760, Note_on_c, 0, 72, 80
2, 126624, Note_off_c, 0, 84, 64
2, 126624, Note_off_c, 0, 72, 64
2, 126720, Note_on_c, 0, 93, 80
2, 126720, Note_on_c, 0, 81, 80
2, 126936, Note_off_c, 0, 93, 64
2, 126936, Note_off_c, 0, 81, 64
2, 126960, Note_on_c, 0, 96, 80
2, 126960, Note_on_c, 0, 84, 80
2, 127176, Note_off_c, 0, 96, 64
2, 127176, Note_off_c, 0, 84, 64
2, 127200, Note_on_c, 0, 93, 80
2, 127200, Note_on_c, 0, 81, 80
2, 127416, Note_off_c, 0, 93, 64
2, 127416, Note_off_c, 0, 81, 64
2, 127440, Note_on_c, 0, 91, 80
2, 127440, Note_on_c, 0, 79, 80
2, 127656, Note_off_c, 0, 91, 64
2, 127656, Note_off_c, 0, 79, 64
2, 127680, Note_on_c, 0, 88, 80
2, 127680, Note_on_c, 0, 76, 80
2, 127896, Note_off_c, 0, 88, 64
2, 127896, Note_off_c, 0, 76, 64
2, 127920, Note_on_c, 0, 86, 80
2, 127920, Note_on_c, 0, 74, 80
2, 128136, Note_off_c, 0, 86, 64
2, 128136, Note_off_c, 0, 74, 64
2, 128160, Note_on_c, 0, 84, 80
2, 128160, Note_on_c, 0, 72, 80
2, 128376, Note_off_c, 0, 84, 64
2, 128376, Note_off_c, 0, 72, 64
2, 128400, Note_on_c, 0, 81, 80
2, 128400, Note_on_c, 0, 69, 80
2, 128616, Note_off_c, 0, 81, 64
2, 128616, Note_off_c, 0, 69, 64
2, 128640, Note_on_c, 0, 86, 80
2, 128640, Note_on_c, 0, 74, 80
2, 129072, Note_off_c, 0, 86, 64
2, 129072, Note_off_c, 0, 74, 64
2, 129120, Note_on_c, 0, 86, 80
2, 129120, Note_on_c, 0, 74, 80
2, 129336, Note_off_c, 0, 86, 64
2, 129336, Note_off_c, 0, 74, 64
2, 129360, Note_on_c, 0, 88, 80
2, 129360, Note_on_c, 0, 76, 80
2, 129576, Note_off_c, 0, 88, 64
2, 129576, Note_off_c, 0, 76, 64
2, 129600, Note_on_c, 0, 88, 80
2, 129600, Note_on_c, 0, 76, 80
2, 129816, Note_off_c, 0, 88, 64
2, 129816, Note_off_c, 0, 76, 64
2, 129840, Note_on_c, 0, 86, 80
2, 129840, Note_on_c, 0, 74, 80
2, 130056, Note_off_c, 0, 74, 64
2, 130080, Note_on_c, 0, 74, 80
2, 130512, Note_off_c, 0, 86, 64
2, 130512, Note_off_c, 0, 74, 64
2, 130560, Note_on_c, 0, 88, 80
2, 130560, Note_on_c, 0, 76, 80
2, 130776, Note_off_c, 0, 88, 64
2, 130776, Note_off_c, 0, 76, 64
2, 130800, Note_on_c, 0, 91, 80
2, 130800, Note_on_c, 0, 79, 80
2, 131016, Note_off_c, 0, 79, 64
2, 131040, Note_on_c, 0, 79, 80
2, 131256, Note_off_c, 0, 91, 64
2, 131256, Note_off_c, 0, 79, 64
2, 131280, Note_on_c, 0, 91, 80
2, 131280, Note_on_c, 0, 79, 80
2, 131496, Note_off_c, 0, 91, 64
2, 131496, Note_off_c, 0, 79, 64
2, 131520, Note_on_c, 0, 91, 80
2, 131520, Note_on_c, 0, 79, 80
2, 131952, Note_off_c, 0, 91, 64
2, 131952, Note_off_c, 0, 79, 64
2, 132000, Note_on_c, 0, 91, 80
2, 132000, Note_on_c, 0, 79, 80
2, 132432, Note_off_c, 0, 91, 64
2, 132432, Note_off_c, 0, 79, 64
2, 132480, Note_on_c, 0, 93, 80
2, 132480, Note_on_c, 0, 81, 80
2, 132696, Note_off_c, 0, 93, 64
2, 132696, Note_off_c, 0, 81, 64
2, 132720, Note_on_c, 0, 91, 80
2, 132720, Note_on_c, 0, 79, 80
2, 132936, Note_off_c, 0, 91, 64
2, 132936, Note_off_c, 0, 79, 64
2, 132960, Note_on_c, 0, 88, 80
2, 132960, Note_on_c, 0, 76, 80
2, 133176, Note_off_c, 0, 88, 64
2, 133176, Note_off_c, 0, 76, 64
2, 133200, Note_on_c, 0, 86, 80
2, 133200, Note_on_c, 0, 74, 80
2, 133416, Note_off_c, 0, 86, 64
2, 133416, Note_off_c, 0, 74, 64
2, 133440, Note_on_c, 0, 84, 80
2, 133440, Note_on_c, 0, 72, 80
2, 134304, Note_off_c, 0, 84, 64
2, 134304, Note_off_c, 0, 72, 64
2, 134400, Note_on_c, 0, 81, 80
2, 134400, Note_on_c, 0, 69, 80
2, 134616, Note_off_c, 0, 81, 64
2, 134616, Note_off_c, 0, 69, 64
2, 134640, Note_on_c, 0, 84, 80
2, 134640, Note_on_c, 0, 72, 80
2, 134856, Note_off_c, 0, 84, 64
2, 134856, Note_off_c, 0, 72, 64
2, 134880, Note_on_c, 0, 81, 80
2, 134880, Note_on_c, 0, 69, 80
2, 135096, Note_off_c, 0, 81, 64
2, 135096, Note_off_c, 0, 69, 64
2, 135120, Note_on_c, 0, 79, 80
2, 135120, Note_on_c, 0, 67, 80
2, 135336, Note_off_c, 0, 79, 64
2, 135336, Note_off_c, 0, 67, 64
2, 135360, Note_on_c, 0, 86, 80
2, 135360, Note_on_c, 0, 74, 80
2, 135792, Note_off_c, 0, 86, 64
2, 135792, Note_off_c, 0, 74, 64
2, 135840, Note_on_c, 0, 88, 80
2, 135840, Note_on_c, 0, 76, 80
2, 136272, Note_off_c, 0, 88, 64
2, 136272, Note_off_c, 0, 76, 64
2, 136320, Note_on_c, 0, 84, 80
2, 136320, Note_on_c, 0, 72, 80
2, 136536, Note_off_c, 0, 84, 64
2, 136536, Note_off_c, 0, 72, 64
2, 136560, Note_on_c, 0, 88, 80
2, 136668, Note_off_c, 0, 88, 64
2, 136680, Note_on_c, 0, 86, 80
2, 136788, Note_off_c, 0, 86, 64
2, 136800, Note_on_c, 0, 84, 80
2, 137016, Note_off_c, 0, 84, 64
2, 137040, Note_on_c, 0, 81, 80
2, 137256, Note_off_c, 0, 81, 64
2, 137280, Note_on_c, 0, 84, 80
2, 138144, Note_off_c, 0, 84, 64
2, 138240, Note_on_c, 0, 88, 80
2, 138240, Note_on_c, 0, 76, 80
2, 138456, Note_off_c, 0, 88, 64
2, 138456, Note_off_c, 0, 76, 64
2, 138480, Note_on_c, 0, 91, 80
2, 138480, Note_on_c, 0, 79, 80
2, 138696, Note_off_c, 0, 79, 64
2, 138720, Note_on_c, 0, 79, 80
2, 138936, Note_off_c, 0, 91, 64
2, 138936, Note_off_c, 0, 79, 64
2, 138960, Note_on_c, 0, 91, 80
2, 138960, Note_on_c, 0, 79, 80
2, 139176, Note_off_c, 0, 91, 64
2, 139176, Note_off_c, 0, 79, 64
2, 139200, Note_on_c, 0, 91, 80
2, 139200, Note_on_c, 0, 79, 80
2, 139632, Note_off_c, 0, 91, 64
2, 139632, Note_off_c, 0, 79, 64
2, 139680, Note_on_c, 0, 91, 80
2, 139680, Note_on_c, 0, 79, 80
2, 140112, Note_off_c, 0, 91, 64
2, 140112, Note_off_c, 0, 79, 64
2, 140160, Note_on_c, 0, 93, 80
2, 140160, Note_on_c, 0, 81, 80
2, 140376, Note_off_c, 0, 93, 64
2, 140376, Note_off_c, 0, 81, 64
2, 140400, Note_on_c, 0, 91, 80
2, 140400, Note_on_c, 0, 79, 80
2, 140616, Note_off_c, 0, 91, 64
2, 140616, Note_off_c, 0, 79, 64
2, 140640, Note_on_c, 0, 88, 80
2, 140640, Note_on_c, 0, 76, 80
2, 140856, Note_off_c, 0, 88, 64
2, 140856, Note_off_c, 0, 76, 64
2, 140880, Note_on_c, 0, 86, 80
2, 140880, Note_on_c, 0, 74, 80
2, 141096, Note_off_c, 0, 86, 64
2, 141096, Note_off_c, 0, 74, 64
2, 141120, Note_on_c, 0, 84, 80
2, 141120, Note_on_c, 0, 72, 80
2, 141984, Note_off_c, 0, 84, 64
2, 141984, Note_off_c, 0, 72, 64
2, 142080, Note_on_c, 0, 93, 80
2, 142080, Note_on_c, 0, 81, 80
2, 142296, Note_off_c, 0, 93, 64
2, 142296, Note_off_c, 0, 81, 64
2, 142320, Note_on_c, 0, 96, 80
2, 142320, Note_on_c, 0, 84, 80
2, 142536, Note_off_c, 0, 96, 64
2, 142536, Note_off_c, 0, 84, 64
2, 142560, Note_on_c, 0, 93, 80
2, 142560, Note_on_c, 0, 81, 80
2, 142776, Note_off_c, 0, 93, 64
2, 142776, Note_off_c, 0, 81, 64
2, 142800, Note_on_c, 0, 91, 80
2, 142800, Note_on_c, 0, 79, 80
2, 143016, Note_off_c, 0, 91, 64
2, 143016, Note_off_c, 0, 79, 64
2, 143040, Note_on_c, 0, 88, 80
2, 143040, Note_on_c, 0, 76, 80
2, 143256, Note_off_c, 0, 88, 64
2, 143256, Note_off_c, 0, 76, 64
2, 143280, Note_on_c, 0, 86, 80
2, 143280, Note_on_c, 0, 74, 80
2, 143496, Note_off_c, 0, 86, 64
2, 143496, Note_off_c, 0, 74, 64
2, 143520, Note_on_c, 0, 84, 80
2, 143520, Note_on_c, 0, 72, 80
2, 143736, Note_off_c, 0, 84, 64
2, 143736, Note_off_c, 0, 72, 64
2, 143760, Note_on_c, 0, 81, 80
2, 143760, Note_on_c, 0, 69, 80
2, 143976, Note_off_c, 0, 81, 64
2, 143976, Note_off_c, 0, 69, 64
2, 144000, Note_on_c, 0, 86, 80
2, 144000, Note_on_c, 0, 74, 80
2, 144432, Note_off_c, 0, 86, 64
2, 144432, Note_off_c, 0, 74, 64
2, 144480, Note_on_c, 0, 86, 80
2, 144480, Note_on_c, 0, 74, 80
2, 144696, Note_off_c, 0, 86, 64
2, 144696, Note_off_c, 0, 74, 64
2, 144720, Note_on_c, 0, 88, 80
2, 144720, Note_on_c, 0, 76, 80
2, 144936, Note_off_c, 0, 88, 64
2, 144936, Note_off_c, 0, 76, 64
2, 144960, Note_on_c, 0, 88, 80
2, 144960, Note_on_c, 0, 76, 80
2, 145176, Note_off_c, 0, 88, 64
2, 145176, Note_off_c, 0, 76, 64
2, 145200, Note_on_c, 0, 86, 80
2, 145200, Note_on_c, 0, 74, 80
2, 145416, Note_off_c, 0, 74, 64
2, 145440, Note_on_c, 0, 74, 80
2, 145872, Note_off_c, 0, 86, 64
2, 145872, Note_off_c, 0, 74, 64
2, 145920, Note_on_c, 0, 88, 80
2, 145920, Note_on_c, 0, 76, 80
2, 146136, Note_off_c, 0, 88, 64
2, 146136, Note_off_c, 0, 76, 64
2, 146160, Note_on_c, 0, 91, 80
2, 146160, Note_on_c, 0, 79, 80
2, 146376, Note_off_c, 0, 79, 64
2, 146400, Note_on_c, 0, 79, 80
2, 146616, Note_off_c, 0, 91, 64
2, 146616, Note_off_c, 0, 79, 64
2, 146640, Note_on_c, 0, 91, 80
2, 146640, Note_on_c, 0, 79, 80
2, 146856, Note_off_c, 0, 91, 64
2, 146856, Note_off_c, 0, 79, 64
2, 146880, Note_on_c, 0, 91, 80
2, 146880, Note_on_c, 0, 79, 80
2, 147312, Note_off_c, 0, 91, 64
2, 147312, Note_off_c, 0, 79, 64
2, 147360, Note_on_c, 0, 91, 80
2, 147360, Note_on_c, 0, 79, 80
2, 147792, Note_off_c, 0, 91, 64
2, 147792, Note_off_c, 0, 79, 64
2, 147840, Note_on_c, 0, 93, 80
2, 147840, Note_on_c, 0, 81, 80
2, 148056, Note_off_c, 0, 93, 64
2, 148056, Note_off_c, 0, 81, 64
2, 148080, Note_on_c, 0, 91, 80
2, 148080, Note_on_c, 0, 79, 80
2, 148296, Note_off_c, 0, 91, 64
2, 148296, Note_off_c, 0, 79, 64
2, 148320, Note_on_c, 0, 88, 80
2, 148320, Note_on_c, 0, 76, 80
2, 148536, Note_off_c, 0, 88, 64
2, 148536, Note_off_c, 0, 76, 64
2, 148560, Note_on_c, 0, 86, 80
2, 148560, Note_on_c, 0, 74, 80
2, 148776, Note_off_c, 0, 86, 64
2, 148776, Note_off_c, 0, 74, 64
2, 148800, Note_on_c, 0, 84, 80
2, 148800, Note_on_c, 0, 72, 80
2, 149664, Note_off_c, 0, 84, 64
2, 149664, Note_off_c, 0, 72, 64
2, 149760, Note_on_c, 0, 81, 80
2, 149760, Note_on_c, 0, 69, 80
2, 149976, Note_off_c, 0, 81, 64
2, 149976, Note_off_c, 0, 69, 64
2, 150000, Note_on_c, 0, 84, 80
2, 150000, Note_on_c, 0, 72, 80
2, 150216, Note_off_c, 0, 84, 64
2, 150216, Note_off_c, 0, 72, 64
2, 150240, Note_on_c, 0, 81, 80
2, 150240, Note_on_c, 0, 69, 80
2, 150456, Note_off_c, 0, 81, 64
2, 150456, Note_off_c, 0, 69, 64
2, 150480, Note_on_c, 0, 79, 80
2, 150480, Note_on_c, 0, 67, 80
2, 150696, Note_off_c, 0, 79, 64
2, 150696, Note_off_c, 0, 67, 64
2, 150720, Note_on_c, 0, 86, 80
2, 150720, Note_on_c, 0, 74, 80
2, 151152, Note_off_c, 0, 86, 64
2, 151152, Note_off_c, 0, 74, 64
2, 151200, Note_on_c, 0, 88, 80
2, 151200, Note_on_c, 0, 76, 80
2, 151632, Note_off_c, 0, 88, 64
2, 151632, Note_off_c, 0, 76, 64
2, 151680, Note_on_c, 0, 84, 80
2, 151680, Note_on_c, 0, 72, 80
2, 151896, Note_off_c, 0, 84, 64
2, 151896, Note_off_c, 0, 72, 64
2, 151920, Note_on_c, 0, 88, 80
2, 152028, Note_off_c, 0, 88, 64
2, 152040, Note_on_c, 0, 86, 80
2, 152148, Note_off_c, 0, 86, 64
2, 152160, Note_on_c, 0, 84, 80
2, 152376, Note_off_c, 0, 84, 64
2, 152400, Note_on_c, 0, 81, 80
2, 152616, Note_off_c, 0, 81, 64
2, 152640, Note_on_c, 0, 84, 80
2, 153504, Note_off_c, 0, 84, 64
2, 153600, Note_on_c, 0, 84, 80
2, 154296, Note_off_c, 0, 84, 64
2, 154320, Note_on_c, 0, 91, 80
2, 154536, Note_off_c, 0, 91, 64
2, 154560, Note_on_c, 0, 84, 80
2, 154776, Note_off_c, 0, 84, 64
2, 154800, Note_on_c, 0, 91, 80
2, 155016, Note_off_c, 0, 91, 64
2, 155040, Note_on_c, 0, 84, 80
2, 155256, Note_off_c, 0, 84, 64
2, 155280, Note_on_c, 0, 86, 80
2, 155496, Note_off_c, 0, 86, 64
2, 155520, Note_on_c, 0, 88, 80
2, 157248, Note_off_c, 0, 88, 64
2, 157440, Note_on_c, 0, 84, 80
2, 158136, Note_off_c, 0, 84, 64
2, 158160, Note_on_c, 0, 91, 80
2, 158376, Note_off_c, 0, 91, 64
2, 158400, Note_on_c, 0, 84, 80
2, 158616, Note_off_c, 0, 84, 64
2, 158640, Note_on_c, 0, 91, 80
2, 158856, Note_off_c, 0, 91, 64
2, 158880, Note_on_c, 0, 84, 80
2, 159096, Note_off_c, 0, 84, 64
2, 159120, Note_on_c, 0, 86, 80
2, 159336, Note_off_c, 0, 86, 64
2, 159360, Note_on_c, 0, 86, 80
2, 161088, Note_off_c, 0, 86, 64
2, 161280, Note_on_c, 0, 84, 80
2, 161976, Note_off_c, 0, 84, 64
2, 162000, Note_on_c, 0, 91, 80
2, 162216, Note_off_c, 0, 91, 64
2, 162240, Note_on_c, 0, 84, 80
2, 162456, Note_off_c, 0, 84, 64
2, 162480, Note_on_c, 0, 91, 80
2, 162696, Note_off_c, 0, 91, 64
2, 162720, Note_on_c, 0, 86, 80
2, 162936, Note_off_c, 0, 86, 64
2, 162960, Note_on_c, 0, 84, 80
2, 163176, Note_off_c, 0, 84, 64
2, 163200, Note_on_c, 0, 81, 80
2, 164376, Note_off_c, 0, 81, 64
2, 164400, Note_on_c, 0, 79, 80
2, 164616, Note_off_c, 0, 79, 64
2, 164640, Note_on_c, 0, 84, 80
2, 164856, Note_off_c, 0, 84, 64
2, 164880, Note_on_c, 0, 86, 80
2, 165096, Note_off_c, 0, 86, 64
2, 165120, Note_on_c, 0, 84, 80
2, 165816, Note_off_c, 0, 84, 64
2, 165840, Note_on_c, 0, 91, 80
2, 166056, Note_off_c, 0, 91, 64
2, 166080, Note_on_c, 0, 84, 80
2, 166296, Note_off_c, 0, 84, 64
2, 166320, Note_on_c, 0, 91, 80
2, 166536, Note_off_c, 0, 91, 64
2, 166560, Note_on_c, 0, 84, 80
2, 166776, Note_off_c, 0, 84, 64
2, 166800, Note_on_c, 0, 81, 80
2, 167016, Note_off_c, 0, 81, 64
2, 167040, Note_on_c, 0, 84, 80
2, 168768, Note_off_c, 0, 84, 64
2, 168960, End_track
3, 0, Start_track
3, 0, Title_t, "Sound 2"
3, 0, Instrument_name_t, "Microsoft GS \262\250\261\355\310\355\274\376\272\317\263\311\306\367"
3, 0, Program_c, 0, 0
3, 0, Control_c, 0, 10, 64
3, 0, Note_on_c, 0, 48, 63
3, 19, Control_c, 0, 64, 105
3, 216, Note_off_c, 0, 48, 64
3, 240, Note_on_c, 0, 55, 60
3, 456, Note_off_c, 0, 55, 64
3, 480, Note_on_c, 0, 62, 56
3, 696, Note_off_c, 0, 62, 64
3, 720, Note_on_c, 0, 55, 52
3, 936, Note_off_c, 0, 55, 64
3, 960, Note_on_c, 0, 64, 48
3, 1824, Note_off_c, 0, 64, 64
3, 1920, Note_on_c, 0, 45, 64
3, 1949, Control_c, 0, 64, 0
3, 1978, Control_c, 0, 64, 100
3, 2136, Note_off_c, 0, 45, 64
3, 2160, Note_on_c, 0, 52, 60
3, 2376, Note_off_c, 0, 52, 64
3, 2400, Note_on_c, 0, 59, 56
3, 2616, Note_off_c, 0, 59, 64
3, 2640, Note_on_c, 0, 52, 52
3, 2856, Note_off_c, 0, 52, 64
3, 2880, Note_on_c, 0, 60, 49
3, 3744, Note_off_c, 0, 60, 64
3, 3840, Note_on_c, 0, 41, 64
3, 3888, Control_c, 0, 64, 0
3, 3917, Control_c, 0, 64, 99
3, 4056, Note_off_c, 0, 41, 64
3, 4080, Note_on_c, 0, 48, 60
3, 4296, Note_off_c, 0, 48, 64
3, 4320, Note_on_c, 0, 55, 56
3, 4536, Note_off_c, 0, 55, 64
3, 4560, Note_on_c, 0, 48, 51
3, 4776, Note_off_c, 0, 48, 64
3, 4800, Note_on_c, 0, 57, 47
3, 5664, Note_off_c, 0, 57, 64
3, 5760, Note_on_c, 0, 43, 67
3, 5798, Control_c, 0, 64, 0
3, 5827, Control_c, 0, 64, 99
3, 5976, Note_off_c, 0, 43, 64
3, 6000, Note_on_c, 0, 50, 60
3, 6216, Note_off_c, 0, 50, 64
3, 6240, Note_on_c, 0, 57, 55
3, 6456, Note_off_c, 0, 57, 64
3, 6480, Note_on_c, 0, 50, 51
3, 6696, Note_off_c, 0, 50, 64
3, 6720, Note_on_c, 0, 59, 47
3, 7584, Note_off_c, 0, 59, 64
3, 7680, Note_on_c, 0, 48, 65
3, 7699, Control_c, 0, 64, 0
3, 7728, Control_c, 0, 64, 99
3, 7896, Note_off_c, 0, 48, 64
3, 7920, Note_on_c, 0, 55, 61
3, 8136, Note_off_c, 0, 55, 64
3, 8160, Note_on_c, 0, 62, 57
3, 8376, Note_off_c, 0, 62, 64
3, 8400, Note_on_c, 0, 55, 53
3, 8616, Note_off_c, 0, 55, 64
3, 8640, Note_on_c, 0, 64, 49
3, 9504, Note_off_c, 0, 64, 64
3, 9600, Note_on_c, 0, 45, 66
3, 9648, Control_c, 0, 64, 0
3, 9667, Control_c, 0, 64, 100
3, 9816, Note_off_c, 0, 45, 64
3, 9840, Note_on_c, 0, 52, 58
3, 10056, Note_off_c, 0, 52, 64
3, 10080, Note_on_c, 0, 59, 50
3, 10296, Note_off_c, 0, 59, 64
3, 10320, Note_on_c, 0, 52, 42
3, 10536, Note_off_c, 0, 52, 64
3, 10560, Note_on_c, 0, 60, 34
3, 11424, Note_off_c, 0, 60, 64
3, 11520, Note_on_c, 0, 41, 65
3, 11549, Control_c, 0, 64, 0
3, 11568, Control_c, 0, 64, 84
3, 11736, Note_off_c, 0, 41, 64
3, 11760, Note_on_c, 0, 48, 61
3, 11976, Note_off_c, 0, 48, 64
3, 12000, Note_on_c, 0, 57, 57
3, 12216, Note_off_c, 0, 57, 64
3, 12240, Note_on_c, 0, 60, 53
3, 12456, Note_off_c, 0, 60, 64
3, 12480, Note_on_c, 0, 62, 49
3, 13344, Note_off_c, 0, 62, 64
3, 13440, Note_on_c, 0, 48, 64
3, 13488, Control_c, 0, 64, 0
3, 13517, Control_c, 0, 64, 79
3, 13656, Note_off_c, 0, 48, 64
3, 13680, Note_on_c, 0, 55, 61
3, 13896, Note_off_c, 0, 55, 64
3, 13920, Note_on_c, 0, 62, 57
3, 14136, Note_off_c, 0, 62, 64
3, 14160, Note_on_c, 0, 55, 54
3, 14376, Note_off_c, 0, 55, 64
3, 14400, Note_on_c, 0, 64, 50
3, 15264, Note_off_c, 0, 64, 64
3, 15360, Note_on_c, 0, 48, 64
3, 15408, Control_c, 0, 64, 0
3, 15427, Control_c, 0, 64, 81
3, 15576, Note_off_c, 0, 48, 64
3, 15600, Note_on_c, 0, 55, 59
3, 15816, Note_off_c, 0, 55, 64
3, 15840, Note_on_c, 0, 57, 54
3, 16056, Note_off_c, 0, 57, 64
3, 16080, Note_on_c, 0, 60, 49
3, 16536, Note_off_c, 0, 60, 64
3, 16560, Note_on_c, 0, 62, 50
3, 16776, Note_off_c, 0, 62, 64
3, 16800, Note_on_c, 0, 64, 44
3, 17232, Note_off_c, 0, 64, 64
3, 17280, Note_on_c, 0, 45, 64
3, 17318, Control_c, 0, 64, 0
3, 17338, Control_c, 0, 64, 83
3, 17496, Note_off_c, 0, 45, 64
3, 17520, Note_on_c, 0, 52, 59
3, 17736, Note_off_c, 0, 52, 64
3, 17760, Note_on_c, 0, 55, 53
3, 17976, Note_off_c, 0, 55, 64
3, 18000, Note_on_c, 0, 57, 48
3, 18216, Note_off_c, 0, 57, 64
3, 18240, Note_on_c, 0, 60, 57
3, 18456, Note_off_c, 0, 60, 64
3, 18480, Note_on_c, 0, 62, 51
3, 18696, Note_off_c, 0, 62, 64
3, 18720, Note_on_c, 0, 64, 45
3, 19152, Note_off_c, 0, 64, 64
3, 19200, Note_on_c, 0, 41, 64
3, 19238, Control_c, 0, 64, 0
3, 19258, Control_c, 0, 64, 83
3, 19416, Note_off_c, 0, 41, 64
3, 19440, Note_on_c, 0, 48, 58
3, 19656, Note_off_c, 0, 48, 64
3, 19680, Note_on_c, 0, 55, 53
3, 19896, Note_off_c, 0, 55, 64
3, 19920, Note_on_c, 0, 57, 47
3, 20136, Note_off_c, 0, 57, 64
3, 20160, Note_on_c, 0, 43, 55
3, 20198, Control_c, 0, 64, 0
3, 20218, Control_c, 0, 64, 82
3, 20376, Note_off_c, 0, 43, 64
3, 20400, Note_on_c, 0, 50, 50
3, 20616, Note_off_c, 0, 50, 64
3, 20640, Note_on_c, 0, 59, 45
3, 21072, Note_off_c, 0, 59, 64
3, 21120, Note_on_c, 0, 45, 66
3, 21178, Control_c, 0, 64, 0
3, 21206, Control_c, 0, 64, 86
3, 21336, Note_off_c, 0, 45, 64
3, 21360, Note_on_c, 0, 52, 59
3, 21576, Note_off_c, 0, 52, 64
3, 21600, Note_on_c, 0, 57, 53
3, 21816, Note_off_c, 0, 57, 64
3, 21840, Note_on_c, 0, 60, 46
3, 22296, Note_off_c, 0, 60, 64
3, 22320, Note_on_c, 0, 62, 49
3, 22536, Note_off_c, 0, 62, 64
3, 22560, Note_on_c, 0, 64, 41
3, 22992, Note_off_c, 0, 64, 64
3, 23040, Note_on_c, 0, 48, 64
3, 23059, Control_c, 0, 64, 0
3, 23088, Control_c, 0, 64, 74
3, 23256, Note_off_c, 0, 48, 64
3, 23280, Note_on_c, 0, 55, 59
3, 23496, Note_off_c, 0, 55, 64
3, 23520, Note_on_c, 0, 57, 54
3, 23736, Note_off_c, 0, 57, 64
3, 23760, Note_on_c, 0, 60, 48
3, 24216, Note_off_c, 0, 60, 64
3, 24240, Note_on_c, 0, 62, 47
3, 24456, Note_off_c, 0, 62, 64
3, 24480, Note_on_c, 0, 64, 43
3, 24912, Note_off_c, 0, 64, 64
3, 24960, Note_on_c, 0, 45, 63
3, 25008, Control_c, 0, 64, 0
3, 25027, Control_c, 0, 64, 75
3, 25176, Note_off_c, 0, 45, 64
3, 25200, Note_on_c, 0, 52, 57
3, 25416, Note_off_c, 0, 52, 64
3, 25440, Note_on_c, 0, 55, 51
3, 25656, Note_off_c, 0, 55, 64
3, 25680, Note_on_c, 0, 57, 45
3, 25896, Note_off_c, 0, 57, 64
3, 25920, Note_on_c, 0, 60, 54
3, 26136, Note_off_c, 0, 60, 64
3, 26160, Note_on_c, 0, 62, 49
3, 26376, Note_off_c, 0, 62, 64
3, 26400, Note_on_c, 0, 64, 44
3, 26832, Note_off_c, 0, 64, 64
3, 26880, Note_on_c, 0, 38, 64
3, 26918, Control_c, 0, 64, 0
3, 26937, Control_c, 0, 64, 73
3, 27096, Note_off_c, 0, 38, 64
3, 27120, Note_on_c, 0, 45, 57
3, 27336, Note_off_c, 0, 45, 64
3, 27360, Note_on_c, 0, 53, 49
3, 27792, Note_off_c, 0, 53, 64
3, 27840, Note_on_c, 0, 41, 64
3, 27878, Control_c, 0, 64, 0
3, 27888, Control_c, 0, 64, 76
3, 28056, Note_off_c, 0, 41, 64
3, 28080, Note_on_c, 0, 48, 56
3, 28296, Note_off_c, 0, 48, 64
3, 28320, Note_on_c, 0, 57, 49
3, 28752, Note_off_c, 0, 57, 64
3, 28800, Note_on_c, 0, 43, 63
3, 28838, Control_c, 0, 64, 0
3, 28867, Control_c, 0, 64, 75
3, 29016, Note_off_c, 0, 43, 64
3, 29040, Note_on_c, 0, 55, 56
3, 29256, Note_off_c, 0, 55, 64
3, 29280, Note_on_c, 0, 59, 48
3, 29712, Note_off_c, 0, 59, 64
3, 29721, Note_on_c, 0, 55, 65
3, 29760, Note_on_c, 0, 60, 65
3, 29808, Note_on_c, 0, 62, 65
3, 29846, Note_on_c, 0, 64, 65
3, 30431, Note_off_c, 0, 64, 64
3, 30451, Note_off_c, 0, 62, 64
3, 30499, Note_off_c, 0, 60, 64
3, 30537, Note_off_c, 0, 55, 64
3, 30720, Note_on_c, 0, 48, 64
3, 30768, Control_c, 0, 64, 0
3, 30787, Control_c, 0, 64, 81
3, 30936, Note_off_c, 0, 48, 64
3, 30960, Note_on_c, 0, 55, 59
3, 31176, Note_off_c, 0, 55, 64
3, 31200, Note_on_c, 0, 57, 54
3, 31416, Note_off_c, 0, 57, 64
3, 31440, Note_on_c, 0, 60, 49
3, 31896, Note_off_c, 0, 60, 64
3, 31920, Note_on_c, 0, 62, 50
3, 32136, Note_off_c, 0, 62, 64
3, 32160, Note_on_c, 0, 64, 44
3, 32592, Note_off_c, 0, 64, 64
3, 32640, Note_on_c, 0, 45, 64
3, 32678, Control_c, 0, 64, 0
3, 32698, Control_c, 0, 64, 83
3, 32856, Note_off_c, 0, 45, 64
3, 32880, Note_on_c, 0, 52, 59
3, 33096, Note_off_c, 0, 52, 64
3, 33120, Note_on_c, 0, 55, 53
3, 33336, Note_off_c, 0, 55, 64
3, 33360, Note_on_c, 0, 57, 48
3, 33576, Note_off_c, 0, 57, 64
3, 33600, Note_on_c, 0, 60, 57
3, 33816, Note_off_c, 0, 60, 64
3, 33840, Note_on_c, 0, 62, 51
3, 34056, Note_off_c, 0, 62, 64
3, 34080, Note_on_c, 0, 64, 45
3, 34512, Note_off_c, 0, 64, 64
3, 34560, Note_on_c, 0, 41, 64
3, 34598, Control_c, 0, 64, 0
3, 34618, Control_c, 0, 64, 83
3, 34776, Note_off_c, 0, 41, 64
3, 34800, Note_on_c, 0, 48, 58
3, 35016, Note_off_c, 0, 48, 64
3, 35040, Note_on_c, 0, 55, 53
3, 35256, Note_off_c, 0, 55, 64
3, 35280, Note_on_c, 0, 57, 47
3, 35496, Note_off_c, 0, 57, 64
3, 35520, Note_on_c, 0, 43, 55
3, 35558, Control_c, 0, 64, 0
3, 35578, Control_c, 0, 64, 82
3, 35736, Note_off_c, 0, 43, 64
3, 35760, Note_on_c, 0, 50, 50
3, 35976, Note_off_c, 0, 50, 64
3, 36000, Note_on_c, 0, 59, 45
3, 36432, Note_off_c, 0, 59, 64
3, 36480, Note_on_c, 0, 45, 66
3, 36538, Control_c, 0, 64, 0
3, 36566, Control_c, 0, 64, 86
3, 36696, Note_off_c, 0, 45, 64
3, 36720, Note_on_c, 0, 52, 59
3, 36936, Note_off_c, 0, 52, 64
3, 36960, Note_on_c, 0, 57, 53
3, 37176, Note_off_c, 0, 57, 64
3, 37200, Note_on_c, 0, 60, 46
3, 37656, Note_off_c, 0, 60, 64
3, 37680, Note_on_c, 0, 62, 49
3, 37896, Note_off_c, 0, 62, 64
3, 37920, Note_on_c, 0, 64, 41
3, 38352, Note_off_c, 0, 64, 64
3, 38400, Note_on_c, 0, 48, 64
3, 38419, Control_c, 0, 64, 0
3, 38448, Control_c, 0, 64, 74
3, 38616, Note_off_c, 0, 48, 64
3, 38640, Note_on_c, 0, 55, 59
3, 38856, Note_off_c, 0, 55, 64
3, 38880, Note_on_c, 0, 57, 54
3, 39096, Note_off_c, 0, 57, 64
3, 39120, Note_on_c, 0, 60, 48
3, 39576, Note_off_c, 0, 60, 64
3, 39600, Note_on_c, 0, 62, 47
3, 39816, Note_off_c, 0, 62, 64
3, 39840, Note_on_c, 0, 64, 43
3, 40272, Note_off_c, 0, 64, 64
3, 40320, Note_on_c, 0, 45, 63
3, 40368, Control_c, 0, 64, 0
3, 40387, Control_c, 0, 64, 75
3, 40536, Note_off_c, 0, 45, 64
3, 40560, Note_on_c, 0, 52, 57
3, 40776, Note_off_c, 0, 52, 64
3, 40800, Note_on_c, 0, 55, 51
3, 41016, Note_off_c, 0, 55, 64
3, 41040, Note_on_c, 0, 57, 45
3, 41256, Note_off_c, 0, 57, 64
3, 41280, Note_on_c, 0, 60, 54
3, 41496, Note_off_c, 0, 60, 64
3, 41520, Note_on_c, 0, 62, 49
3, 41736, Note_off_c, 0, 62, 64
3, 41760, Note_on_c, 0, 64, 44
3, 42192, Note_off_c, 0, 64, 64
3, 42240, Note_on_c, 0, 38, 64
3, 42278, Control_c, 0, 64, 0
3, 42297, Control_c, 0, 64, 73
3, 42456, Note_off_c, 0, 38, 64
3, 42480, Note_on_c, 0, 45, 57
3, 42696, Note_off_c, 0, 45, 64
3, 42720, Note_on_c, 0, 53, 49
3, 43152, Note_off_c, 0, 53, 64
3, 43200, Note_on_c, 0, 41, 64
3, 43238, Control_c, 0, 64, 0
3, 43248, Control_c, 0, 64, 76
3, 43416, Note_off_c, 0, 41, 64
3, 43440, Note_on_c, 0, 48, 56
3, 43656, Note_off_c, 0, 48, 64
3, 43680, Note_on_c, 0, 57, 49
3, 44112, Note_off_c, 0, 57, 64
3, 44160, Note_on_c, 0, 43, 64
3, 44198, Control_c, 0, 64, 0
3, 44217, Control_c, 0, 64, 73
3, 44376, Note_off_c, 0, 43, 64
3, 44400, Note_on_c, 0, 55, 57
3, 44616, Note_off_c, 0, 55, 64
3, 44640, Note_on_c, 0, 59, 50
3, 45072, Note_off_c, 0, 59, 64
3, 45082, Note_on_c, 0, 55, 64
3, 45120, Note_on_c, 0, 60, 64
3, 45168, Note_on_c, 0, 62, 64
3, 45216, Note_on_c, 0, 64, 64
3, 45946, Note_off_c, 0, 55, 64
3, 45984, Note_off_c, 0, 60, 64
3, 46032, Note_off_c, 0, 62, 64
3, 46080, Note_off_c, 0, 64, 64
3, 46080, Note_on_c, 0, 48, 64
3, 46109, Control_c, 0, 64, 0
3, 46137, Control_c, 0, 64, 73
3, 46296, Note_off_c, 0, 48, 64
3, 46320, Note_on_c, 0, 55, 59
3, 46536, Note_off_c, 0, 55, 64
3, 46560, Note_on_c, 0, 57, 54
3, 46776, Note_off_c, 0, 57, 64
3, 46800, Note_on_c, 0, 60, 49
3, 47256, Note_off_c, 0, 60, 64
3, 47280, Note_on_c, 0, 62, 50
3, 47496, Note_off_c, 0, 62, 64
3, 47520, Note_on_c, 0, 64, 45
3, 47952, Note_off_c, 0, 64, 64
3, 48000, Note_on_c, 0, 45, 64
3, 48028, Control_c, 0, 64, 0
3, 48048, Control_c, 0, 64, 75
3, 48216, Note_off_c, 0, 45, 64
3, 48240, Note_on_c, 0, 52, 58
3, 48456, Note_off_c, 0, 52, 64
3, 48480, Note_on_c, 0, 57, 52
3, 48696, Note_off_c, 0, 57, 64
3, 48720, Note_on_c, 0, 60, 46
3, 49176, Note_off_c, 0, 60, 64
3, 49200, Note_on_c, 0, 62, 48
3, 49416, Note_off_c, 0, 62, 64
3, 49440, Note_on_c, 0, 64, 43
3, 49872, Note_off_c, 0, 64, 64
3, 49920, Note_on_c, 0, 41, 64
3, 49968, Control_c, 0, 64, 0
3, 49987, Control_c, 0, 64, 73
3, 50136, Note_off_c, 0, 41, 64
3, 50160, Note_on_c, 0, 48, 59
3, 50376, Note_off_c, 0, 48, 64
3, 50400, Note_on_c, 0, 53, 53
3, 50616, Note_off_c, 0, 53, 64
3, 50640, Note_on_c, 0, 55, 48
3, 51096, Note_off_c, 0, 55, 64
3, 51120, Note_on_c, 0, 57, 50
3, 51336, Note_off_c, 0, 57, 64
3, 51360, Note_on_c, 0, 60, 45
3, 51792, Note_off_c, 0, 60, 64
3, 51840, Note_on_c, 0, 43, 65
3, 51878, Control_c, 0, 64, 0
3, 51907, Control_c, 0, 64, 75
3, 52056, Note_off_c, 0, 43, 64
3, 52080, Note_on_c, 0, 50, 60
3, 52296, Note_off_c, 0, 50, 64
3, 52320, Note_on_c, 0, 55, 55
3, 52536, Note_off_c, 0, 55, 64
3, 52560, Note_on_c, 0, 60, 49
3, 53016, Note_off_c, 0, 60, 64
3, 53040, Note_on_c, 0, 55, 49
3, 53256, Note_off_c, 0, 55, 64
3, 53280, Note_on_c, 0, 59, 45
3, 53712, Note_off_c, 0, 59, 64
3, 53760, Note_on_c, 0, 48, 63
3, 53808, Control_c, 0, 64, 0
3, 53836, Control_c, 0, 64, 73
3, 53976, Note_off_c, 0, 48, 64
3, 54000, Note_on_c, 0, 55, 58
3, 54216, Note_off_c, 0, 55, 64
3, 54240, Note_on_c, 0, 57, 53
3, 54456, Note_off_c, 0, 57, 64
3, 54480, Note_on_c, 0, 60, 48
3, 54936, Note_off_c, 0, 60, 64
3, 54960, Note_on_c, 0, 62, 51
3, 55176, Note_off_c, 0, 62, 64
3, 55200, Note_on_c, 0, 64, 45
3, 55632, Note_off_c, 0, 64, 64
3, 55680, Note_on_c, 0, 45, 66
3, 55747, Control_c, 0, 64, 0
3, 55776, Control_c, 0, 64, 72
3, 55896, Note_off_c, 0, 45, 64
3, 55920, Note_on_c, 0, 52, 60
3, 56136, Note_off_c, 0, 52, 64
3, 56160, Note_on_c, 0, 57, 54
3, 56376, Note_off_c, 0, 57, 64
3, 56400, Note_on_c, 0, 60, 48
3, 56856, Note_off_c, 0, 60, 64
3, 56880, Note_on_c, 0, 62, 51
3, 57096, Note_off_c, 0, 62, 64
3, 57120, Note_on_c, 0, 64, 44
3, 57552, Note_off_c, 0, 64, 64
3, 57600, Note_on_c, 0, 38, 64
3, 57638, Control_c, 0, 64, 0
3, 57667, Control_c, 0, 64, 75
3, 57816, Note_off_c, 0, 38, 64
3, 57840, Note_on_c, 0, 50, 57
3, 58056, Note_off_c, 0, 50, 64
3, 58080, Note_on_c, 0, 53, 50
3, 58512, Note_off_c, 0, 53, 64
3, 58560, Note_on_c, 0, 43, 64
3, 58588, Control_c, 0, 64, 0
3, 58608, Control_c, 0, 64, 78
3, 58776, Note_off_c, 0, 43, 64
3, 58800, Note_on_c, 0, 50, 57
3, 59016, Note_off_c, 0, 50, 64
3, 59040, Note_on_c, 0, 59, 50
3, 59472, Note_off_c, 0, 59, 64
3, 59520, Note_on_c, 0, 48, 64
3, 59548, Control_c, 0, 64, 0
3, 59558, Control_c, 0, 64, 73
3, 59736, Note_off_c, 0, 48, 64
3, 59760, Note_on_c, 0, 55, 59
3, 59976, Note_off_c, 0, 55, 64
3, 60000, Note_on_c, 0, 57, 55
3, 60216, Note_off_c, 0, 57, 64
3, 60240, Note_on_c, 0, 60, 51
3, 60456, Note_off_c, 0, 60, 64
3, 60480, Note_on_c, 0, 62, 55
3, 60696, Note_off_c, 0, 62, 64
3, 60720, Note_on_c, 0, 64, 50
3, 60936, Note_off_c, 0, 64, 64
3, 60960, Note_on_c, 0, 67, 45
3, 61392, Note_off_c, 0, 67, 64
3, 61440, Note_on_c, 0, 48, 63
3, 61459, Control_c, 0, 64, 105
3, 61656, Note_off_c, 0, 48, 64
3, 61680, Note_on_c, 0, 55, 60
3, 61896, Note_off_c, 0, 55, 64
3, 61920, Note_on_c, 0, 62, 56
3, 62136, Note_off_c, 0, 62, 64
3, 62160, Note_on_c, 0, 55, 52
3, 62376, Note_off_c, 0, 55, 64
3, 62400, Note_on_c, 0, 64, 48
3, 63264, Note_off_c, 0, 64, 64
3, 63360, Note_on_c, 0, 45, 64
3, 63389, Control_c, 0, 64, 0
3, 63418, Control_c, 0, 64, 100
3, 63576, Note_off_c, 0, 45, 64
3, 63600, Note_on_c, 0, 52, 60
3, 63816, Note_off_c, 0, 52, 64
3, 63840, Note_on_c, 0, 59, 56
3, 64056, Note_off_c, 0, 59, 64
3, 64080, Note_on_c, 0, 52, 52
3, 64296, Note_off_c, 0, 52, 64
3, 64320, Note_on_c, 0, 60, 49
3, 65184, Note_off_c, 0, 60, 64
3, 65280, Note_on_c, 0, 41, 64
3, 65328, Control_c, 0, 64, 0
3, 65357, Control_c, 0, 64, 99
3, 65496, Note_off_c, 0, 41, 64
3, 65520, Note_on_c, 0, 48, 60
3, 65736, Note_off_c, 0, 48, 64
3, 65760, Note_on_c, 0, 55, 56
3, 65976, Note_off_c, 0, 55, 64
3, 66000, Note_on_c, 0, 48, 51
3, 66216, Note_off_c, 0, 48, 64
3, 66240, Note_on_c, 0, 57, 47
3, 67104, Note_off_c, 0, 57, 64
3, 67200, Note_on_c, 0, 43, 67
3, 67238, Control_c, 0, 64, 0
3, 67267, Control_c, 0, 64, 99
3, 67416, Note_off_c, 0, 43, 64
3, 67440, Note_on_c, 0, 50, 60
3, 67656, Note_off_c, 0, 50, 64
3, 67680, Note_on_c, 0, 57, 55
3, 67896, Note_off_c, 0, 57, 64
3, 67920, Note_on_c, 0, 50, 51
3, 68136, Note_off_c, 0, 50, 64
3, 68160, Note_on_c, 0, 59, 47
3, 69024, Note_off_c, 0, 59, 64
3, 69120, Note_on_c, 0, 48, 65
3, 69139, Control_c, 0, 64, 0
3, 69168, Control_c, 0, 64, 99
3, 69336, Note_off_c, 0, 48, 64
3, 69360, Note_on_c, 0, 55, 61
3, 69576, Note_off_c, 0, 55, 64
3, 69600, Note_on_c, 0, 62, 57
3, 69816, Note_off_c, 0, 62, 64
3, 69840, Note_on_c, 0, 55, 53
3, 70056, Note_off_c, 0, 55, 64
3, 70080, Note_on_c, 0, 64, 49
3, 70944, Note_off_c, 0, 64, 64
3, 71040, Note_on_c, 0, 45, 66
3, 71088, Control_c, 0, 64, 0
3, 71107, Control_c, 0, 64, 100
3, 71256, Note_off_c, 0, 45, 64
3, 71280, Note_on_c, 0, 52, 58
3, 71496, Note_off_c, 0, 52, 64
3, 71520, Note_on_c, 0, 59, 50
3, 71736, Note_off_c, 0, 59, 64
3, 71760, Note_on_c, 0, 52, 42
3, 71976, Note_off_c, 0, 52, 64
3, 72000, Note_on_c, 0, 60, 34
3, 72864, Note_off_c, 0, 60, 64
3, 72960, Note_on_c, 0, 41, 65
3, 72989, Control_c, 0, 64, 0
3, 73008, Control_c, 0, 64, 84
3, 73176, Note_off_c, 0, 41, 64
3, 73200, Note_on_c, 0, 48, 61
3, 73416, Note_off_c, 0, 48, 64
3, 73440, Note_on_c, 0, 57, 57
3, 73656, Note_off_c, 0, 57, 64
3, 73680, Note_on_c, 0, 60, 53
3, 73896, Note_off_c, 0, 60, 64
3, 73920, Note_on_c, 0, 62, 49
3, 74784, Note_off_c, 0, 62, 64
3, 74880, Note_on_c, 0, 48, 64
3, 74928, Control_c, 0, 64, 0
3, 74957, Control_c, 0, 64, 79
3, 75096, Note_off_c, 0, 48, 64
3, 75120, Note_on_c, 0, 55, 61
3, 75336, Note_off_c, 0, 55, 64
3, 75360, Note_on_c, 0, 62, 57
3, 75576, Note_off_c, 0, 62, 64
3, 75600, Note_on_c, 0, 55, 54
3, 75816, Note_off_c, 0, 55, 64
3, 75840, Note_on_c, 0, 64, 50
3, 76704, Note_off_c, 0, 64, 64
3, 76800, Note_on_c, 0, 48, 64
3, 76848, Control_c, 0, 64, 0
3, 76867, Control_c, 0, 64, 81
3, 77016, Note_off_c, 0, 48, 64
3, 77040, Note_on_c, 0, 55, 59
3, 77256, Note_off_c, 0, 55, 64
3, 77280, Note_on_c, 0, 57, 54
3, 77496, Note_off_c, 0, 57, 64
3, 77520, Note_on_c, 0, 60, 49
3, 77976, Note_off_c, 0, 60, 64
3, 78000, Note_on_c, 0, 62, 50
3, 78216, Note_off_c, 0, 62, 64
3, 78240, Note_on_c, 0, 64, 44
3, 78672, Note_off_c, 0, 64, 64
3, 78720, Note_on_c, 0, 45, 64
3, 78758, Control_c, 0, 64, 0
3, 78778, Control_c, 0, 64, 83
3, 78936, Note_off_c, 0, 45, 64
3, 78960, Note_on_c, 0, 52, 59
3, 79176, Note_off_c, 0, 52, 64
3, 79200, Note_on_c, 0, 55, 53
3, 79416, Note_off_c, 0, 55, 64
3, 79440, Note_on_c, 0, 57, 48
3, 79656, Note_off_c, 0, 57, 64
3, 79680, Note_on_c, 0, 60, 57
3, 79896, Note_off_c, 0, 60, 64
3, 79920, Note_on_c, 0, 62, 51
3, 80136, Note_off_c, 0, 62, 64
3, 80160, Note_on_c, 0, 64, 45
3, 80592, Note_off_c, 0, 64, 64
3, 80640, Note_on_c, 0, 41, 64
3, 80678, Control_c, 0, 64, 0
3, 80698, Control_c, 0, 64, 83
3, 80856, Note_off_c, 0, 41, 64
3, 80880, Note_on_c, 0, 48, 58
3, 81096, Note_off_c, 0, 48, 64
3, 81120, Note_on_c, 0, 55, 53
3, 81336, Note_off_c, 0, 55, 64
3, 81360, Note_on_c, 0, 57, 47
3, 81576, Note_off_c, 0, 57, 64
3, 81600, Note_on_c, 0, 43, 55
3, 81638, Control_c, 0, 64, 0
3, 81658, Control_c, 0, 64, 82
3, 81816, Note_off_c, 0, 43, 64
3, 81840, Note_on_c, 0, 50, 50
3, 82056, Note_off_c, 0, 50, 64
3, 82080, Note_on_c, 0, 59, 45
3, 82512, Note_off_c, 0, 59, 64
3, 82560, Note_on_c, 0, 45, 66
3, 82618, Control_c, 0, 64, 0
3, 82646, Control_c, 0, 64, 86
3, 82776, Note_off_c, 0, 45, 64
3, 82800, Note_on_c, 0, 52, 59
3, 83016, Note_off_c, 0, 52, 64
3, 83040, Note_on_c, 0, 57, 53
3, 83256, Note_off_c, 0, 57, 64
3, 83280, Note_on_c, 0, 60, 46
3, 83736, Note_off_c, 0, 60, 64
3, 83760, Note_on_c, 0, 62, 49
3, 83976, Note_off_c, 0, 62, 64
3, 84000, Note_on_c, 0, 64, 41
3, 84432, Note_off_c, 0, 64, 64
3, 84480, Note_on_c, 0, 48, 64
3, 84499, Control_c, 0, 64, 0
3, 84528, Control_c, 0, 64, 74
3, 84696, Note_off_c, 0, 48, 64
3, 84720, Note_on_c, 0, 55, 59
3, 84936, Note_off_c, 0, 55, 64
3, 84960, Note_on_c, 0, 57, 54
3, 85176, Note_off_c, 0, 57, 64
3, 85200, Note_on_c, 0, 60, 48
3, 85656, Note_off_c, 0, 60, 64
3, 85680, Note_on_c, 0, 62, 47
3, 85896, Note_off_c, 0, 62, 64
3, 85920, Note_on_c, 0, 64, 43
3, 86352, Note_off_c, 0, 64, 64
3, 86400, Note_on_c, 0, 45, 63
3, 86448, Control_c, 0, 64, 0
3, 86467, Control_c, 0, 64, 75
3, 86616, Note_off_c, 0, 45, 64
3, 86640, Note_on_c, 0, 52, 57
3, 86856, Note_off_c, 0, 52, 64
3, 86880, Note_on_c, 0, 55, 51
3, 87096, Note_off_c, 0, 55, 64
3, 87120, Note_on_c, 0, 57, 45
3, 87336, Note_off_c, 0, 57, 64
3, 87360, Note_on_c, 0, 60, 54
3, 87576, Note_off_c, 0, 60, 64
3, 87600, Note_on_c, 0, 62, 49
3, 87816, Note_off_c, 0, 62, 64
3, 87840, Note_on_c, 0, 64, 44
3, 88272, Note_off_c, 0, 64, 64
3, 88320, Note_on_c, 0, 38, 64
3, 88358, Control_c, 0, 64, 0
3, 88377, Control_c, 0, 64, 73
3, 88536, Note_off_c, 0, 38, 64
3, 88560, Note_on_c, 0, 45, 57
3, 88776, Note_off_c, 0, 45, 64
3, 88800, Note_on_c, 0, 53, 49
3, 89232, Note_off_c, 0, 53, 64
3, 89280, Note_on_c, 0, 41, 64
3, 89318, Control_c, 0, 64, 0
3, 89328, Control_c, 0, 64, 76
3, 89496, Note_off_c, 0, 41, 64
3, 89520, Note_on_c, 0, 48, 56
3, 89736, Note_off_c, 0, 48, 64
3, 89760, Note_on_c, 0, 57, 49
3, 90192, Note_off_c, 0, 57, 64
3, 90240, Note_on_c, 0, 43, 64
3, 90278, Control_c, 0, 64, 0
3, 90297, Control_c, 0, 64, 73
3, 90456, Note_off_c, 0, 43, 64
3, 90480, Note_on_c, 0, 55, 57
3, 90696, Note_off_c, 0, 55, 64
3, 90720, Note_on_c, 0, 59, 50
3, 91152, Note_off_c, 0, 59, 64
3, 91162, Note_on_c, 0, 55, 64
3, 91200, Note_on_c, 0, 60, 64
3, 91248, Note_on_c, 0, 62, 64
3, 91296, Note_on_c, 0, 64, 64
3, 92026, Note_off_c, 0, 55, 64
3, 92064, Note_off_c, 0, 60, 64
3, 92112, Note_off_c, 0, 62, 64
3, 92160, Note_off_c, 0, 64, 64
3, 92160, Note_on_c, 0, 48, 64
3, 92189, Control_c, 0, 64, 0
3, 92217, Control_c, 0, 64, 73
3, 92376, Note_off_c, 0, 48, 64
3, 92400, Note_on_c, 0, 55, 59
3, 92616, Note_off_c, 0, 55, 64
3, 92640, Note_on_c, 0, 57, 54
3, 92856, Note_off_c, 0, 57, 64
3, 92880, Note_on_c, 0, 60, 49
3, 93336, Note_off_c, 0, 60, 64
3, 93360, Note_on_c, 0, 62, 50
3, 93576, Note_off_c, 0, 62, 64
3, 93600, Note_on_c, 0, 64, 45
3, 94032, Note_off_c, 0, 64, 64
3, 94080, Note_on_c, 0, 45, 64
3, 94108, Control_c, 0, 64, 0
3, 94128, Control_c, 0, 64, 75
3, 94296, Note_off_c, 0, 45, 64
3, 94320, Note_on_c, 0, 52, 58
3, 94536, Note_off_c, 0, 52, 64
3, 94560, Note_on_c, 0, 57, 52
3, 94776, Note_off_c, 0, 57, 64
3, 94800, Note_on_c, 0, 60, 46
3, 95256, Note_off_c, 0, 60, 64
3, 95280, Note_on_c, 0, 62, 48
3, 95496, Note_off_c, 0, 62, 64
3, 95520, Note_on_c, 0, 64, 43
3, 95952, Note_off_c, 0, 64, 64
3, 96000, Note_on_c, 0, 41, 64
3, 96048, Control_c, 0, 64, 0
3, 96067, Control_c, 0, 64, 73
3, 96216, Note_off_c, 0, 41, 64
3, 96240, Note_on_c, 0, 48, 59
3, 96456, Note_off_c, 0, 48, 64
3, 96480, Note_on_c, 0, 53, 53
3, 96696, Note_off_c, 0, 53, 64
3, 96720, Note_on_c, 0, 55, 48
3, 97176, Note_off_c, 0, 55, 64
3, 97200, Note_on_c, 0, 57, 50
3, 97416, Note_off_c, 0, 57, 64
3, 97440, Note_on_c, 0, 60, 45
3, 97872, Note_off_c, 0, 60, 64
3, 97920, Note_on_c, 0, 43, 65
3, 97958, Control_c, 0, 64, 0
3, 97987, Control_c, 0, 64, 75
3, 98136, Note_off_c, 0, 43, 64
3, 98160, Note_on_c, 0, 50, 60
3, 98376, Note_off_c, 0, 50, 64
3, 98400, Note_on_c, 0, 55, 55
3, 98616, Note_off_c, 0, 55, 64
3, 98640, Note_on_c, 0, 60, 49
3, 99096, Note_off_c, 0, 60, 64
3, 99120, Note_on_c, 0, 55, 49
3, 99336, Note_off_c, 0, 55, 64
3, 99360, Note_on_c, 0, 59, 45
3, 99792, Note_off_c, 0, 59, 64
3, 99840, Note_on_c, 0, 48, 63
3, 99888, Control_c, 0, 64, 0
3, 99916, Control_c, 0, 64, 73
3, 100056, Note_off_c, 0, 48, 64
3, 100080, Note_on_c, 0, 55, 58
3, 100296, Note_off_c, 0, 55, 64
3, 100320, Note_on_c, 0, 57, 53
3, 100536, Note_off_c, 0, 57, 64
3, 100560, Note_on_c, 0, 60, 48
3, 101016, Note_off_c, 0, 60, 64
3, 101040, Note_on_c, 0, 62, 51
3, 101256, Note_off_c, 0, 62, 64
3, 101280, Note_on_c, 0, 64, 45
3, 101712, Note_off_c, 0, 64, 64
3, 101760, Note_on_c, 0, 45, 66
3, 101827, Control_c, 0, 64, 0
3, 101856, Control_c, 0, 64, 72
3, 101976, Note_off_c, 0, 45, 64
3, 102000, Note_on_c, 0, 52, 60
3, 102216, Note_off_c, 0, 52, 64
3, 102240, Note_on_c, 0, 57, 54
3, 102456, Note_off_c, 0, 57, 64
3, 102480, Note_on_c, 0, 60, 48
3, 102936, Note_off_c, 0, 60, 64
3, 102960, Note_on_c, 0, 62, 51
3, 103176, Note_off_c, 0, 62, 64
3, 103200, Note_on_c, 0, 64, 44
3, 103632, Note_off_c, 0, 64, 64
3, 103680, Note_on_c, 0, 38, 64
3, 103718, Control_c, 0, 64, 0
3, 103747, Control_c, 0, 64, 75
3, 103896, Note_off_c, 0, 38, 64
3, 103920, Note_on_c, 0, 50, 57
3, 104136, Note_off_c, 0, 50, 64
3, 104160, Note_on_c, 0, 53, 50
3, 104592, Note_off_c, 0, 53, 64
3, 104640, Note_on_c, 0, 43, 64
3, 104668, Control_c, 0, 64, 0
3, 104688, Control_c, 0, 64, 78
3, 104856, Note_off_c, 0, 43, 64
3, 104880, Note_on_c, 0, 50, 57
3, 105096, Note_off_c, 0, 50, 64
3, 105120, Note_on_c, 0, 59, 50
3, 105552, Note_off_c, 0, 59, 64
3, 105600, Note_on_c, 0, 48, 64
3, 105628, Control_c, 0, 64, 0
3, 105638, Control_c, 0, 64, 73
3, 105816, Note_off_c, 0, 48, 64
3, 105840, Note_on_c, 0, 55, 59
3, 106056, Note_off_c, 0, 55, 64
3, 106080, Note_on_c, 0, 57, 55
3, 106296, Note_off_c, 0, 57, 64
3, 106320, Note_on_c, 0, 60, 51
3, 106536, Note_off_c, 0, 60, 64
3, 106560, Note_on_c, 0, 62, 55
3, 106776, Note_off_c, 0, 62, 64
3, 106800, Note_on_c, 0, 64, 50
3, 107016, Note_off_c, 0, 64, 64
3, 107040, Note_on_c, 0, 67, 45
3, 107472, Note_off_c, 0, 67, 64
3, 107520, Note_on_c, 0, 48, 65
3, 107558, Control_c, 0, 64, 0
3, 107606, Control_c, 0, 64, 77
3, 107736, Note_off_c, 0, 48, 64
3, 107760, Note_on_c, 0, 55, 59
3, 107976, Note_off_c, 0, 55, 64
3, 108000, Note_on_c, 0, 57, 54
3, 108216, Note_off_c, 0, 57, 64
3, 108240, Note_on_c, 0, 60, 49
3, 108456, Note_off_c, 0, 60, 64
3, 108480, Note_on_c, 0, 62, 57
3, 108696, Note_off_c, 0, 62, 64
3, 108720, Note_on_c, 0, 64, 51
3, 108936, Note_off_c, 0, 64, 64
3, 108960, Note_on_c, 0, 67, 45
3, 109392, Note_off_c, 0, 67, 64
3, 109440, Note_on_c, 0, 45, 64
3, 109497, Control_c, 0, 64, 0
3, 109507, Control_c, 0, 64, 78
3, 109656, Note_off_c, 0, 45, 64
3, 109680, Note_on_c, 0, 52, 59
3, 109896, Note_off_c, 0, 52, 64
3, 109920, Note_on_c, 0, 55, 53
3, 110136, Note_off_c, 0, 55, 64
3, 110160, Note_on_c, 0, 57, 48
3, 110376, Note_off_c, 0, 57, 64
3, 110400, Note_on_c, 0, 60, 57
3, 110616, Note_off_c, 0, 60, 64
3, 110640, Note_on_c, 0, 62, 51
3, 110856, Note_off_c, 0, 62, 64
3, 110880, Note_on_c, 0, 64, 45
3, 111312, Note_off_c, 0, 64, 64
3, 111360, Note_on_c, 0, 41, 63
3, 111388, Control_c, 0, 64, 0
3, 111417, Control_c, 0, 64, 76
3, 111576, Note_off_c, 0, 41, 64
3, 111600, Note_on_c, 0, 48, 58
3, 111816, Note_off_c, 0, 48, 64
3, 111840, Note_on_c, 0, 53, 53
3, 112056, Note_off_c, 0, 53, 64
3, 112080, Note_on_c, 0, 55, 48
3, 112296, Note_off_c, 0, 55, 64
3, 112320, Note_on_c, 0, 57, 57
3, 112536, Note_off_c, 0, 57, 64
3, 112560, Note_on_c, 0, 60, 51
3, 112776, Note_off_c, 0, 60, 64
3, 112800, Note_on_c, 0, 62, 45
3, 113232, Note_off_c, 0, 62, 64
3, 113280, Note_on_c, 0, 43, 63
3, 113327, Control_c, 0, 64, 0
3, 113356, Control_c, 0, 64, 80
3, 113496, Note_off_c, 0, 43, 64
3, 113520, Note_on_c, 0, 50, 58
3, 113736, Note_off_c, 0, 50, 64
3, 113760, Note_on_c, 0, 55, 53
3, 113976, Note_off_c, 0, 55, 64
3, 114000, Note_on_c, 0, 57, 48
3, 114216, Note_off_c, 0, 57, 64
3, 114240, Note_on_c, 0, 60, 56
3, 114456, Note_off_c, 0, 60, 64
3, 114480, Note_on_c, 0, 62, 50
3, 114696, Note_off_c, 0, 62, 64
3, 114720, Note_on_c, 0, 67, 43
3, 115152, Note_off_c, 0, 67, 64
3, 115200, Note_on_c, 0, 48, 63
3, 115228, Control_c, 0, 64, 0
3, 115247, Control_c, 0, 64, 80
3, 115416, Note_off_c, 0, 48, 64
3, 115440, Note_on_c, 0, 55, 58
3, 115656, Note_off_c, 0, 55, 64
3, 115680, Note_on_c, 0, 57, 53
3, 115896, Note_off_c, 0, 57, 64
3, 115920, Note_on_c, 0, 60, 48
3, 116136, Note_off_c, 0, 60, 64
3, 116160, Note_on_c, 0, 62, 55
3, 116376, Note_off_c, 0, 62, 64
3, 116400, Note_on_c, 0, 64, 50
3, 116616, Note_off_c, 0, 64, 64
3, 116640, Note_on_c, 0, 67, 45
3, 117072, Note_off_c, 0, 67, 64
3, 117120, Note_on_c, 0, 45, 64
3, 117158, Control_c, 0, 64, 0
3, 117196, Control_c, 0, 64, 76
3, 117336, Note_off_c, 0, 45, 64
3, 117360, Note_on_c, 0, 52, 59
3, 117576, Note_off_c, 0, 52, 64
3, 117600, Note_on_c, 0, 57, 55
3, 117816, Note_off_c, 0, 57, 64
3, 117840, Note_on_c, 0, 59, 50
3, 118056, Note_off_c, 0, 59, 64
3, 118080, Note_on_c, 0, 60, 54
3, 118296, Note_off_c, 0, 60, 64
3, 118320, Note_on_c, 0, 62, 49
3, 118536, Note_off_c, 0, 62, 64
3, 118560, Note_on_c, 0, 64, 44
3, 118992, Note_off_c, 0, 64, 64
3, 119040, Note_on_c, 0, 41, 63
3, 119078, Control_c, 0, 64, 0
3, 119097, Control_c, 0, 64, 78
3, 119256, Note_off_c, 0, 41, 64
3, 119280, Note_on_c, 0, 48, 58
3, 119496, Note_off_c, 0, 48, 64
3, 119520, Note_on_c, 0, 53, 52
3, 119736, Note_off_c, 0, 53, 64
3, 119760, Note_on_c, 0, 55, 47
3, 119976, Note_off_c, 0, 55, 64
3, 120000, Note_on_c, 0, 57, 54
3, 120216, Note_off_c, 0, 57, 64
3, 120240, Note_on_c, 0, 60, 49
3, 120456, Note_off_c, 0, 60, 64
3, 120480, Note_on_c, 0, 62, 45
3, 120912, Note_off_c, 0, 62, 64
3, 120960, Note_on_c, 0, 48, 64
3, 120988, Control_c, 0, 64, 0
3, 121007, Control_c, 0, 64, 76
3, 121176, Note_off_c, 0, 48, 64
3, 121200, Note_on_c, 0, 55, 59
3, 121416, Note_off_c, 0, 55, 64
3, 121440, Note_on_c, 0, 57, 54
3, 121656, Note_off_c, 0, 57, 64
3, 121680, Note_on_c, 0, 60, 49
3, 121896, Note_off_c, 0, 60, 64
3, 121920, Note_on_c, 0, 62, 59
3, 122136, Note_off_c, 0, 62, 64
3, 122160, Note_on_c, 0, 64, 53
3, 122376, Note_off_c, 0, 64, 64
3, 122400, Note_on_c, 0, 67, 47
3, 122832, Note_off_c, 0, 67, 64
3, 122880, Note_on_c, 0, 48, 62
3, 122927, Control_c, 0, 64, 0
3, 122946, Control_c, 0, 64, 76
3, 123096, Note_off_c, 0, 48, 64
3, 123120, Note_on_c, 0, 55, 57
3, 123336, Note_off_c, 0, 55, 64
3, 123360, Note_on_c, 0, 57, 52
3, 123576, Note_off_c, 0, 57, 64
3, 123600, Note_on_c, 0, 60, 47
3, 124056, Note_off_c, 0, 60, 64
3, 124080, Note_on_c, 0, 62, 51
3, 124296, Note_off_c, 0, 62, 64
3, 124320, Note_on_c, 0, 64, 46
3, 124752, Note_off_c, 0, 64, 64
3, 124800, Note_on_c, 0, 45, 63
3, 124847, Control_c, 0, 64, 0
3, 124857, Control_c, 0, 64, 75
3, 125016, Note_off_c, 0, 45, 64
3, 125040, Note_on_c, 0, 52, 57
3, 125256, Note_off_c, 0, 52, 64
3, 125280, Note_on_c, 0, 57, 52
3, 125496, Note_off_c, 0, 57, 64
3, 125520, Note_on_c, 0, 60, 46
3, 125976, Note_off_c, 0, 60, 64
3, 126000, Note_on_c, 0, 62, 53
3, 126216, Note_off_c, 0, 62, 64
3, 126240, Note_on_c, 0, 64, 46
3, 126672, Note_off_c, 0, 64, 64
3, 126720, Note_on_c, 0, 41, 64
3, 126738, Control_c, 0, 64, 0
3, 126767, Control_c, 0, 64, 76
3, 126936, Note_off_c, 0, 41, 64
3, 126960, Note_on_c, 0, 48, 59
3, 127176, Note_off_c, 0, 48, 64
3, 127200, Note_on_c, 0, 53, 53
3, 127416, Note_off_c, 0, 53, 64
3, 127440, Note_on_c, 0, 55, 48
3, 127896, Note_off_c, 0, 55, 64
3, 127920, Note_on_c, 0, 57, 50
3, 128136, Note_off_c, 0, 57, 64
3, 128160, Note_on_c, 0, 60, 45
3, 128592, Note_off_c, 0, 60, 64
3, 128640, Note_on_c, 0, 43, 64
3, 128678, Control_c, 0, 64, 0
3, 128706, Control_c, 0, 64, 74
3, 128856, Note_off_c, 0, 43, 64
3, 128880, Note_on_c, 0, 50, 59
3, 129096, Note_off_c, 0, 50, 64
3, 129120, Note_on_c, 0, 55, 54
3, 129336, Note_off_c, 0, 55, 64
3, 129360, Note_on_c, 0, 60, 49
3, 129816, Note_off_c, 0, 60, 64
3, 129840, Note_on_c, 0, 55, 51
3, 130056, Note_off_c, 0, 55, 64
3, 130080, Note_on_c, 0, 59, 44
3, 130512, Note_off_c, 0, 59, 64
3, 130560, Note_on_c, 0, 48, 63
3, 130598, Control_c, 0, 64, 0
3, 130617, Control_c, 0, 64, 80
3, 130776, Note_off_c, 0, 48, 64
3, 130800, Note_on_c, 0, 55, 59
3, 131016, Note_off_c, 0, 55, 64
3, 131040, Note_on_c, 0, 57, 54
3, 131256, Note_off_c, 0, 57, 64
3, 131280, Note_on_c, 0, 60, 50
3, 131736, Note_off_c, 0, 60, 64
3, 131760, Note_on_c, 0, 62, 51
3, 131976, Note_off_c, 0, 62, 64
3, 132000, Note_on_c, 0, 64, 47
3, 132432, Note_off_c, 0, 64, 64
3, 132480, Note_on_c, 0, 45, 65
3, 132518, Control_c, 0, 64, 0
3, 132546, Control_c, 0, 64, 76
3, 132696, Note_off_c, 0, 45, 64
3, 132720, Note_on_c, 0, 52, 60
3, 132936, Note_off_c, 0, 52, 64
3, 132960, Note_on_c, 0, 57, 54
3, 133176, Note_off_c, 0, 57, 64
3, 133200, Note_on_c, 0, 60, 48
3, 133656, Note_off_c, 0, 60, 64
3, 133680, Note_on_c, 0, 62, 49
3, 133896, Note_off_c, 0, 62, 64
3, 133920, Note_on_c, 0, 64, 45
3, 134352, Note_off_c, 0, 64, 64
3, 134400, Note_on_c, 0, 38, 63
3, 134447, Control_c, 0, 64, 0
3, 134466, Control_c, 0, 64, 71
3, 134616, Note_off_c, 0, 38, 64
3, 134640, Note_on_c, 0, 50, 55
3, 134856, Note_off_c, 0, 50, 64
3, 134880, Note_on_c, 0, 53, 48
3, 135312, Note_off_c, 0, 53, 64
3, 135360, Note_on_c, 0, 43, 65
3, 135397, Control_c, 0, 64, 0
3, 135445, Control_c, 0, 64, 72
3, 135576, Note_off_c, 0, 43, 64
3, 135600, Note_on_c, 0, 50, 58
3, 135816, Note_off_c, 0, 50, 64
3, 135840, Note_on_c, 0, 59, 51
3, 136272, Note_off_c, 0, 59, 64
3, 136320, Note_on_c, 0, 48, 64
3, 136348, Control_c, 0, 64, 0
3, 136377, Control_c, 0, 64, 74
3, 136536, Note_off_c, 0, 48, 64
3, 136560, Note_on_c, 0, 55, 58
3, 136776, Note_off_c, 0, 55, 64
3, 136800, Note_on_c, 0, 57, 52
3, 137016, Note_off_c, 0, 57, 64
3, 137040, Note_on_c, 0, 60, 47
3, 137256, Note_off_c, 0, 60, 64
3, 137280, Note_on_c, 0, 62, 57
3, 137496, Note_off_c, 0, 62, 64
3, 137520, Note_on_c, 0, 64, 51
3, 137736, Note_off_c, 0, 64, 64
3, 137760, Note_on_c, 0, 67, 45
3, 138192, Note_off_c, 0, 67, 64
3, 138240, Note_on_c, 0, 48, 62
3, 138287, Control_c, 0, 64, 0
3, 138306, Control_c, 0, 64, 76
3, 138456, Note_off_c, 0, 48, 64
3, 138480, Note_on_c, 0, 55, 57
3, 138696, Note_off_c, 0, 55, 64
3, 138720, Note_on_c, 0, 57, 52
3, 138936, Note_off_c, 0, 57, 64
3, 138960, Note_on_c, 0, 60, 47
3, 139416, Note_off_c, 0, 60, 64
3, 139440, Note_on_c, 0, 62, 51
3, 139656, Note_off_c, 0, 62, 64
3, 139680, Note_on_c, 0, 64, 46
3, 140112, Note_off_c, 0, 64, 64
3, 140160, Note_on_c, 0, 45, 63
3, 140207, Control_c, 0, 64, 0
3, 140217, Control_c, 0, 64, 75
3, 140376, Note_off_c, 0, 45, 64
3, 140400, Note_on_c, 0, 52, 57
3, 140616, Note_off_c, 0, 52, 64
3, 140640, Note_on_c, 0, 57, 52
3, 140856, Note_off_c, 0, 57, 64
3, 140880, Note_on_c, 0, 60, 46
3, 141336, Note_off_c, 0, 60, 64
3, 141360, Note_on_c, 0, 62, 53
3, 141576, Note_off_c, 0, 62, 64
3, 141600, Note_on_c, 0, 64, 46
3, 142032, Note_off_c, 0, 64, 64
3, 142080, Note_on_c, 0, 41, 64
3, 142098, Control_c, 0, 64, 0
3, 142127, Control_c, 0, 64, 76
3, 142296, Note_off_c, 0, 41, 64
3, 142320, Note_on_c, 0, 48, 59
3, 142536, Note_off_c, 0, 48, 64
3, 142560, Note_on_c, 0, 53, 53
3, 142776, Note_off_c, 0, 53, 64
3, 142800, Note_on_c, 0, 55, 48
3, 143256, Note_off_c, 0, 55, 64
3, 143280, Note_on_c, 0, 57, 50
3, 143496, Note_off_c, 0, 57, 64
3, 143520, Note_on_c, 0, 60, 45
3, 143952, Note_off_c, 0, 60, 64
3, 144000, Note_on_c, 0, 43, 64
3, 144038, Control_c, 0, 64, 0
3, 144066, Control_c, 0, 64, 74
3, 144216, Note_off_c, 0, 43, 64
3, 144240, Note_on_c, 0, 50, 59
3, 144456, Note_off_c, 0, 50, 64
3, 144480, Note_on_c, 0, 55, 54
3, 144696, Note_off_c, 0, 55, 64
3, 144720, Note_on_c, 0, 60, 49
3, 145176, Note_off_c, 0, 60, 64
3, 145200, Note_on_c, 0, 55, 51
3, 145416, Note_off_c, 0, 55, 64
3, 145440, Note_on_c, 0, 59, 44
3, 145872, Note_off_c, 0, 59, 64
3, 145920, Note_on_c, 0, 48, 63
3, 145958, Control_c, 0, 64, 0
3, 145977, Control_c, 0, 64, 80
3, 146136, Note_off_c, 0, 48, 64
3, 146160, Note_on_c, 0, 55, 59
3, 146376, Note_off_c, 0, 55, 64
3, 146400, Note_on_c, 0, 57, 54
3, 146616, Note_off_c, 0, 57, 64
3, 146640, Note_on_c, 0, 60, 50
3, 147096, Note_off_c, 0, 60, 64
3, 147120, Note_on_c, 0, 62, 51
3, 147336, Note_off_c, 0, 62, 64
3, 147360, Note_on_c, 0, 64, 47
3, 147792, Note_off_c, 0, 64, 64
3, 147840, Note_on_c, 0, 45, 65
3, 147878, Control_c, 0, 64, 0
3, 147906, Control_c, 0, 64, 76
3, 148056, Note_off_c, 0, 45, 64
3, 148080, Note_on_c, 0, 52, 60
3, 148296, Note_off_c, 0, 52, 64
3, 148320, Note_on_c, 0, 57, 54
3, 148536, Note_off_c, 0, 57, 64
3, 148560, Note_on_c, 0, 60, 48
3, 149016, Note_off_c, 0, 60, 64
3, 149040, Note_on_c, 0, 62, 49
3, 149256, Note_off_c, 0, 62, 64
3, 149280, Note_on_c, 0, 64, 45
3, 149712, Note_off_c, 0, 64, 64
3, 149760, Note_on_c, 0, 38, 63
3, 149807, Control_c, 0, 64, 0
3, 149826, Control_c, 0, 64, 71
3, 149976, Note_off_c, 0, 38, 64
3, 150000, Note_on_c, 0, 50, 55
3, 150216, Note_off_c, 0, 50, 64
3, 150240, Note_on_c, 0, 53, 48
3, 150672, Note_off_c, 0, 53, 64
3, 150720, Note_on_c, 0, 43, 65
3, 150757, Control_c, 0, 64, 0
3, 150805, Control_c, 0, 64, 72
3, 150936, Note_off_c, 0, 43, 64
3, 150960, Note_on_c, 0, 50, 58
3, 151176, Note_off_c, 0, 50, 64
3, 151200, Note_on_c, 0, 59, 51
3, 151632, Note_off_c, 0, 59, 64
3, 151680, Note_on_c, 0, 48, 64
3, 151708, Control_c, 0, 64, 0
3, 151737, Control_c, 0, 64, 74
3, 151896, Note_off_c, 0, 48, 64
3, 151920, Note_on_c, 0, 55, 58
3, 152136, Note_off_c, 0, 55, 64
3, 152160, Note_on_c, 0, 57, 52
3, 152376, Note_off_c, 0, 57, 64
3, 152400, Note_on_c, 0, 60, 47
3, 152616, Note_off_c, 0, 60, 64
3, 152640, Note_on_c, 0, 62, 57
3, 152856, Note_off_c, 0, 62, 64
3, 152880, Note_on_c, 0, 64, 51
3, 153096, Note_off_c, 0, 64, 64
3, 153120, Note_on_c, 0, 67, 45
3, 153552, Note_off_c, 0, 67, 64
3, 153600, Note_on_c, 0, 60, 63
3, 153628, Control_c, 0, 64, 0
3, 153657, Control_c, 0, 64, 74
3, 153816, Note_off_c, 0, 60, 64
3, 153840, Note_on_c, 0, 67, 58
3, 154056, Note_off_c, 0, 67, 64
3, 154080, Note_on_c, 0, 74, 53
3, 154296, Note_off_c, 0, 74, 64
3, 154320, Note_on_c, 0, 67, 48
3, 154536, Note_off_c, 0, 67, 64
3, 154560, Note_on_c, 0, 76, 59
3, 155424, Note_off_c, 0, 76, 64
3, 155520, Note_on_c, 0, 57, 64
3, 155567, Control_c, 0, 64, 0
3, 155586, Control_c, 0, 64, 83
3, 155736, Note_off_c, 0, 57, 64
3, 155760, Note_on_c, 0, 64, 59
3, 155976, Note_off_c, 0, 64, 64
3, 156000, Note_on_c, 0, 71, 54
3, 156216, Note_off_c, 0, 71, 64
3, 156240, Note_on_c, 0, 64, 49
3, 156456, Note_off_c, 0, 64, 64
3, 156480, Note_on_c, 0, 72, 57
3, 157344, Note_off_c, 0, 72, 64
3, 157440, Note_on_c, 0, 53, 64
3, 157468, Control_c, 0, 64, 0
3, 157477, Control_c, 0, 64, 79
3, 157656, Note_off_c, 0, 53, 64
3, 157680, Note_on_c, 0, 60, 61
3, 157896, Note_off_c, 0, 60, 64
3, 157920, Note_on_c, 0, 67, 58
3, 158136, Note_off_c, 0, 67, 64
3, 158160, Note_on_c, 0, 60, 55
3, 158376, Note_off_c, 0, 60, 64
3, 158400, Note_on_c, 0, 69, 58
3, 159264, Note_off_c, 0, 69, 64
3, 159360, Note_on_c, 0, 55, 64
3, 159397, Control_c, 0, 64, 0
3, 159426, Control_c, 0, 64, 77
3, 159576, Note_off_c, 0, 55, 64
3, 159600, Note_on_c, 0, 62, 61
3, 159816, Note_off_c, 0, 62, 64
3, 159840, Note_on_c, 0, 69, 57
3, 160056, Note_off_c, 0, 69, 64
3, 160080, Note_on_c, 0, 62, 53
3, 160296, Note_off_c, 0, 62, 64
3, 160320, Note_on_c, 0, 71, 58
3, 161184, Note_off_c, 0, 71, 64
3, 161280, Note_on_c, 0, 60, 66
3, 161308, Control_c, 0, 64, 0
3, 161356, Control_c, 0, 64, 83
3, 161496, Note_off_c, 0, 60, 64
3, 161520, Note_on_c, 0, 67, 61
3, 161736, Note_off_c, 0, 67, 64
3, 161760, Note_on_c, 0, 74, 56
3, 161976, Note_off_c, 0, 74, 64
3, 162000, Note_on_c, 0, 67, 51
3, 162216, Note_off_c, 0, 67, 64
3, 162240, Note_on_c, 0, 76, 57
3, 163104, Note_off_c, 0, 76, 64
3, 163200, Note_on_c, 0, 57, 64
3, 163228, Control_c, 0, 64, 0
3, 163256, Control_c, 0, 64, 81
3, 163416, Note_off_c, 0, 57, 64
3, 163440, Note_on_c, 0, 64, 60
3, 163656, Note_off_c, 0, 64, 64
3, 163680, Note_on_c, 0, 71, 57
3, 163896, Note_off_c, 0, 71, 64
3, 163920, Note_on_c, 0, 64, 53
3, 164136, Note_off_c, 0, 64, 64
3, 164160, Note_on_c, 0, 72, 60
3, 165024, Note_off_c, 0, 72, 64
3, 165120, Note_on_c, 0, 53, 64
3, 165167, Control_c, 0, 64, 0
3, 165196, Control_c, 0, 64, 82
3, 165336, Note_off_c, 0, 53, 64
3, 165360, Note_on_c, 0, 60, 60
3, 165576, Note_off_c, 0, 60, 64
3, 165600, Note_on_c, 0, 69, 56
3, 165816, Note_off_c, 0, 69, 64
3, 165840, Note_on_c, 0, 72, 52
3, 166056, Note_off_c, 0, 72, 64
3, 166080, Note_on_c, 0, 74, 56
3, 166944, Note_off_c, 0, 74, 64
3, 167040, Note_on_c, 0, 60, 63
3, 167077, Control_c, 0, 64, 0
3, 167116, Control_c, 0, 64, 79
3, 167256, Note_off_c, 0, 60, 64
3, 167280, Note_on_c, 0, 67, 59
3, 167496, Note_off_c, 0, 67, 64
3, 167520, Note_on_c, 0, 74, 55
3, 167736, Note_off_c, 0, 74, 64
3, 167760, Note_on_c, 0, 67, 52
3, 167976, Note_off_c, 0, 67, 64
3, 168000, Note_on_c, 0, 76, 54
3, 168864, Note_off_c, 0, 76, 64
3, 168960, End_track
0, 0, End_of_file