#define folder_width 12
#define folder_height 12
static unsigned char folder_bits[] = {
   0x00, 0x00, 0x1e, 0x00, 0x21, 0x00, 0xc1, 0x0f, 0x01, 0x08, 0x01, 0x08,
   0x01, 0x08, 0x01, 0x08, 0x01, 0x08, 0x01, 0x08, 0xfe, 0x07, 0x00, 0x00 };
