#define imgfile_width 9
#define imgfile_height 12
static unsigned char imgfile_bits[] = {
   0x7e, 0x00, 0xa1, 0x00, 0x21, 0x01, 0xc9, 0x01, 0x15, 0x01, 0x09, 0x01,
   0x01, 0x01, 0x41, 0x01, 0xe1, 0x01, 0xf1, 0x01, 0xfd, 0x01, 0xff, 0x01 };
