#define luafile_width 9
#define luafile_height 12
static unsigned char luafile_bits[] = {
   0x7e, 0x00, 0xa1, 0x00, 0x21, 0x01, 0xc1, 0x01, 0x01, 0x01, 0x01, 0x01,
   0x21, 0x01, 0x09, 0x01, 0x15, 0x01, 0x09, 0x01, 0x01, 0x01, 0xff, 0x01 };
