#define musicfile_width 9
#define musicfile_height 12
static unsigned char musicfile_bits[] = {
   0x7e, 0x00, 0xa1, 0x00, 0x21, 0x01, 0xc1, 0x01, 0x01, 0x01, 0x61, 0x01,
   0x59, 0x01, 0x49, 0x01, 0x69, 0x01, 0x0d, 0x01, 0x01, 0x01, 0xff, 0x01 };
