#define moon_width 28
#define moon_height 28
static unsigned char moon_bits[] = {
   0x00, 0xf0, 0x03, 0x00, 0x00, 0xfe, 0x07, 0x00, 0x80, 0x07, 0x06, 0x00,
   0xc0, 0x01, 0x03, 0x00, 0xe0, 0x80, 0x01, 0x00, 0x70, 0xc0, 0x00, 0x00,
   0x30, 0x60, 0x00, 0x00, 0x18, 0x60, 0x00, 0x00, 0x08, 0x20, 0x00, 0x00,
   0x0c, 0x30, 0x00, 0x00, 0x0c, 0x30, 0x00, 0x00, 0x04, 0x30, 0x00, 0x00,
   0x04, 0x30, 0x00, 0x00, 0x06, 0x30, 0x00, 0x00, 0x06, 0x60, 0x00, 0x00,
   0x04, 0x60, 0x00, 0x00, 0x04, 0xc0, 0x00, 0x00, 0x0c, 0xc0, 0x01, 0x00,
   0x0c, 0x80, 0x03, 0x00, 0x08, 0x00, 0x0f, 0x00, 0x18, 0x00, 0xfc, 0x03,
   0x30, 0x00, 0xf0, 0x07, 0x70, 0x00, 0x00, 0x03, 0xe0, 0x00, 0x80, 0x03,
   0xc0, 0x01, 0xc0, 0x01, 0x80, 0x07, 0x70, 0x00, 0x00, 0xfe, 0x3f, 0x00,
   0x00, 0xf0, 0x07, 0x00 };
