#define sun_dust_width 28
#define sun_dust_height 28
static unsigned char sun_dust_bits[] = {
   0x00, 0x60, 0x00, 0x00, 0x00, 0x60, 0x00, 0x00, 0x00, 0xf0, 0x00, 0x00,
   0x00, 0x98, 0x01, 0x00, 0xf0, 0x98, 0x7b, 0x00, 0xf0, 0x0f, 0x3f, 0x00,
   0x30, 0x06, 0x06, 0x00, 0x30, 0x00, 0x00, 0x0c, 0x20, 0xf8, 0x01, 0x0c,
   0x60, 0xfc, 0x03, 0x00, 0x60, 0x06, 0x00, 0x00, 0x38, 0x03, 0x00, 0x00,
   0x1c, 0x03, 0x60, 0x00, 0x07, 0x03, 0x60, 0x00, 0x07, 0x03, 0x00, 0x00,
   0x1c, 0x03, 0x00, 0x00, 0x38, 0x03, 0x02, 0x04, 0x70, 0x02, 0x07, 0x0c,
   0x60, 0x00, 0x02, 0x04, 0x30, 0x00, 0x00, 0x00, 0x30, 0x00, 0x00, 0x00,
   0x30, 0x30, 0x60, 0x00, 0x10, 0x30, 0x60, 0x00, 0x00, 0x00, 0x00, 0x00,
   0x00, 0x00, 0x00, 0x00, 0x00, 0x00, 0x00, 0x00, 0x80, 0x01, 0x07, 0x0c,
   0x80, 0x01, 0x02, 0x0c };
