#define battery_three_quarters_width 20
#define battery_three_quarters_height 16
static unsigned char battery_three_quarters_bits[] = {
   0x00, 0x00, 0x00, 0x00, 0x00, 0x00, 0x00, 0x00, 0x00, 0xfe, 0xff, 0x03,
   0x01, 0x00, 0x04, 0x01, 0x00, 0x0c, 0xf9, 0x1f, 0x08, 0xf9, 0x1f, 0x08,
   0xf9, 0x1f, 0x08, 0xf9, 0x1f, 0x08, 0x01, 0x00, 0x0c, 0x01, 0x00, 0x04,
   0xfe, 0xff, 0x03, 0x00, 0x00, 0x00, 0x00, 0x00, 0x00, 0x00, 0x00, 0x00 };
