#define battery_quarter_width 20
#define battery_quarter_height 16
static unsigned char battery_quarter_bits[] = {
   0x00, 0x00, 0x00, 0x00, 0x00, 0x00, 0x00, 0x00, 0x00, 0xfe, 0xff, 0x03,
   0x01, 0x00, 0x04, 0x01, 0x00, 0x0c, 0x79, 0x00, 0x08, 0x79, 0x00, 0x08,
   0x79, 0x00, 0x08, 0x79, 0x00, 0x08, 0x01, 0x00, 0x0c, 0x01, 0x00, 0x04,
   0xfe, 0xff, 0x03, 0x00, 0x00, 0x00, 0x00, 0x00, 0x00, 0x00, 0x00, 0x00 };
