#define usb_width 20
#define usb_height 16
static unsigned char usb_bits[] = {
   0x00, 0x00, 0x00, 0x00, 0x08, 0x00, 0x00, 0x1c, 0x00, 0x00, 0x3f, 0x00,
   0x80, 0x1d, 0x00, 0x84, 0x08, 0x00, 0xce, 0x00, 0x02, 0xff, 0xff, 0x07,
   0xff, 0xff, 0x07, 0x0e, 0x03, 0x02, 0x04, 0x02, 0x00, 0x00, 0x76, 0x00,
   0x00, 0x7c, 0x00, 0x00, 0x70, 0x00, 0x00, 0x00, 0x00, 0x00, 0x00, 0x00 };
