#define wifi_width 16
#define wifi_height 13
static unsigned char wifi_bits[] = {
   0x00, 0x00, 0xf0, 0x0f, 0xfc, 0x3f, 0x1e, 0x78, 0x07, 0xe0, 0xe0, 0x07,
   0xf8, 0x1f, 0x38, 0x1c, 0x00, 0x00, 0x80, 0x01, 0xc0, 0x03, 0x80, 0x01,
   0x00, 0x00 };
