unsigned char example_mid[] = {
  0x4d, 0x54, 0x68, 0x64, 0x00, 0x00, 0x00, 0x06, 0x00, 0x00, 0x00, 0x01,
  0x00, 0x60, 0x4d, 0x54, 0x72, 0x6b, 0x00, 0x00, 0xab, 0x37, 0x00, 0xff,
  0x03, 0x11, 0x42, 0x6f, 0x68, 0x65, 0x6d, 0x69, 0x61, 0x6e, 0x20, 0x52,
  0x68, 0x61, 0x70, 0x73, 0x6f, 0x64, 0x79, 0x00, 0xff, 0x02, 0x17, 0x28,
  0x43, 0x29, 0x31, 0x39, 0x39, 0x37, 0x20, 0x62, 0x79, 0x20, 0x4d, 0x64,
  0x42, 0x20, 0x53, 0x6f, 0x66, 0x74, 0x77, 0x61, 0x72, 0x65, 0x00, 0xff,
  0x51, 0x03, 0x0f, 0x42, 0x40, 0x00, 0xff, 0x58, 0x04, 0x04, 0x02, 0x18,
  0x08, 0x00, 0xf0, 0x05, 0x7e, 0x7f, 0x09, 0x01, 0xf7, 0x0c, 0xf0, 0x0a,
  0x41, 0x10, 0x42, 0x12, 0x40, 0x00, 0x7f, 0x00, 0x41, 0xf7, 0x0c, 0xf0,
  0x0a, 0x41, 0x10, 0x42, 0x12, 0x40, 0x11, 0x15, 0x02, 0x18, 0xf7, 0x18,
  0xf0, 0x0a, 0x41, 0x10, 0x42, 0x12, 0x40, 0x01, 0x33, 0x7f, 0x0d, 0xf7,
  0x30, 0xb0, 0x79, 0x00, 0x00, 0xb1, 0x79, 0x00, 0x00, 0xb2, 0x79, 0x00,
  0x00, 0xb3, 0x79, 0x00, 0x00, 0xb4, 0x79, 0x00, 0x00, 0xb5, 0x79, 0x00,
  0x00, 0xb6, 0x79, 0x00, 0x00, 0xb7, 0x79, 0x00, 0x00, 0xb8, 0x79, 0x00,
  0x00, 0xb9, 0x79, 0x00, 0x00, 0xba, 0x79, 0x00, 0x00, 0xbb, 0x79, 0x00,
  0x00, 0xbc, 0x79, 0x00, 0x00, 0xbd, 0x79, 0x00, 0x00, 0xbe, 0x79, 0x00,
  0x01, 0xb0, 0x00, 0x00, 0x00, 0xb0, 0x20, 0x00, 0x00, 0xc0, 0x19, 0x01,
  0xb0, 0x07, 0x7f, 0x01, 0xb0, 0x0a, 0x40, 0x01, 0xb0, 0x0b, 0x7f, 0x01,
  0xb0, 0x5b, 0x00, 0x01, 0xb0, 0x5d, 0x00, 0x01, 0xb1, 0x00, 0x00, 0x00,
  0xb1, 0x20, 0x00, 0x00, 0xc1, 0x21, 0x01, 0xb1, 0x07, 0x73, 0x01, 0xb1,
  0x0a, 0x40, 0x01, 0xb1, 0x0b, 0x7f, 0x01, 0xb1, 0x5b, 0x00, 0x01, 0xb1,
  0x5d, 0x0a, 0x01, 0xb2, 0x00, 0x00, 0x00, 0xb2, 0x20, 0x00, 0x00, 0xc2,
  0x1e, 0x01, 0xb2, 0x07, 0x64, 0x01, 0xb2, 0x0a, 0x40, 0x01, 0xb2, 0x0b,
  0x7f, 0x01, 0xb2, 0x5b, 0x3c, 0x01, 0xb2, 0x5d, 0x1e, 0x01, 0xb3, 0x00,
  0x00, 0x00, 0xb3, 0x20, 0x00, 0x00, 0xc3, 0x49, 0x01, 0xb3, 0x07, 0x5a,
  0x01, 0xb3, 0x0a, 0x40, 0x01, 0xb3, 0x0b, 0x7f, 0x01, 0xb3, 0x5b, 0x14,
  0x01, 0xb3, 0x5d, 0x00, 0x01, 0xb4, 0x00, 0x00, 0x00, 0xb4, 0x20, 0x00,
  0x00, 0xc4, 0x34, 0x01, 0xb4, 0x07, 0x78, 0x01, 0xb4, 0x0a, 0x40, 0x01,
  0xb4, 0x0b, 0x7f, 0x01, 0xb4, 0x5b, 0x64, 0x01, 0xb4, 0x5d, 0x00, 0x01,
  0xb5, 0x00, 0x00, 0x00, 0xb5, 0x20, 0x00, 0x00, 0xc5, 0x00, 0x01, 0xb5,
  0x07, 0x6e, 0x01, 0xb5, 0x0a, 0x40, 0x01, 0xb5, 0x0b, 0x7f, 0x01, 0xb5,
  0x5b, 0x78, 0x01, 0xb5, 0x5d, 0x28, 0x01, 0xb6, 0x00, 0x00, 0x00, 0xb6,
  0x20, 0x00, 0x00, 0xc6, 0x11, 0x01, 0xb6, 0x07, 0x28, 0x01, 0xb6, 0x0a,
  0x40, 0x01, 0xb6, 0x0b, 0x7f, 0x01, 0xb6, 0x5b, 0x73, 0x01, 0xb6, 0x5d,
  0x46, 0x01, 0xb7, 0x00, 0x00, 0x00, 0xb7, 0x20, 0x00, 0x00, 0xc7, 0x1a,
  0x01, 0xb7, 0x07, 0x4b, 0x01, 0xb7, 0x0a, 0x14, 0x01, 0xb7, 0x0b, 0x7f,
  0x01, 0xb7, 0x5b, 0x64, 0x01, 0xb7, 0x5d, 0x1e, 0x01, 0xb8, 0x00, 0x00,
  0x00, 0xb8, 0x20, 0x00, 0x00, 0xc8, 0x4e, 0x01, 0xb8, 0x07, 0x32, 0x01,
  0xb8, 0x0a, 0x40, 0x01, 0xb8, 0x0b, 0x7f, 0x01, 0xb8, 0x5b, 0x1e, 0x01,
  0xb8, 0x5d, 0x00, 0x01, 0xb9, 0x00, 0x00, 0x00, 0xb9, 0x20, 0x00, 0x00,
  0xc9, 0x00, 0x01, 0xb9, 0x07, 0x7f, 0x01, 0xb9, 0x0a, 0x40, 0x01, 0xb9,
  0x0b, 0x7f, 0x01, 0xb9, 0x5b, 0x1e, 0x01, 0xb9, 0x5d, 0x0a, 0x01, 0xba,
  0x00, 0x00, 0x00, 0xba, 0x20, 0x00, 0x00, 0xca, 0x77, 0x01, 0xba, 0x07,
  0x5a, 0x01, 0xba, 0x0a, 0x40, 0x01, 0xba, 0x0b, 0x7f, 0x01, 0xba, 0x5b,
  0x64, 0x01, 0xba, 0x5d, 0x00, 0x01, 0xbb, 0x00, 0x08, 0x00, 0xbb, 0x20,
  0x00, 0x00, 0xcb, 0x26, 0x01, 0xbb, 0x07, 0x5a, 0x01, 0xbb, 0x0a, 0x40,
  0x01, 0xbb, 0x0b, 0x7f, 0x01, 0xbb, 0x5b, 0x14, 0x01, 0xbb, 0x5d, 0x28,
  0x01, 0xbc, 0x00, 0x00, 0x00, 0xbc, 0x20, 0x00, 0x00, 0xcc, 0x3d, 0x01,
  0xbc, 0x07, 0x64, 0x01, 0xbc, 0x0a, 0x40, 0x01, 0xbc, 0x0b, 0x7f, 0x01,
  0xbc, 0x5b, 0x6e, 0x01, 0xbc, 0x5d, 0x1e, 0x01, 0xbd, 0x00, 0x00, 0x00,
  0xbd, 0x20, 0x00, 0x00, 0xcd, 0x0a, 0x01, 0xbd, 0x07, 0x40, 0x01, 0xbd,
  0x0a, 0x14, 0x01, 0xbd, 0x0b, 0x7f, 0x01, 0xbd, 0x5b, 0x64, 0x01, 0xbd,
  0x5d, 0x46, 0x01, 0xbe, 0x00, 0x00, 0x00, 0xbe, 0x20, 0x00, 0x00, 0xce,
  0x36, 0x01, 0xbe, 0x07, 0x64, 0x01, 0xbe, 0x0a, 0x40, 0x01, 0xbe, 0x0b,
  0x7f, 0x01, 0xbe, 0x5b, 0x64, 0x01, 0xbe, 0x5d, 0x00, 0x06, 0xb0, 0x63,
  0x01, 0x01, 0xb0, 0x62, 0x63, 0x01, 0xb0, 0x06, 0x41, 0x01, 0xb0, 0x62,
  0x66, 0x01, 0xb0, 0x06, 0x41, 0x01, 0xb0, 0x63, 0x18, 0x01, 0xb0, 0x62,
  0x50, 0x01, 0xb0, 0x06, 0x4b, 0x01, 0xb0, 0x62, 0x51, 0x01, 0xb0, 0x06,
  0x46, 0x01, 0xb0, 0x64, 0x7f, 0x00, 0xb0, 0x65, 0x7f, 0x01, 0xb1, 0x63,
  0x01, 0x01, 0xb1, 0x62, 0x20, 0x01, 0xb1, 0x06, 0x14, 0x01, 0xb1, 0x62,
  0x64, 0x01, 0xb1, 0x06, 0x50, 0x01, 0xb1, 0x64, 0x7f, 0x00, 0xb1, 0x65,
  0x7f, 0x01, 0xb4, 0x63, 0x01, 0x01, 0xb4, 0x62, 0x63, 0x01, 0xb4, 0x06,
  0x41, 0x01, 0xb4, 0x62, 0x66, 0x01, 0xb4, 0x06, 0x48, 0x01, 0xb4, 0x64,
  0x7f, 0x00, 0xb4, 0x65, 0x7f, 0x01, 0xb6, 0x63, 0x01, 0x01, 0xb6, 0x62,
  0x20, 0x01, 0xb6, 0x06, 0x34, 0x01, 0xb6, 0x62, 0x21, 0x01, 0xb6, 0x06,
  0x4e, 0x01, 0xb6, 0x62, 0x66, 0x01, 0xb6, 0x06, 0x49, 0x01, 0xb6, 0x64,
  0x7f, 0x00, 0xb6, 0x65, 0x7f, 0x01, 0xb7, 0x63, 0x01, 0x01, 0xb7, 0x62,
  0x21, 0x01, 0xb7, 0x06, 0x1e, 0x01, 0xb7, 0x62, 0x64, 0x01, 0xb7, 0x06,
  0x32, 0x01, 0xb7, 0x62, 0x66, 0x01, 0xb7, 0x06, 0x37, 0x01, 0xb7, 0x64,
  0x7f, 0x00, 0xb7, 0x65, 0x7f, 0x01, 0xb8, 0x63, 0x01, 0x01, 0xb8, 0x62,
  0x21, 0x01, 0xb8, 0x06, 0x32, 0x01, 0xb8, 0x62, 0x63, 0x01, 0xb8, 0x06,
  0x41, 0x01, 0xb8, 0x62, 0x64, 0x01, 0xb8, 0x06, 0x72, 0x01, 0xb8, 0x62,
  0x66, 0x01, 0xb8, 0x06, 0x32, 0x01, 0xb8, 0x64, 0x7f, 0x00, 0xb8, 0x65,
  0x7f, 0x01, 0xb9, 0x63, 0x18, 0x01, 0xb9, 0x62, 0x24, 0x01, 0xb9, 0x06,
  0x52, 0x01, 0xb9, 0x62, 0x1b, 0x01, 0xb9, 0x06, 0x0e, 0x01, 0xb9, 0x62,
  0x28, 0x01, 0xb9, 0x06, 0x44, 0x01, 0xb9, 0x62, 0x2e, 0x01, 0xb9, 0x06,
  0x47, 0x01, 0xb9, 0x63, 0x1a, 0x01, 0xb9, 0x62, 0x1b, 0x01, 0xb9, 0x06,
  0x5c, 0x01, 0xb9, 0x63, 0x18, 0x01, 0xb9, 0x62, 0x24, 0x01, 0xb9, 0x06,
  0x7f, 0x01, 0xb9, 0x62, 0x26, 0x01, 0xb9, 0x06, 0x48, 0x01, 0xb9, 0x63,
  0x1d, 0x01, 0xb9, 0x62, 0x26, 0x01, 0xb9, 0x06, 0x32, 0x01, 0xb9, 0x62,
  0x24, 0x01, 0xb9, 0x06, 0x32, 0x01, 0xb9, 0x63, 0x18, 0x01, 0xb9, 0x62,
  0x36, 0x01, 0xb9, 0x06, 0x43, 0x01, 0xb9, 0x64, 0x7f, 0x00, 0xb9, 0x65,
  0x7f, 0x01, 0xba, 0x63, 0x01, 0x01, 0xba, 0x62, 0x66, 0x01, 0xba, 0x06,
  0x50, 0x01, 0xba, 0x64, 0x7f, 0x00, 0xba, 0x65, 0x7f, 0x01, 0xbb, 0x63,
  0x01, 0x01, 0xbb, 0x62, 0x66, 0x01, 0xbb, 0x06, 0x3c, 0x01, 0xbb, 0x64,
  0x00, 0x01, 0xbb, 0x65, 0x00, 0x01, 0xbb, 0x06, 0x0c, 0x01, 0xbb, 0x64,
  0x7f, 0x00, 0xbb, 0x65, 0x7f, 0x01, 0xbc, 0x63, 0x01, 0x01, 0xbc, 0x62,
  0x64, 0x01, 0xbc, 0x06, 0x72, 0x01, 0xbc, 0x64, 0x7f, 0x00, 0xbc, 0x65,
  0x7f, 0x01, 0xbd, 0x63, 0x01, 0x01, 0xbd, 0x62, 0x64, 0x01, 0xbd, 0x06,
  0x64, 0x01, 0xbd, 0x62, 0x66, 0x01, 0xbd, 0x06, 0x46, 0x01, 0xbd, 0x64,
  0x7f, 0x00, 0xbd, 0x65, 0x7f, 0x61, 0xff, 0x51, 0x03, 0x0a, 0xe6, 0x28,
  0x00, 0x90, 0x24, 0x7f, 0x00, 0x90, 0x2a, 0x4e, 0x00, 0x91, 0x22, 0x7e,
  0x00, 0x92, 0x22, 0x7e, 0x00, 0x99, 0x24, 0x7a, 0x00, 0x99, 0x1d, 0x3a,
  0x01, 0x80, 0x2a, 0x00, 0x00, 0x80, 0x24, 0x00, 0x00, 0x96, 0x45, 0x7f,
  0x00, 0x96, 0x4a, 0x7f, 0x00, 0x89, 0x1d, 0x00, 0x00, 0x89, 0x24, 0x00,
  0x01, 0x96, 0x41, 0x7f, 0x2e, 0x90, 0x2a, 0x64, 0x00, 0x82, 0x22, 0x00,
  0x00, 0x99, 0x2c, 0x62, 0x00, 0x99, 0x1d, 0x3c, 0x01, 0x80, 0x2a, 0x00,
  0x00, 0x89, 0x1d, 0x00, 0x00, 0x89, 0x2c, 0x00, 0x11, 0x81, 0x22, 0x00,
  0x1e, 0x90, 0x27, 0x64, 0x00, 0x90, 0x2a, 0x38, 0x00, 0x99, 0x28, 0x7f,
  0x00, 0x99, 0x1e, 0x5a, 0x01, 0x80, 0x2a, 0x00, 0x00, 0x80, 0x27, 0x00,
  0x00, 0x89, 0x1e, 0x00, 0x00, 0x89, 0x28, 0x00, 0x2f, 0x90, 0x2a, 0x74,
  0x00, 0x99, 0x2c, 0x5a, 0x00, 0x99, 0x1d, 0x28, 0x01, 0x80, 0x2a, 0x00,
  0x00, 0x89, 0x1d, 0x00, 0x00, 0x89, 0x2c, 0x00, 0x1e, 0x90, 0x26, 0x42,
  0x01, 0x90, 0x2a, 0x38, 0x00, 0x90, 0x27, 0x3c, 0x01, 0x80, 0x27, 0x00,
  0x00, 0x80, 0x2a, 0x00, 0x00, 0x80, 0x26, 0x00, 0x0f, 0x90, 0x2a, 0x34,
  0x00, 0x99, 0x1d, 0x16, 0x01, 0x80, 0x2a, 0x00, 0x00, 0x89, 0x1d, 0x00,
  0x08, 0xb6, 0x01, 0x0a, 0x09, 0xb6, 0x01, 0x0e, 0x0c, 0x90, 0x26, 0x4a,
  0x01, 0x80, 0x26, 0x00, 0x04, 0xb6, 0x01, 0x0f, 0x0a, 0xb6, 0x01, 0x14,
  0x03, 0x90, 0x24, 0x7f, 0x00, 0x90, 0x2a, 0x64, 0x00, 0x99, 0x24, 0x7e,
  0x00, 0x99, 0x2c, 0x6a, 0x00, 0x99, 0x1d, 0x34, 0x01, 0x80, 0x2a, 0x00,
  0x00, 0x80, 0x24, 0x00, 0x00, 0x89, 0x1d, 0x00, 0x00, 0x89, 0x2c, 0x00,
  0x00, 0x89, 0x24, 0x00, 0x08, 0xb6, 0x01, 0x18, 0x08, 0xb6, 0x01, 0x19,
  0x0e, 0xb6, 0x01, 0x1a, 0x11, 0x90, 0x27, 0x64, 0x00, 0x90, 0x2a, 0x4e,
  0x00, 0x90, 0x26, 0x3a, 0x00, 0x99, 0x28, 0x7f, 0x00, 0x99, 0x1e, 0x6a,
  0x01, 0x80, 0x26, 0x00, 0x00, 0x80, 0x2a, 0x00, 0x00, 0x80, 0x27, 0x00,
  0x00, 0x89, 0x1e, 0x00, 0x00, 0x89, 0x28, 0x00, 0x17, 0xb6, 0x01, 0x1c,
  0x18, 0x90, 0x2a, 0x6a, 0x00, 0x99, 0x2c, 0x7e, 0x00, 0x99, 0x1d, 0x3a,
  0x01, 0x80, 0x2a, 0x00, 0x00, 0x89, 0x1d, 0x00, 0x00, 0x89, 0x2c, 0x00,
  0x13, 0xb6, 0x01, 0x1a, 0x09, 0xb6, 0x01, 0x18, 0x02, 0x90, 0x26, 0x3e,
  0x02, 0x80, 0x26, 0x00, 0x01, 0xb6, 0x01, 0x13, 0x05, 0xb6, 0x01, 0x08,
  0x09, 0x90, 0x24, 0x7f, 0x00, 0x90, 0x2a, 0x42, 0x00, 0x91, 0x1f, 0x7e,
  0x00, 0x92, 0x1f, 0x7e, 0x00, 0xb6, 0x01, 0x00, 0x00, 0x99, 0x24, 0x7e,
  0x00, 0x99, 0x1d, 0x3a, 0x01, 0x80, 0x2a, 0x00, 0x00, 0x80, 0x24, 0x00,
  0x00, 0x89, 0x1d, 0x00, 0x00, 0x89, 0x24, 0x00, 0x2f, 0x90, 0x2a, 0x64,
  0x00, 0x99, 0x2c, 0x7e, 0x00, 0x99, 0x1d, 0x3c, 0x01, 0x80, 0x2a, 0x00,
  0x00, 0x89, 0x1d, 0x00, 0x00, 0x89, 0x2c, 0x00, 0x0b, 0x82, 0x1f, 0x00,
  0x05, 0x81, 0x1f, 0x00, 0x1f, 0x90, 0x27, 0x62, 0x00, 0x90, 0x2a, 0x4e,
  0x00, 0x99, 0x28, 0x7f, 0x00, 0x99, 0x1e, 0x5a, 0x01, 0x80, 0x2a, 0x00,
  0x00, 0x80, 0x27, 0x00, 0x00, 0x89, 0x1e, 0x00, 0x00, 0x89, 0x28, 0x00,
  0x03, 0xb6, 0x01, 0x03, 0x05, 0xb6, 0x01, 0x03, 0x05, 0xb6, 0x01, 0x05,
  0x07, 0xb6, 0x01, 0x07, 0x05, 0xb6, 0x01, 0x0b, 0x05, 0xb6, 0x01, 0x0d,
  0x04, 0xb6, 0x01, 0x0f, 0x0b, 0xb6, 0x01, 0x11, 0x02, 0x90, 0x2a, 0x5a,
  0x00, 0x99, 0x2c, 0x6a, 0x00, 0x99, 0x1d, 0x24, 0x01, 0x80, 0x2a, 0x00,
  0x00, 0x89, 0x1d, 0x00, 0x00, 0x89, 0x2c, 0x00, 0x01, 0xb6, 0x01, 0x13,
  0x0a, 0xb6, 0x01, 0x14, 0x13, 0x90, 0x26, 0x38, 0x01, 0x90, 0x2a, 0x3c,
  0x00, 0x90, 0x27, 0x3c, 0x01, 0x80, 0x27, 0x00, 0x00, 0x80, 0x2a, 0x00,
  0x00, 0x80, 0x26, 0x00, 0x05, 0xb6, 0x01, 0x16, 0x0a, 0x90, 0x2a, 0x42,
  0x00, 0x99, 0x1d, 0x34, 0x01, 0x80, 0x2a, 0x00, 0x00, 0x89, 0x1d, 0x00,
  0x13, 0xb6, 0x01, 0x18, 0x0a, 0x90, 0x26, 0x44, 0x01, 0x80, 0x26, 0x00,
  0x10, 0xb6, 0x01, 0x1a, 0x01, 0x90, 0x24, 0x7f, 0x00, 0x90, 0x2a, 0x64,
  0x00, 0x99, 0x24, 0x7a, 0x00, 0x99, 0x2c, 0x6a, 0x00, 0x99, 0x1d, 0x3a,
  0x01, 0x80, 0x2a, 0x00, 0x00, 0x80, 0x24, 0x00, 0x00, 0x89, 0x1d, 0x00,
  0x00, 0x89, 0x2c, 0x00, 0x00, 0x89, 0x24, 0x00, 0x25, 0xb6, 0x01, 0x17,
  0x08, 0xb6, 0x01, 0x12, 0x02, 0x90, 0x27, 0x64, 0x00, 0x90, 0x2a, 0x48,
  0x00, 0x99, 0x28, 0x7f, 0x00, 0x99, 0x1e, 0x54, 0x01, 0x80, 0x2a, 0x00,
  0x00, 0x80, 0x27, 0x00, 0x00, 0x89, 0x1e, 0x00, 0x00, 0x89, 0x28, 0x00,
  0x01, 0xb6, 0x01, 0x0a, 0x05, 0xb6, 0x01, 0x04, 0x08, 0xb6, 0x01, 0x00,
  0x21, 0x90, 0x2a, 0x74, 0x00, 0x99, 0x2c, 0x6a, 0x00, 0x99, 0x1d, 0x16,
  0x01, 0x80, 0x2a, 0x00, 0x00, 0x89, 0x1d, 0x00, 0x00, 0x89, 0x2c, 0x00,
  0x1e, 0x90, 0x26, 0x30, 0x02, 0x80, 0x26, 0x00, 0x0c, 0x86, 0x45, 0x00,
  0x01, 0x86, 0x41, 0x00, 0x02, 0x90, 0x24, 0x7f, 0x00, 0x90, 0x2a, 0x3c,
  0x00, 0x91, 0x24, 0x7e, 0x00, 0x92, 0x24, 0x7e, 0x00, 0x99, 0x24, 0x7e,
  0x00, 0x99, 0x1d, 0x3a, 0x01, 0x80, 0x2a, 0x00, 0x00, 0x80, 0x24, 0x00,
  0x00, 0x96, 0x3f, 0x7f, 0x00, 0x96, 0x43, 0x7f, 0x00, 0x89, 0x1d, 0x00,
  0x00, 0x89, 0x24, 0x00, 0x2f, 0x90, 0x2a, 0x64, 0x00, 0x99, 0x2c, 0x6a,
  0x00, 0x99, 0x1d, 0x34, 0x01, 0x80, 0x2a, 0x00, 0x00, 0x89, 0x1d, 0x00,
  0x00, 0x89, 0x2c, 0x00, 0x03, 0x82, 0x24, 0x00, 0x19, 0x81, 0x24, 0x00,
  0x13, 0x90, 0x27, 0x64, 0x00, 0x90, 0x2a, 0x62, 0x00, 0x99, 0x28, 0x7f,
  0x00, 0x99, 0x1e, 0x5a, 0x01, 0x80, 0x2a, 0x00, 0x00, 0x80, 0x27, 0x00,
  0x00, 0x89, 0x1e, 0x00, 0x00, 0x89, 0x28, 0x00, 0x28, 0xb6, 0x01, 0x0a,
  0x06, 0xb6, 0x01, 0x0e, 0x01, 0x90, 0x2a, 0x5a, 0x00, 0x99, 0x2c, 0x7e,
  0x00, 0x99, 0x1d, 0x32, 0x01, 0x80, 0x2a, 0x00, 0x00, 0x89, 0x1d, 0x00,
  0x00, 0x89, 0x2c, 0x00, 0x0a, 0xb6, 0x01, 0x12, 0x14, 0x90, 0x26, 0x3c,
  0x01, 0x90, 0x2a, 0x30, 0x00, 0x90, 0x27, 0x3c, 0x01, 0x80, 0x27, 0x00,
  0x00, 0x80, 0x2a, 0x00, 0x00, 0x80, 0x26, 0x00, 0x0f, 0x90, 0x2a, 0x3c,
  0x00, 0x99, 0x1d, 0x3c, 0x01, 0x80, 0x2a, 0x00, 0x00, 0x89, 0x1d, 0x00,
  0x1d, 0x90, 0x26, 0x58, 0x01, 0x80, 0x26, 0x00, 0x11, 0x90, 0x24, 0x7f,
  0x00, 0x90, 0x2a, 0x64, 0x00, 0x99, 0x24, 0x7e, 0x00, 0x99, 0x2c, 0x6a,
  0x00, 0x99, 0x1d, 0x3c, 0x01, 0x80, 0x2a, 0x00, 0x00, 0x80, 0x24, 0x00,
  0x00, 0x89, 0x1d, 0x00, 0x00, 0x89, 0x2c, 0x00, 0x00, 0x89, 0x24, 0x00,
  0x06, 0xb6, 0x01, 0x14, 0x29, 0x90, 0x27, 0x64, 0x00, 0x90, 0x2a, 0x62,
  0x00, 0x90, 0x26, 0x0c, 0x00, 0x99, 0x28, 0x7f, 0x00, 0x99, 0x1e, 0x62,
  0x01, 0x80, 0x26, 0x00, 0x00, 0x80, 0x2a, 0x00, 0x00, 0x80, 0x27, 0x00,
  0x00, 0x89, 0x1e, 0x00, 0x00, 0x89, 0x28, 0x00, 0x06, 0xb6, 0x01, 0x18,
  0x05, 0xb6, 0x01, 0x1a, 0x09, 0xb6, 0x01, 0x1e, 0x1b, 0x90, 0x2a, 0x64,
  0x00, 0x99, 0x2c, 0x74, 0x00, 0x99, 0x1d, 0x2e, 0x01, 0x80, 0x2a, 0x00,
  0x00, 0x89, 0x1d, 0x00, 0x00, 0x89, 0x2c, 0x00, 0x04, 0xb6, 0x01, 0x19,
  0x05, 0xb6, 0x01, 0x14, 0x04, 0xb6, 0x01, 0x0d, 0x0d, 0xb6, 0x01, 0x00,
  0x04, 0x90, 0x26, 0x3e, 0x02, 0x80, 0x26, 0x00, 0x0f, 0x90, 0x24, 0x7f,
  0x00, 0x90, 0x2a, 0x54, 0x00, 0x91, 0x24, 0x7a, 0x00, 0x92, 0x24, 0x7e,
  0x00, 0x96, 0x46, 0x7f, 0x00, 0x99, 0x24, 0x7e, 0x00, 0x99, 0x1d, 0x3a,
  0x01, 0x80, 0x2a, 0x00, 0x00, 0x80, 0x24, 0x00, 0x00, 0x89, 0x1d, 0x00,
  0x00, 0x89, 0x24, 0x00, 0x2f, 0x90, 0x2a, 0x74, 0x00, 0x99, 0x2c, 0x7e,
  0x00, 0x99, 0x1d, 0x3c, 0x01, 0x80, 0x2a, 0x00, 0x00, 0x89, 0x1d, 0x00,
  0x00, 0x89, 0x2c, 0x00, 0x08, 0x82, 0x24, 0x00, 0x10, 0x81, 0x24, 0x00,
  0x17, 0x90, 0x27, 0x64, 0x00, 0x90, 0x2a, 0x5a, 0x00, 0x99, 0x28, 0x7f,
  0x00, 0x99, 0x1e, 0x5a, 0x01, 0x80, 0x2a, 0x00, 0x00, 0x80, 0x27, 0x00,
  0x00, 0x89, 0x1e, 0x00, 0x00, 0x89, 0x28, 0x00, 0x2f, 0x90, 0x2a, 0x54,
  0x00, 0x99, 0x2c, 0x74, 0x00, 0x99, 0x1d, 0x28, 0x01, 0x80, 0x2a, 0x00,
  0x00, 0x89, 0x1d, 0x00, 0x00, 0x89, 0x2c, 0x00, 0x1d, 0x99, 0x24, 0x4a,
  0x01, 0x90, 0x26, 0x3a, 0x00, 0x89, 0x24, 0x00, 0x01, 0x90, 0x2a, 0x34,
  0x00, 0x90, 0x27, 0x3c, 0x00, 0x90, 0x24, 0x7f, 0x01, 0x80, 0x24, 0x00,
  0x00, 0x80, 0x27, 0x00, 0x00, 0x80, 0x2a, 0x00, 0x00, 0x80, 0x26, 0x00,
  0x0f, 0x90, 0x24, 0x7f, 0x00, 0x90, 0x2a, 0x42, 0x00, 0x99, 0x24, 0x6a,
  0x00, 0x99, 0x1d, 0x16, 0x01, 0x80, 0x2a, 0x00, 0x00, 0x80, 0x24, 0x00,
  0x00, 0x89, 0x1d, 0x00, 0x00, 0x89, 0x24, 0x00, 0x1d, 0x90, 0x26, 0x60,
  0x01, 0x80, 0x26, 0x00, 0x11, 0x90, 0x24, 0x7f, 0x00, 0x90, 0x2a, 0x64,
  0x00, 0x99, 0x24, 0x7e, 0x00, 0x99, 0x2c, 0x7e, 0x00, 0x99, 0x1d, 0x34,
  0x01, 0x80, 0x2a, 0x00, 0x00, 0x80, 0x24, 0x00, 0x00, 0x89, 0x1d, 0x00,
  0x00, 0x89, 0x2c, 0x00, 0x00, 0x89, 0x24, 0x00, 0x12, 0xb6, 0x01, 0x05,
  0x05, 0xb6, 0x01, 0x08, 0x0a, 0xb6, 0x01, 0x0c, 0x0a, 0xb6, 0x01, 0x0e,
  0x04, 0x90, 0x27, 0x64, 0x00, 0x90, 0x2a, 0x54, 0x00, 0x99, 0x28, 0x7f,
  0x00, 0x99, 0x1e, 0x6a, 0x01, 0x80, 0x2a, 0x00, 0x00, 0x80, 0x27, 0x00,
  0x00, 0x89, 0x1e, 0x00, 0x00, 0x89, 0x28, 0x00, 0x07, 0xb6, 0x01, 0x12,
  0x09, 0xb6, 0x01, 0x17, 0x06, 0xb6, 0x01, 0x19, 0x07, 0xb6, 0x01, 0x1b,
  0x07, 0xb6, 0x01, 0x21, 0x07, 0xb6, 0x01, 0x26, 0x04, 0x90, 0x2a, 0x62,
  0x00, 0x99, 0x2c, 0x7e, 0x00, 0x99, 0x1d, 0x3a, 0x01, 0x80, 0x2a, 0x00,
  0x00, 0x89, 0x1d, 0x00, 0x00, 0x89, 0x2c, 0x00, 0x07, 0xb6, 0x01, 0x17,
  0x0d, 0xb6, 0x01, 0x00, 0x0a, 0x90, 0x26, 0x2a, 0x02, 0x80, 0x26, 0x00,
  0x0c, 0x86, 0x3f, 0x00, 0x00, 0x86, 0x46, 0x00, 0x00, 0x86, 0x43, 0x00,
  0x03, 0x90, 0x24, 0x7f, 0x00, 0x90, 0x2a, 0x4e, 0x00, 0x91, 0x22, 0x7e,
  0x00, 0x92, 0x22, 0x7e, 0x00, 0x99, 0x24, 0x7a, 0x00, 0x99, 0x1d, 0x3a,
  0x01, 0x80, 0x2a, 0x00, 0x00, 0x80, 0x24, 0x00, 0x00, 0x96, 0x41, 0x7f,
  0x00, 0x96, 0x45, 0x7f, 0x00, 0x89, 0x1d, 0x00, 0x00, 0x89, 0x24, 0x00,
  0x2f, 0x90, 0x2a, 0x64, 0x00, 0x99, 0x2c, 0x62, 0x00, 0x99, 0x1d, 0x3c,
  0x01, 0x80, 0x2a, 0x00, 0x00, 0x89, 0x1d, 0x00, 0x00, 0x89, 0x2c, 0x00,
  0x05, 0x82, 0x22, 0x00, 0x0c, 0x81, 0x22, 0x00, 0x1e, 0x90, 0x27, 0x64,
  0x00, 0x90, 0x2a, 0x38, 0x00, 0x99, 0x28, 0x7f, 0x00, 0x99, 0x1e, 0x5a,
  0x01, 0x80, 0x2a, 0x00, 0x00, 0x80, 0x27, 0x00, 0x00, 0x89, 0x1e, 0x00,
  0x00, 0x89, 0x28, 0x00, 0x2f, 0x90, 0x2a, 0x74, 0x00, 0x99, 0x2c, 0x5a,
  0x00, 0x99, 0x1d, 0x28, 0x01, 0x80, 0x2a, 0x00, 0x00, 0x89, 0x1d, 0x00,
  0x00, 0x89, 0x2c, 0x00, 0x1e, 0x90, 0x26, 0x42, 0x01, 0x90, 0x2a, 0x38,
  0x00, 0x90, 0x27, 0x3c, 0x01, 0x80, 0x27, 0x00, 0x00, 0x80, 0x2a, 0x00,
  0x00, 0x80, 0x26, 0x00, 0x0f, 0x90, 0x2a, 0x34, 0x00, 0x99, 0x1d, 0x16,
  0x01, 0x80, 0x2a, 0x00, 0x00, 0x89, 0x1d, 0x00, 0x10, 0xb6, 0x01, 0x07,
  0x02, 0xb6, 0x01, 0x08, 0x09, 0xb6, 0x01, 0x0d, 0x02, 0x90, 0x26, 0x4a,
  0x01, 0x80, 0x26, 0x00, 0x11, 0x90, 0x24, 0x7f, 0x00, 0x90, 0x2a, 0x64,
  0x00, 0x99, 0x24, 0x7e, 0x00, 0x99, 0x2c, 0x6a, 0x00, 0x99, 0x1d, 0x34,
  0x01, 0x80, 0x2a, 0x00, 0x00, 0x80, 0x24, 0x00, 0x00, 0x89, 0x1d, 0x00,
  0x00, 0x89, 0x2c, 0x00, 0x00, 0x89, 0x24, 0x00, 0x10, 0xb6, 0x01, 0x0f,
  0x0a, 0xb6, 0x01, 0x12, 0x05, 0xb6, 0x01, 0x14, 0x10, 0x90, 0x27, 0x64,
  0x00, 0x90, 0x2a, 0x4e, 0x00, 0x90, 0x26, 0x3a, 0x00, 0x99, 0x28, 0x7f,
  0x00, 0x99, 0x1e, 0x6a, 0x01, 0x80, 0x26, 0x00, 0x00, 0x80, 0x2a, 0x00,
  0x00, 0x80, 0x27, 0x00, 0x00, 0x89, 0x1e, 0x00, 0x00, 0x89, 0x28, 0x00,
  0x02, 0xb6, 0x01, 0x16, 0x0c, 0xb6, 0x01, 0x18, 0x21, 0x90, 0x2a, 0x6a,
  0x00, 0x99, 0x2c, 0x7e, 0x00, 0x99, 0x1d, 0x3a, 0x01, 0x80, 0x2a, 0x00,
  0x00, 0x89, 0x1d, 0x00, 0x00, 0x89, 0x2c, 0x00, 0x1e, 0x90, 0x26, 0x3e,
  0x02, 0x80, 0x26, 0x00, 0x05, 0xb6, 0x01, 0x0f, 0x0a, 0x90, 0x24, 0x7f,
  0x00, 0x90, 0x2a, 0x42, 0x00, 0x91, 0x1f, 0x7e, 0x00, 0x92, 0x1f, 0x7e,
  0x00, 0x99, 0x24, 0x7e, 0x00, 0x99, 0x1d, 0x3a, 0x01, 0x80, 0x2a, 0x00,
  0x00, 0x80, 0x24, 0x00, 0x00, 0x89, 0x1d, 0x00, 0x00, 0x89, 0x24, 0x00,
  0x01, 0xb6, 0x01, 0x00, 0x2e, 0x90, 0x2a, 0x64, 0x00, 0x99, 0x2c, 0x7e,
  0x00, 0x99, 0x1d, 0x3c, 0x01, 0x80, 0x2a, 0x00, 0x00, 0x89, 0x1d, 0x00,
  0x00, 0x89, 0x2c, 0x00, 0x0b, 0x82, 0x1f, 0x00, 0x0c, 0x81, 0x1f, 0x00,
  0x18, 0x90, 0x27, 0x62, 0x00, 0x90, 0x2a, 0x4e, 0x00, 0x99, 0x28, 0x7f,
  0x00, 0x99, 0x1e, 0x5a, 0x01, 0x80, 0x2a, 0x00, 0x00, 0x80, 0x27, 0x00,
  0x00, 0x89, 0x1e, 0x00, 0x00, 0x89, 0x28, 0x00, 0x16, 0xb6, 0x01, 0x08,
  0x06, 0xb6, 0x01, 0x0a, 0x06, 0xb6, 0x01, 0x0c, 0x05, 0xb6, 0x01, 0x0e,
  0x08, 0x90, 0x2a, 0x5a, 0x00, 0x99, 0x2c, 0x6a, 0x00, 0x99, 0x1d, 0x24,
  0x01, 0x80, 0x2a, 0x00, 0x00, 0x89, 0x1d, 0x00, 0x00, 0x89, 0x2c, 0x00,
  0x17, 0xb6, 0x01, 0x11, 0x07, 0x90, 0x26, 0x38, 0x01, 0x90, 0x2a, 0x3c,
  0x00, 0x90, 0x27, 0x3c, 0x01, 0x80, 0x27, 0x00, 0x00, 0x80, 0x2a, 0x00,
  0x00, 0x80, 0x26, 0x00, 0x07, 0xb6, 0x01, 0x14, 0x08, 0x90, 0x2a, 0x42,
  0x00, 0x99, 0x1d, 0x34, 0x01, 0x80, 0x2a, 0x00, 0x00, 0xb6, 0x01, 0x16,
  0x00, 0x89, 0x1d, 0x00, 0x11, 0xb6, 0x01, 0x19, 0x0c, 0x90, 0x26, 0x44,
  0x01, 0x80, 0x26, 0x00, 0x05, 0xb6, 0x01, 0x1b, 0x0c, 0x90, 0x24, 0x7f,
  0x00, 0x90, 0x2a, 0x64, 0x00, 0x99, 0x24, 0x7a, 0x00, 0x99, 0x2c, 0x6a,
  0x00, 0x99, 0x1d, 0x3a, 0x01, 0x80, 0x2a, 0x00, 0x00, 0x80, 0x24, 0x00,
  0x00, 0x89, 0x1d, 0x00, 0x00, 0x89, 0x2c, 0x00, 0x00, 0x89, 0x24, 0x00,
  0x15, 0xb6, 0x01, 0x18, 0x04, 0xb6, 0x01, 0x14, 0x05, 0xb6, 0x01, 0x11,
  0x11, 0x90, 0x27, 0x64, 0x00, 0x90, 0x2a, 0x48, 0x00, 0x99, 0x28, 0x7f,
  0x00, 0x99, 0x1e, 0x54, 0x01, 0x80, 0x2a, 0x00, 0x00, 0x80, 0x27, 0x00,
  0x00, 0x89, 0x1e, 0x00, 0x00, 0x89, 0x28, 0x00, 0x0a, 0xb6, 0x01, 0x0f,
  0x09, 0xb6, 0x01, 0x09, 0x11, 0xb6, 0x01, 0x00, 0x0b, 0x90, 0x2a, 0x74,
  0x00, 0x99, 0x2c, 0x6a, 0x00, 0x99, 0x1d, 0x16, 0x01, 0x80, 0x2a, 0x00,
  0x00, 0x89, 0x1d, 0x00, 0x00, 0x89, 0x2c, 0x00, 0x1e, 0x90, 0x26, 0x30,
  0x02, 0x80, 0x26, 0x00, 0x0c, 0x86, 0x41, 0x00, 0x00, 0x86, 0x45, 0x00,
  0x03, 0x90, 0x24, 0x7f, 0x00, 0x90, 0x2a, 0x3c, 0x00, 0x91, 0x24, 0x7e,
  0x00, 0x92, 0x24, 0x7e, 0x00, 0x99, 0x24, 0x7e, 0x00, 0x99, 0x1d, 0x3a,
  0x01, 0x80, 0x2a, 0x00, 0x00, 0x80, 0x24, 0x00, 0x00, 0x96, 0x3f, 0x7f,
  0x00, 0x89, 0x1d, 0x00, 0x00, 0x89, 0x24, 0x00, 0x01, 0x96, 0x43, 0x7f,
  0x2e, 0x90, 0x2a, 0x64, 0x00, 0x99, 0x2c, 0x6a, 0x00, 0x99, 0x1d, 0x34,
  0x01, 0x80, 0x2a, 0x00, 0x00, 0x89, 0x1d, 0x00, 0x00, 0x89, 0x2c, 0x00,
  0x09, 0x82, 0x24, 0x00, 0x12, 0x81, 0x24, 0x00, 0x14, 0x90, 0x27, 0x64,
  0x00, 0x90, 0x2a, 0x62, 0x00, 0x99, 0x28, 0x7f, 0x00, 0x99, 0x1e, 0x5a,
  0x01, 0x80, 0x2a, 0x00, 0x00, 0x80, 0x27, 0x00, 0x00, 0x89, 0x1e, 0x00,
  0x00, 0x89, 0x28, 0x00, 0x2f, 0x90, 0x2a, 0x5a, 0x00, 0x99, 0x2c, 0x7e,
  0x00, 0x99, 0x1d, 0x32, 0x01, 0x80, 0x2a, 0x00, 0x00, 0x89, 0x1d, 0x00,
  0x00, 0x89, 0x2c, 0x00, 0x1e, 0x90, 0x26, 0x3c, 0x01, 0x90, 0x2a, 0x30,
  0x00, 0x90, 0x27, 0x3c, 0x01, 0x80, 0x27, 0x00, 0x00, 0x80, 0x2a, 0x00,
  0x00, 0x80, 0x26, 0x00, 0x0f, 0x90, 0x2a, 0x3c, 0x00, 0x99, 0x1d, 0x3c,
  0x01, 0x80, 0x2a, 0x00, 0x00, 0x89, 0x1d, 0x00, 0x0d, 0xb6, 0x01, 0x07,
  0x10, 0x90, 0x26, 0x58, 0x01, 0x80, 0x26, 0x00, 0x08, 0xb6, 0x01, 0x0a,
  0x09, 0x90, 0x24, 0x7f, 0x00, 0x90, 0x2a, 0x64, 0x00, 0x99, 0x24, 0x7e,
  0x00, 0x99, 0x2c, 0x6a, 0x00, 0x99, 0x1d, 0x3c, 0x01, 0x80, 0x2a, 0x00,
  0x00, 0x80, 0x24, 0x00, 0x00, 0x89, 0x1d, 0x00, 0x00, 0x89, 0x2c, 0x00,
  0x00, 0x89, 0x24, 0x00, 0x1c, 0xb6, 0x01, 0x0e, 0x13, 0x90, 0x27, 0x64,
  0x00, 0x90, 0x2a, 0x62, 0x00, 0x90, 0x26, 0x0c, 0x00, 0x99, 0x28, 0x7f,
  0x00, 0x99, 0x1e, 0x62, 0x01, 0x80, 0x26, 0x00, 0x00, 0x80, 0x2a, 0x00,
  0x00, 0x80, 0x27, 0x00, 0x00, 0x89, 0x1e, 0x00, 0x00, 0x89, 0x28, 0x00,
  0x1c, 0xb6, 0x01, 0x07, 0x0a, 0xb6, 0x01, 0x00, 0x09, 0x90, 0x2a, 0x64,
  0x00, 0x99, 0x2c, 0x74, 0x00, 0x99, 0x1d, 0x2e, 0x01, 0x80, 0x2a, 0x00,
  0x00, 0x89, 0x1d, 0x00, 0x00, 0x89, 0x2c, 0x00, 0x1e, 0x90, 0x26, 0x3e,
  0x02, 0x80, 0x26, 0x00, 0x0f, 0x90, 0x24, 0x7f, 0x00, 0x90, 0x2a, 0x54,
  0x00, 0x91, 0x24, 0x7e, 0x00, 0x92, 0x24, 0x7e, 0x00, 0x99, 0x24, 0x7e,
  0x01, 0x80, 0x2a, 0x00, 0x00, 0x80, 0x24, 0x00, 0x00, 0x89, 0x24, 0x00,
  0x2f, 0x90, 0x2a, 0x74, 0x00, 0x99, 0x2c, 0x7e, 0x01, 0x80, 0x2a, 0x00,
  0x00, 0x89, 0x2c, 0x00, 0x08, 0x82, 0x24, 0x00, 0x1c, 0x81, 0x24, 0x00,
  0x0b, 0x90, 0x27, 0x64, 0x00, 0x90, 0x2a, 0x5a, 0x00, 0x99, 0x28, 0x7e,
  0x01, 0x80, 0x2a, 0x00, 0x00, 0x80, 0x27, 0x00, 0x00, 0x89, 0x28, 0x00,
  0x2f, 0x90, 0x2a, 0x54, 0x00, 0x90, 0x3e, 0x2e, 0x00, 0x99, 0x28, 0x1c,
  0x00, 0x99, 0x2c, 0x74, 0x00, 0x99, 0x1d, 0x6a, 0x01, 0x80, 0x3e, 0x00,
  0x00, 0x80, 0x2a, 0x00, 0x00, 0x89, 0x1d, 0x00, 0x00, 0x89, 0x2c, 0x00,
  0x00, 0x89, 0x28, 0x00, 0x1d, 0x99, 0x1d, 0x3c, 0x00, 0x99, 0x28, 0x2c,
  0x01, 0x90, 0x3e, 0x50, 0x00, 0x89, 0x28, 0x00, 0x00, 0x89, 0x1d, 0x00,
  0x01, 0x90, 0x2a, 0x34, 0x00, 0x90, 0x27, 0x3c, 0x01, 0x80, 0x27, 0x00,
  0x00, 0x80, 0x2a, 0x00, 0x00, 0x80, 0x3e, 0x00, 0x0f, 0x90, 0x2a, 0x42,
  0x00, 0x90, 0x3e, 0x2a, 0x00, 0x99, 0x1d, 0x50, 0x01, 0x80, 0x3e, 0x00,
  0x00, 0x80, 0x2a, 0x00, 0x00, 0x89, 0x1d, 0x00, 0x1d, 0x90, 0x3e, 0x60,
  0x00, 0x99, 0x1d, 0x50, 0x00, 0x99, 0x28, 0x74, 0x01, 0x80, 0x3e, 0x00,
  0x00, 0x89, 0x28, 0x00, 0x00, 0x89, 0x1d, 0x00, 0x11, 0x90, 0x2a, 0x64,
  0x00, 0x90, 0x32, 0x6a, 0x00, 0x99, 0x2c, 0x7e, 0x00, 0x99, 0x1e, 0x5a,
  0x01, 0x80, 0x32, 0x00, 0x00, 0x80, 0x2a, 0x00, 0x00, 0x89, 0x1e, 0x00,
  0x00, 0x89, 0x2c, 0x00, 0x2b, 0x86, 0x3f, 0x00, 0x01, 0x86, 0x4a, 0x00,
  0x01, 0x86, 0x43, 0x00, 0x02, 0x90, 0x27, 0x64, 0x00, 0x90, 0x2a, 0x54,
  0x00, 0x90, 0x30, 0x64, 0x00, 0x99, 0x28, 0x2a, 0x00, 0x99, 0x1e, 0x38,
  0x01, 0x80, 0x30, 0x00, 0x00, 0x80, 0x2a, 0x00, 0x00, 0x80, 0x27, 0x00,
  0x00, 0x89, 0x1e, 0x00, 0x00, 0x89, 0x28, 0x00, 0x1d, 0x90, 0x30, 0x64,
  0x00, 0x99, 0x1e, 0x3c, 0x00, 0x99, 0x28, 0x34, 0x01, 0x80, 0x30, 0x00,
  0x00, 0x89, 0x28, 0x00, 0x00, 0x89, 0x1e, 0x00, 0x11, 0x90, 0x2a, 0x62,
  0x00, 0x90, 0x2b, 0x7e, 0x00, 0x99, 0x2c, 0x7e, 0x00, 0x99, 0x1d, 0x3c,
  0x01, 0x80, 0x2b, 0x00, 0x00, 0x80, 0x2a, 0x00, 0x00, 0x89, 0x1d, 0x00,
  0x00, 0x89, 0x2c, 0x00, 0x2f, 0x90, 0x24, 0x7f, 0x00, 0x90, 0x2a, 0x4e,
  0x00, 0x91, 0x22, 0x7e, 0x00, 0x92, 0x22, 0x7e, 0x00, 0x99, 0x24, 0x7a,
  0x00, 0x99, 0x1d, 0x3a, 0x00, 0x99, 0x37, 0x6e, 0x01, 0x80, 0x2a, 0x00,
  0x00, 0x80, 0x24, 0x00, 0x00, 0x96, 0x4a, 0x7f, 0x00, 0x89, 0x37, 0x00,
  0x00, 0x89, 0x1d, 0x00, 0x00, 0x89, 0x24, 0x00, 0x01, 0x93, 0x3e, 0x6e,
  0x00, 0x96, 0x41, 0x7f, 0x00, 0x96, 0x45, 0x7f, 0x16, 0x83, 0x3e, 0x00,
  0x09, 0x93, 0x3e, 0x78, 0x0f, 0x90, 0x2a, 0x64, 0x00, 0x82, 0x22, 0x00,
  0x00, 0x99, 0x2c, 0x62, 0x00, 0x99, 0x1d, 0x3c, 0x01, 0x80, 0x2a, 0x00,
  0x00, 0x89, 0x1d, 0x00, 0x00, 0x89, 0x2c, 0x00, 0x11, 0x81, 0x22, 0x00,
  0x1e, 0x90, 0x27, 0x64, 0x00, 0x90, 0x2a, 0x38, 0x00, 0x99, 0x28, 0x7f,
  0x00, 0x99, 0x1e, 0x5a, 0x01, 0x80, 0x2a, 0x00, 0x00, 0x80, 0x27, 0x00,
  0x00, 0x89, 0x1e, 0x00, 0x00, 0x89, 0x28, 0x00, 0x2f, 0x90, 0x2a, 0x74,
  0x00, 0x99, 0x2c, 0x5a, 0x00, 0x99, 0x1d, 0x28, 0x01, 0x80, 0x2a, 0x00,
  0x00, 0x89, 0x1d, 0x00, 0x00, 0x89, 0x2c, 0x00, 0x1e, 0x90, 0x26, 0x42,
  0x01, 0x90, 0x2a, 0x38, 0x00, 0x90, 0x27, 0x3c, 0x01, 0x80, 0x27, 0x00,
  0x00, 0x80, 0x2a, 0x00, 0x00, 0x80, 0x26, 0x00, 0x0f, 0x90, 0x2a, 0x34,
  0x00, 0x99, 0x1d, 0x16, 0x01, 0x80, 0x2a, 0x00, 0x00, 0x89, 0x1d, 0x00,
  0x06, 0xb6, 0x01, 0x08, 0x17, 0x90, 0x26, 0x4a, 0x01, 0x80, 0x26, 0x00,
  0x08, 0xb6, 0x01, 0x10, 0x06, 0xb6, 0x01, 0x14, 0x03, 0x90, 0x24, 0x7f,
  0x00, 0x90, 0x2a, 0x64, 0x00, 0x99, 0x24, 0x7e, 0x00, 0x99, 0x2c, 0x6a,
  0x00, 0x99, 0x1d, 0x34, 0x01, 0x80, 0x2a, 0x00, 0x00, 0x80, 0x24, 0x00,
  0x00, 0x89, 0x1d, 0x00, 0x00, 0x89, 0x2c, 0x00, 0x00, 0x89, 0x24, 0x00,
  0x08, 0xb6, 0x01, 0x18, 0x27, 0x90, 0x27, 0x64, 0x00, 0x90, 0x2a, 0x4e,
  0x00, 0x90, 0x26, 0x3a, 0x00, 0x99, 0x28, 0x7f, 0x00, 0x99, 0x1e, 0x6a,
  0x01, 0x80, 0x26, 0x00, 0x00, 0x80, 0x2a, 0x00, 0x00, 0x80, 0x27, 0x00,
  0x00, 0x89, 0x1e, 0x00, 0x00, 0x89, 0x28, 0x00, 0x0f, 0x83, 0x3e, 0x00,
  0x08, 0xb6, 0x01, 0x1c, 0x18, 0x90, 0x2a, 0x6a, 0x00, 0x99, 0x2c, 0x7e,
  0x00, 0x99, 0x1d, 0x3a, 0x01, 0x80, 0x2a, 0x00, 0x00, 0x93, 0x3a, 0x72,
  0x00, 0x89, 0x1d, 0x00, 0x00, 0x89, 0x2c, 0x00, 0x18, 0x83, 0x3a, 0x00,
  0x04, 0xb6, 0x01, 0x18, 0x02, 0x90, 0x26, 0x3e, 0x02, 0x80, 0x26, 0x00,
  0x04, 0xb6, 0x01, 0x0c, 0x0b, 0x90, 0x24, 0x7f, 0x00, 0x90, 0x2a, 0x42,
  0x00, 0x91, 0x1f, 0x7e, 0x00, 0x92, 0x1f, 0x7e, 0x00, 0x99, 0x24, 0x7e,
  0x00, 0x99, 0x1d, 0x3a, 0x01, 0x80, 0x2a, 0x00, 0x00, 0x80, 0x24, 0x00,
  0x00, 0xb6, 0x01, 0x00, 0x00, 0x89, 0x1d, 0x00, 0x00, 0x89, 0x24, 0x00,
  0x01, 0x93, 0x3c, 0x78, 0x25, 0x83, 0x3c, 0x00, 0x09, 0x90, 0x2a, 0x64,
  0x00, 0x93, 0x3e, 0x64, 0x00, 0x99, 0x2c, 0x7e, 0x00, 0x99, 0x1d, 0x3c,
  0x01, 0x80, 0x2a, 0x00, 0x00, 0x89, 0x1d, 0x00, 0x00, 0x89, 0x2c, 0x00,
  0x0b, 0x82, 0x1f, 0x00, 0x05, 0x81, 0x1f, 0x00, 0x03, 0x83, 0x3e, 0x00,
  0x0b, 0x93, 0x3e, 0x6e, 0x11, 0x90, 0x27, 0x62, 0x00, 0x90, 0x2a, 0x4e,
  0x00, 0x99, 0x28, 0x7f, 0x00, 0x99, 0x1e, 0x5a, 0x01, 0x80, 0x2a, 0x00,
  0x00, 0x80, 0x27, 0x00, 0x00, 0x89, 0x1e, 0x00, 0x00, 0x89, 0x28, 0x00,
  0x0b, 0xb6, 0x01, 0x04, 0x10, 0xb6, 0x01, 0x0c, 0x13, 0xb6, 0x01, 0x12,
  0x01, 0x90, 0x2a, 0x5a, 0x00, 0x99, 0x2c, 0x6a, 0x00, 0x99, 0x1d, 0x24,
  0x01, 0x80, 0x2a, 0x00, 0x00, 0x89, 0x1d, 0x00, 0x00, 0x89, 0x2c, 0x00,
  0x0b, 0xb6, 0x01, 0x14, 0x13, 0x90, 0x26, 0x38, 0x01, 0x90, 0x2a, 0x3c,
  0x00, 0x90, 0x27, 0x3c, 0x01, 0x80, 0x27, 0x00, 0x00, 0x80, 0x2a, 0x00,
  0x00, 0x80, 0x26, 0x00, 0x0f, 0x90, 0x2a, 0x42, 0x00, 0x99, 0x1d, 0x34,
  0x01, 0x80, 0x2a, 0x00, 0x00, 0x89, 0x1d, 0x00, 0x1d, 0x90, 0x26, 0x44,
  0x01, 0x80, 0x26, 0x00, 0x10, 0xb6, 0x01, 0x1a, 0x01, 0x90, 0x24, 0x7f,
  0x00, 0x90, 0x2a, 0x64, 0x00, 0x99, 0x24, 0x7a, 0x00, 0x99, 0x2c, 0x6a,
  0x00, 0x99, 0x1d, 0x3a, 0x01, 0x80, 0x2a, 0x00, 0x00, 0x80, 0x24, 0x00,
  0x00, 0x89, 0x1d, 0x00, 0x00, 0x89, 0x2c, 0x00, 0x00, 0x89, 0x24, 0x00,
  0x2a, 0xb6, 0x01, 0x16, 0x03, 0xb6, 0x01, 0x12, 0x02, 0x90, 0x27, 0x64,
  0x00, 0x90, 0x2a, 0x48, 0x00, 0x99, 0x28, 0x7f, 0x00, 0x99, 0x1e, 0x54,
  0x01, 0x80, 0x2a, 0x00, 0x00, 0x80, 0x27, 0x00, 0x00, 0x89, 0x1e, 0x00,
  0x00, 0x89, 0x28, 0x00, 0x01, 0xb6, 0x01, 0x0a, 0x05, 0xb6, 0x01, 0x04,
  0x08, 0xb6, 0x01, 0x00, 0x06, 0x83, 0x3e, 0x00, 0x1b, 0x90, 0x2a, 0x74,
  0x00, 0x99, 0x2c, 0x6a, 0x00, 0x99, 0x1d, 0x16, 0x01, 0x80, 0x2a, 0x00,
  0x00, 0x89, 0x1d, 0x00, 0x00, 0x89, 0x2c, 0x00, 0x01, 0x93, 0x3e, 0x78,
  0x1c, 0x83, 0x3e, 0x00, 0x01, 0x90, 0x26, 0x30, 0x02, 0x80, 0x26, 0x00,
  0x0e, 0x86, 0x41, 0x00, 0x00, 0x86, 0x45, 0x00, 0x01, 0x90, 0x24, 0x7f,
  0x00, 0x90, 0x2a, 0x3c, 0x00, 0x91, 0x24, 0x7e, 0x00, 0x92, 0x24, 0x7e,
  0x00, 0x99, 0x24, 0x7e, 0x00, 0x99, 0x1d, 0x3a, 0x01, 0x80, 0x2a, 0x00,
  0x00, 0x80, 0x24, 0x00, 0x00, 0x96, 0x3f, 0x7f, 0x00, 0x96, 0x43, 0x7f,
  0x00, 0x89, 0x1d, 0x00, 0x00, 0x89, 0x24, 0x00, 0x01, 0x93, 0x3f, 0x72,
  0x29, 0x83, 0x3f, 0x00, 0x05, 0x90, 0x2a, 0x64, 0x00, 0x93, 0x41, 0x6e,
  0x00, 0x99, 0x2c, 0x6a, 0x00, 0x99, 0x1d, 0x34, 0x01, 0x80, 0x2a, 0x00,
  0x00, 0x89, 0x1d, 0x00, 0x00, 0x89, 0x2c, 0x00, 0x03, 0x82, 0x24, 0x00,
  0x0c, 0x83, 0x41, 0x00, 0x0d, 0x81, 0x24, 0x00, 0x03, 0x93, 0x3f, 0x68,
  0x10, 0x90, 0x27, 0x64, 0x00, 0x90, 0x2a, 0x62, 0x00, 0x99, 0x28, 0x7f,
  0x00, 0x99, 0x1e, 0x5a, 0x01, 0x80, 0x2a, 0x00, 0x00, 0x80, 0x27, 0x00,
  0x00, 0x89, 0x1e, 0x00, 0x00, 0x89, 0x28, 0x00, 0x09, 0x83, 0x3f, 0x00,
  0x16, 0x93, 0x3e, 0x78, 0x09, 0xb6, 0x01, 0x0a, 0x07, 0x90, 0x2a, 0x5a,
  0x00, 0x99, 0x2c, 0x7e, 0x00, 0x99, 0x1d, 0x32, 0x01, 0x80, 0x2a, 0x00,
  0x00, 0x89, 0x1d, 0x00, 0x00, 0x89, 0x2c, 0x00, 0x02, 0xb6, 0x01, 0x10,
  0x01, 0x83, 0x3e, 0x00, 0x1b, 0x90, 0x26, 0x3c, 0x01, 0x90, 0x2a, 0x30,
  0x00, 0x90, 0x27, 0x3c, 0x00, 0x93, 0x3c, 0x72, 0x01, 0x80, 0x27, 0x00,
  0x00, 0x80, 0x2a, 0x00, 0x00, 0x80, 0x26, 0x00, 0x0f, 0x90, 0x2a, 0x3c,
  0x00, 0x99, 0x1d, 0x3c, 0x01, 0x80, 0x2a, 0x00, 0x00, 0x89, 0x1d, 0x00,
  0x1d, 0x90, 0x26, 0x58, 0x01, 0x80, 0x26, 0x00, 0x11, 0x90, 0x24, 0x7f,
  0x00, 0x90, 0x2a, 0x64, 0x00, 0x99, 0x24, 0x7e, 0x00, 0x99, 0x2c, 0x6a,
  0x00, 0x99, 0x1d, 0x3c, 0x01, 0x80, 0x2a, 0x00, 0x00, 0x80, 0x24, 0x00,
  0x00, 0x89, 0x1d, 0x00, 0x00, 0x89, 0x2c, 0x00, 0x00, 0x89, 0x24, 0x00,
  0x06, 0xb6, 0x01, 0x14, 0x1e, 0x83, 0x3c, 0x00, 0x0b, 0x90, 0x27, 0x64,
  0x00, 0x90, 0x2a, 0x62, 0x00, 0x90, 0x26, 0x0c, 0x00, 0x99, 0x28, 0x7f,
  0x00, 0x99, 0x1e, 0x62, 0x01, 0x80, 0x26, 0x00, 0x00, 0x80, 0x2a, 0x00,
  0x00, 0x80, 0x27, 0x00, 0x00, 0x89, 0x1e, 0x00, 0x00, 0x89, 0x28, 0x00,
  0x02, 0x93, 0x3c, 0x78, 0x04, 0xb6, 0x01, 0x18, 0x0a, 0xb6, 0x01, 0x1c,
  0x04, 0xb6, 0x01, 0x1e, 0x07, 0x83, 0x3c, 0x00, 0x14, 0x90, 0x2a, 0x64,
  0x00, 0x99, 0x2c, 0x74, 0x00, 0x99, 0x1d, 0x2e, 0x01, 0x80, 0x2a, 0x00,
  0x00, 0x89, 0x1d, 0x00, 0x00, 0x89, 0x2c, 0x00, 0x01, 0x93, 0x3e, 0x66,
  0x06, 0xb6, 0x01, 0x18, 0x06, 0xb6, 0x01, 0x10, 0x06, 0xb6, 0x01, 0x04,
  0x05, 0x83, 0x3e, 0x00, 0x02, 0xb6, 0x01, 0x00, 0x04, 0x90, 0x26, 0x3e,
  0x02, 0x80, 0x26, 0x00, 0x0f, 0x90, 0x24, 0x7f, 0x00, 0x90, 0x2a, 0x54,
  0x00, 0x91, 0x24, 0x7a, 0x00, 0x92, 0x24, 0x7e, 0x00, 0x96, 0x46, 0x7f,
  0x00, 0x99, 0x24, 0x7e, 0x00, 0x99, 0x1d, 0x3a, 0x01, 0x80, 0x2a, 0x00,
  0x00, 0x80, 0x24, 0x00, 0x00, 0x89, 0x1d, 0x00, 0x00, 0x89, 0x24, 0x00,
  0x03, 0x93, 0x3f, 0x6e, 0x2a, 0x83, 0x3f, 0x00, 0x02, 0x90, 0x2a, 0x74,
  0x00, 0x99, 0x2c, 0x7e, 0x00, 0x99, 0x1d, 0x3c, 0x01, 0x80, 0x2a, 0x00,
  0x00, 0x93, 0x41, 0x68, 0x00, 0x89, 0x1d, 0x00, 0x00, 0x89, 0x2c, 0x00,
  0x08, 0x82, 0x24, 0x00, 0x0a, 0x83, 0x41, 0x00, 0x06, 0x81, 0x24, 0x00,
  0x07, 0x93, 0x3f, 0x68, 0x10, 0x90, 0x27, 0x64, 0x00, 0x90, 0x2a, 0x5a,
  0x00, 0x99, 0x28, 0x7f, 0x00, 0x99, 0x1e, 0x5a, 0x01, 0x80, 0x2a, 0x00,
  0x00, 0x80, 0x27, 0x00, 0x00, 0x89, 0x1e, 0x00, 0x00, 0x89, 0x28, 0x00,
  0x05, 0x83, 0x3f, 0x00, 0x1a, 0x93, 0x3e, 0x66, 0x10, 0x90, 0x2a, 0x54,
  0x00, 0x83, 0x3e, 0x00, 0x00, 0x99, 0x2c, 0x74, 0x00, 0x99, 0x1d, 0x28,
  0x01, 0x80, 0x2a, 0x00, 0x00, 0x89, 0x1d, 0x00, 0x00, 0x89, 0x2c, 0x00,
  0x1d, 0x93, 0x3c, 0x6e, 0x00, 0x99, 0x24, 0x4a, 0x01, 0x90, 0x26, 0x3a,
  0x00, 0x89, 0x24, 0x00, 0x01, 0x90, 0x2a, 0x34, 0x00, 0x90, 0x27, 0x3c,
  0x00, 0x90, 0x24, 0x7f, 0x01, 0x80, 0x24, 0x00, 0x00, 0x80, 0x27, 0x00,
  0x00, 0x80, 0x2a, 0x00, 0x00, 0x80, 0x26, 0x00, 0x0f, 0x90, 0x24, 0x7f,
  0x00, 0x90, 0x2a, 0x42, 0x00, 0x99, 0x24, 0x6a, 0x00, 0x99, 0x1d, 0x16,
  0x01, 0x80, 0x2a, 0x00, 0x00, 0x80, 0x24, 0x00, 0x00, 0x89, 0x1d, 0x00,
  0x00, 0x89, 0x24, 0x00, 0x1d, 0x90, 0x26, 0x60, 0x01, 0x80, 0x26, 0x00,
  0x11, 0x90, 0x24, 0x7f, 0x00, 0x90, 0x2a, 0x64, 0x00, 0x99, 0x24, 0x7e,
  0x00, 0x99, 0x2c, 0x7e, 0x00, 0x99, 0x1d, 0x34, 0x01, 0x80, 0x2a, 0x00,
  0x00, 0x80, 0x24, 0x00, 0x00, 0x89, 0x1d, 0x00, 0x00, 0x89, 0x2c, 0x00,
  0x00, 0x89, 0x24, 0x00, 0x17, 0xb6, 0x01, 0x08, 0x0a, 0xb6, 0x01, 0x0c,
  0x0e, 0x90, 0x27, 0x64, 0x00, 0x90, 0x2a, 0x54, 0x00, 0x99, 0x28, 0x7f,
  0x00, 0x99, 0x1e, 0x6a, 0x01, 0x80, 0x2a, 0x00, 0x00, 0x80, 0x27, 0x00,
  0x00, 0xb6, 0x01, 0x10, 0x00, 0x89, 0x1e, 0x00, 0x00, 0x89, 0x28, 0x00,
  0x07, 0xb6, 0x01, 0x12, 0x0f, 0xb6, 0x01, 0x19, 0x07, 0xb6, 0x01, 0x1b,
  0x02, 0x83, 0x3c, 0x00, 0x08, 0xb6, 0x01, 0x22, 0x04, 0xb6, 0x01, 0x26,
  0x04, 0x90, 0x2a, 0x62, 0x00, 0x99, 0x2c, 0x7e, 0x00, 0x99, 0x1d, 0x3a,
  0x01, 0x80, 0x2a, 0x00, 0x00, 0x89, 0x1d, 0x00, 0x00, 0x89, 0x2c, 0x00,
  0x07, 0xb6, 0x01, 0x17, 0x0d, 0xb6, 0x01, 0x00, 0x0a, 0x90, 0x26, 0x2a,
  0x02, 0x80, 0x26, 0x00, 0x0b, 0x86, 0x46, 0x00, 0x01, 0x86, 0x3f, 0x00,
  0x00, 0x86, 0x43, 0x00, 0x03, 0x90, 0x24, 0x7f, 0x00, 0x90, 0x2a, 0x4e,
  0x00, 0x91, 0x22, 0x7e, 0x00, 0x92, 0x22, 0x7e, 0x00, 0x93, 0x3e, 0x78,
  0x00, 0x96, 0x41, 0x7f, 0x00, 0x99, 0x24, 0x7a, 0x00, 0x99, 0x1d, 0x3a,
  0x01, 0x80, 0x2a, 0x00, 0x00, 0x80, 0x24, 0x00, 0x00, 0x96, 0x45, 0x7f,
  0x00, 0x89, 0x1d, 0x00, 0x00, 0x89, 0x24, 0x00, 0x11, 0x83, 0x3e, 0x00,
  0x0e, 0x93, 0x3e, 0x66, 0x10, 0x90, 0x2a, 0x64, 0x00, 0x99, 0x2c, 0x62,
  0x00, 0x99, 0x1d, 0x3c, 0x01, 0x80, 0x2a, 0x00, 0x00, 0x89, 0x1d, 0x00,
  0x00, 0x89, 0x2c, 0x00, 0x05, 0x82, 0x22, 0x00, 0x0c, 0x81, 0x22, 0x00,
  0x1e, 0x90, 0x27, 0x64, 0x00, 0x90, 0x2a, 0x38, 0x00, 0x99, 0x28, 0x7f,
  0x00, 0x99, 0x1e, 0x5a, 0x01, 0x80, 0x2a, 0x00, 0x00, 0x80, 0x27, 0x00,
  0x00, 0x89, 0x1e, 0x00, 0x00, 0x89, 0x28, 0x00, 0x2f, 0x90, 0x2a, 0x74,
  0x00, 0x95, 0x3e, 0x7e, 0x00, 0x99, 0x2c, 0x5a, 0x00, 0x99, 0x1d, 0x28,
  0x01, 0x80, 0x2a, 0x00, 0x00, 0x89, 0x1d, 0x00, 0x00, 0x89, 0x2c, 0x00,
  0x1e, 0x90, 0x26, 0x42, 0x01, 0x90, 0x2a, 0x38, 0x00, 0x90, 0x27, 0x3c,
  0x01, 0x80, 0x27, 0x00, 0x00, 0x80, 0x2a, 0x00, 0x00, 0x80, 0x26, 0x00,
  0x09, 0x85, 0x3e, 0x00, 0x06, 0x90, 0x2a, 0x34, 0x00, 0x95, 0x43, 0x7e,
  0x00, 0x99, 0x1d, 0x16, 0x01, 0x80, 0x2a, 0x00, 0x00, 0x89, 0x1d, 0x00,
  0x09, 0xb6, 0x01, 0x04, 0x0d, 0xb6, 0x01, 0x0a, 0x07, 0x90, 0x26, 0x4a,
  0x01, 0x80, 0x26, 0x00, 0x11, 0x90, 0x24, 0x7f, 0x00, 0x90, 0x2a, 0x64,
  0x00, 0x99, 0x24, 0x7e, 0x00, 0x99, 0x2c, 0x6a, 0x00, 0x99, 0x1d, 0x34,
  0x01, 0x80, 0x2a, 0x00, 0x00, 0x80, 0x24, 0x00, 0x00, 0x89, 0x1d, 0x00,
  0x00, 0x89, 0x2c, 0x00, 0x00, 0x89, 0x24, 0x00, 0x0e, 0xb6, 0x01, 0x0e,
  0x0c, 0xb6, 0x01, 0x12, 0x05, 0xb6, 0x01, 0x14, 0x04, 0x83, 0x3e, 0x00,
  0x06, 0x85, 0x43, 0x00, 0x06, 0x90, 0x27, 0x64, 0x00, 0x90, 0x2a, 0x4e,
  0x00, 0x90, 0x26, 0x3a, 0x00, 0x99, 0x28, 0x7f, 0x00, 0x99, 0x1e, 0x6a,
  0x01, 0x80, 0x26, 0x00, 0x00, 0x80, 0x2a, 0x00, 0x00, 0x80, 0x27, 0x00,
  0x00, 0x95, 0x41, 0x74, 0x00, 0x89, 0x1e, 0x00, 0x00, 0x89, 0x28, 0x00,
  0x0e, 0xb6, 0x01, 0x18, 0x21, 0x90, 0x2a, 0x6a, 0x00, 0x99, 0x2c, 0x7e,
  0x00, 0x99, 0x1d, 0x3a, 0x01, 0x80, 0x2a, 0x00, 0x00, 0x93, 0x41, 0x64,
  0x00, 0x89, 0x1d, 0x00, 0x00, 0x89, 0x2c, 0x00, 0x17, 0x83, 0x41, 0x00,
  0x05, 0xb6, 0x01, 0x1a, 0x02, 0x90, 0x26, 0x3e, 0x02, 0x80, 0x26, 0x00,
  0x03, 0xb6, 0x01, 0x12, 0x0c, 0x90, 0x24, 0x7f, 0x00, 0x90, 0x2a, 0x42,
  0x00, 0x91, 0x1f, 0x7e, 0x00, 0x92, 0x1f, 0x7e, 0x00, 0x93, 0x45, 0x7f,
  0x00, 0x99, 0x24, 0x7e, 0x00, 0x99, 0x1d, 0x3a, 0x01, 0x80, 0x2a, 0x00,
  0x00, 0x80, 0x24, 0x00, 0x00, 0x89, 0x1d, 0x00, 0x00, 0x89, 0x24, 0x00,
  0x01, 0xb6, 0x01, 0x00, 0x25, 0x83, 0x45, 0x00, 0x09, 0x90, 0x2a, 0x64,
  0x00, 0x99, 0x2c, 0x7e, 0x00, 0x99, 0x1d, 0x3c, 0x01, 0x80, 0x2a, 0x00,
  0x00, 0x93, 0x43, 0x64, 0x00, 0x89, 0x1d, 0x00, 0x00, 0x89, 0x2c, 0x00,
  0x0b, 0x82, 0x1f, 0x00, 0x07, 0x83, 0x43, 0x00, 0x05, 0x81, 0x1f, 0x00,
  0x07, 0x93, 0x43, 0x78, 0x11, 0x90, 0x27, 0x62, 0x00, 0x90, 0x2a, 0x4e,
  0x00, 0x99, 0x28, 0x7f, 0x00, 0x99, 0x1e, 0x5a, 0x01, 0x80, 0x2a, 0x00,
  0x00, 0x80, 0x27, 0x00, 0x00, 0x89, 0x1e, 0x00, 0x00, 0x89, 0x28, 0x00,
  0x16, 0xb6, 0x01, 0x08, 0x0c, 0xb6, 0x01, 0x0c, 0x05, 0xb6, 0x01, 0x0e,
  0x03, 0x85, 0x41, 0x00, 0x05, 0x90, 0x2a, 0x5a, 0x00, 0x99, 0x2c, 0x6a,
  0x00, 0x99, 0x1d, 0x24, 0x01, 0x80, 0x2a, 0x00, 0x00, 0x89, 0x1d, 0x00,
  0x00, 0x89, 0x2c, 0x00, 0x01, 0x95, 0x3e, 0x74, 0x1d, 0x90, 0x26, 0x38,
  0x01, 0x90, 0x2a, 0x3c, 0x00, 0x90, 0x27, 0x3c, 0x01, 0x80, 0x27, 0x00,
  0x00, 0x80, 0x2a, 0x00, 0x00, 0x80, 0x26, 0x00, 0x01, 0xb6, 0x01, 0x12,
  0x06, 0xb6, 0x01, 0x14, 0x07, 0x85, 0x3e, 0x00, 0x01, 0x90, 0x2a, 0x42,
  0x00, 0x99, 0x1d, 0x34, 0x01, 0x80, 0x2a, 0x00, 0x00, 0xb6, 0x01, 0x16,
  0x00, 0x89, 0x1d, 0x00, 0x01, 0x95, 0x45, 0x7e, 0x0e, 0xb6, 0x01, 0x18,
  0x0e, 0x90, 0x26, 0x44, 0x01, 0x80, 0x26, 0x00, 0x05, 0xb6, 0x01, 0x1b,
  0x0c, 0x90, 0x24, 0x7f, 0x00, 0x90, 0x2a, 0x64, 0x00, 0x99, 0x24, 0x7a,
  0x00, 0x99, 0x2c, 0x6a, 0x00, 0x99, 0x1d, 0x3a, 0x01, 0x80, 0x2a, 0x00,
  0x00, 0x80, 0x24, 0x00, 0x00, 0x89, 0x1d, 0x00, 0x00, 0x89, 0x2c, 0x00,
  0x00, 0x89, 0x24, 0x00, 0x19, 0xb6, 0x01, 0x14, 0x08, 0xb6, 0x01, 0x10,
  0x0e, 0x90, 0x27, 0x64, 0x00, 0x90, 0x2a, 0x48, 0x00, 0x99, 0x28, 0x7f,
  0x00, 0x99, 0x1e, 0x54, 0x01, 0x80, 0x2a, 0x00, 0x00, 0x80, 0x27, 0x00,
  0x00, 0x85, 0x45, 0x00, 0x00, 0x89, 0x1e, 0x00, 0x00, 0x89, 0x28, 0x00,
  0x01, 0x95, 0x43, 0x7e, 0x08, 0x83, 0x43, 0x00, 0x0f, 0xb6, 0x01, 0x06,
  0x0c, 0xb6, 0x01, 0x00, 0x0b, 0x90, 0x2a, 0x74, 0x00, 0x99, 0x2c, 0x6a,
  0x00, 0x99, 0x1d, 0x16, 0x01, 0x80, 0x2a, 0x00, 0x00, 0x93, 0x43, 0x6e,
  0x00, 0x89, 0x1d, 0x00, 0x00, 0x89, 0x2c, 0x00, 0x18, 0x83, 0x43, 0x00,
  0x06, 0x90, 0x26, 0x30, 0x02, 0x80, 0x26, 0x00, 0x0b, 0x86, 0x41, 0x00,
  0x01, 0x86, 0x45, 0x00, 0x03, 0x90, 0x24, 0x7f, 0x00, 0x90, 0x2a, 0x3c,
  0x00, 0x91, 0x24, 0x7e, 0x00, 0x92, 0x24, 0x7e, 0x00, 0x99, 0x24, 0x7e,
  0x00, 0x99, 0x1d, 0x3a, 0x01, 0x80, 0x2a, 0x00, 0x00, 0x80, 0x24, 0x00,
  0x00, 0x96, 0x48, 0x7f, 0x00, 0x96, 0x4b, 0x7f, 0x00, 0x89, 0x1d, 0x00,
  0x00, 0x89, 0x24, 0x00, 0x01, 0x93, 0x46, 0x6e, 0x21, 0x83, 0x46, 0x00,
  0x0d, 0x90, 0x2a, 0x64, 0x00, 0x99, 0x2c, 0x6a, 0x00, 0x99, 0x1d, 0x34,
  0x01, 0x80, 0x2a, 0x00, 0x00, 0x93, 0x46, 0x68, 0x00, 0x89, 0x1d, 0x00,
  0x00, 0x89, 0x2c, 0x00, 0x10, 0x83, 0x46, 0x00, 0x02, 0x81, 0x24, 0x00,
  0x02, 0x82, 0x24, 0x00, 0x0b, 0x93, 0x46, 0x72, 0x10, 0x90, 0x27, 0x64,
  0x00, 0x90, 0x2a, 0x62, 0x00, 0x99, 0x28, 0x7f, 0x00, 0x99, 0x1e, 0x5a,
  0x01, 0x80, 0x2a, 0x00, 0x00, 0x80, 0x27, 0x00, 0x00, 0x89, 0x1e, 0x00,
  0x00, 0x89, 0x28, 0x00, 0x07, 0xb6, 0x01, 0x0a, 0x07, 0xb6, 0x01, 0x15,
  0x07, 0xb6, 0x01, 0x1e, 0x05, 0x85, 0x43, 0x00, 0x00, 0xb6, 0x01, 0x27,
  0x09, 0xb6, 0x01, 0x32, 0x05, 0xb6, 0x01, 0x36, 0x01, 0x83, 0x46, 0x00,
  0x06, 0x90, 0x2a, 0x5a, 0x00, 0x99, 0x2c, 0x7e, 0x00, 0x99, 0x1d, 0x32,
  0x01, 0x80, 0x2a, 0x00, 0x00, 0x95, 0x43, 0x7e, 0x00, 0x89, 0x1d, 0x00,
  0x00, 0x89, 0x2c, 0x00, 0x02, 0x93, 0x46, 0x6e, 0x06, 0xb6, 0x01, 0x25,
  0x07, 0xb6, 0x01, 0x0b, 0x09, 0x83, 0x46, 0x00, 0x00, 0xb6, 0x01, 0x00,
  0x06, 0x90, 0x26, 0x3c, 0x01, 0x90, 0x2a, 0x30, 0x00, 0x90, 0x27, 0x3c,
  0x01, 0x80, 0x27, 0x00, 0x00, 0x80, 0x2a, 0x00, 0x00, 0x80, 0x26, 0x00,
  0x0c, 0x86, 0x48, 0x00, 0x01, 0x85, 0x43, 0x00, 0x02, 0x90, 0x2a, 0x3c,
  0x00, 0x91, 0x23, 0x7e, 0x00, 0x92, 0x23, 0x7e, 0x00, 0x96, 0x47, 0x7f,
  0x00, 0x99, 0x1d, 0x3c, 0x01, 0x80, 0x2a, 0x00, 0x00, 0x93, 0x46, 0x72,
  0x00, 0x95, 0x4a, 0x7e, 0x00, 0x89, 0x1d, 0x00, 0x1d, 0x90, 0x26, 0x58,
  0x01, 0x80, 0x26, 0x00, 0x02, 0x83, 0x46, 0x00, 0x0f, 0x90, 0x24, 0x7f,
  0x00, 0x90, 0x2a, 0x64, 0x00, 0x93, 0x43, 0x78, 0x00, 0x99, 0x24, 0x7e,
  0x00, 0x99, 0x2c, 0x6a, 0x00, 0x99, 0x1d, 0x3c, 0x01, 0x80, 0x2a, 0x00,
  0x00, 0x80, 0x24, 0x00, 0x00, 0x89, 0x1d, 0x00, 0x00, 0x89, 0x2c, 0x00,
  0x00, 0x89, 0x24, 0x00, 0x12, 0x81, 0x23, 0x00, 0x00, 0x83, 0x43, 0x00,
  0x04, 0x82, 0x23, 0x00, 0x15, 0x85, 0x4a, 0x00, 0x00, 0x86, 0x47, 0x00,
  0x04, 0x90, 0x27, 0x64, 0x00, 0x90, 0x2a, 0x62, 0x00, 0x90, 0x26, 0x0c,
  0x00, 0x91, 0x22, 0x7a, 0x00, 0x92, 0x22, 0x6e, 0x00, 0x93, 0x3f, 0x6e,
  0x00, 0x99, 0x28, 0x7f, 0x00, 0x99, 0x1e, 0x62, 0x01, 0x80, 0x26, 0x00,
  0x00, 0x80, 0x2a, 0x00, 0x00, 0x80, 0x27, 0x00, 0x00, 0x95, 0x46, 0x7a,
  0x00, 0x96, 0x46, 0x7f, 0x00, 0x89, 0x1e, 0x00, 0x00, 0x89, 0x28, 0x00,
  0x28, 0x83, 0x3f, 0x00, 0x07, 0x90, 0x2a, 0x64, 0x00, 0x93, 0x3e, 0x6e,
  0x00, 0x99, 0x2c, 0x74, 0x00, 0x99, 0x1d, 0x2e, 0x01, 0x80, 0x2a, 0x00,
  0x00, 0x89, 0x1d, 0x00, 0x00, 0x89, 0x2c, 0x00, 0x18, 0x81, 0x22, 0x00,
  0x06, 0x90, 0x26, 0x3e, 0x01, 0x82, 0x22, 0x00, 0x01, 0x80, 0x26, 0x00,
  0x09, 0x83, 0x3e, 0x00, 0x03, 0x86, 0x46, 0x00, 0x03, 0x90, 0x24, 0x7f,
  0x00, 0x90, 0x2a, 0x54, 0x00, 0x91, 0x21, 0x7e, 0x00, 0x92, 0x21, 0x7e,
  0x00, 0x85, 0x46, 0x00, 0x00, 0x96, 0x45, 0x7f, 0x00, 0x99, 0x24, 0x7e,
  0x00, 0x99, 0x1d, 0x3a, 0x01, 0x80, 0x2a, 0x00, 0x00, 0x80, 0x24, 0x00,
  0x00, 0x93, 0x3c, 0x72, 0x00, 0x89, 0x1d, 0x00, 0x00, 0x89, 0x24, 0x00,
  0x01, 0x95, 0x45, 0x74, 0x2e, 0x90, 0x2a, 0x74, 0x00, 0x99, 0x2c, 0x7e,
  0x00, 0x99, 0x1d, 0x3c, 0x01, 0x80, 0x2a, 0x00, 0x00, 0x89, 0x1d, 0x00,
  0x00, 0x89, 0x2c, 0x00, 0x15, 0x82, 0x21, 0x00, 0x04, 0x81, 0x21, 0x00,
  0x08, 0xb6, 0x01, 0x08, 0x0e, 0x90, 0x27, 0x64, 0x00, 0x90, 0x2a, 0x5a,
  0x00, 0x99, 0x28, 0x7f, 0x00, 0x99, 0x1e, 0x5a, 0x01, 0x80, 0x2a, 0x00,
  0x00, 0x80, 0x27, 0x00, 0x00, 0xb6, 0x01, 0x13, 0x00, 0x89, 0x1e, 0x00,
  0x00, 0x89, 0x28, 0x00, 0x07, 0xb6, 0x01, 0x1a, 0x08, 0xb6, 0x01, 0x20,
  0x08, 0xb6, 0x01, 0x25, 0x05, 0xb6, 0x01, 0x26, 0x09, 0x85, 0x45, 0x00,
  0x0a, 0x90, 0x2a, 0x54, 0x00, 0x99, 0x2c, 0x74, 0x00, 0x99, 0x1d, 0x28,
  0x01, 0x80, 0x2a, 0x00, 0x00, 0x95, 0x3c, 0x7a, 0x00, 0x89, 0x1d, 0x00,
  0x00, 0x89, 0x2c, 0x00, 0x03, 0xb6, 0x01, 0x29, 0x0a, 0xb6, 0x01, 0x27,
  0x07, 0xb6, 0x01, 0x0e, 0x06, 0x83, 0x3c, 0x00, 0x03, 0x99, 0x24, 0x4a,
  0x01, 0x90, 0x26, 0x3a, 0x00, 0x89, 0x24, 0x00, 0x01, 0x90, 0x2a, 0x34,
  0x00, 0x90, 0x27, 0x3c, 0x00, 0x90, 0x24, 0x7f, 0x01, 0x80, 0x24, 0x00,
  0x00, 0x80, 0x27, 0x00, 0x00, 0x80, 0x2a, 0x00, 0x00, 0x80, 0x26, 0x00,
  0x02, 0xb6, 0x01, 0x00, 0x09, 0x86, 0x45, 0x00, 0x04, 0x90, 0x24, 0x7f,
  0x00, 0x90, 0x2a, 0x42, 0x00, 0x91, 0x20, 0x7e, 0x00, 0x92, 0x20, 0x74,
  0x00, 0x85, 0x3c, 0x00, 0x00, 0x95, 0x44, 0x74, 0x00, 0x96, 0x44, 0x7f,
  0x00, 0x99, 0x24, 0x6a, 0x00, 0x99, 0x1d, 0x16, 0x01, 0x80, 0x2a, 0x00,
  0x00, 0x80, 0x24, 0x00, 0x00, 0x89, 0x1d, 0x00, 0x00, 0x89, 0x24, 0x00,
  0x1d, 0x90, 0x26, 0x60, 0x01, 0x80, 0x26, 0x00, 0x11, 0x90, 0x24, 0x7f,
  0x00, 0x90, 0x2a, 0x64, 0x00, 0x99, 0x24, 0x7e, 0x00, 0x99, 0x2c, 0x7e,
  0x00, 0x99, 0x1d, 0x34, 0x01, 0x80, 0x2a, 0x00, 0x00, 0x80, 0x24, 0x00,
  0x00, 0x89, 0x1d, 0x00, 0x00, 0x89, 0x2c, 0x00, 0x00, 0x89, 0x24, 0x00,
  0x06, 0x81, 0x20, 0x00, 0x0f, 0x82, 0x20, 0x00, 0x16, 0x86, 0x44, 0x00,
  0x01, 0x86, 0x4a, 0x00, 0x02, 0x85, 0x44, 0x00, 0x01, 0x90, 0x27, 0x64,
  0x00, 0x90, 0x2a, 0x54, 0x00, 0x91, 0x1f, 0x7e, 0x00, 0x92, 0x1f, 0x7e,
  0x00, 0x99, 0x28, 0x7f, 0x00, 0x99, 0x1e, 0x6a, 0x00, 0x99, 0x2b, 0x64,
  0x00, 0x9a, 0x3a, 0x7e, 0x01, 0x80, 0x2a, 0x00, 0x00, 0x80, 0x27, 0x00,
  0x00, 0x95, 0x43, 0x74, 0x00, 0x96, 0x43, 0x7f, 0x00, 0x89, 0x2b, 0x00,
  0x00, 0x89, 0x1e, 0x00, 0x00, 0x89, 0x28, 0x00, 0x2f, 0x90, 0x2a, 0x62,
  0x00, 0x99, 0x2c, 0x7e, 0x00, 0x99, 0x1d, 0x3a, 0x01, 0x80, 0x2a, 0x00,
  0x00, 0x89, 0x1d, 0x00, 0x00, 0x89, 0x2c, 0x00, 0x0c, 0x81, 0x1f, 0x00,
  0x08, 0x82, 0x1f, 0x00, 0x0a, 0x90, 0x26, 0x2a, 0x01, 0x85, 0x43, 0x00,
  0x01, 0x80, 0x26, 0x00, 0x0c, 0x86, 0x43, 0x00, 0x00, 0x86, 0x4b, 0x00,
  0x03, 0x90, 0x24, 0x7f, 0x00, 0x90, 0x2a, 0x4e, 0x00, 0x90, 0x31, 0x46,
  0x00, 0x91, 0x27, 0x7e, 0x00, 0x92, 0x27, 0x7e, 0x00, 0x96, 0x4b, 0x7f,
  0x00, 0x96, 0x46, 0x7f, 0x00, 0x99, 0x24, 0x7a, 0x00, 0x99, 0x1d, 0x3a,
  0x00, 0x99, 0x37, 0x7a, 0x01, 0x80, 0x31, 0x00, 0x00, 0x80, 0x2a, 0x00,
  0x00, 0x80, 0x24, 0x00, 0x00, 0x93, 0x43, 0x6e, 0x00, 0x96, 0x43, 0x7f,
  0x00, 0x89, 0x37, 0x00, 0x00, 0x89, 0x1d, 0x00, 0x00, 0x89, 0x24, 0x00,
  0x01, 0x95, 0x3f, 0x7a, 0x00, 0x95, 0x43, 0x7e, 0x00, 0x95, 0x3a, 0x7e,
  0x01, 0x8a, 0x3a, 0x00, 0x2d, 0x90, 0x2a, 0x64, 0x00, 0x99, 0x2c, 0x62,
  0x00, 0x99, 0x1d, 0x3c, 0x01, 0x80, 0x2a, 0x00, 0x00, 0x89, 0x1d, 0x00,
  0x00, 0x89, 0x2c, 0x00, 0x12, 0x82, 0x27, 0x00, 0x0b, 0x81, 0x27, 0x00,
  0x12, 0x90, 0x27, 0x64, 0x00, 0x90, 0x2a, 0x38, 0x00, 0x90, 0x31, 0x46,
  0x00, 0x99, 0x28, 0x7f, 0x00, 0x99, 0x1e, 0x5a, 0x01, 0x80, 0x31, 0x00,
  0x00, 0x80, 0x2a, 0x00, 0x00, 0x80, 0x27, 0x00, 0x00, 0x89, 0x1e, 0x00,
  0x00, 0x89, 0x28, 0x00, 0x2f, 0x90, 0x2a, 0x74, 0x00, 0x99, 0x2c, 0x5a,
  0x00, 0x99, 0x1d, 0x28, 0x01, 0x80, 0x2a, 0x00, 0x00, 0x89, 0x1d, 0x00,
  0x00, 0x89, 0x2c, 0x00, 0x0c, 0xb6, 0x01, 0x06, 0x07, 0xb6, 0x01, 0x08,
  0x05, 0xb6, 0x01, 0x0a, 0x05, 0xb6, 0x01, 0x0c, 0x01, 0x90, 0x26, 0x42,
  0x01, 0x90, 0x2a, 0x38, 0x00, 0x90, 0x27, 0x3c, 0x01, 0x80, 0x27, 0x00,
  0x00, 0x80, 0x2a, 0x00, 0x00, 0x80, 0x26, 0x00, 0x03, 0xb6, 0x01, 0x0e,
  0x0c, 0x90, 0x2a, 0x34, 0x00, 0x90, 0x31, 0x46, 0x00, 0x99, 0x1d, 0x16,
  0x01, 0x80, 0x31, 0x00, 0x00, 0x80, 0x2a, 0x00, 0x00, 0x89, 0x1d, 0x00,
  0x09, 0xb6, 0x01, 0x10, 0x08, 0xb6, 0x01, 0x12, 0x05, 0xb6, 0x01, 0x14,
  0x07, 0x90, 0x26, 0x4a, 0x01, 0x80, 0x26, 0x00, 0x04, 0xb6, 0x01, 0x18,
  0x05, 0xb6, 0x01, 0x1a, 0x08, 0x90, 0x24, 0x7f, 0x00, 0x90, 0x2a, 0x64,
  0x00, 0x99, 0x24, 0x7e, 0x00, 0x99, 0x2c, 0x6a, 0x00, 0x99, 0x1d, 0x34,
  0x01, 0x80, 0x2a, 0x00, 0x00, 0x80, 0x24, 0x00, 0x00, 0x89, 0x1d, 0x00,
  0x00, 0x89, 0x2c, 0x00, 0x00, 0x89, 0x24, 0x00, 0x06, 0xb6, 0x01, 0x1c,
  0x12, 0x83, 0x43, 0x00, 0x11, 0xb6, 0x01, 0x19, 0x06, 0x90, 0x27, 0x64,
  0x00, 0x90, 0x2a, 0x4e, 0x00, 0x90, 0x26, 0x3a, 0x00, 0x90, 0x31, 0x46,
  0x00, 0x99, 0x28, 0x7f, 0x00, 0x99, 0x1e, 0x6a, 0x01, 0x80, 0x31, 0x00,
  0x00, 0x80, 0x26, 0x00, 0x00, 0x80, 0x2a, 0x00, 0x00, 0x80, 0x27, 0x00,
  0x00, 0x93, 0x41, 0x6e, 0x00, 0x89, 0x1e, 0x00, 0x00, 0x89, 0x28, 0x00,
  0x02, 0xb6, 0x01, 0x10, 0x0d, 0xb6, 0x01, 0x00, 0x1f, 0x83, 0x41, 0x00,
  0x01, 0x90, 0x2a, 0x6a, 0x00, 0x99, 0x2c, 0x7e, 0x00, 0x99, 0x1d, 0x3a,
  0x01, 0x80, 0x2a, 0x00, 0x00, 0x93, 0x43, 0x66, 0x00, 0x89, 0x1d, 0x00,
  0x00, 0x89, 0x2c, 0x00, 0x14, 0x83, 0x43, 0x00, 0x08, 0x85, 0x43, 0x00,
  0x00, 0x85, 0x3f, 0x00, 0x02, 0x90, 0x26, 0x3e, 0x00, 0x93, 0x44, 0x64,
  0x00, 0x85, 0x3a, 0x00, 0x02, 0x80, 0x26, 0x00, 0x0c, 0x86, 0x46, 0x00,
  0x03, 0x90, 0x24, 0x7f, 0x00, 0x90, 0x2a, 0x42, 0x00, 0x90, 0x31, 0x46,
  0x00, 0x91, 0x24, 0x7e, 0x00, 0x92, 0x24, 0x7e, 0x00, 0x99, 0x24, 0x7e,
  0x00, 0x99, 0x1d, 0x3a, 0x01, 0x80, 0x31, 0x00, 0x00, 0x80, 0x2a, 0x00,
  0x00, 0x80, 0x24, 0x00, 0x00, 0x93, 0x43, 0x78, 0x00, 0x96, 0x48, 0x7f,
  0x00, 0x96, 0x4a, 0x7f, 0x00, 0x89, 0x1d, 0x00, 0x00, 0x89, 0x24, 0x00,
  0x01, 0x83, 0x44, 0x00, 0x00, 0x95, 0x37, 0x7e, 0x00, 0x95, 0x3f, 0x7a,
  0x01, 0x95, 0x3c, 0x7a, 0x2d, 0x90, 0x2a, 0x64, 0x00, 0x99, 0x2c, 0x7e,
  0x00, 0x99, 0x1d, 0x3c, 0x01, 0x80, 0x2a, 0x00, 0x00, 0x89, 0x1d, 0x00,
  0x00, 0x89, 0x2c, 0x00, 0x13, 0x82, 0x24, 0x00, 0x1c, 0x90, 0x27, 0x62,
  0x00, 0x90, 0x2a, 0x4e, 0x00, 0x90, 0x31, 0x46, 0x00, 0x99, 0x28, 0x7f,
  0x00, 0x99, 0x1e, 0x5a, 0x01, 0x80, 0x31, 0x00, 0x00, 0x80, 0x2a, 0x00,
  0x00, 0x80, 0x27, 0x00, 0x00, 0x89, 0x1e, 0x00, 0x00, 0x89, 0x28, 0x00,
  0x13, 0x81, 0x24, 0x00, 0x1c, 0x90, 0x2a, 0x5a, 0x00, 0x99, 0x2c, 0x6a,
  0x00, 0x99, 0x1d, 0x24, 0x01, 0x80, 0x2a, 0x00, 0x00, 0x89, 0x1d, 0x00,
  0x00, 0x89, 0x2c, 0x00, 0x1e, 0x90, 0x26, 0x38, 0x01, 0x90, 0x2a, 0x3c,
  0x00, 0x90, 0x27, 0x3c, 0x01, 0x80, 0x27, 0x00, 0x00, 0x80, 0x2a, 0x00,
  0x00, 0x80, 0x26, 0x00, 0x0f, 0x90, 0x2a, 0x42, 0x00, 0x90, 0x31, 0x46,
  0x00, 0x99, 0x1d, 0x34, 0x01, 0x80, 0x31, 0x00, 0x00, 0x80, 0x2a, 0x00,
  0x00, 0x89, 0x1d, 0x00, 0x03, 0xb6, 0x01, 0x04, 0x08, 0xb6, 0x01, 0x07,
  0x07, 0xb6, 0x01, 0x0a, 0x08, 0xb6, 0x01, 0x0c, 0x03, 0x90, 0x26, 0x44,
  0x01, 0x80, 0x26, 0x00, 0x10, 0xb6, 0x01, 0x0f, 0x01, 0x90, 0x24, 0x7f,
  0x00, 0x90, 0x2a, 0x64, 0x00, 0x99, 0x24, 0x7a, 0x00, 0x99, 0x2c, 0x6a,
  0x00, 0x99, 0x1d, 0x3a, 0x01, 0x80, 0x2a, 0x00, 0x00, 0x80, 0x24, 0x00,
  0x00, 0x89, 0x1d, 0x00, 0x00, 0x89, 0x2c, 0x00, 0x00, 0x89, 0x24, 0x00,
  0x08, 0xb6, 0x01, 0x14, 0x18, 0xb6, 0x01, 0x0f, 0x0f, 0x90, 0x27, 0x64,
  0x00, 0x90, 0x2a, 0x48, 0x00, 0x90, 0x31, 0x46, 0x00, 0x99, 0x28, 0x7f,
  0x00, 0x99, 0x1e, 0x54, 0x01, 0x80, 0x31, 0x00, 0x00, 0x80, 0x2a, 0x00,
  0x00, 0x80, 0x27, 0x00, 0x00, 0x89, 0x1e, 0x00, 0x00, 0x89, 0x28, 0x00,
  0x01, 0xb6, 0x01, 0x00, 0x15, 0x83, 0x43, 0x00, 0x19, 0x90, 0x2a, 0x74,
  0x00, 0x99, 0x2c, 0x6a, 0x00, 0x99, 0x1d, 0x16, 0x01, 0x80, 0x2a, 0x00,
  0x00, 0x93, 0x43, 0x66, 0x00, 0x89, 0x1d, 0x00, 0x00, 0x89, 0x2c, 0x00,
  0x1d, 0x83, 0x43, 0x00, 0x01, 0x90, 0x26, 0x30, 0x02, 0x80, 0x26, 0x00,
  0x00, 0x85, 0x37, 0x00, 0x02, 0x85, 0x3c, 0x00, 0x02, 0x85, 0x3f, 0x00,
  0x07, 0x86, 0x4b, 0x00, 0x01, 0x86, 0x48, 0x00, 0x00, 0x86, 0x4a, 0x00,
  0x01, 0x86, 0x43, 0x00, 0x02, 0x90, 0x24, 0x7f, 0x00, 0x90, 0x2a, 0x3c,
  0x00, 0x90, 0x31, 0x46, 0x00, 0x91, 0x1d, 0x7e, 0x00, 0x92, 0x1d, 0x7e,
  0x00, 0x96, 0x48, 0x7f, 0x00, 0x96, 0x44, 0x7f, 0x00, 0x99, 0x24, 0x7e,
  0x00, 0x99, 0x1d, 0x3a, 0x01, 0x80, 0x31, 0x00, 0x00, 0x80, 0x2a, 0x00,
  0x00, 0x80, 0x24, 0x00, 0x00, 0x95, 0x3f, 0x6e, 0x00, 0x96, 0x4d, 0x7f,
  0x00, 0x89, 0x1d, 0x00, 0x00, 0x89, 0x24, 0x00, 0x01, 0x93, 0x44, 0x6e,
  0x00, 0x95, 0x3c, 0x7a, 0x00, 0x95, 0x38, 0x7e, 0x2e, 0x90, 0x2a, 0x64,
  0x00, 0x83, 0x44, 0x00, 0x00, 0x99, 0x2c, 0x6a, 0x00, 0x99, 0x1d, 0x34,
  0x01, 0x80, 0x2a, 0x00, 0x00, 0x93, 0x43, 0x64, 0x00, 0x89, 0x1d, 0x00,
  0x00, 0x89, 0x2c, 0x00, 0x11, 0x83, 0x43, 0x00, 0x09, 0x82, 0x1d, 0x00,
  0x03, 0x93, 0x43, 0x66, 0x12, 0x90, 0x27, 0x64, 0x00, 0x90, 0x2a, 0x62,
  0x00, 0x90, 0x31, 0x46, 0x00, 0x99, 0x28, 0x7f, 0x00, 0x99, 0x1e, 0x5a,
  0x01, 0x80, 0x31, 0x00, 0x00, 0x80, 0x2a, 0x00, 0x00, 0x80, 0x27, 0x00,
  0x00, 0x89, 0x1e, 0x00, 0x00, 0x89, 0x28, 0x00, 0x02, 0x81, 0x1d, 0x00,
  0x2b, 0x83, 0x43, 0x00, 0x02, 0x90, 0x2a, 0x5a, 0x00, 0x99, 0x2c, 0x7e,
  0x00, 0x99, 0x1d, 0x32, 0x01, 0x80, 0x2a, 0x00, 0x00, 0x89, 0x1d, 0x00,
  0x00, 0x89, 0x2c, 0x00, 0x01, 0x93, 0x41, 0x68, 0x0e, 0x83, 0x41, 0x00,
  0x0f, 0x90, 0x26, 0x3c, 0x00, 0x93, 0x41, 0x64, 0x01, 0x90, 0x2a, 0x30,
  0x00, 0x90, 0x27, 0x3c, 0x01, 0x80, 0x27, 0x00, 0x00, 0x80, 0x2a, 0x00,
  0x00, 0x80, 0x26, 0x00, 0x04, 0xb6, 0x01, 0x06, 0x0b, 0x90, 0x2a, 0x3c,
  0x00, 0x90, 0x31, 0x46, 0x00, 0x99, 0x1d, 0x3c, 0x01, 0x80, 0x31, 0x00,
  0x00, 0x80, 0x2a, 0x00, 0x00, 0xb6, 0x01, 0x0c, 0x00, 0x89, 0x1d, 0x00,
  0x0e, 0xb6, 0x01, 0x10, 0x06, 0xb6, 0x01, 0x12, 0x09, 0x90, 0x26, 0x58,
  0x01, 0x80, 0x26, 0x00, 0x11, 0x90, 0x24, 0x7f, 0x00, 0x90, 0x2a, 0x64,
  0x00, 0x99, 0x24, 0x7e, 0x00, 0x99, 0x2c, 0x6a, 0x00, 0x99, 0x1d, 0x3c,
  0x01, 0x80, 0x2a, 0x00, 0x00, 0x80, 0x24, 0x00, 0x00, 0x89, 0x1d, 0x00,
  0x00, 0x89, 0x2c, 0x00, 0x00, 0x89, 0x24, 0x00, 0x14, 0xb6, 0x01, 0x16,
  0x1b, 0x90, 0x27, 0x64, 0x00, 0x90, 0x2a, 0x62, 0x00, 0x90, 0x26, 0x0c,
  0x00, 0x90, 0x31, 0x46, 0x00, 0x99, 0x28, 0x7f, 0x00, 0x99, 0x1e, 0x62,
  0x01, 0x80, 0x31, 0x00, 0x00, 0x80, 0x26, 0x00, 0x00, 0x80, 0x2a, 0x00,
  0x00, 0x80, 0x27, 0x00, 0x00, 0x89, 0x1e, 0x00, 0x00, 0x89, 0x28, 0x00,
  0x02, 0xb6, 0x01, 0x0f, 0x04, 0xb6, 0x01, 0x07, 0x0b, 0xb6, 0x01, 0x00,
  0x1e, 0x90, 0x2a, 0x64, 0x00, 0x99, 0x2c, 0x74, 0x00, 0x99, 0x1d, 0x2e,
  0x01, 0x80, 0x2a, 0x00, 0x00, 0x89, 0x1d, 0x00, 0x00, 0x89, 0x2c, 0x00,
  0x14, 0x83, 0x41, 0x00, 0x09, 0x85, 0x3c, 0x00, 0x01, 0x90, 0x26, 0x3e,
  0x02, 0x80, 0x26, 0x00, 0x01, 0x85, 0x3f, 0x00, 0x00, 0x85, 0x38, 0x00,
  0x0a, 0x86, 0x48, 0x00, 0x00, 0x86, 0x44, 0x00, 0x04, 0x90, 0x24, 0x7f,
  0x00, 0x90, 0x2a, 0x54, 0x00, 0x90, 0x31, 0x46, 0x00, 0x91, 0x22, 0x7e,
  0x00, 0x92, 0x22, 0x7e, 0x00, 0x93, 0x3a, 0x64, 0x00, 0x99, 0x24, 0x7e,
  0x00, 0x99, 0x1d, 0x3a, 0x01, 0x80, 0x31, 0x00, 0x00, 0x80, 0x2a, 0x00,
  0x00, 0x80, 0x24, 0x00, 0x00, 0x95, 0x41, 0x64, 0x00, 0x95, 0x3e, 0x7e,
  0x00, 0x95, 0x3a, 0x7e, 0x00, 0x96, 0x4a, 0x7f, 0x00, 0x96, 0x46, 0x7f,
  0x00, 0x89, 0x1d, 0x00, 0x00, 0x89, 0x24, 0x00, 0x1f, 0x83, 0x3a, 0x00,
  0x10, 0x90, 0x2a, 0x74, 0x00, 0x99, 0x2c, 0x7e, 0x00, 0x99, 0x1d, 0x3c,
  0x01, 0x80, 0x2a, 0x00, 0x00, 0x93, 0x41, 0x64, 0x00, 0x89, 0x1d, 0x00,
  0x00, 0x89, 0x2c, 0x00, 0x12, 0x82, 0x22, 0x00, 0x00, 0x83, 0x41, 0x00,
  0x18, 0x81, 0x22, 0x00, 0x05, 0x90, 0x27, 0x64, 0x00, 0x90, 0x2a, 0x5a,
  0x00, 0x90, 0x31, 0x46, 0x00, 0x85, 0x41, 0x00, 0x00, 0x99, 0x28, 0x7f,
  0x00, 0x99, 0x1e, 0x5a, 0x01, 0x80, 0x31, 0x00, 0x00, 0x80, 0x2a, 0x00,
  0x00, 0x80, 0x27, 0x00, 0x00, 0x95, 0x41, 0x5c, 0x00, 0x89, 0x1e, 0x00,
  0x00, 0x89, 0x28, 0x00, 0x01, 0x95, 0x4d, 0x6a, 0x01, 0x93, 0x41, 0x6e,
  0x2c, 0x83, 0x41, 0x00, 0x01, 0x90, 0x2a, 0x54, 0x00, 0x99, 0x2c, 0x74,
  0x00, 0x99, 0x1d, 0x28, 0x01, 0x80, 0x2a, 0x00, 0x00, 0x89, 0x1d, 0x00,
  0x00, 0x89, 0x2c, 0x00, 0x01, 0x93, 0x43, 0x64, 0x14, 0x83, 0x43, 0x00,
  0x08, 0xb6, 0x01, 0x05, 0x00, 0x99, 0x24, 0x4a, 0x01, 0x90, 0x26, 0x3a,
  0x00, 0x89, 0x24, 0x00, 0x01, 0x90, 0x2a, 0x34, 0x00, 0x90, 0x27, 0x3c,
  0x00, 0x90, 0x24, 0x7f, 0x01, 0x80, 0x24, 0x00, 0x00, 0x80, 0x27, 0x00,
  0x00, 0x80, 0x2a, 0x00, 0x00, 0x80, 0x26, 0x00, 0x0b, 0xb6, 0x01, 0x0a,
  0x04, 0x90, 0x24, 0x7f, 0x00, 0x90, 0x2a, 0x42, 0x00, 0x90, 0x31, 0x46,
  0x00, 0x85, 0x4d, 0x00, 0x00, 0x99, 0x24, 0x6a, 0x00, 0x99, 0x1d, 0x16,
  0x01, 0x80, 0x31, 0x00, 0x00, 0x80, 0x2a, 0x00, 0x00, 0x80, 0x24, 0x00,
  0x00, 0x93, 0x43, 0x78, 0x00, 0x95, 0x4f, 0x74, 0x00, 0x89, 0x1d, 0x00,
  0x00, 0x89, 0x24, 0x00, 0x01, 0x95, 0x43, 0x62, 0x06, 0xb6, 0x01, 0x0f,
  0x12, 0xb6, 0x01, 0x12, 0x04, 0x90, 0x26, 0x60, 0x01, 0x80, 0x26, 0x00,
  0x02, 0xb6, 0x01, 0x14, 0x08, 0x83, 0x43, 0x00, 0x07, 0x90, 0x24, 0x7f,
  0x00, 0x90, 0x2a, 0x64, 0x00, 0x99, 0x24, 0x7e, 0x00, 0x99, 0x2c, 0x7e,
  0x00, 0x99, 0x1d, 0x34, 0x01, 0x80, 0x2a, 0x00, 0x00, 0x80, 0x24, 0x00,
  0x00, 0x89, 0x1d, 0x00, 0x00, 0x89, 0x2c, 0x00, 0x00, 0x89, 0x24, 0x00,
  0x02, 0x93, 0x44, 0x64, 0x0f, 0xb6, 0x01, 0x18, 0x07, 0x83, 0x44, 0x00,
  0x09, 0x85, 0x4f, 0x00, 0x00, 0xb6, 0x01, 0x1a, 0x04, 0x85, 0x43, 0x00,
  0x0a, 0x90, 0x27, 0x64, 0x00, 0x90, 0x2a, 0x54, 0x00, 0x90, 0x31, 0x46,
  0x00, 0x99, 0x28, 0x7f, 0x00, 0x99, 0x1e, 0x6a, 0x01, 0x80, 0x31, 0x00,
  0x00, 0x80, 0x2a, 0x00, 0x00, 0x80, 0x27, 0x00, 0x00, 0x95, 0x44, 0x5c,
  0x00, 0x89, 0x1e, 0x00, 0x00, 0x89, 0x28, 0x00, 0x01, 0x95, 0x50, 0x74,
  0x01, 0x93, 0x44, 0x64, 0x05, 0xb6, 0x01, 0x17, 0x05, 0xb6, 0x01, 0x0d,
  0x0b, 0xb6, 0x01, 0x00, 0x13, 0x83, 0x44, 0x00, 0x05, 0x90, 0x2a, 0x62,
  0x00, 0x99, 0x2c, 0x7e, 0x00, 0x99, 0x1d, 0x3a, 0x01, 0x80, 0x2a, 0x00,
  0x00, 0x93, 0x46, 0x78, 0x00, 0x89, 0x1d, 0x00, 0x00, 0x89, 0x2c, 0x00,
  0x15, 0x83, 0x46, 0x00, 0x09, 0x90, 0x26, 0x2a, 0x00, 0x93, 0x44, 0x64,
  0x02, 0x80, 0x26, 0x00, 0x0c, 0x86, 0x46, 0x00, 0x00, 0x86, 0x4a, 0x00,
  0x00, 0x86, 0x4d, 0x00, 0x02, 0x85, 0x41, 0x00, 0x01, 0x90, 0x24, 0x7f,
  0x00, 0x90, 0x2a, 0x4e, 0x00, 0x90, 0x31, 0x46, 0x00, 0x91, 0x27, 0x7e,
  0x00, 0x92, 0x27, 0x7e, 0x00, 0x85, 0x44, 0x00, 0x00, 0x96, 0x43, 0x7f,
  0x00, 0x99, 0x24, 0x7a, 0x00, 0x99, 0x1d, 0x3a, 0x00, 0x99, 0x39, 0x54,
  0x01, 0x80, 0x31, 0x00, 0x00, 0x80, 0x2a, 0x00, 0x00, 0x80, 0x24, 0x00,
  0x00, 0x85, 0x3e, 0x00, 0x00, 0x85, 0x50, 0x00, 0x00, 0x96, 0x46, 0x7f,
  0x00, 0x96, 0x4b, 0x7f, 0x00, 0x89, 0x39, 0x00, 0x00, 0x89, 0x1d, 0x00,
  0x00, 0x89, 0x24, 0x00, 0x01, 0x85, 0x3a, 0x00, 0x00, 0x95, 0x3a, 0x7a,
  0x01, 0x95, 0x46, 0x7a, 0x00, 0x95, 0x3f, 0x74, 0x00, 0x95, 0x43, 0x6a,
  0x00, 0x95, 0x52, 0x74, 0x2c, 0x83, 0x44, 0x00, 0x01, 0x90, 0x2a, 0x64,
  0x00, 0x99, 0x2c, 0x62, 0x00, 0x99, 0x1d, 0x3c, 0x01, 0x80, 0x2a, 0x00,
  0x00, 0x89, 0x1d, 0x00, 0x00, 0x89, 0x2c, 0x00, 0x01, 0x93, 0x43, 0x64,
  0x2c, 0x82, 0x27, 0x00, 0x00, 0xe8, 0x00, 0x02, 0x02, 0x90, 0x27, 0x64,
  0x00, 0x90, 0x2a, 0x38, 0x00, 0x90, 0x31, 0x46, 0x00, 0x98, 0x5e, 0x7f,
  0x00, 0x99, 0x28, 0x7f, 0x00, 0x99, 0x1e, 0x5a, 0x01, 0x80, 0x31, 0x00,
  0x00, 0x80, 0x2a, 0x00, 0x00, 0x80, 0x27, 0x00, 0x00, 0x89, 0x1e, 0x00,
  0x00, 0x89, 0x28, 0x00, 0x01, 0x94, 0x46, 0x6e, 0x00, 0x94, 0x43, 0x6a,
  0x00, 0x94, 0x4b, 0x6e, 0x03, 0xe8, 0x7f, 0x03, 0x02, 0xe8, 0x7f, 0x04,
  0x03, 0xe8, 0x00, 0x0c, 0x04, 0xe8, 0x7f, 0x1e, 0x02, 0xe8, 0x7f, 0x27,
  0x01, 0xe8, 0x7f, 0x33, 0x03, 0xe8, 0x7f, 0x39, 0x02, 0xe8, 0x7f, 0x3c,
  0x02, 0xe8, 0x00, 0x3e, 0x03, 0xe8, 0x00, 0x40, 0x14, 0x88, 0x5e, 0x00,
  0x01, 0x90, 0x2a, 0x74, 0x00, 0x98, 0x5c, 0x7f, 0x00, 0x99, 0x2c, 0x5a,
  0x00, 0x99, 0x1d, 0x28, 0x01, 0x80, 0x2a, 0x00, 0x00, 0x89, 0x1d, 0x00,
  0x00, 0x89, 0x2c, 0x00, 0x08, 0x83, 0x43, 0x00, 0x05, 0x88, 0x5c, 0x00,
  0x0f, 0x85, 0x43, 0x00, 0x02, 0x90, 0x26, 0x42, 0x01, 0x90, 0x2a, 0x38,
  0x00, 0x90, 0x27, 0x3c, 0x01, 0x80, 0x27, 0x00, 0x00, 0x80, 0x2a, 0x00,
  0x00, 0x80, 0x26, 0x00, 0x04, 0x85, 0x3a, 0x00, 0x00, 0x85, 0x46, 0x00,
  0x00, 0x85, 0x3f, 0x00, 0x01, 0x81, 0x27, 0x00, 0x00, 0x85, 0x52, 0x00,
  0x06, 0x86, 0x43, 0x00, 0x01, 0x86, 0x4b, 0x00, 0x01, 0xe8, 0x00, 0x04,
  0x02, 0x90, 0x2a, 0x34, 0x00, 0x90, 0x31, 0x46, 0x00, 0x91, 0x26, 0x7e,
  0x00, 0x92, 0x26, 0x7e, 0x00, 0x98, 0x5c, 0x7f, 0x00, 0x99, 0x1d, 0x16,
  0x01, 0x80, 0x31, 0x00, 0x00, 0x80, 0x2a, 0x00, 0x00, 0x95, 0x3e, 0x7e,
  0x00, 0x95, 0x41, 0x7a, 0x00, 0x89, 0x1d, 0x00, 0x01, 0x95, 0x46, 0x7e,
  0x00, 0x96, 0x4a, 0x7f, 0x00, 0xe8, 0x00, 0x0d, 0x01, 0x96, 0x41, 0x7f,
  0x01, 0xe8, 0x00, 0x25, 0x03, 0xe8, 0x7f, 0x30, 0x03, 0xe8, 0x00, 0x38,
  0x02, 0xe8, 0x00, 0x3c, 0x02, 0xe8, 0x00, 0x3e, 0x03, 0xe8, 0x00, 0x40,
  0x03, 0x84, 0x4b, 0x00, 0x00, 0x84, 0x43, 0x00, 0x00, 0x84, 0x46, 0x00,
  0x0a, 0x90, 0x26, 0x4a, 0x01, 0x80, 0x26, 0x00, 0x10, 0x88, 0x5c, 0x00,
  0x01, 0x90, 0x24, 0x7f, 0x00, 0x90, 0x2a, 0x64, 0x00, 0x98, 0x5b, 0x7f,
  0x00, 0x99, 0x24, 0x7e, 0x00, 0x99, 0x2c, 0x6a, 0x00, 0x99, 0x1d, 0x34,
  0x01, 0x80, 0x2a, 0x00, 0x00, 0x80, 0x24, 0x00, 0x00, 0x89, 0x1d, 0x00,
  0x00, 0x89, 0x2c, 0x00, 0x00, 0x89, 0x24, 0x00, 0x10, 0x88, 0x5b, 0x00,
  0x12, 0x82, 0x26, 0x00, 0x06, 0xb6, 0x01, 0x07, 0x04, 0xb6, 0x01, 0x0a,
  0x03, 0x90, 0x27, 0x64, 0x00, 0x90, 0x2a, 0x4e, 0x00, 0x90, 0x26, 0x3a,
  0x00, 0x90, 0x31, 0x46, 0x00, 0x94, 0x41, 0x6a, 0x00, 0xe8, 0x7f, 0x04,
  0x00, 0x98, 0x5b, 0x7f, 0x00, 0x99, 0x28, 0x7f, 0x00, 0x99, 0x1e, 0x6a,
  0x01, 0x80, 0x31, 0x00, 0x00, 0x80, 0x26, 0x00, 0x00, 0x80, 0x2a, 0x00,
  0x00, 0x80, 0x27, 0x00, 0x00, 0x94, 0x44, 0x60, 0x00, 0xe8, 0x7f, 0x0a,
  0x00, 0x89, 0x1e, 0x00, 0x00, 0x89, 0x28, 0x00, 0x01, 0xb6, 0x01, 0x0c,
  0x01, 0xe8, 0x7f, 0x0d, 0x03, 0xe8, 0x00, 0x21, 0x02, 0xe8, 0x7f, 0x30,
  0x03, 0xe8, 0x00, 0x38, 0x02, 0xe8, 0x00, 0x3c, 0x03, 0xe8, 0x00, 0x3e,
  0x01, 0xb6, 0x01, 0x0e, 0x01, 0xe8, 0x00, 0x40, 0x0b, 0xb6, 0x01, 0x12,
  0x0b, 0xb6, 0x01, 0x0f, 0x07, 0xb6, 0x01, 0x03, 0x00, 0x88, 0x5b, 0x00,
  0x01, 0x90, 0x2a, 0x6a, 0x00, 0x84, 0x41, 0x00, 0x00, 0x84, 0x44, 0x00,
  0x00, 0x98, 0x59, 0x7f, 0x00, 0x99, 0x2c, 0x7e, 0x00, 0x99, 0x1d, 0x3a,
  0x01, 0x80, 0x2a, 0x00, 0x00, 0x94, 0x46, 0x64, 0x00, 0x89, 0x1d, 0x00,
  0x00, 0x89, 0x2c, 0x00, 0x06, 0xb6, 0x01, 0x00, 0x0d, 0x88, 0x59, 0x00,
  0x03, 0x84, 0x46, 0x00, 0x01, 0x94, 0x43, 0x6a, 0x01, 0x94, 0x3f, 0x60,
  0x06, 0x90, 0x26, 0x3e, 0x01, 0x85, 0x41, 0x00, 0x01, 0x80, 0x26, 0x00,
  0x02, 0x85, 0x46, 0x00, 0x02, 0x85, 0x3e, 0x00, 0x08, 0x86, 0x46, 0x00,
  0x01, 0x86, 0x41, 0x00, 0x01, 0x86, 0x4a, 0x00, 0x01, 0x90, 0x24, 0x7f,
  0x00, 0x90, 0x2a, 0x42, 0x00, 0x90, 0x31, 0x46, 0x00, 0x81, 0x26, 0x00,
  0x00, 0x91, 0x24, 0x7a, 0x00, 0x92, 0x24, 0x7e, 0x00, 0x95, 0x48, 0x7a,
  0x00, 0x99, 0x24, 0x7e, 0x00, 0x99, 0x1d, 0x3a, 0x01, 0x80, 0x31, 0x00,
  0x00, 0x80, 0x2a, 0x00, 0x00, 0x80, 0x24, 0x00, 0x00, 0x96, 0x48, 0x7f,
  0x00, 0x96, 0x43, 0x7f, 0x00, 0x96, 0x4b, 0x7f, 0x00, 0x89, 0x1d, 0x00,
  0x00, 0x89, 0x24, 0x00, 0x01, 0x95, 0x3f, 0x7e, 0x00, 0x95, 0x43, 0x7e,
  0x2e, 0x90, 0x2a, 0x64, 0x00, 0x99, 0x2c, 0x7e, 0x00, 0x99, 0x1d, 0x3c,
  0x01, 0x80, 0x2a, 0x00, 0x00, 0x89, 0x1d, 0x00, 0x00, 0x89, 0x2c, 0x00,
  0x1d, 0x82, 0x24, 0x00, 0x10, 0xe8, 0x7f, 0x04, 0x01, 0x84, 0x43, 0x00,
  0x01, 0x90, 0x27, 0x62, 0x00, 0x90, 0x2a, 0x4e, 0x00, 0x90, 0x31, 0x46,
  0x00, 0x98, 0x5e, 0x7f, 0x00, 0x99, 0x28, 0x7f, 0x00, 0x99, 0x1e, 0x5a,
  0x01, 0x80, 0x31, 0x00, 0x00, 0x80, 0x2a, 0x00, 0x00, 0x80, 0x27, 0x00,
  0x00, 0x84, 0x3f, 0x00, 0x00, 0x89, 0x1e, 0x00, 0x00, 0x89, 0x28, 0x00,
  0x02, 0xe8, 0x00, 0x05, 0x02, 0xe8, 0x00, 0x0b, 0x02, 0xe8, 0x00, 0x17,
  0x03, 0xe8, 0x00, 0x1d, 0x03, 0xe8, 0x00, 0x28, 0x02, 0xe8, 0x7f, 0x32,
  0x03, 0xe8, 0x00, 0x38, 0x02, 0xe8, 0x00, 0x3c, 0x03, 0xe8, 0x00, 0x3e,
  0x02, 0xe8, 0x00, 0x40, 0x12, 0x88, 0x5e, 0x00, 0x05, 0x90, 0x2a, 0x5a,
  0x00, 0x98, 0x5c, 0x7f, 0x00, 0x99, 0x2c, 0x6a, 0x00, 0x99, 0x1d, 0x24,
  0x01, 0x80, 0x2a, 0x00, 0x00, 0x89, 0x1d, 0x00, 0x00, 0x89, 0x2c, 0x00,
  0x0a, 0x85, 0x43, 0x00, 0x04, 0x88, 0x5c, 0x00, 0x10, 0x90, 0x26, 0x38,
  0x01, 0x90, 0x2a, 0x3c, 0x00, 0x90, 0x27, 0x3c, 0x00, 0x85, 0x48, 0x00,
  0x01, 0x80, 0x27, 0x00, 0x00, 0x80, 0x2a, 0x00, 0x00, 0x80, 0x26, 0x00,
  0x02, 0x81, 0x24, 0x00, 0x02, 0x85, 0x3f, 0x00, 0x06, 0xe8, 0x00, 0x05,
  0x01, 0x86, 0x48, 0x00, 0x01, 0x86, 0x43, 0x00, 0x03, 0x90, 0x2a, 0x42,
  0x00, 0x90, 0x31, 0x46, 0x00, 0x91, 0x23, 0x7e, 0x00, 0x92, 0x23, 0x7e,
  0x00, 0x98, 0x5c, 0x7f, 0x00, 0x99, 0x1d, 0x34, 0x01, 0x80, 0x31, 0x00,
  0x00, 0x80, 0x2a, 0x00, 0x00, 0x96, 0x44, 0x7f, 0x00, 0x89, 0x1d, 0x00,
  0x01, 0x95, 0x3f, 0x74, 0x00, 0x96, 0x47, 0x7f, 0x01, 0x93, 0x3b, 0x6e,
  0x00, 0x95, 0x47, 0x7e, 0x00, 0x95, 0x44, 0x74, 0x00, 0xe8, 0x7f, 0x0a,
  0x02, 0xe8, 0x7f, 0x0d, 0x03, 0xe8, 0x7f, 0x1c, 0x02, 0xe8, 0x00, 0x2d,
  0x04, 0xe8, 0x00, 0x35, 0x01, 0xe8, 0x7f, 0x3a, 0x03, 0xe8, 0x00, 0x3d,
  0x03, 0xe8, 0x00, 0x40, 0x04, 0x83, 0x3b, 0x00, 0x05, 0x90, 0x26, 0x44,
  0x01, 0x80, 0x26, 0x00, 0x02, 0x93, 0x3d, 0x64, 0x0e, 0x88, 0x5c, 0x00,
  0x01, 0x90, 0x24, 0x7f, 0x00, 0x90, 0x2a, 0x64, 0x00, 0x98, 0x5b, 0x7f,
  0x00, 0x99, 0x24, 0x7a, 0x00, 0x99, 0x2c, 0x6a, 0x00, 0x99, 0x1d, 0x3a,
  0x01, 0x80, 0x2a, 0x00, 0x00, 0x80, 0x24, 0x00, 0x00, 0x89, 0x1d, 0x00,
  0x00, 0x89, 0x2c, 0x00, 0x00, 0x89, 0x24, 0x00, 0x04, 0x83, 0x3d, 0x00,
  0x0c, 0x88, 0x5b, 0x00, 0x0f, 0x93, 0x3b, 0x66, 0x01, 0x82, 0x23, 0x00,
  0x0d, 0xe8, 0x7f, 0x04, 0x02, 0x90, 0x27, 0x64, 0x00, 0x90, 0x2a, 0x48,
  0x00, 0x90, 0x31, 0x46, 0x00, 0x98, 0x5b, 0x7f, 0x00, 0x99, 0x28, 0x7f,
  0x00, 0x99, 0x1e, 0x54, 0x01, 0x80, 0x31, 0x00, 0x00, 0x80, 0x2a, 0x00,
  0x00, 0x80, 0x27, 0x00, 0x00, 0x89, 0x1e, 0x00, 0x00, 0x89, 0x28, 0x00,
  0x01, 0x83, 0x3b, 0x00, 0x03, 0xe8, 0x00, 0x0d, 0x03, 0xe8, 0x00, 0x11,
  0x03, 0xe8, 0x00, 0x26, 0x02, 0xe8, 0x00, 0x33, 0x03, 0xb6, 0x01, 0x0a,
  0x00, 0xe8, 0x7f, 0x39, 0x03, 0xe8, 0x7f, 0x3c, 0x02, 0xe8, 0x00, 0x3e,
  0x02, 0xb6, 0x01, 0x0e, 0x01, 0xe8, 0x00, 0x40, 0x07, 0x93, 0x3d, 0x6e,
  0x10, 0x88, 0x5b, 0x00, 0x01, 0x90, 0x2a, 0x74, 0x00, 0x93, 0x3b, 0x66,
  0x00, 0x98, 0x59, 0x7f, 0x00, 0x99, 0x2c, 0x6a, 0x00, 0x99, 0x1d, 0x16,
  0x01, 0x80, 0x2a, 0x00, 0x00, 0x89, 0x1d, 0x00, 0x00, 0x89, 0x2c, 0x00,
  0x02, 0x83, 0x3d, 0x00, 0x00, 0x85, 0x3f, 0x00, 0x02, 0xb6, 0x01, 0x12,
  0x08, 0xb6, 0x01, 0x14, 0x01, 0x85, 0x47, 0x00, 0x01, 0x85, 0x44, 0x00,
  0x05, 0x88, 0x59, 0x00, 0x02, 0x83, 0x3b, 0x00, 0x08, 0x93, 0x3a, 0x64,
  0x01, 0x90, 0x26, 0x30, 0x00, 0x81, 0x23, 0x00, 0x02, 0x80, 0x26, 0x00,
  0x0b, 0xb6, 0x01, 0x00, 0x01, 0x86, 0x44, 0x00, 0x01, 0x86, 0x4b, 0x00,
  0x00, 0x86, 0x47, 0x00, 0x02, 0x90, 0x24, 0x7f, 0x00, 0x90, 0x2a, 0x3c,
  0x00, 0x90, 0x31, 0x46, 0x00, 0x91, 0x1b, 0x74, 0x00, 0x92, 0x1b, 0x7e,
  0x00, 0x98, 0x5b, 0x7f, 0x00, 0x99, 0x24, 0x7e, 0x00, 0x99, 0x1d, 0x3a,
  0x01, 0x80, 0x31, 0x00, 0x00, 0x80, 0x2a, 0x00, 0x00, 0x80, 0x24, 0x00,
  0x00, 0x89, 0x1d, 0x00, 0x00, 0x89, 0x24, 0x00, 0x1a, 0x88, 0x5b, 0x00,
  0x15, 0x90, 0x2a, 0x64, 0x00, 0x99, 0x2c, 0x6a, 0x00, 0x99, 0x1d, 0x34,
  0x01, 0x80, 0x2a, 0x00, 0x00, 0x89, 0x1d, 0x00, 0x00, 0x89, 0x2c, 0x00,
  0x09, 0x82, 0x1b, 0x00, 0x26, 0x90, 0x27, 0x64, 0x00, 0x90, 0x2a, 0x62,
  0x00, 0x99, 0x28, 0x7f, 0x00, 0x99, 0x1e, 0x5a, 0x01, 0x80, 0x2a, 0x00,
  0x00, 0x80, 0x27, 0x00, 0x00, 0x89, 0x1e, 0x00, 0x00, 0x89, 0x28, 0x00,
  0x03, 0x81, 0x1b, 0x00, 0x19, 0x83, 0x3a, 0x00, 0x13, 0x90, 0x2a, 0x5a,
  0x00, 0x99, 0x2c, 0x7e, 0x00, 0x99, 0x1d, 0x32, 0x01, 0x80, 0x2a, 0x00,
  0x00, 0x89, 0x1d, 0x00, 0x00, 0x89, 0x2c, 0x00, 0x1e, 0x90, 0x26, 0x3c,
  0x01, 0x90, 0x2a, 0x30, 0x00, 0x90, 0x27, 0x3c, 0x01, 0x80, 0x27, 0x00,
  0x00, 0x80, 0x2a, 0x00, 0x00, 0x80, 0x26, 0x00, 0x0f, 0x90, 0x2a, 0x3c,
  0x00, 0x99, 0x1d, 0x3c, 0x01, 0x80, 0x2a, 0x00, 0x00, 0x89, 0x1d, 0x00,
  0x1d, 0x90, 0x26, 0x58, 0x01, 0x80, 0x26, 0x00, 0x11, 0x90, 0x24, 0x7f,
  0x00, 0x90, 0x2a, 0x64, 0x00, 0x99, 0x24, 0x7e, 0x00, 0x99, 0x2c, 0x6a,
  0x00, 0x99, 0x1d, 0x3c, 0x01, 0x80, 0x2a, 0x00, 0x00, 0x80, 0x24, 0x00,
  0x00, 0x89, 0x1d, 0x00, 0x00, 0x89, 0x2c, 0x00, 0x00, 0x89, 0x24, 0x00,
  0x2f, 0x90, 0x27, 0x64, 0x00, 0x90, 0x2a, 0x62, 0x00, 0x90, 0x26, 0x0c,
  0x00, 0x99, 0x28, 0x7f, 0x00, 0x99, 0x1e, 0x62, 0x01, 0x80, 0x26, 0x00,
  0x00, 0x80, 0x2a, 0x00, 0x00, 0x80, 0x27, 0x00, 0x00, 0x89, 0x1e, 0x00,
  0x00, 0x89, 0x28, 0x00, 0x2f, 0x90, 0x2a, 0x64, 0x00, 0x99, 0x2c, 0x74,
  0x00, 0x99, 0x1d, 0x2e, 0x01, 0x80, 0x2a, 0x00, 0x00, 0x89, 0x1d, 0x00,
  0x00, 0x89, 0x2c, 0x00, 0x1e, 0x90, 0x26, 0x3e, 0x02, 0x80, 0x26, 0x00,
  0x0f, 0x90, 0x24, 0x7f, 0x00, 0x90, 0x2a, 0x54, 0x00, 0x99, 0x24, 0x7e,
  0x01, 0x80, 0x2a, 0x00, 0x00, 0x80, 0x24, 0x00, 0x00, 0x89, 0x24, 0x00,
  0x2f, 0x90, 0x2a, 0x74, 0x00, 0x99, 0x2c, 0x7e, 0x01, 0x80, 0x2a, 0x00,
  0x00, 0x89, 0x2c, 0x00, 0x2f, 0x90, 0x27, 0x64, 0x00, 0x90, 0x2a, 0x5a,
  0x00, 0x99, 0x28, 0x7f, 0x01, 0x80, 0x2a, 0x00, 0x00, 0x80, 0x27, 0x00,
  0x00, 0x89, 0x28, 0x00, 0x2d, 0x99, 0x1d, 0x6e, 0x01, 0x89, 0x1d, 0x00,
  0x01, 0x90, 0x2a, 0x54, 0x00, 0x99, 0x2c, 0x74, 0x01, 0x80, 0x2a, 0x00,
  0x00, 0x90, 0x3e, 0x44, 0x00, 0x89, 0x2c, 0x00, 0x01, 0x80, 0x3e, 0x00,
  0x18, 0x99, 0x1d, 0x30, 0x01, 0x89, 0x1d, 0x00, 0x03, 0x90, 0x3e, 0x5c,
  0x00, 0x99, 0x24, 0x4a, 0x01, 0x90, 0x2a, 0x34, 0x00, 0x89, 0x24, 0x00,
  0x01, 0x90, 0x27, 0x3c, 0x00, 0x90, 0x24, 0x7f, 0x00, 0x80, 0x3e, 0x00,
  0x01, 0x80, 0x24, 0x00, 0x00, 0x80, 0x27, 0x00, 0x00, 0x80, 0x2a, 0x00,
  0x0c, 0x99, 0x1d, 0x3e, 0x01, 0x89, 0x1d, 0x00, 0x02, 0x90, 0x24, 0x7f,
  0x00, 0x90, 0x2a, 0x42, 0x00, 0x99, 0x24, 0x6a, 0x01, 0x80, 0x2a, 0x00,
  0x00, 0x80, 0x24, 0x00, 0x00, 0x89, 0x24, 0x00, 0x1a, 0x99, 0x1d, 0x46,
  0x01, 0x89, 0x1d, 0x00, 0x01, 0x90, 0x3e, 0x58, 0x02, 0x80, 0x3e, 0x00,
  0x0e, 0x99, 0x1e, 0x5a, 0x02, 0x89, 0x1e, 0x00, 0x01, 0x90, 0x24, 0x7f,
  0x00, 0x90, 0x2a, 0x64, 0x00, 0x90, 0x32, 0x60, 0x00, 0x99, 0x24, 0x7e,
  0x00, 0x99, 0x2c, 0x7e, 0x01, 0x80, 0x2a, 0x00, 0x00, 0x80, 0x24, 0x00,
  0x00, 0x80, 0x32, 0x00, 0x00, 0x89, 0x2c, 0x00, 0x00, 0x89, 0x24, 0x00,
  0x2d, 0x99, 0x1d, 0x60, 0x01, 0x89, 0x1d, 0x00, 0x01, 0x90, 0x32, 0x28,
  0x00, 0x90, 0x27, 0x64, 0x00, 0x90, 0x2a, 0x54, 0x00, 0x99, 0x28, 0x7f,
  0x01, 0x80, 0x2a, 0x00, 0x00, 0x80, 0x27, 0x00, 0x00, 0x80, 0x32, 0x00,
  0x00, 0x89, 0x28, 0x00, 0x19, 0x99, 0x1d, 0x4a, 0x01, 0x89, 0x1d, 0x00,
  0x02, 0x90, 0x32, 0x3c, 0x01, 0x80, 0x32, 0x00, 0x10, 0x99, 0x1e, 0x6a,
  0x01, 0x89, 0x1e, 0x00, 0x01, 0x90, 0x2a, 0x62, 0x00, 0x90, 0x2b, 0x7a,
  0x00, 0x99, 0x2c, 0x7e, 0x01, 0x80, 0x2b, 0x00, 0x00, 0x80, 0x2a, 0x00,
  0x00, 0x89, 0x2c, 0x00, 0x2f, 0x90, 0x24, 0x7f, 0x00, 0x90, 0x2a, 0x4e,
  0x00, 0x91, 0x22, 0x7e, 0x00, 0x92, 0x22, 0x7e, 0x00, 0x96, 0x41, 0x7f,
  0x00, 0x99, 0x24, 0x7a, 0x00, 0x99, 0x1d, 0x3a, 0x00, 0x99, 0x37, 0x7e,
  0x01, 0x80, 0x2a, 0x00, 0x00, 0x80, 0x24, 0x00, 0x00, 0x96, 0x45, 0x7f,
  0x00, 0x96, 0x4a, 0x7f, 0x00, 0x89, 0x37, 0x00, 0x00, 0x89, 0x1d, 0x00,
  0x00, 0x89, 0x24, 0x00, 0x01, 0x93, 0x3e, 0x7f, 0x00, 0x97, 0x4a, 0x74,
  0x00, 0x97, 0x3e, 0x6a, 0x0e, 0x87, 0x4a, 0x00, 0x02, 0x87, 0x3e, 0x00,
  0x01, 0x83, 0x3e, 0x00, 0x0b, 0x93, 0x3e, 0x7c, 0x12, 0x90, 0x2a, 0x64,
  0x00, 0x82, 0x22, 0x00, 0x00, 0x99, 0x2c, 0x62, 0x00, 0x99, 0x1d, 0x3c,
  0x01, 0x80, 0x2a, 0x00, 0x00, 0x89, 0x1d, 0x00, 0x00, 0x89, 0x2c, 0x00,
  0x11, 0x81, 0x22, 0x00, 0x1e, 0x90, 0x27, 0x64, 0x00, 0x90, 0x2a, 0x38,
  0x00, 0x97, 0x4a, 0x7e, 0x00, 0x99, 0x28, 0x7f, 0x00, 0x99, 0x1e, 0x5a,
  0x01, 0x80, 0x2a, 0x00, 0x00, 0x80, 0x27, 0x00, 0x00, 0x97, 0x3e, 0x6a,
  0x00, 0x89, 0x1e, 0x00, 0x00, 0x89, 0x28, 0x00, 0x11, 0x87, 0x4a, 0x00,
  0x05, 0x87, 0x3e, 0x00, 0x19, 0x90, 0x2a, 0x74, 0x00, 0x99, 0x2c, 0x5a,
  0x00, 0x99, 0x1d, 0x28, 0x01, 0x80, 0x2a, 0x00, 0x00, 0x89, 0x1d, 0x00,
  0x00, 0x89, 0x2c, 0x00, 0x1e, 0x90, 0x26, 0x42, 0x01, 0x90, 0x2a, 0x38,
  0x00, 0x90, 0x27, 0x3c, 0x01, 0x80, 0x27, 0x00, 0x00, 0x80, 0x2a, 0x00,
  0x00, 0x80, 0x26, 0x00, 0x0f, 0x90, 0x2a, 0x34, 0x00, 0x99, 0x1d, 0x16,
  0x01, 0x80, 0x2a, 0x00, 0x00, 0x97, 0x4a, 0x74, 0x00, 0x89, 0x1d, 0x00,
  0x01, 0x97, 0x3e, 0x7e, 0x06, 0xb6, 0x01, 0x0a, 0x08, 0x87, 0x4a, 0x00,
  0x02, 0xb6, 0x01, 0x0e, 0x02, 0x87, 0x3e, 0x00, 0x0a, 0x90, 0x26, 0x4a,
  0x01, 0x80, 0x26, 0x00, 0x0e, 0xb6, 0x01, 0x14, 0x03, 0x90, 0x24, 0x7f,
  0x00, 0x90, 0x2a, 0x64, 0x00, 0x99, 0x24, 0x7e, 0x00, 0x99, 0x2c, 0x6a,
  0x00, 0x99, 0x1d, 0x34, 0x01, 0x80, 0x2a, 0x00, 0x00, 0x80, 0x24, 0x00,
  0x00, 0x89, 0x1d, 0x00, 0x00, 0x89, 0x2c, 0x00, 0x00, 0x89, 0x24, 0x00,
  0x08, 0xb6, 0x01, 0x18, 0x03, 0x83, 0x3e, 0x00, 0x24, 0x90, 0x27, 0x64,
  0x00, 0x90, 0x2a, 0x4e, 0x00, 0x90, 0x26, 0x3a, 0x00, 0x99, 0x28, 0x7f,
  0x00, 0x99, 0x1e, 0x6a, 0x01, 0x80, 0x26, 0x00, 0x00, 0x80, 0x2a, 0x00,
  0x00, 0x80, 0x27, 0x00, 0x00, 0x97, 0x4a, 0x7e, 0x00, 0x97, 0x3e, 0x6a,
  0x00, 0x89, 0x1e, 0x00, 0x00, 0x89, 0x28, 0x00, 0x15, 0x87, 0x4a, 0x00,
  0x02, 0xb6, 0x01, 0x1c, 0x02, 0x87, 0x3e, 0x00, 0x16, 0x90, 0x2a, 0x6a,
  0x00, 0x93, 0x3a, 0x7e, 0x00, 0x99, 0x2c, 0x7e, 0x00, 0x99, 0x1d, 0x3a,
  0x01, 0x80, 0x2a, 0x00, 0x00, 0x97, 0x48, 0x64, 0x00, 0x89, 0x1d, 0x00,
  0x00, 0x89, 0x2c, 0x00, 0x01, 0x97, 0x3c, 0x6a, 0x14, 0x83, 0x3a, 0x00,
  0x03, 0x87, 0x48, 0x00, 0x04, 0xb6, 0x01, 0x18, 0x02, 0x90, 0x26, 0x3e,
  0x02, 0x80, 0x26, 0x00, 0x00, 0x87, 0x3c, 0x00, 0x04, 0xb6, 0x01, 0x0c,
  0x0b, 0x90, 0x24, 0x7f, 0x00, 0x90, 0x2a, 0x42, 0x00, 0x91, 0x1f, 0x7e,
  0x00, 0x92, 0x1f, 0x7e, 0x00, 0x97, 0x3e, 0x7e, 0x00, 0x99, 0x24, 0x7e,
  0x00, 0x99, 0x1d, 0x3a, 0x01, 0x80, 0x2a, 0x00, 0x00, 0x80, 0x24, 0x00,
  0x00, 0x93, 0x3c, 0x7e, 0x00, 0xb6, 0x01, 0x00, 0x00, 0x97, 0x4a, 0x74,
  0x00, 0x89, 0x1d, 0x00, 0x00, 0x89, 0x24, 0x00, 0x16, 0x87, 0x4a, 0x00,
  0x05, 0x87, 0x3e, 0x00, 0x09, 0x83, 0x3c, 0x00, 0x0b, 0x90, 0x2a, 0x64,
  0x00, 0x99, 0x2c, 0x7e, 0x00, 0x99, 0x1d, 0x3c, 0x01, 0x80, 0x2a, 0x00,
  0x00, 0x89, 0x1d, 0x00, 0x00, 0x89, 0x2c, 0x00, 0x01, 0x93, 0x3e, 0x66,
  0x0a, 0x82, 0x1f, 0x00, 0x04, 0x83, 0x3e, 0x00, 0x01, 0x81, 0x1f, 0x00,
  0x0e, 0x93, 0x3e, 0x68, 0x11, 0x90, 0x27, 0x62, 0x00, 0x90, 0x2a, 0x4e,
  0x00, 0x99, 0x28, 0x7f, 0x00, 0x99, 0x1e, 0x5a, 0x01, 0x80, 0x2a, 0x00,
  0x00, 0x80, 0x27, 0x00, 0x00, 0x89, 0x1e, 0x00, 0x00, 0x89, 0x28, 0x00,
  0x02, 0x97, 0x4a, 0x6a, 0x00, 0x97, 0x3e, 0x7e, 0x0b, 0xb6, 0x01, 0x05,
  0x06, 0x87, 0x4a, 0x00, 0x08, 0x87, 0x3e, 0x00, 0x0d, 0xb6, 0x01, 0x0f,
  0x07, 0x90, 0x2a, 0x5a, 0x00, 0x99, 0x2c, 0x6a, 0x00, 0x99, 0x1d, 0x24,
  0x01, 0x80, 0x2a, 0x00, 0x00, 0x89, 0x1d, 0x00, 0x00, 0x89, 0x2c, 0x00,
  0x0b, 0xb6, 0x01, 0x14, 0x13, 0x90, 0x26, 0x38, 0x01, 0x90, 0x2a, 0x3c,
  0x00, 0x90, 0x27, 0x3c, 0x01, 0x80, 0x27, 0x00, 0x00, 0x80, 0x2a, 0x00,
  0x00, 0x80, 0x26, 0x00, 0x0f, 0x90, 0x2a, 0x42, 0x00, 0x99, 0x1d, 0x34,
  0x01, 0x80, 0x2a, 0x00, 0x00, 0x97, 0x4a, 0x6a, 0x00, 0x97, 0x3e, 0x7e,
  0x00, 0x89, 0x1d, 0x00, 0x11, 0x87, 0x4a, 0x00, 0x02, 0xb6, 0x01, 0x18,
  0x06, 0x87, 0x3e, 0x00, 0x04, 0x90, 0x26, 0x44, 0x01, 0x80, 0x26, 0x00,
  0x10, 0xb6, 0x01, 0x1a, 0x01, 0x90, 0x24, 0x7f, 0x00, 0x90, 0x2a, 0x64,
  0x00, 0x99, 0x24, 0x7a, 0x00, 0x99, 0x2c, 0x6a, 0x00, 0x99, 0x1d, 0x3a,
  0x01, 0x80, 0x2a, 0x00, 0x00, 0x80, 0x24, 0x00, 0x00, 0x89, 0x1d, 0x00,
  0x00, 0x89, 0x2c, 0x00, 0x00, 0x89, 0x24, 0x00, 0x16, 0x83, 0x3e, 0x00,
  0x14, 0xb6, 0x01, 0x16, 0x05, 0x90, 0x27, 0x64, 0x00, 0x90, 0x2a, 0x48,
  0x00, 0x99, 0x28, 0x7f, 0x00, 0x99, 0x1e, 0x54, 0x01, 0x80, 0x2a, 0x00,
  0x00, 0x80, 0x27, 0x00, 0x00, 0x89, 0x1e, 0x00, 0x00, 0x89, 0x28, 0x00,
  0x01, 0xb6, 0x01, 0x0a, 0x01, 0x97, 0x4a, 0x74, 0x00, 0x97, 0x3e, 0x6a,
  0x0c, 0xb6, 0x01, 0x00, 0x07, 0x87, 0x4a, 0x00, 0x03, 0x87, 0x3e, 0x00,
  0x17, 0x90, 0x2a, 0x74, 0x00, 0x93, 0x3e, 0x78, 0x00, 0x97, 0x3c, 0x60,
  0x00, 0x99, 0x2c, 0x6a, 0x00, 0x99, 0x1d, 0x16, 0x01, 0x80, 0x2a, 0x00,
  0x00, 0x97, 0x48, 0x5c, 0x00, 0x89, 0x1d, 0x00, 0x00, 0x89, 0x2c, 0x00,
  0x13, 0x83, 0x3e, 0x00, 0x00, 0x87, 0x3c, 0x00, 0x02, 0x87, 0x48, 0x00,
  0x09, 0x90, 0x26, 0x30, 0x02, 0x80, 0x26, 0x00, 0x0b, 0x86, 0x41, 0x00,
  0x01, 0x86, 0x45, 0x00, 0x03, 0x90, 0x24, 0x7f, 0x00, 0x90, 0x2a, 0x3c,
  0x00, 0x91, 0x24, 0x7e, 0x00, 0x92, 0x24, 0x7e, 0x00, 0x93, 0x3f, 0x68,
  0x00, 0x99, 0x24, 0x7e, 0x00, 0x99, 0x1d, 0x3a, 0x01, 0x80, 0x2a, 0x00,
  0x00, 0x80, 0x24, 0x00, 0x00, 0x96, 0x43, 0x7f, 0x00, 0x89, 0x1d, 0x00,
  0x00, 0x89, 0x24, 0x00, 0x01, 0x96, 0x3f, 0x7f, 0x00, 0x97, 0x3e, 0x7e,
  0x00, 0x97, 0x4a, 0x74, 0x17, 0x87, 0x4a, 0x00, 0x01, 0x87, 0x3e, 0x00,
  0x11, 0x83, 0x3f, 0x00, 0x05, 0x90, 0x2a, 0x64, 0x00, 0x99, 0x2c, 0x6a,
  0x00, 0x99, 0x1d, 0x34, 0x01, 0x80, 0x2a, 0x00, 0x00, 0x93, 0x41, 0x6e,
  0x00, 0x89, 0x1d, 0x00, 0x00, 0x89, 0x2c, 0x00, 0x03, 0x82, 0x24, 0x00,
  0x12, 0x83, 0x41, 0x00, 0x07, 0x81, 0x24, 0x00, 0x13, 0x90, 0x27, 0x64,
  0x00, 0x90, 0x2a, 0x62, 0x00, 0x99, 0x28, 0x7f, 0x00, 0x99, 0x1e, 0x5a,
  0x01, 0x80, 0x2a, 0x00, 0x00, 0x80, 0x27, 0x00, 0x00, 0x93, 0x3f, 0x68,
  0x00, 0x97, 0x4a, 0x74, 0x00, 0x97, 0x3e, 0x7e, 0x00, 0x89, 0x1e, 0x00,
  0x00, 0x89, 0x28, 0x00, 0x15, 0x87, 0x4a, 0x00, 0x02, 0x83, 0x3f, 0x00,
  0x01, 0x87, 0x3e, 0x00, 0x10, 0xb6, 0x01, 0x0a, 0x07, 0x90, 0x2a, 0x5a,
  0x00, 0x93, 0x3e, 0x7f, 0x00, 0x99, 0x2c, 0x7e, 0x00, 0x99, 0x1d, 0x32,
  0x01, 0x80, 0x2a, 0x00, 0x00, 0xb6, 0x01, 0x0f, 0x00, 0x89, 0x1d, 0x00,
  0x00, 0x89, 0x2c, 0x00, 0x07, 0xb6, 0x01, 0x11, 0x0d, 0x83, 0x3e, 0x00,
  0x0a, 0x90, 0x26, 0x3c, 0x00, 0x93, 0x3c, 0x72, 0x01, 0x90, 0x2a, 0x30,
  0x00, 0x90, 0x27, 0x3c, 0x01, 0x80, 0x27, 0x00, 0x00, 0x80, 0x2a, 0x00,
  0x00, 0x80, 0x26, 0x00, 0x0f, 0x90, 0x2a, 0x3c, 0x00, 0x99, 0x1d, 0x3c,
  0x01, 0x80, 0x2a, 0x00, 0x00, 0x97, 0x4a, 0x74, 0x00, 0x89, 0x1d, 0x00,
  0x01, 0x97, 0x3e, 0x74, 0x15, 0x87, 0x4a, 0x00, 0x06, 0x87, 0x3e, 0x00,
  0x01, 0x90, 0x26, 0x58, 0x01, 0x80, 0x26, 0x00, 0x11, 0x90, 0x24, 0x7f,
  0x00, 0x90, 0x2a, 0x64, 0x00, 0x99, 0x24, 0x7e, 0x00, 0x99, 0x2c, 0x6a,
  0x00, 0x99, 0x1d, 0x3c, 0x01, 0x80, 0x2a, 0x00, 0x00, 0x80, 0x24, 0x00,
  0x00, 0x89, 0x1d, 0x00, 0x00, 0x89, 0x2c, 0x00, 0x00, 0x89, 0x24, 0x00,
  0x06, 0xb6, 0x01, 0x14, 0x12, 0x83, 0x3c, 0x00, 0x17, 0x90, 0x27, 0x64,
  0x00, 0x90, 0x2a, 0x62, 0x00, 0x90, 0x26, 0x0c, 0x00, 0x93, 0x3c, 0x78,
  0x00, 0x99, 0x28, 0x7f, 0x00, 0x99, 0x1e, 0x62, 0x01, 0x80, 0x26, 0x00,
  0x00, 0x80, 0x2a, 0x00, 0x00, 0x80, 0x27, 0x00, 0x00, 0x89, 0x1e, 0x00,
  0x00, 0x89, 0x28, 0x00, 0x01, 0x97, 0x3e, 0x74, 0x00, 0x97, 0x4a, 0x62,
  0x05, 0xb6, 0x01, 0x18, 0x0a, 0xb6, 0x01, 0x1c, 0x04, 0xb6, 0x01, 0x1e,
  0x04, 0x87, 0x4a, 0x00, 0x01, 0x83, 0x3c, 0x00, 0x01, 0x87, 0x3e, 0x00,
  0x15, 0x90, 0x2a, 0x64, 0x00, 0x93, 0x3e, 0x78, 0x00, 0x99, 0x2c, 0x74,
  0x00, 0x99, 0x1d, 0x2e, 0x01, 0x80, 0x2a, 0x00, 0x00, 0x89, 0x1d, 0x00,
  0x00, 0x89, 0x2c, 0x00, 0x01, 0x97, 0x3c, 0x5c, 0x00, 0x97, 0x48, 0x54,
  0x06, 0xb6, 0x01, 0x18, 0x06, 0xb6, 0x01, 0x10, 0x06, 0x87, 0x3c, 0x00,
  0x03, 0x83, 0x3e, 0x00, 0x02, 0x87, 0x48, 0x00, 0x02, 0xb6, 0x01, 0x00,
  0x04, 0x90, 0x26, 0x3e, 0x02, 0x80, 0x26, 0x00, 0x0f, 0x90, 0x24, 0x7f,
  0x00, 0x90, 0x2a, 0x54, 0x00, 0x91, 0x24, 0x7a, 0x00, 0x92, 0x24, 0x7e,
  0x00, 0x99, 0x24, 0x7e, 0x00, 0x99, 0x1d, 0x3a, 0x01, 0x80, 0x2a, 0x00,
  0x00, 0x80, 0x24, 0x00, 0x00, 0x96, 0x46, 0x7f, 0x00, 0x89, 0x1d, 0x00,
  0x00, 0x89, 0x24, 0x00, 0x01, 0x93, 0x3f, 0x72, 0x00, 0x97, 0x3e, 0x74,
  0x00, 0x97, 0x4a, 0x6a, 0x19, 0x87, 0x3e, 0x00, 0x02, 0x87, 0x4a, 0x00,
  0x10, 0x83, 0x3f, 0x00, 0x03, 0x90, 0x2a, 0x74, 0x00, 0x99, 0x2c, 0x7e,
  0x00, 0x99, 0x1d, 0x3c, 0x01, 0x80, 0x2a, 0x00, 0x00, 0x93, 0x41, 0x68,
  0x00, 0x89, 0x1d, 0x00, 0x00, 0x89, 0x2c, 0x00, 0x08, 0x82, 0x24, 0x00,
  0x0b, 0x83, 0x41, 0x00, 0x05, 0x81, 0x24, 0x00, 0x17, 0x90, 0x27, 0x64,
  0x00, 0x90, 0x2a, 0x5a, 0x00, 0x99, 0x28, 0x7f, 0x00, 0x99, 0x1e, 0x5a,
  0x01, 0x80, 0x2a, 0x00, 0x00, 0x80, 0x27, 0x00, 0x00, 0x93, 0x3f, 0x68,
  0x00, 0x89, 0x1e, 0x00, 0x00, 0x89, 0x28, 0x00, 0x01, 0x97, 0x3e, 0x7e,
  0x00, 0x97, 0x4a, 0x62, 0x15, 0x87, 0x4a, 0x00, 0x01, 0x83, 0x3f, 0x00,
  0x04, 0x87, 0x3e, 0x00, 0x14, 0x90, 0x2a, 0x54, 0x00, 0x93, 0x3e, 0x78,
  0x00, 0x99, 0x2c, 0x74, 0x00, 0x99, 0x1d, 0x28, 0x01, 0x80, 0x2a, 0x00,
  0x00, 0x89, 0x1d, 0x00, 0x00, 0x89, 0x2c, 0x00, 0x13, 0x83, 0x3e, 0x00,
  0x0a, 0x99, 0x24, 0x4a, 0x01, 0x90, 0x26, 0x3a, 0x00, 0x93, 0x3c, 0x72,
  0x00, 0x89, 0x24, 0x00, 0x01, 0x90, 0x2a, 0x34, 0x00, 0x90, 0x27, 0x3c,
  0x00, 0x90, 0x24, 0x7f, 0x01, 0x80, 0x24, 0x00, 0x00, 0x80, 0x27, 0x00,
  0x00, 0x80, 0x2a, 0x00, 0x00, 0x80, 0x26, 0x00, 0x0f, 0x90, 0x24, 0x7f,
  0x00, 0x90, 0x2a, 0x42, 0x00, 0x99, 0x24, 0x6a, 0x00, 0x99, 0x1d, 0x16,
  0x01, 0x80, 0x2a, 0x00, 0x00, 0x80, 0x24, 0x00, 0x00, 0x97, 0x4a, 0x5a,
  0x00, 0x89, 0x1d, 0x00, 0x00, 0x89, 0x24, 0x00, 0x02, 0x97, 0x3e, 0x74,
  0x13, 0x87, 0x4a, 0x00, 0x04, 0x87, 0x3e, 0x00, 0x04, 0x90, 0x26, 0x60,
  0x01, 0x80, 0x26, 0x00, 0x11, 0x90, 0x24, 0x7f, 0x00, 0x90, 0x2a, 0x64,
  0x00, 0x99, 0x24, 0x7e, 0x00, 0x99, 0x2c, 0x7e, 0x00, 0x99, 0x1d, 0x34,
  0x01, 0x80, 0x2a, 0x00, 0x00, 0x80, 0x24, 0x00, 0x00, 0x89, 0x1d, 0x00,
  0x00, 0x89, 0x2c, 0x00, 0x00, 0x89, 0x24, 0x00, 0x07, 0x83, 0x3c, 0x00,
  0x0e, 0xb6, 0x01, 0x06, 0x0a, 0xb6, 0x01, 0x0b, 0x10, 0x90, 0x27, 0x64,
  0x00, 0x90, 0x2a, 0x54, 0x00, 0x99, 0x28, 0x7f, 0x00, 0x99, 0x1e, 0x6a,
  0x01, 0x80, 0x2a, 0x00, 0x00, 0x80, 0x27, 0x00, 0x00, 0x89, 0x1e, 0x00,
  0x00, 0x89, 0x28, 0x00, 0x01, 0x97, 0x4a, 0x62, 0x00, 0x97, 0x3e, 0x74,
  0x09, 0xb6, 0x01, 0x13, 0x07, 0xb6, 0x01, 0x17, 0x06, 0x87, 0x4a, 0x00,
  0x00, 0x87, 0x3e, 0x00, 0x01, 0xb6, 0x01, 0x19, 0x07, 0xb6, 0x01, 0x1e,
  0x08, 0xb6, 0x01, 0x22, 0x08, 0x90, 0x2a, 0x62, 0x00, 0xb6, 0x01, 0x27,
  0x00, 0x97, 0x48, 0x6a, 0x00, 0x99, 0x2c, 0x7e, 0x00, 0x99, 0x1d, 0x3a,
  0x01, 0x80, 0x2a, 0x00, 0x00, 0x89, 0x1d, 0x00, 0x00, 0x89, 0x2c, 0x00,
  0x01, 0x97, 0x3c, 0x64, 0x06, 0xb6, 0x01, 0x17, 0x0d, 0xb6, 0x01, 0x00,
  0x02, 0x87, 0x3c, 0x00, 0x04, 0x87, 0x48, 0x00, 0x04, 0x90, 0x26, 0x2a,
  0x02, 0x80, 0x26, 0x00, 0x0c, 0x86, 0x46, 0x00, 0x00, 0x86, 0x43, 0x00,
  0x01, 0x86, 0x3f, 0x00, 0x02, 0x90, 0x24, 0x7f, 0x00, 0x90, 0x2a, 0x4e,
  0x00, 0x91, 0x22, 0x7e, 0x00, 0x92, 0x22, 0x7e, 0x00, 0x96, 0x41, 0x7f,
  0x00, 0x96, 0x45, 0x7f, 0x00, 0x99, 0x24, 0x7a, 0x00, 0x99, 0x1d, 0x3a,
  0x01, 0x80, 0x2a, 0x00, 0x00, 0x80, 0x24, 0x00, 0x00, 0x93, 0x3e, 0x66,
  0x00, 0x89, 0x1d, 0x00, 0x00, 0x89, 0x24, 0x00, 0x01, 0x97, 0x3e, 0x74,
  0x00, 0x97, 0x4a, 0x62, 0x0f, 0x83, 0x3e, 0x00, 0x07, 0x87, 0x4a, 0x00,
  0x01, 0x87, 0x3e, 0x00, 0x06, 0x93, 0x3e, 0x78, 0x11, 0x90, 0x2a, 0x64,
  0x00, 0x99, 0x2c, 0x62, 0x00, 0x99, 0x1d, 0x3c, 0x01, 0x80, 0x2a, 0x00,
  0x00, 0x89, 0x1d, 0x00, 0x00, 0x89, 0x2c, 0x00, 0x05, 0x82, 0x22, 0x00,
  0x0c, 0x81, 0x22, 0x00, 0x1e, 0x90, 0x27, 0x64, 0x00, 0x90, 0x2a, 0x38,
  0x00, 0x99, 0x28, 0x7f, 0x00, 0x99, 0x1e, 0x5a, 0x01, 0x80, 0x2a, 0x00,
  0x00, 0x80, 0x27, 0x00, 0x00, 0x97, 0x3e, 0x74, 0x00, 0x89, 0x1e, 0x00,
  0x00, 0x89, 0x28, 0x00, 0x01, 0x97, 0x4a, 0x74, 0x13, 0x87, 0x3e, 0x00,
  0x02, 0x83, 0x3e, 0x00, 0x01, 0x87, 0x4a, 0x00, 0x18, 0x90, 0x2a, 0x74,
  0x00, 0x93, 0x3c, 0x78, 0x00, 0x99, 0x2c, 0x5a, 0x00, 0x99, 0x1d, 0x28,
  0x01, 0x80, 0x2a, 0x00, 0x00, 0x89, 0x1d, 0x00, 0x00, 0x89, 0x2c, 0x00,
  0x01, 0x95, 0x3e, 0x7e, 0x15, 0x83, 0x3c, 0x00, 0x08, 0x90, 0x26, 0x42,
  0x00, 0x93, 0x3a, 0x64, 0x01, 0x90, 0x2a, 0x38, 0x00, 0x90, 0x27, 0x3c,
  0x01, 0x80, 0x27, 0x00, 0x00, 0x80, 0x2a, 0x00, 0x00, 0x80, 0x26, 0x00,
  0x0c, 0x85, 0x3e, 0x00, 0x03, 0x90, 0x2a, 0x34, 0x00, 0x99, 0x1d, 0x16,
  0x01, 0x80, 0x2a, 0x00, 0x00, 0x89, 0x1d, 0x00, 0x01, 0x93, 0x3c, 0x72,
  0x00, 0x83, 0x3a, 0x00, 0x00, 0x97, 0x4a, 0x6a, 0x00, 0x97, 0x3e, 0x74,
  0x01, 0x95, 0x43, 0x7e, 0x07, 0xb6, 0x01, 0x04, 0x08, 0x83, 0x3c, 0x00,
  0x04, 0x87, 0x3e, 0x00, 0x01, 0xb6, 0x01, 0x0a, 0x00, 0x87, 0x4a, 0x00,
  0x07, 0x90, 0x26, 0x4a, 0x01, 0x80, 0x26, 0x00, 0x02, 0x93, 0x3e, 0x66,
  0x0f, 0x90, 0x24, 0x7f, 0x00, 0x90, 0x2a, 0x64, 0x00, 0x99, 0x24, 0x7e,
  0x00, 0x99, 0x2c, 0x6a, 0x00, 0x99, 0x1d, 0x34, 0x01, 0x80, 0x2a, 0x00,
  0x00, 0x80, 0x24, 0x00, 0x00, 0x89, 0x1d, 0x00, 0x00, 0x89, 0x2c, 0x00,
  0x00, 0x89, 0x24, 0x00, 0x0b, 0xb6, 0x01, 0x0d, 0x0f, 0xb6, 0x01, 0x12,
  0x05, 0xb6, 0x01, 0x14, 0x0d, 0x85, 0x43, 0x00, 0x03, 0x90, 0x27, 0x64,
  0x00, 0x90, 0x2a, 0x4e, 0x00, 0x90, 0x26, 0x3a, 0x00, 0x99, 0x28, 0x7f,
  0x00, 0x99, 0x1e, 0x6a, 0x01, 0x80, 0x26, 0x00, 0x00, 0x80, 0x2a, 0x00,
  0x00, 0x80, 0x27, 0x00, 0x00, 0x97, 0x3e, 0x74, 0x00, 0x89, 0x1e, 0x00,
  0x00, 0x89, 0x28, 0x00, 0x01, 0x95, 0x41, 0x74, 0x01, 0xb6, 0x01, 0x16,
  0x00, 0x97, 0x4a, 0x54, 0x08, 0x83, 0x3e, 0x00, 0x0d, 0x87, 0x4a, 0x00,
  0x00, 0x87, 0x3e, 0x00, 0x10, 0xb6, 0x01, 0x1b, 0x08, 0x90, 0x2a, 0x6a,
  0x00, 0x99, 0x2c, 0x7e, 0x00, 0x99, 0x1d, 0x3a, 0x01, 0x80, 0x2a, 0x00,
  0x00, 0x97, 0x3c, 0x60, 0x00, 0x97, 0x48, 0x60, 0x00, 0x89, 0x1d, 0x00,
  0x00, 0x89, 0x2c, 0x00, 0x01, 0x93, 0x41, 0x6e, 0x17, 0x83, 0x41, 0x00,
  0x01, 0x87, 0x3c, 0x00, 0x01, 0x87, 0x48, 0x00, 0x04, 0x90, 0x26, 0x3e,
  0x02, 0x80, 0x26, 0x00, 0x00, 0xb6, 0x01, 0x17, 0x07, 0xb6, 0x01, 0x08,
  0x08, 0x90, 0x24, 0x7f, 0x00, 0x90, 0x2a, 0x42, 0x00, 0x91, 0x1f, 0x7e,
  0x00, 0x92, 0x1f, 0x7e, 0x00, 0x99, 0x24, 0x7e, 0x00, 0x99, 0x1d, 0x3a,
  0x01, 0x80, 0x2a, 0x00, 0x00, 0x80, 0x24, 0x00, 0x00, 0x93, 0x45, 0x78,
  0x00, 0x97, 0x3e, 0x7e, 0x00, 0x97, 0x4a, 0x6a, 0x00, 0x89, 0x1d, 0x00,
  0x00, 0x89, 0x24, 0x00, 0x01, 0xb6, 0x01, 0x00, 0x18, 0x87, 0x4a, 0x00,
  0x02, 0x87, 0x3e, 0x00, 0x08, 0x83, 0x45, 0x00, 0x0c, 0x90, 0x2a, 0x64,
  0x00, 0x99, 0x2c, 0x7e, 0x00, 0x99, 0x1d, 0x3c, 0x01, 0x80, 0x2a, 0x00,
  0x00, 0x89, 0x1d, 0x00, 0x00, 0x89, 0x2c, 0x00, 0x01, 0x93, 0x43, 0x6e,
  0x0a, 0x82, 0x1f, 0x00, 0x04, 0x83, 0x43, 0x00, 0x08, 0x81, 0x1f, 0x00,
  0x07, 0x93, 0x43, 0x7f, 0x11, 0x90, 0x27, 0x62, 0x00, 0x90, 0x2a, 0x4e,
  0x00, 0x97, 0x4a, 0x74, 0x00, 0x99, 0x28, 0x7f, 0x00, 0x99, 0x1e, 0x5a,
  0x01, 0x80, 0x2a, 0x00, 0x00, 0x80, 0x27, 0x00, 0x00, 0x89, 0x1e, 0x00,
  0x00, 0x89, 0x28, 0x00, 0x01, 0x97, 0x3e, 0x7e, 0x15, 0xb6, 0x01, 0x08,
  0x00, 0x87, 0x4a, 0x00, 0x06, 0xb6, 0x01, 0x0a, 0x02, 0x87, 0x3e, 0x00,
  0x04, 0xb6, 0x01, 0x0c, 0x05, 0xb6, 0x01, 0x0e, 0x04, 0x85, 0x41, 0x00,
  0x04, 0x90, 0x2a, 0x5a, 0x00, 0x99, 0x2c, 0x6a, 0x00, 0x99, 0x1d, 0x24,
  0x01, 0x80, 0x2a, 0x00, 0x00, 0x95, 0x3e, 0x74, 0x00, 0x89, 0x1d, 0x00,
  0x00, 0x89, 0x2c, 0x00, 0x1e, 0x90, 0x26, 0x38, 0x01, 0x90, 0x2a, 0x3c,
  0x00, 0x90, 0x27, 0x3c, 0x01, 0x80, 0x27, 0x00, 0x00, 0x80, 0x2a, 0x00,
  0x00, 0x80, 0x26, 0x00, 0x01, 0xb6, 0x01, 0x12, 0x06, 0xb6, 0x01, 0x14,
  0x05, 0x85, 0x3e, 0x00, 0x03, 0x90, 0x2a, 0x42, 0x00, 0x99, 0x1d, 0x34,
  0x01, 0x80, 0x2a, 0x00, 0x00, 0xb6, 0x01, 0x16, 0x00, 0x89, 0x1d, 0x00,
  0x01, 0x95, 0x45, 0x7e, 0x00, 0x97, 0x3e, 0x74, 0x00, 0x97, 0x4a, 0x74,
  0x10, 0xb6, 0x01, 0x19, 0x02, 0x87, 0x4a, 0x00, 0x06, 0x87, 0x3e, 0x00,
  0x04, 0x90, 0x26, 0x44, 0x01, 0x80, 0x26, 0x00, 0x06, 0x83, 0x43, 0x00,
  0x0b, 0x90, 0x24, 0x7f, 0x00, 0x90, 0x2a, 0x64, 0x00, 0x99, 0x24, 0x7a,
  0x00, 0x99, 0x2c, 0x6a, 0x00, 0x99, 0x1d, 0x3a, 0x01, 0x80, 0x2a, 0x00,
  0x00, 0x80, 0x24, 0x00, 0x00, 0x89, 0x1d, 0x00, 0x00, 0x89, 0x2c, 0x00,
  0x00, 0x89, 0x24, 0x00, 0x08, 0xb6, 0x01, 0x1a, 0x10, 0xb6, 0x01, 0x16,
  0x07, 0xb6, 0x01, 0x11, 0x10, 0x90, 0x27, 0x64, 0x00, 0x90, 0x2a, 0x48,
  0x00, 0x85, 0x45, 0x00, 0x00, 0x99, 0x28, 0x7f, 0x00, 0x99, 0x1e, 0x54,
  0x01, 0x80, 0x2a, 0x00, 0x00, 0x80, 0x27, 0x00, 0x00, 0x97, 0x3e, 0x7e,
  0x00, 0x89, 0x1e, 0x00, 0x00, 0x89, 0x28, 0x00, 0x01, 0x95, 0x43, 0x7e,
  0x00, 0x97, 0x4a, 0x62, 0x0e, 0xb6, 0x01, 0x0e, 0x09, 0xb6, 0x01, 0x06,
  0x00, 0x87, 0x4a, 0x00, 0x02, 0x87, 0x3e, 0x00, 0x0a, 0xb6, 0x01, 0x00,
  0x0b, 0x90, 0x2a, 0x74, 0x00, 0x99, 0x2c, 0x6a, 0x00, 0x99, 0x1d, 0x16,
  0x01, 0x80, 0x2a, 0x00, 0x00, 0x93, 0x43, 0x6e, 0x00, 0x89, 0x1d, 0x00,
  0x00, 0x89, 0x2c, 0x00, 0x01, 0x97, 0x3c, 0x6a, 0x00, 0x97, 0x48, 0x60,
  0x14, 0x87, 0x3c, 0x00, 0x02, 0x83, 0x43, 0x00, 0x01, 0x87, 0x48, 0x00,
  0x06, 0x90, 0x26, 0x30, 0x02, 0x80, 0x26, 0x00, 0x0b, 0x86, 0x45, 0x00,
  0x00, 0x86, 0x41, 0x00, 0x04, 0x90, 0x24, 0x7f, 0x00, 0x90, 0x2a, 0x3c,
  0x00, 0x91, 0x24, 0x7e, 0x00, 0x92, 0x24, 0x7e, 0x00, 0x96, 0x48, 0x7f,
  0x00, 0x99, 0x24, 0x7e, 0x00, 0x99, 0x1d, 0x3a, 0x01, 0x80, 0x2a, 0x00,
  0x00, 0x80, 0x24, 0x00, 0x00, 0x93, 0x46, 0x7e, 0x00, 0x96, 0x4b, 0x7f,
  0x00, 0x97, 0x4a, 0x74, 0x00, 0x89, 0x1d, 0x00, 0x00, 0x89, 0x24, 0x00,
  0x01, 0x97, 0x3e, 0x74, 0x1b, 0x87, 0x4a, 0x00, 0x02, 0x87, 0x3e, 0x00,
  0x04, 0x83, 0x46, 0x00, 0x0d, 0x90, 0x2a, 0x64, 0x00, 0x93, 0x46, 0x6e,
  0x00, 0x99, 0x2c, 0x6a, 0x00, 0x99, 0x1d, 0x34, 0x01, 0x80, 0x2a, 0x00,
  0x00, 0x89, 0x1d, 0x00, 0x00, 0x89, 0x2c, 0x00, 0x12, 0x81, 0x24, 0x00,
  0x01, 0x83, 0x46, 0x00, 0x01, 0x82, 0x24, 0x00, 0x1b, 0x90, 0x27, 0x64,
  0x00, 0x90, 0x2a, 0x62, 0x00, 0x93, 0x46, 0x64, 0x00, 0x99, 0x28, 0x7f,
  0x00, 0x99, 0x1e, 0x5a, 0x01, 0x80, 0x2a, 0x00, 0x00, 0x80, 0x27, 0x00,
  0x00, 0x97, 0x4a, 0x62, 0x00, 0x89, 0x1e, 0x00, 0x00, 0x89, 0x28, 0x00,
  0x02, 0x97, 0x3e, 0x7e, 0x05, 0xb6, 0x01, 0x0a, 0x07, 0xb6, 0x01, 0x15,
  0x05, 0xb6, 0x01, 0x1c, 0x04, 0xb6, 0x01, 0x22, 0x01, 0x83, 0x46, 0x00,
  0x00, 0x87, 0x4a, 0x00, 0x01, 0x87, 0x3e, 0x00, 0x01, 0x85, 0x43, 0x00,
  0x03, 0xb6, 0x01, 0x2a, 0x04, 0xb6, 0x01, 0x2f, 0x05, 0xb6, 0x01, 0x35,
  0x05, 0xb6, 0x01, 0x36, 0x04, 0x90, 0x2a, 0x5a, 0x00, 0x99, 0x2c, 0x7e,
  0x00, 0x99, 0x1d, 0x32, 0x01, 0x80, 0x2a, 0x00, 0x00, 0x89, 0x1d, 0x00,
  0x00, 0x89, 0x2c, 0x00, 0x01, 0x93, 0x46, 0x72, 0x01, 0x95, 0x43, 0x7e,
  0x03, 0xb6, 0x01, 0x2e, 0x07, 0xb6, 0x01, 0x16, 0x02, 0x83, 0x46, 0x00,
  0x0a, 0xb6, 0x01, 0x00, 0x06, 0x90, 0x26, 0x3c, 0x00, 0x93, 0x46, 0x78,
  0x01, 0x90, 0x2a, 0x30, 0x00, 0x90, 0x27, 0x3c, 0x01, 0x80, 0x27, 0x00,
  0x00, 0x80, 0x2a, 0x00, 0x00, 0x80, 0x26, 0x00, 0x0b, 0x86, 0x48, 0x00,
  0x04, 0x90, 0x2a, 0x3c, 0x00, 0x91, 0x23, 0x7e, 0x00, 0x92, 0x23, 0x7e,
  0x00, 0x85, 0x43, 0x00, 0x00, 0x96, 0x47, 0x7f, 0x00, 0x99, 0x1d, 0x3c,
  0x01, 0x80, 0x2a, 0x00, 0x00, 0x97, 0x4a, 0x74, 0x00, 0x89, 0x1d, 0x00,
  0x01, 0x95, 0x4a, 0x7e, 0x00, 0x97, 0x3e, 0x74, 0x11, 0x87, 0x4a, 0x00,
  0x04, 0x87, 0x3e, 0x00, 0x07, 0x90, 0x26, 0x58, 0x01, 0x80, 0x26, 0x00,
  0x0e, 0x83, 0x46, 0x00, 0x03, 0x90, 0x24, 0x7f, 0x00, 0x90, 0x2a, 0x64,
  0x00, 0x93, 0x43, 0x6e, 0x00, 0x99, 0x24, 0x7e, 0x00, 0x99, 0x2c, 0x6a,
  0x00, 0x99, 0x1d, 0x3c, 0x01, 0x80, 0x2a, 0x00, 0x00, 0x80, 0x24, 0x00,
  0x00, 0x89, 0x1d, 0x00, 0x00, 0x89, 0x2c, 0x00, 0x00, 0x89, 0x24, 0x00,
  0x11, 0x83, 0x43, 0x00, 0x01, 0x81, 0x23, 0x00, 0x04, 0x82, 0x23, 0x00,
  0x15, 0x86, 0x47, 0x00, 0x02, 0x85, 0x4a, 0x00, 0x02, 0x90, 0x27, 0x64,
  0x00, 0x90, 0x2a, 0x62, 0x00, 0x90, 0x26, 0x0c, 0x00, 0x91, 0x22, 0x7a,
  0x00, 0x92, 0x22, 0x6e, 0x00, 0x96, 0x46, 0x7f, 0x00, 0x99, 0x28, 0x7f,
  0x00, 0x99, 0x1e, 0x62, 0x01, 0x80, 0x26, 0x00, 0x00, 0x80, 0x2a, 0x00,
  0x00, 0x80, 0x27, 0x00, 0x00, 0x93, 0x3f, 0x68, 0x00, 0x95, 0x46, 0x7a,
  0x00, 0x97, 0x4a, 0x7e, 0x00, 0x89, 0x1e, 0x00, 0x00, 0x89, 0x28, 0x00,
  0x01, 0x97, 0x3e, 0x74, 0x12, 0x87, 0x4a, 0x00, 0x05, 0x87, 0x3e, 0x00,
  0x12, 0x83, 0x3f, 0x00, 0x05, 0x90, 0x2a, 0x64, 0x00, 0x99, 0x2c, 0x74,
  0x00, 0x99, 0x1d, 0x2e, 0x01, 0x80, 0x2a, 0x00, 0x00, 0x93, 0x3e, 0x64,
  0x00, 0x97, 0x3c, 0x5c, 0x00, 0x89, 0x1d, 0x00, 0x00, 0x89, 0x2c, 0x00,
  0x01, 0x97, 0x48, 0x54, 0x14, 0x87, 0x3c, 0x00, 0x01, 0x87, 0x48, 0x00,
  0x02, 0x81, 0x22, 0x00, 0x06, 0x90, 0x26, 0x3e, 0x01, 0x82, 0x22, 0x00,
  0x01, 0x80, 0x26, 0x00, 0x0b, 0x83, 0x3e, 0x00, 0x00, 0x86, 0x46, 0x00,
  0x04, 0x90, 0x24, 0x7f, 0x00, 0x90, 0x2a, 0x54, 0x00, 0x91, 0x21, 0x7e,
  0x00, 0x92, 0x21, 0x7e, 0x00, 0x85, 0x46, 0x00, 0x00, 0x96, 0x45, 0x7f,
  0x00, 0x99, 0x24, 0x7e, 0x00, 0x99, 0x1d, 0x3a, 0x01, 0x80, 0x2a, 0x00,
  0x00, 0x80, 0x24, 0x00, 0x00, 0x93, 0x3c, 0x78, 0x00, 0x89, 0x1d, 0x00,
  0x00, 0x89, 0x24, 0x00, 0x01, 0x95, 0x45, 0x74, 0x00, 0x97, 0x4a, 0x74,
  0x00, 0x97, 0x3e, 0x7e, 0x18, 0x87, 0x4a, 0x00, 0x05, 0x87, 0x3e, 0x00,
  0x11, 0x90, 0x2a, 0x74, 0x00, 0x99, 0x2c, 0x7e, 0x00, 0x99, 0x1d, 0x3c,
  0x01, 0x80, 0x2a, 0x00, 0x00, 0x89, 0x1d, 0x00, 0x00, 0x89, 0x2c, 0x00,
  0x15, 0x82, 0x21, 0x00, 0x04, 0x81, 0x21, 0x00, 0x0e, 0xb6, 0x01, 0x0c,
  0x08, 0x90, 0x27, 0x64, 0x00, 0x90, 0x2a, 0x5a, 0x00, 0x99, 0x28, 0x7f,
  0x00, 0x99, 0x1e, 0x5a, 0x01, 0x80, 0x2a, 0x00, 0x00, 0x80, 0x27, 0x00,
  0x00, 0x89, 0x1e, 0x00, 0x00, 0x89, 0x28, 0x00, 0x01, 0xb6, 0x01, 0x16,
  0x00, 0x97, 0x3e, 0x74, 0x00, 0x97, 0x4a, 0x74, 0x06, 0xb6, 0x01, 0x1a,
  0x05, 0xb6, 0x01, 0x1e, 0x07, 0x87, 0x4a, 0x00, 0x01, 0x87, 0x3e, 0x00,
  0x03, 0xb6, 0x01, 0x25, 0x0e, 0x85, 0x45, 0x00, 0x06, 0xb6, 0x01, 0x28,
  0x04, 0x90, 0x2a, 0x54, 0x00, 0x95, 0x3c, 0x7a, 0x00, 0x99, 0x2c, 0x74,
  0x00, 0x99, 0x1d, 0x28, 0x01, 0x80, 0x2a, 0x00, 0x00, 0x89, 0x1d, 0x00,
  0x00, 0x89, 0x2c, 0x00, 0x03, 0x83, 0x3c, 0x00, 0x03, 0xb6, 0x01, 0x2a,
  0x07, 0xb6, 0x01, 0x27, 0x0a, 0xb6, 0x01, 0x07, 0x06, 0x99, 0x24, 0x4a,
  0x01, 0x90, 0x26, 0x3a, 0x00, 0x89, 0x24, 0x00, 0x01, 0x90, 0x2a, 0x34,
  0x00, 0x90, 0x27, 0x3c, 0x00, 0x90, 0x24, 0x7f, 0x01, 0x80, 0x24, 0x00,
  0x00, 0x80, 0x27, 0x00, 0x00, 0x80, 0x2a, 0x00, 0x00, 0x80, 0x26, 0x00,
  0x02, 0xb6, 0x01, 0x00, 0x09, 0x86, 0x45, 0x00, 0x03, 0x85, 0x3c, 0x00,
  0x01, 0x90, 0x24, 0x7f, 0x00, 0x90, 0x2a, 0x42, 0x00, 0x91, 0x20, 0x7e,
  0x00, 0x92, 0x20, 0x74, 0x00, 0x99, 0x24, 0x6a, 0x00, 0x99, 0x1d, 0x16,
  0x01, 0x80, 0x2a, 0x00, 0x00, 0x80, 0x24, 0x00, 0x00, 0x95, 0x44, 0x74,
  0x00, 0x96, 0x44, 0x7f, 0x00, 0x97, 0x4a, 0x6a, 0x00, 0x89, 0x1d, 0x00,
  0x00, 0x89, 0x24, 0x00, 0x01, 0x97, 0x3e, 0x7e, 0x13, 0x87, 0x4a, 0x00,
  0x01, 0x87, 0x3e, 0x00, 0x08, 0x90, 0x26, 0x60, 0x01, 0x80, 0x26, 0x00,
  0x11, 0x90, 0x24, 0x7f, 0x00, 0x90, 0x2a, 0x64, 0x00, 0x99, 0x24, 0x7e,
  0x00, 0x99, 0x2c, 0x7e, 0x00, 0x99, 0x1d, 0x34, 0x01, 0x80, 0x2a, 0x00,
  0x00, 0x80, 0x24, 0x00, 0x00, 0x89, 0x1d, 0x00, 0x00, 0x89, 0x2c, 0x00,
  0x00, 0x89, 0x24, 0x00, 0x06, 0x81, 0x20, 0x00, 0x0f, 0x82, 0x20, 0x00,
  0x17, 0x86, 0x44, 0x00, 0x00, 0x86, 0x4a, 0x00, 0x03, 0x90, 0x27, 0x64,
  0x00, 0x90, 0x2a, 0x54, 0x00, 0x91, 0x1f, 0x7e, 0x00, 0x92, 0x1f, 0x7e,
  0x00, 0x85, 0x44, 0x00, 0x00, 0x99, 0x28, 0x7f, 0x00, 0x99, 0x1e, 0x6a,
  0x00, 0x9a, 0x3a, 0x7e, 0x01, 0x80, 0x2a, 0x00, 0x00, 0x80, 0x27, 0x00,
  0x00, 0x95, 0x43, 0x74, 0x00, 0x96, 0x43, 0x7f, 0x00, 0x97, 0x4a, 0x7e,
  0x00, 0x97, 0x3e, 0x7e, 0x00, 0x89, 0x1e, 0x00, 0x00, 0x89, 0x28, 0x00,
  0x16, 0x87, 0x4a, 0x00, 0x03, 0x87, 0x3e, 0x00, 0x16, 0x90, 0x2a, 0x62,
  0x00, 0x97, 0x48, 0x58, 0x00, 0x99, 0x2c, 0x7e, 0x00, 0x99, 0x1d, 0x3a,
  0x01, 0x80, 0x2a, 0x00, 0x00, 0x97, 0x3c, 0x58, 0x00, 0x89, 0x1d, 0x00,
  0x00, 0x89, 0x2c, 0x00, 0x0c, 0x81, 0x1f, 0x00, 0x05, 0x87, 0x3c, 0x00,
  0x03, 0x82, 0x1f, 0x00, 0x00, 0x87, 0x48, 0x00, 0x0a, 0x90, 0x26, 0x2a,
  0x00, 0x85, 0x43, 0x00, 0x02, 0x80, 0x26, 0x00, 0x0d, 0x86, 0x43, 0x00,
  0x00, 0x86, 0x4b, 0x00, 0x02, 0x90, 0x24, 0x7f, 0x00, 0x90, 0x2a, 0x4e,
  0x00, 0x90, 0x31, 0x46, 0x00, 0x91, 0x27, 0x7e, 0x00, 0x92, 0x27, 0x7e,
  0x00, 0x99, 0x24, 0x7a, 0x00, 0x99, 0x1d, 0x3a, 0x00, 0x99, 0x37, 0x7e,
  0x01, 0x80, 0x31, 0x00, 0x00, 0x80, 0x2a, 0x00, 0x00, 0x80, 0x24, 0x00,
  0x00, 0x93, 0x43, 0x6e, 0x00, 0x96, 0x46, 0x7f, 0x00, 0x96, 0x43, 0x7f,
  0x00, 0x96, 0x4b, 0x7f, 0x00, 0x89, 0x37, 0x00, 0x00, 0x89, 0x1d, 0x00,
  0x00, 0x89, 0x24, 0x00, 0x01, 0x95, 0x3f, 0x7a, 0x00, 0x95, 0x43, 0x7e,
  0x00, 0x95, 0x3a, 0x7e, 0x01, 0x8a, 0x3a, 0x00, 0x10, 0x83, 0x43, 0x00,
  0x0b, 0x93, 0x43, 0x6e, 0x12, 0x90, 0x2a, 0x64, 0x00, 0x99, 0x2c, 0x62,
  0x00, 0x99, 0x1d, 0x3c, 0x01, 0x80, 0x2a, 0x00, 0x00, 0x89, 0x1d, 0x00,
  0x00, 0x89, 0x2c, 0x00, 0x12, 0x82, 0x27, 0x00, 0x0b, 0x81, 0x27, 0x00,
  0x12, 0x90, 0x27, 0x64, 0x00, 0x90, 0x2a, 0x38, 0x00, 0x90, 0x31, 0x46,
  0x00, 0x99, 0x28, 0x7f, 0x00, 0x99, 0x1e, 0x5a, 0x01, 0x80, 0x31, 0x00,
  0x00, 0x80, 0x2a, 0x00, 0x00, 0x80, 0x27, 0x00, 0x00, 0x89, 0x1e, 0x00,
  0x00, 0x89, 0x28, 0x00, 0x2f, 0x90, 0x2a, 0x74, 0x00, 0x99, 0x2c, 0x5a,
  0x00, 0x99, 0x1d, 0x28, 0x01, 0x80, 0x2a, 0x00, 0x00, 0x89, 0x1d, 0x00,
  0x00, 0x89, 0x2c, 0x00, 0x10, 0xb6, 0x01, 0x07, 0x0d, 0xb6, 0x01, 0x0c,
  0x01, 0x90, 0x26, 0x42, 0x01, 0x90, 0x2a, 0x38, 0x00, 0x90, 0x27, 0x3c,
  0x01, 0x80, 0x27, 0x00, 0x00, 0x80, 0x2a, 0x00, 0x00, 0x80, 0x26, 0x00,
  0x0f, 0x90, 0x2a, 0x34, 0x00, 0x90, 0x31, 0x46, 0x00, 0x99, 0x1d, 0x16,
  0x01, 0x80, 0x31, 0x00, 0x00, 0x80, 0x2a, 0x00, 0x00, 0x89, 0x1d, 0x00,
  0x0a, 0xb6, 0x01, 0x11, 0x0c, 0xb6, 0x01, 0x14, 0x07, 0x90, 0x26, 0x4a,
  0x01, 0x80, 0x26, 0x00, 0x04, 0xb6, 0x01, 0x18, 0x05, 0xb6, 0x01, 0x1a,
  0x08, 0x90, 0x24, 0x7f, 0x00, 0x90, 0x2a, 0x64, 0x00, 0x99, 0x24, 0x7e,
  0x00, 0x99, 0x2c, 0x6a, 0x00, 0x99, 0x1d, 0x34, 0x01, 0x80, 0x2a, 0x00,
  0x00, 0x80, 0x24, 0x00, 0x00, 0x89, 0x1d, 0x00, 0x00, 0x89, 0x2c, 0x00,
  0x00, 0x89, 0x24, 0x00, 0x12, 0x83, 0x43, 0x00, 0x12, 0xb6, 0x01, 0x1c,
  0x09, 0xb6, 0x01, 0x15, 0x02, 0x90, 0x27, 0x64, 0x00, 0x90, 0x2a, 0x4e,
  0x00, 0x90, 0x26, 0x3a, 0x00, 0x90, 0x31, 0x46, 0x00, 0x99, 0x28, 0x7f,
  0x00, 0x99, 0x1e, 0x6a, 0x01, 0x80, 0x31, 0x00, 0x00, 0x80, 0x26, 0x00,
  0x00, 0x80, 0x2a, 0x00, 0x00, 0x80, 0x27, 0x00, 0x00, 0x93, 0x41, 0x72,
  0x00, 0x89, 0x1e, 0x00, 0x00, 0x89, 0x28, 0x00, 0x04, 0xb6, 0x01, 0x09,
  0x0b, 0xb6, 0x01, 0x00, 0x1c, 0x83, 0x41, 0x00, 0x04, 0x90, 0x2a, 0x6a,
  0x00, 0x99, 0x2c, 0x7e, 0x00, 0x99, 0x1d, 0x3a, 0x01, 0x80, 0x2a, 0x00,
  0x00, 0x93, 0x43, 0x6e, 0x00, 0x89, 0x1d, 0x00, 0x00, 0x89, 0x2c, 0x00,
  0x13, 0x83, 0x43, 0x00, 0x0a, 0x85, 0x43, 0x00, 0x01, 0x90, 0x26, 0x3e,
  0x00, 0x85, 0x3a, 0x00, 0x00, 0x85, 0x3f, 0x00, 0x01, 0x93, 0x44, 0x64,
  0x01, 0x80, 0x26, 0x00, 0x0c, 0x86, 0x46, 0x00, 0x03, 0x90, 0x24, 0x7f,
  0x00, 0x90, 0x2a, 0x42, 0x00, 0x90, 0x31, 0x46, 0x00, 0x91, 0x24, 0x7e,
  0x00, 0x92, 0x24, 0x7e, 0x00, 0x96, 0x4a, 0x7f, 0x00, 0x99, 0x24, 0x7e,
  0x00, 0x99, 0x1d, 0x3a, 0x01, 0x80, 0x31, 0x00, 0x00, 0x80, 0x2a, 0x00,
  0x00, 0x80, 0x24, 0x00, 0x00, 0x95, 0x3c, 0x7a, 0x00, 0x96, 0x48, 0x7f,
  0x00, 0x89, 0x1d, 0x00, 0x00, 0x89, 0x24, 0x00, 0x01, 0x93, 0x43, 0x78,
  0x00, 0x95, 0x3f, 0x7a, 0x00, 0x95, 0x37, 0x7e, 0x02, 0x83, 0x44, 0x00,
  0x2c, 0x90, 0x2a, 0x64, 0x00, 0x99, 0x2c, 0x7e, 0x00, 0x99, 0x1d, 0x3c,
  0x01, 0x80, 0x2a, 0x00, 0x00, 0x89, 0x1d, 0x00, 0x00, 0x89, 0x2c, 0x00,
  0x13, 0x82, 0x24, 0x00, 0x1c, 0x90, 0x27, 0x62, 0x00, 0x90, 0x2a, 0x4e,
  0x00, 0x90, 0x31, 0x46, 0x00, 0x99, 0x28, 0x7f, 0x00, 0x99, 0x1e, 0x5a,
  0x01, 0x80, 0x31, 0x00, 0x00, 0x80, 0x2a, 0x00, 0x00, 0x80, 0x27, 0x00,
  0x00, 0x89, 0x1e, 0x00, 0x00, 0x89, 0x28, 0x00, 0x13, 0x81, 0x24, 0x00,
  0x1c, 0x90, 0x2a, 0x5a, 0x00, 0x99, 0x2c, 0x6a, 0x00, 0x99, 0x1d, 0x24,
  0x01, 0x80, 0x2a, 0x00, 0x00, 0x89, 0x1d, 0x00, 0x00, 0x89, 0x2c, 0x00,
  0x1e, 0x90, 0x26, 0x38, 0x01, 0x90, 0x2a, 0x3c, 0x00, 0x90, 0x27, 0x3c,
  0x01, 0x80, 0x27, 0x00, 0x00, 0x80, 0x2a, 0x00, 0x00, 0x80, 0x26, 0x00,
  0x0f, 0x90, 0x2a, 0x42, 0x00, 0x90, 0x31, 0x46, 0x00, 0x99, 0x1d, 0x34,
  0x01, 0x80, 0x31, 0x00, 0x00, 0x80, 0x2a, 0x00, 0x00, 0x89, 0x1d, 0x00,
  0x0e, 0xb6, 0x01, 0x08, 0x0f, 0x90, 0x26, 0x44, 0x01, 0x80, 0x26, 0x00,
  0x02, 0x83, 0x43, 0x00, 0x03, 0xb6, 0x01, 0x0c, 0x0c, 0x90, 0x24, 0x7f,
  0x00, 0x90, 0x2a, 0x64, 0x00, 0x99, 0x24, 0x7a, 0x00, 0x99, 0x2c, 0x6a,
  0x00, 0x99, 0x1d, 0x3a, 0x01, 0x80, 0x2a, 0x00, 0x00, 0x80, 0x24, 0x00,
  0x00, 0x89, 0x1d, 0x00, 0x00, 0x89, 0x2c, 0x00, 0x00, 0x89, 0x24, 0x00,
  0x03, 0xb6, 0x01, 0x12, 0x11, 0xb6, 0x01, 0x14, 0x0c, 0xb6, 0x01, 0x0f,
  0x05, 0xb6, 0x01, 0x09, 0x0a, 0x90, 0x27, 0x64, 0x00, 0x90, 0x2a, 0x48,
  0x00, 0x90, 0x31, 0x46, 0x00, 0x99, 0x28, 0x7f, 0x00, 0x99, 0x1e, 0x54,
  0x01, 0x80, 0x31, 0x00, 0x00, 0x80, 0x2a, 0x00, 0x00, 0x80, 0x27, 0x00,
  0x00, 0x89, 0x1e, 0x00, 0x00, 0x89, 0x28, 0x00, 0x01, 0xb6, 0x01, 0x00,
  0x2e, 0x90, 0x2a, 0x74, 0x00, 0x93, 0x43, 0x6e, 0x00, 0x99, 0x2c, 0x6a,
  0x00, 0x99, 0x1d, 0x16, 0x01, 0x80, 0x2a, 0x00, 0x00, 0x89, 0x1d, 0x00,
  0x00, 0x89, 0x2c, 0x00, 0x1e, 0x90, 0x26, 0x30, 0x02, 0x80, 0x26, 0x00,
  0x01, 0x85, 0x3c, 0x00, 0x01, 0x85, 0x37, 0x00, 0x02, 0x83, 0x43, 0x00,
  0x01, 0x85, 0x3f, 0x00, 0x06, 0x86, 0x4a, 0x00, 0x01, 0x86, 0x43, 0x00,
  0x00, 0x86, 0x48, 0x00, 0x00, 0x86, 0x4b, 0x00, 0x03, 0x90, 0x24, 0x7f,
  0x00, 0x90, 0x2a, 0x3c, 0x00, 0x90, 0x31, 0x46, 0x00, 0x91, 0x1d, 0x7e,
  0x00, 0x92, 0x1d, 0x7e, 0x00, 0x99, 0x24, 0x7e, 0x00, 0x99, 0x1d, 0x3a,
  0x01, 0x80, 0x31, 0x00, 0x00, 0x80, 0x2a, 0x00, 0x00, 0x80, 0x24, 0x00,
  0x00, 0x95, 0x38, 0x7e, 0x00, 0x96, 0x48, 0x7f, 0x00, 0x96, 0x44, 0x7f,
  0x00, 0x96, 0x4d, 0x7f, 0x00, 0x89, 0x1d, 0x00, 0x00, 0x89, 0x24, 0x00,
  0x01, 0x93, 0x44, 0x6e, 0x01, 0x95, 0x3c, 0x7a, 0x00, 0x95, 0x3f, 0x6e,
  0x18, 0xb7, 0x63, 0x01, 0x06, 0xb7, 0x62, 0x21, 0x03, 0xb7, 0x06, 0x40,
  0x03, 0x83, 0x44, 0x00, 0x09, 0x90, 0x2a, 0x64, 0x00, 0x99, 0x2c, 0x6a,
  0x00, 0x99, 0x1d, 0x34, 0x01, 0x80, 0x2a, 0x00, 0x00, 0x89, 0x1d, 0x00,
  0x00, 0x89, 0x2c, 0x00, 0x02, 0x93, 0x43, 0x78, 0x10, 0x83, 0x43, 0x00,
  0x08, 0x82, 0x1d, 0x00, 0x05, 0x93, 0x43, 0x66, 0x10, 0x90, 0x27, 0x64,
  0x00, 0x90, 0x2a, 0x62, 0x00, 0x90, 0x31, 0x46, 0x00, 0x99, 0x28, 0x7f,
  0x00, 0x99, 0x1e, 0x5a, 0x01, 0x80, 0x31, 0x00, 0x00, 0x80, 0x2a, 0x00,
  0x00, 0x80, 0x27, 0x00, 0x00, 0x89, 0x1e, 0x00, 0x00, 0x89, 0x28, 0x00,
  0x02, 0x81, 0x1d, 0x00, 0x24, 0x83, 0x43, 0x00, 0x09, 0x90, 0x2a, 0x5a,
  0x00, 0x99, 0x2c, 0x7e, 0x00, 0x99, 0x1d, 0x32, 0x01, 0x80, 0x2a, 0x00,
  0x00, 0x89, 0x1d, 0x00, 0x00, 0x89, 0x2c, 0x00, 0x01, 0x93, 0x41, 0x68,
  0x0c, 0x83, 0x41, 0x00, 0x11, 0x90, 0x26, 0x3c, 0x01, 0x90, 0x2a, 0x30,
  0x00, 0x90, 0x27, 0x3c, 0x01, 0x80, 0x27, 0x00, 0x00, 0x80, 0x2a, 0x00,
  0x00, 0x80, 0x26, 0x00, 0x00, 0x93, 0x41, 0x64, 0x02, 0xb6, 0x01, 0x06,
  0x0c, 0xb6, 0x01, 0x0a, 0x01, 0x90, 0x2a, 0x3c, 0x00, 0x90, 0x31, 0x46,
  0x00, 0x99, 0x1d, 0x3c, 0x01, 0x80, 0x31, 0x00, 0x00, 0x80, 0x2a, 0x00,
  0x00, 0x89, 0x1d, 0x00, 0x08, 0xb7, 0x62, 0x64, 0x03, 0xb6, 0x01, 0x0f,
  0x01, 0xb7, 0x06, 0x40, 0x07, 0xb6, 0x01, 0x12, 0x06, 0xb7, 0x62, 0x66,
  0x04, 0x90, 0x26, 0x58, 0x00, 0xb7, 0x06, 0x40, 0x01, 0x80, 0x26, 0x00,
  0x11, 0x90, 0x24, 0x7f, 0x00, 0x90, 0x2a, 0x64, 0x00, 0x99, 0x24, 0x7e,
  0x00, 0x99, 0x2c, 0x6a, 0x00, 0x99, 0x1d, 0x3c, 0x01, 0x80, 0x2a, 0x00,
  0x00, 0x80, 0x24, 0x00, 0x00, 0x89, 0x1d, 0x00, 0x00, 0x89, 0x2c, 0x00,
  0x00, 0x89, 0x24, 0x00, 0x14, 0xb6, 0x01, 0x16, 0x19, 0xb6, 0x01, 0x14,
  0x02, 0x90, 0x27, 0x64, 0x00, 0x90, 0x2a, 0x62, 0x00, 0x90, 0x26, 0x0c,
  0x00, 0x90, 0x31, 0x46, 0x00, 0x99, 0x28, 0x7f, 0x00, 0x99, 0x1e, 0x62,
  0x01, 0x80, 0x31, 0x00, 0x00, 0x80, 0x26, 0x00, 0x00, 0x80, 0x2a, 0x00,
  0x00, 0x80, 0x27, 0x00, 0x00, 0x89, 0x1e, 0x00, 0x00, 0x89, 0x28, 0x00,
  0x01, 0xb7, 0x64, 0x7f, 0x01, 0xb6, 0x01, 0x0f, 0x0f, 0xb6, 0x01, 0x00,
  0x09, 0xb7, 0x65, 0x7f, 0x15, 0x90, 0x2a, 0x64, 0x00, 0x99, 0x2c, 0x74,
  0x00, 0x99, 0x1d, 0x2e, 0x01, 0x80, 0x2a, 0x00, 0x00, 0x89, 0x1d, 0x00,
  0x00, 0x89, 0x2c, 0x00, 0x1c, 0x85, 0x3c, 0x00, 0x02, 0x90, 0x26, 0x3e,
  0x01, 0x85, 0x38, 0x00, 0x01, 0x80, 0x26, 0x00, 0x02, 0x85, 0x3f, 0x00,
  0x09, 0x83, 0x41, 0x00, 0x01, 0x86, 0x48, 0x00, 0x00, 0x86, 0x44, 0x00,
  0x03, 0x90, 0x24, 0x7f, 0x00, 0x90, 0x2a, 0x54, 0x00, 0x90, 0x31, 0x46,
  0x00, 0x91, 0x22, 0x7e, 0x00, 0x92, 0x22, 0x7e, 0x00, 0x99, 0x24, 0x7e,
  0x00, 0x99, 0x1d, 0x3a, 0x01, 0x80, 0x31, 0x00, 0x00, 0x80, 0x2a, 0x00,
  0x00, 0x80, 0x24, 0x00, 0x00, 0x93, 0x3a, 0x64, 0x00, 0x95, 0x3e, 0x7e,
  0x00, 0x96, 0x46, 0x7f, 0x00, 0x96, 0x4a, 0x7f, 0x00, 0x89, 0x1d, 0x00,
  0x00, 0x89, 0x24, 0x00, 0x01, 0x95, 0x41, 0x64, 0x00, 0x95, 0x3a, 0x7e,
  0x26, 0x83, 0x3a, 0x00, 0x08, 0x90, 0x2a, 0x74, 0x00, 0x99, 0x2c, 0x7e,
  0x00, 0x99, 0x1d, 0x3c, 0x01, 0x80, 0x2a, 0x00, 0x00, 0x93, 0x41, 0x68,
  0x00, 0x89, 0x1d, 0x00, 0x00, 0x89, 0x2c, 0x00, 0x12, 0x82, 0x22, 0x00,
  0x03, 0x83, 0x41, 0x00, 0x15, 0x81, 0x22, 0x00, 0x04, 0x85, 0x41, 0x00,
  0x01, 0x90, 0x27, 0x64, 0x00, 0x90, 0x2a, 0x5a, 0x00, 0x90, 0x31, 0x46,
  0x00, 0x95, 0x41, 0x5c, 0x00, 0x99, 0x28, 0x7f, 0x00, 0x99, 0x1e, 0x5a,
  0x01, 0x80, 0x31, 0x00, 0x00, 0x80, 0x2a, 0x00, 0x00, 0x80, 0x27, 0x00,
  0x00, 0x93, 0x41, 0x6e, 0x00, 0x89, 0x1e, 0x00, 0x00, 0x89, 0x28, 0x00,
  0x01, 0x95, 0x4d, 0x6a, 0x29, 0x83, 0x41, 0x00, 0x05, 0x90, 0x2a, 0x54,
  0x00, 0x93, 0x43, 0x66, 0x00, 0x99, 0x2c, 0x74, 0x00, 0x99, 0x1d, 0x28,
  0x01, 0x80, 0x2a, 0x00, 0x00, 0x89, 0x1d, 0x00, 0x00, 0x89, 0x2c, 0x00,
  0x16, 0x83, 0x43, 0x00, 0x05, 0xb6, 0x01, 0x04, 0x02, 0x99, 0x24, 0x4a,
  0x01, 0x90, 0x26, 0x3a, 0x00, 0x89, 0x24, 0x00, 0x01, 0x90, 0x2a, 0x34,
  0x00, 0x90, 0x27, 0x3c, 0x00, 0x90, 0x24, 0x7f, 0x01, 0x80, 0x24, 0x00,
  0x00, 0x80, 0x27, 0x00, 0x00, 0x80, 0x2a, 0x00, 0x00, 0x80, 0x26, 0x00,
  0x0b, 0xb6, 0x01, 0x0a, 0x04, 0x90, 0x24, 0x7f, 0x00, 0x90, 0x2a, 0x42,
  0x00, 0x90, 0x31, 0x46, 0x00, 0x93, 0x43, 0x78, 0x00, 0x85, 0x4d, 0x00,
  0x00, 0x99, 0x24, 0x6a, 0x00, 0x99, 0x1d, 0x16, 0x01, 0x80, 0x31, 0x00,
  0x00, 0x80, 0x2a, 0x00, 0x00, 0x80, 0x24, 0x00, 0x00, 0x89, 0x1d, 0x00,
  0x00, 0x89, 0x24, 0x00, 0x01, 0x95, 0x4f, 0x74, 0x00, 0x95, 0x43, 0x62,
  0x06, 0xb6, 0x01, 0x0f, 0x08, 0xb6, 0x01, 0x0f, 0x0a, 0xb6, 0x01, 0x12,
  0x04, 0x90, 0x26, 0x60, 0x01, 0x80, 0x26, 0x00, 0x05, 0x83, 0x43, 0x00,
  0x00, 0xb6, 0x01, 0x15, 0x0c, 0x90, 0x24, 0x7f, 0x00, 0x90, 0x2a, 0x64,
  0x00, 0x93, 0x44, 0x64, 0x00, 0x99, 0x24, 0x7e, 0x00, 0x99, 0x2c, 0x7e,
  0x00, 0x99, 0x1d, 0x34, 0x01, 0x80, 0x2a, 0x00, 0x00, 0x80, 0x24, 0x00,
  0x00, 0x89, 0x1d, 0x00, 0x00, 0x89, 0x2c, 0x00, 0x00, 0x89, 0x24, 0x00,
  0x11, 0xb6, 0x01, 0x18, 0x04, 0x83, 0x44, 0x00, 0x08, 0x99, 0x2d, 0x46,
  0x01, 0x89, 0x2d, 0x00, 0x03, 0xb6, 0x01, 0x1a, 0x02, 0x85, 0x4f, 0x00,
  0x02, 0x85, 0x43, 0x00, 0x0a, 0x90, 0x27, 0x64, 0x00, 0x90, 0x2a, 0x54,
  0x00, 0x90, 0x31, 0x46, 0x00, 0x99, 0x28, 0x7f, 0x00, 0x99, 0x1e, 0x6a,
  0x00, 0x99, 0x2b, 0x74, 0x00, 0x9a, 0x3a, 0x7e, 0x01, 0x80, 0x31, 0x00,
  0x00, 0x80, 0x2a, 0x00, 0x00, 0x80, 0x27, 0x00, 0x00, 0x95, 0x44, 0x5c,
  0x00, 0x89, 0x2b, 0x00, 0x00, 0x89, 0x1e, 0x00, 0x00, 0x89, 0x28, 0x00,
  0x01, 0x93, 0x44, 0x64, 0x00, 0x95, 0x50, 0x74, 0x0b, 0xb6, 0x01, 0x0d,
  0x0b, 0xb6, 0x01, 0x00, 0x12, 0x83, 0x44, 0x00, 0x06, 0x90, 0x2a, 0x62,
  0x00, 0x99, 0x2c, 0x7e, 0x00, 0x99, 0x1d, 0x3a, 0x00, 0x99, 0x2b, 0x30,
  0x01, 0x80, 0x2a, 0x00, 0x00, 0x93, 0x46, 0x6e, 0x00, 0x89, 0x2b, 0x00,
  0x00, 0x89, 0x1d, 0x00, 0x00, 0x89, 0x2c, 0x00, 0x10, 0x83, 0x46, 0x00,
  0x01, 0x85, 0x3a, 0x00, 0x0d, 0x90, 0x26, 0x2a, 0x01, 0x93, 0x44, 0x64,
  0x01, 0x80, 0x26, 0x00, 0x0c, 0x85, 0x50, 0x00, 0x00, 0x86, 0x4a, 0x00,
  0x00, 0x86, 0x46, 0x00, 0x00, 0x86, 0x4d, 0x00, 0x02, 0x85, 0x44, 0x00,
  0x00, 0x85, 0x3e, 0x00, 0x01, 0x90, 0x24, 0x7f, 0x00, 0x90, 0x2a, 0x4e,
  0x00, 0x90, 0x31, 0x46, 0x00, 0x91, 0x27, 0x7e, 0x00, 0x92, 0x27, 0x7e,
  0x00, 0x85, 0x41, 0x00, 0x00, 0x96, 0x43, 0x74, 0x00, 0x99, 0x24, 0x7a,
  0x00, 0x99, 0x1d, 0x3a, 0x00, 0x99, 0x37, 0x7e, 0x01, 0x80, 0x31, 0x00,
  0x00, 0x80, 0x2a, 0x00, 0x00, 0x80, 0x24, 0x00, 0x00, 0x95, 0x3f, 0x7e,
  0x00, 0x95, 0x43, 0x7e, 0x00, 0x96, 0x46, 0x6e, 0x00, 0x96, 0x4b, 0x7a,
  0x00, 0x89, 0x37, 0x00, 0x00, 0x89, 0x1d, 0x00, 0x00, 0x89, 0x24, 0x00,
  0x01, 0x95, 0x46, 0x7e, 0x01, 0x8a, 0x3a, 0x00, 0x29, 0x83, 0x44, 0x00,
  0x04, 0x90, 0x2a, 0x64, 0x00, 0x99, 0x2c, 0x62, 0x00, 0x99, 0x1d, 0x3c,
  0x01, 0x80, 0x2a, 0x00, 0x00, 0x89, 0x1d, 0x00, 0x00, 0x89, 0x2c, 0x00,
  0x01, 0x93, 0x43, 0x6e, 0x29, 0xe8, 0x00, 0x02, 0x05, 0x90, 0x27, 0x64,
  0x00, 0x90, 0x2a, 0x38, 0x00, 0x90, 0x31, 0x46, 0x00, 0x98, 0x5e, 0x7f,
  0x00, 0x99, 0x28, 0x7f, 0x00, 0x99, 0x1e, 0x5a, 0x01, 0x80, 0x31, 0x00,
  0x00, 0x80, 0x2a, 0x00, 0x00, 0x80, 0x27, 0x00, 0x00, 0x94, 0x43, 0x74,
  0x00, 0x94, 0x46, 0x74, 0x00, 0x94, 0x4b, 0x74, 0x00, 0x89, 0x1e, 0x00,
  0x00, 0x89, 0x28, 0x00, 0x04, 0xe8, 0x7f, 0x03, 0x02, 0xe8, 0x7f, 0x04,
  0x03, 0xe8, 0x00, 0x0c, 0x04, 0xe8, 0x7f, 0x1e, 0x01, 0xe8, 0x7f, 0x27,
  0x02, 0xe8, 0x7f, 0x33, 0x03, 0xe8, 0x7f, 0x39, 0x02, 0xe8, 0x7f, 0x3c,
  0x02, 0xe8, 0x00, 0x3e, 0x03, 0xe8, 0x00, 0x40, 0x10, 0x83, 0x43, 0x00,
  0x04, 0x88, 0x5e, 0x00, 0x01, 0x90, 0x2a, 0x74, 0x00, 0x98, 0x5c, 0x7f,
  0x00, 0x99, 0x2c, 0x5a, 0x00, 0x99, 0x1d, 0x28, 0x01, 0x80, 0x2a, 0x00,
  0x00, 0x89, 0x1d, 0x00, 0x00, 0x89, 0x2c, 0x00, 0x03, 0x85, 0x3f, 0x00,
  0x05, 0x85, 0x43, 0x00, 0x05, 0x88, 0x5c, 0x00, 0x0a, 0x85, 0x46, 0x00,
  0x07, 0x90, 0x26, 0x42, 0x01, 0x90, 0x2a, 0x38, 0x00, 0x90, 0x27, 0x3c,
  0x01, 0x80, 0x27, 0x00, 0x00, 0x80, 0x2a, 0x00, 0x00, 0x80, 0x26, 0x00,
  0x08, 0x82, 0x27, 0x00, 0x02, 0x81, 0x27, 0x00, 0x01, 0x86, 0x43, 0x00,
  0x01, 0x86, 0x4b, 0x00, 0x00, 0xe8, 0x00, 0x05, 0x03, 0x90, 0x2a, 0x34,
  0x00, 0x90, 0x31, 0x46, 0x00, 0x91, 0x26, 0x7e, 0x00, 0x92, 0x26, 0x7e,
  0x00, 0x98, 0x5c, 0x7f, 0x00, 0x99, 0x1d, 0x16, 0x01, 0x80, 0x31, 0x00,
  0x00, 0x80, 0x2a, 0x00, 0x00, 0x96, 0x4a, 0x7e, 0x00, 0x96, 0x4d, 0x6a,
  0x00, 0x89, 0x1d, 0x00, 0x01, 0x95, 0x41, 0x7a, 0x00, 0x95, 0x3e, 0x7e,
  0x00, 0x95, 0x46, 0x74, 0x01, 0xe8, 0x00, 0x04, 0x03, 0xe8, 0x00, 0x0d,
  0x03, 0xe8, 0x00, 0x25, 0x01, 0xe8, 0x7f, 0x30, 0x03, 0xe8, 0x00, 0x38,
  0x03, 0xe8, 0x00, 0x3c, 0x01, 0xe8, 0x00, 0x3e, 0x03, 0xe8, 0x00, 0x40,
  0x03, 0x84, 0x43, 0x00, 0x05, 0x84, 0x4b, 0x00, 0x00, 0x84, 0x46, 0x00,
  0x02, 0x90, 0x26, 0x4a, 0x01, 0x80, 0x26, 0x00, 0x10, 0x88, 0x5c, 0x00,
  0x01, 0x90, 0x24, 0x7f, 0x00, 0x90, 0x2a, 0x64, 0x00, 0x98, 0x5b, 0x7f,
  0x00, 0x99, 0x24, 0x7e, 0x00, 0x99, 0x2c, 0x6a, 0x00, 0x99, 0x1d, 0x34,
  0x01, 0x80, 0x2a, 0x00, 0x00, 0x80, 0x24, 0x00, 0x00, 0x89, 0x1d, 0x00,
  0x00, 0x89, 0x2c, 0x00, 0x00, 0x89, 0x24, 0x00, 0x10, 0x88, 0x5b, 0x00,
  0x1e, 0xe8, 0x7f, 0x04, 0x01, 0x90, 0x27, 0x64, 0x00, 0x90, 0x2a, 0x4e,
  0x00, 0x90, 0x26, 0x3a, 0x00, 0x90, 0x31, 0x46, 0x00, 0x98, 0x5b, 0x7f,
  0x00, 0x99, 0x28, 0x7f, 0x00, 0x99, 0x1e, 0x6a, 0x01, 0x80, 0x31, 0x00,
  0x00, 0x80, 0x26, 0x00, 0x00, 0x80, 0x2a, 0x00, 0x00, 0x80, 0x27, 0x00,
  0x00, 0x94, 0x44, 0x60, 0x00, 0x89, 0x1e, 0x00, 0x00, 0x89, 0x28, 0x00,
  0x01, 0x94, 0x41, 0x6e, 0x00, 0xe8, 0x7f, 0x0a, 0x01, 0xe8, 0x7f, 0x0d,
  0x03, 0xe8, 0x00, 0x21, 0x03, 0xe8, 0x7f, 0x30, 0x02, 0xe8, 0x00, 0x38,
  0x02, 0xe8, 0x00, 0x3c, 0x03, 0xe8, 0x00, 0x40, 0x0f, 0x85, 0x41, 0x00,
  0x06, 0x85, 0x3e, 0x00, 0x0a, 0x88, 0x5b, 0x00, 0x01, 0x90, 0x2a, 0x6a,
  0x00, 0x84, 0x44, 0x00, 0x00, 0x98, 0x59, 0x7f, 0x00, 0x99, 0x2c, 0x7e,
  0x00, 0x99, 0x1d, 0x3a, 0x01, 0x80, 0x2a, 0x00, 0x00, 0x84, 0x41, 0x00,
  0x00, 0x89, 0x1d, 0x00, 0x00, 0x89, 0x2c, 0x00, 0x01, 0x94, 0x46, 0x60,
  0x12, 0x88, 0x59, 0x00, 0x05, 0x84, 0x46, 0x00, 0x01, 0x94, 0x43, 0x74,
  0x00, 0x94, 0x3f, 0x60, 0x05, 0x90, 0x26, 0x3e, 0x02, 0x80, 0x26, 0x00,
  0x00, 0x85, 0x46, 0x00, 0x0b, 0x82, 0x26, 0x00, 0x01, 0x81, 0x26, 0x00,
  0x00, 0x86, 0x4d, 0x00, 0x00, 0x86, 0x4a, 0x00, 0x00, 0x86, 0x46, 0x00,
  0x03, 0x90, 0x24, 0x7f, 0x00, 0x90, 0x2a, 0x42, 0x00, 0x90, 0x31, 0x46,
  0x00, 0x91, 0x24, 0x7e, 0x00, 0x92, 0x24, 0x7e, 0x00, 0x99, 0x24, 0x7e,
  0x00, 0x99, 0x1d, 0x3a, 0x01, 0x80, 0x31, 0x00, 0x00, 0x80, 0x2a, 0x00,
  0x00, 0x80, 0x24, 0x00, 0x00, 0x95, 0x43, 0x7e, 0x00, 0x96, 0x4b, 0x6e,
  0x00, 0x96, 0x43, 0x7e, 0x00, 0x89, 0x1d, 0x00, 0x00, 0x89, 0x24, 0x00,
  0x01, 0x95, 0x3f, 0x7a, 0x00, 0x95, 0x48, 0x7e, 0x00, 0x96, 0x48, 0x7a,
  0x2e, 0x90, 0x2a, 0x64, 0x00, 0x99, 0x2c, 0x7e, 0x00, 0x99, 0x1d, 0x3c,
  0x01, 0x80, 0x2a, 0x00, 0x00, 0x89, 0x1d, 0x00, 0x00, 0x89, 0x2c, 0x00,
  0x19, 0x84, 0x3f, 0x00, 0x04, 0x84, 0x43, 0x00, 0x11, 0xe8, 0x00, 0x02,
  0x01, 0x90, 0x27, 0x62, 0x00, 0x90, 0x2a, 0x4e, 0x00, 0x90, 0x31, 0x46,
  0x00, 0x98, 0x5e, 0x7f, 0x00, 0x99, 0x28, 0x7f, 0x00, 0x99, 0x1e, 0x5a,
  0x01, 0x80, 0x31, 0x00, 0x00, 0x80, 0x2a, 0x00, 0x00, 0x80, 0x27, 0x00,
  0x00, 0x89, 0x1e, 0x00, 0x00, 0x89, 0x28, 0x00, 0x04, 0xe8, 0x7f, 0x03,
  0x04, 0xe8, 0x7f, 0x04, 0x02, 0xe8, 0x00, 0x0c, 0x03, 0xe8, 0x7f, 0x1e,
  0x01, 0xe8, 0x7f, 0x27, 0x02, 0xe8, 0x7f, 0x33, 0x03, 0xe8, 0x7f, 0x39,
  0x02, 0xe8, 0x7f, 0x3c, 0x03, 0xe8, 0x00, 0x3e, 0x02, 0xe8, 0x00, 0x40,
  0x14, 0x88, 0x5e, 0x00, 0x01, 0x90, 0x2a, 0x5a, 0x00, 0x98, 0x5c, 0x7f,
  0x00, 0x99, 0x2c, 0x6a, 0x00, 0x99, 0x1d, 0x24, 0x01, 0x80, 0x2a, 0x00,
  0x00, 0x89, 0x1d, 0x00, 0x00, 0x89, 0x2c, 0x00, 0x0d, 0x88, 0x5c, 0x00,
  0x11, 0x90, 0x26, 0x38, 0x01, 0x90, 0x2a, 0x3c, 0x00, 0x90, 0x27, 0x3c,
  0x01, 0x80, 0x27, 0x00, 0x00, 0x80, 0x2a, 0x00, 0x00, 0x80, 0x26, 0x00,
  0x0e, 0xe8, 0x00, 0x04, 0x01, 0x90, 0x2a, 0x42, 0x00, 0x90, 0x31, 0x46,
  0x00, 0x98, 0x5c, 0x7f, 0x00, 0x99, 0x1d, 0x34, 0x01, 0x80, 0x31, 0x00,
  0x00, 0x80, 0x2a, 0x00, 0x00, 0x94, 0x43, 0x7e, 0x00, 0x89, 0x1d, 0x00,
  0x01, 0xe8, 0x00, 0x0d, 0x01, 0x94, 0x3c, 0x74, 0x02, 0xe8, 0x00, 0x25,
  0x02, 0xe8, 0x7f, 0x30, 0x03, 0xe8, 0x00, 0x38, 0x02, 0xe8, 0x00, 0x3c,
  0x02, 0xe8, 0x00, 0x3e, 0x03, 0xe8, 0x00, 0x40, 0x04, 0x84, 0x43, 0x00,
  0x01, 0x84, 0x3c, 0x00, 0x02, 0x94, 0x3f, 0x64, 0x01, 0x94, 0x46, 0x6a,
  0x05, 0x90, 0x26, 0x44, 0x01, 0x80, 0x26, 0x00, 0x05, 0x84, 0x3f, 0x00,
  0x03, 0x84, 0x46, 0x00, 0x08, 0x88, 0x5c, 0x00, 0x01, 0x90, 0x24, 0x7f,
  0x00, 0x90, 0x2a, 0x64, 0x00, 0x98, 0x5b, 0x7f, 0x00, 0x99, 0x24, 0x7a,
  0x00, 0x99, 0x2c, 0x6a, 0x00, 0x99, 0x1d, 0x3a, 0x01, 0x80, 0x2a, 0x00,
  0x00, 0x80, 0x24, 0x00, 0x00, 0x89, 0x1d, 0x00, 0x00, 0x89, 0x2c, 0x00,
  0x00, 0x89, 0x24, 0x00, 0x10, 0x88, 0x5b, 0x00, 0x08, 0x94, 0x43, 0x7e,
  0x01, 0x94, 0x3c, 0x74, 0x16, 0x90, 0x27, 0x64, 0x00, 0x90, 0x2a, 0x48,
  0x00, 0x90, 0x31, 0x46, 0x00, 0xe8, 0x7f, 0x04, 0x00, 0x98, 0x5b, 0x7f,
  0x00, 0x99, 0x28, 0x7f, 0x00, 0x99, 0x1e, 0x54, 0x01, 0x80, 0x31, 0x00,
  0x00, 0x80, 0x2a, 0x00, 0x00, 0x80, 0x27, 0x00, 0x00, 0x84, 0x43, 0x00,
  0x00, 0xe8, 0x7f, 0x0a, 0x00, 0x89, 0x1e, 0x00, 0x00, 0x89, 0x28, 0x00,
  0x02, 0x84, 0x3c, 0x00, 0x01, 0xe8, 0x7f, 0x0d, 0x03, 0xe8, 0x00, 0x21,
  0x03, 0x85, 0x48, 0x00, 0x00, 0x85, 0x43, 0x00, 0x00, 0xe8, 0x7f, 0x30,
  0x01, 0xe8, 0x00, 0x38, 0x02, 0xe8, 0x00, 0x3c, 0x01, 0x85, 0x3f, 0x00,
  0x02, 0xe8, 0x00, 0x40, 0x09, 0x94, 0x3f, 0x64, 0x01, 0x94, 0x46, 0x6a,
  0x0d, 0x84, 0x3f, 0x00, 0x05, 0x84, 0x46, 0x00, 0x03, 0x88, 0x5b, 0x00,
  0x01, 0x90, 0x2a, 0x74, 0x00, 0x98, 0x59, 0x7f, 0x00, 0x99, 0x2c, 0x6a,
  0x00, 0x99, 0x1d, 0x16, 0x01, 0x80, 0x2a, 0x00, 0x00, 0x89, 0x1d, 0x00,
  0x00, 0x89, 0x2c, 0x00, 0x13, 0x88, 0x59, 0x00, 0x05, 0x94, 0x3c, 0x74,
  0x01, 0x94, 0x43, 0x6a, 0x03, 0x81, 0x24, 0x00, 0x02, 0x90, 0x26, 0x30,
  0x02, 0x80, 0x26, 0x00, 0x0d, 0x86, 0x4b, 0x00, 0x00, 0x86, 0x43, 0x00,
  0x01, 0x82, 0x24, 0x00, 0x00, 0x86, 0x48, 0x00, 0x00, 0xe8, 0x7f, 0x10,
  0x01, 0x90, 0x24, 0x7f, 0x00, 0x90, 0x2a, 0x3c, 0x00, 0x90, 0x31, 0x46,
  0x00, 0x91, 0x29, 0x7e, 0x00, 0x92, 0x29, 0x74, 0x00, 0x96, 0x48, 0x4e,
  0x00, 0x96, 0x4d, 0x7a, 0x00, 0x98, 0x5b, 0x74, 0x00, 0x99, 0x24, 0x7e,
  0x00, 0x99, 0x1d, 0x3a, 0x00, 0x99, 0x39, 0x34, 0x01, 0x80, 0x31, 0x00,
  0x00, 0x80, 0x2a, 0x00, 0x00, 0x80, 0x24, 0x00, 0x00, 0x95, 0x41, 0x7a,
  0x00, 0x96, 0x44, 0x5c, 0x00, 0x89, 0x39, 0x00, 0x00, 0x89, 0x1d, 0x00,
  0x00, 0x89, 0x24, 0x00, 0x01, 0x93, 0x44, 0x68, 0x01, 0x95, 0x3c, 0x7e,
  0x00, 0x95, 0x38, 0x7e, 0x00, 0xe8, 0x00, 0x1d, 0x04, 0xe8, 0x00, 0x23,
  0x02, 0xe8, 0x7f, 0x31, 0x01, 0xe8, 0x7f, 0x38, 0x03, 0xe8, 0x00, 0x3c,
  0x03, 0xe8, 0x00, 0x40, 0x03, 0x84, 0x3c, 0x00, 0x04, 0x84, 0x43, 0x00,
  0x01, 0x94, 0x3a, 0x60, 0x02, 0x94, 0x41, 0x64, 0x09, 0x83, 0x44, 0x00,
  0x04, 0x88, 0x5b, 0x00, 0x09, 0x90, 0x2a, 0x64, 0x00, 0x99, 0x2c, 0x6a,
  0x00, 0x99, 0x1d, 0x34, 0x01, 0x80, 0x2a, 0x00, 0x00, 0x89, 0x1d, 0x00,
  0x00, 0x89, 0x2c, 0x00, 0x02, 0x93, 0x43, 0x64, 0x0d, 0x83, 0x43, 0x00,
  0x0f, 0x93, 0x43, 0x7f, 0x0b, 0xe8, 0x7f, 0x07, 0x06, 0x90, 0x27, 0x64,
  0x00, 0x90, 0x2a, 0x62, 0x00, 0x90, 0x31, 0x46, 0x00, 0x98, 0x5e, 0x74,
  0x00, 0x99, 0x28, 0x7f, 0x00, 0x99, 0x1e, 0x5a, 0x01, 0x80, 0x31, 0x00,
  0x00, 0x80, 0x2a, 0x00, 0x00, 0x80, 0x27, 0x00, 0x00, 0xe8, 0x00, 0x08,
  0x00, 0x89, 0x1e, 0x00, 0x00, 0x89, 0x28, 0x00, 0x05, 0xe8, 0x7f, 0x11,
  0x02, 0x84, 0x41, 0x00, 0x00, 0xe8, 0x00, 0x27, 0x03, 0xe8, 0x7f, 0x31,
  0x01, 0x84, 0x3a, 0x00, 0x01, 0xe8, 0x7f, 0x38, 0x03, 0xe8, 0x00, 0x3c,
  0x02, 0xe8, 0x00, 0x40, 0x10, 0x81, 0x29, 0x00, 0x03, 0x88, 0x5e, 0x00,
  0x02, 0x83, 0x43, 0x00, 0x03, 0x82, 0x29, 0x00, 0x06, 0x90, 0x2a, 0x5a,
  0x00, 0x91, 0x28, 0x7e, 0x00, 0x92, 0x28, 0x74, 0x00, 0x98, 0x5c, 0x6a,
  0x00, 0x99, 0x2c, 0x7e, 0x00, 0x99, 0x1d, 0x32, 0x01, 0x80, 0x2a, 0x00,
  0x00, 0x93, 0x41, 0x78, 0x00, 0x89, 0x1d, 0x00, 0x00, 0x89, 0x2c, 0x00,
  0x0c, 0x83, 0x41, 0x00, 0x0a, 0x88, 0x5c, 0x00, 0x08, 0x90, 0x26, 0x3c,
  0x01, 0x90, 0x2a, 0x30, 0x00, 0x90, 0x27, 0x3c, 0x00, 0x93, 0x41, 0x78,
  0x01, 0x80, 0x27, 0x00, 0x00, 0x80, 0x2a, 0x00, 0x00, 0x80, 0x26, 0x00,
  0x0b, 0x82, 0x28, 0x00, 0x01, 0x81, 0x28, 0x00, 0x01, 0xe8, 0x00, 0x05,
  0x02, 0x90, 0x2a, 0x3c, 0x00, 0x90, 0x31, 0x46, 0x00, 0x91, 0x27, 0x7a,
  0x00, 0x92, 0x27, 0x6e, 0x00, 0x98, 0x5c, 0x7a, 0x00, 0x99, 0x1d, 0x3c,
  0x01, 0x80, 0x31, 0x00, 0x00, 0x80, 0x2a, 0x00, 0x00, 0x89, 0x1d, 0x00,
  0x01, 0xe8, 0x7f, 0x08, 0x02, 0x94, 0x37, 0x7e, 0x01, 0xe8, 0x7f, 0x14,
  0x02, 0xe8, 0x7f, 0x1a, 0x03, 0xe8, 0x7f, 0x2b, 0x02, 0xe8, 0x7f, 0x35,
  0x02, 0xe8, 0x7f, 0x3a, 0x03, 0xe8, 0x00, 0x3d, 0x03, 0xe8, 0x7f, 0x3e,
  0x02, 0xe8, 0x00, 0x40, 0x08, 0x90, 0x26, 0x58, 0x01, 0x80, 0x26, 0x00,
  0x10, 0x88, 0x5c, 0x00, 0x01, 0x90, 0x24, 0x7f, 0x00, 0x90, 0x2a, 0x64,
  0x00, 0x98, 0x5b, 0x7e, 0x00, 0x99, 0x24, 0x7e, 0x00, 0x99, 0x2c, 0x6a,
  0x00, 0x99, 0x1d, 0x3c, 0x01, 0x80, 0x2a, 0x00, 0x00, 0x80, 0x24, 0x00,
  0x00, 0x89, 0x1d, 0x00, 0x00, 0x89, 0x2c, 0x00, 0x00, 0x89, 0x24, 0x00,
  0x1a, 0x88, 0x5b, 0x00, 0x01, 0x83, 0x41, 0x00, 0x0e, 0x84, 0x37, 0x00,
  0x03, 0x81, 0x27, 0x00, 0x01, 0x82, 0x27, 0x00, 0x00, 0xe8, 0x00, 0x07,
  0x02, 0x90, 0x27, 0x64, 0x00, 0x90, 0x2a, 0x62, 0x00, 0x90, 0x26, 0x0c,
  0x00, 0x90, 0x31, 0x46, 0x00, 0x91, 0x26, 0x7e, 0x00, 0x92, 0x26, 0x7e,
  0x00, 0x98, 0x5b, 0x7e, 0x00, 0x99, 0x28, 0x7f, 0x00, 0x99, 0x1e, 0x62,
  0x01, 0x80, 0x31, 0x00, 0x00, 0x80, 0x26, 0x00, 0x00, 0x80, 0x2a, 0x00,
  0x00, 0x80, 0x27, 0x00, 0x00, 0x89, 0x1e, 0x00, 0x00, 0x89, 0x28, 0x00,
  0x01, 0x94, 0x3a, 0x74, 0x00, 0xe8, 0x7f, 0x08, 0x02, 0xe8, 0x7f, 0x13,
  0x03, 0xe8, 0x00, 0x19, 0x02, 0xe8, 0x7f, 0x2b, 0x03, 0xe8, 0x7f, 0x35,
  0x03, 0xe8, 0x7f, 0x3a, 0x02, 0xe8, 0x00, 0x40, 0x1a, 0x88, 0x5b, 0x00,
  0x05, 0x90, 0x2a, 0x64, 0x00, 0x98, 0x59, 0x74, 0x00, 0x99, 0x2c, 0x74,
  0x00, 0x99, 0x1d, 0x2e, 0x01, 0x80, 0x2a, 0x00, 0x00, 0x89, 0x1d, 0x00,
  0x00, 0x89, 0x2c, 0x00, 0x09, 0x85, 0x3c, 0x00, 0x04, 0x85, 0x38, 0x00,
  0x05, 0x88, 0x59, 0x00, 0x09, 0x85, 0x41, 0x00, 0x03, 0x90, 0x26, 0x3e,
  0x02, 0x80, 0x26, 0x00, 0x01, 0x81, 0x26, 0x00, 0x07, 0x82, 0x26, 0x00,
  0x03, 0x86, 0x48, 0x00, 0x01, 0x86, 0x44, 0x00, 0x03, 0x90, 0x24, 0x7f,
  0x00, 0x90, 0x2a, 0x54, 0x00, 0x90, 0x31, 0x46, 0x00, 0x91, 0x22, 0x6a,
  0x00, 0x92, 0x22, 0x7a, 0x00, 0x96, 0x46, 0x6a, 0x00, 0x99, 0x24, 0x7e,
  0x00, 0x99, 0x1d, 0x3a, 0x01, 0x80, 0x31, 0x00, 0x00, 0x80, 0x2a, 0x00,
  0x00, 0x80, 0x24, 0x00, 0x00, 0x95, 0x3e, 0x7e, 0x00, 0x95, 0x3a, 0x7e,
  0x00, 0x95, 0x41, 0x74, 0x00, 0x96, 0x4a, 0x6a, 0x00, 0x89, 0x1d, 0x00,
  0x00, 0x89, 0x24, 0x00, 0x03, 0x93, 0x3a, 0x6e, 0x21, 0x83, 0x3a, 0x00,
  0x0b, 0x90, 0x2a, 0x74, 0x00, 0x99, 0x2c, 0x7e, 0x00, 0x99, 0x1d, 0x3c,
  0x01, 0x80, 0x2a, 0x00, 0x00, 0x93, 0x41, 0x6e, 0x00, 0x89, 0x1d, 0x00,
  0x00, 0x89, 0x2c, 0x00, 0x11, 0x83, 0x41, 0x00, 0x19, 0xe8, 0x7f, 0x03,
  0x05, 0x90, 0x27, 0x64, 0x00, 0x90, 0x2a, 0x5a, 0x00, 0x90, 0x31, 0x46,
  0x00, 0x85, 0x41, 0x00, 0x00, 0x98, 0x5e, 0x7f, 0x00, 0x99, 0x28, 0x7f,
  0x00, 0x99, 0x1e, 0x5a, 0x01, 0x80, 0x31, 0x00, 0x00, 0x80, 0x2a, 0x00,
  0x00, 0x80, 0x27, 0x00, 0x00, 0x93, 0x41, 0x6e, 0x00, 0x95, 0x4d, 0x60,
  0x00, 0x89, 0x1e, 0x00, 0x00, 0x89, 0x28, 0x00, 0x01, 0x95, 0x41, 0x6a,
  0x01, 0xe8, 0x7f, 0x04, 0x02, 0xe8, 0x00, 0x0c, 0x03, 0xe8, 0x7f, 0x1e,
  0x02, 0xe8, 0x7f, 0x27, 0x02, 0x84, 0x3a, 0x00, 0x00, 0xe8, 0x7f, 0x33,
  0x03, 0xe8, 0x7f, 0x39, 0x02, 0xe8, 0x00, 0x40, 0x16, 0x83, 0x41, 0x00,
  0x08, 0x88, 0x5e, 0x00, 0x01, 0x90, 0x2a, 0x54, 0x00, 0x98, 0x5c, 0x7f,
  0x00, 0x99, 0x2c, 0x74, 0x00, 0x99, 0x1d, 0x28, 0x01, 0x80, 0x2a, 0x00,
  0x00, 0x93, 0x43, 0x64, 0x00, 0x89, 0x1d, 0x00, 0x00, 0x89, 0x2c, 0x00,
  0x0d, 0x88, 0x5c, 0x00, 0x0a, 0x83, 0x43, 0x00, 0x06, 0x99, 0x24, 0x4a,
  0x01, 0x90, 0x26, 0x3a, 0x00, 0x89, 0x24, 0x00, 0x01, 0x90, 0x2a, 0x34,
  0x00, 0x90, 0x27, 0x3c, 0x00, 0x90, 0x24, 0x7f, 0x01, 0x80, 0x24, 0x00,
  0x00, 0x80, 0x27, 0x00, 0x00, 0x80, 0x2a, 0x00, 0x00, 0x80, 0x26, 0x00,
  0x0c, 0x85, 0x4d, 0x00, 0x02, 0xe8, 0x00, 0x04, 0x01, 0x90, 0x24, 0x7f,
  0x00, 0x90, 0x2a, 0x42, 0x00, 0x90, 0x31, 0x46, 0x00, 0x93, 0x43, 0x7f,
  0x00, 0x98, 0x5c, 0x7f, 0x00, 0x99, 0x24, 0x6a, 0x00, 0x99, 0x1d, 0x16,
  0x00, 0x99, 0x2d, 0x7a, 0x01, 0x80, 0x31, 0x00, 0x00, 0x80, 0x2a, 0x00,
  0x00, 0x80, 0x24, 0x00, 0x00, 0x95, 0x43, 0x7e, 0x00, 0x95, 0x4f, 0x74,
  0x00, 0x89, 0x2d, 0x00, 0x00, 0x89, 0x1d, 0x00, 0x00, 0x89, 0x24, 0x00,
  0x01, 0xe8, 0x00, 0x0d, 0x03, 0xe8, 0x00, 0x25, 0x02, 0xe8, 0x7f, 0x30,
  0x03, 0xe8, 0x00, 0x38, 0x02, 0xe8, 0x00, 0x3c, 0x03, 0xe8, 0x00, 0x3e,
  0x02, 0xe8, 0x00, 0x40, 0x0d, 0x90, 0x26, 0x60, 0x01, 0x80, 0x26, 0x00,
  0x08, 0x83, 0x43, 0x00, 0x08, 0x88, 0x5c, 0x00, 0x01, 0x90, 0x24, 0x7f,
  0x00, 0x90, 0x2a, 0x64, 0x00, 0x98, 0x5b, 0x7f, 0x00, 0x99, 0x24, 0x7e,
  0x00, 0x99, 0x2c, 0x7e, 0x00, 0x99, 0x1d, 0x34, 0x01, 0x80, 0x2a, 0x00,
  0x00, 0x80, 0x24, 0x00, 0x00, 0x93, 0x44, 0x64, 0x00, 0x89, 0x1d, 0x00,
  0x00, 0x89, 0x2c, 0x00, 0x00, 0x89, 0x24, 0x00, 0x10, 0x88, 0x5b, 0x00,
  0x05, 0x83, 0x44, 0x00, 0x08, 0x99, 0x2d, 0x34, 0x01, 0x89, 0x2d, 0x00,
  0x09, 0x85, 0x4f, 0x00, 0x03, 0x85, 0x43, 0x00, 0x05, 0x90, 0x27, 0x64,
  0x00, 0x90, 0x2a, 0x54, 0x00, 0x90, 0x31, 0x46, 0x00, 0xe8, 0x7f, 0x04,
  0x00, 0x98, 0x5b, 0x7f, 0x00, 0x99, 0x28, 0x7f, 0x00, 0x99, 0x1e, 0x6a,
  0x00, 0x99, 0x2b, 0x3e, 0x01, 0x80, 0x31, 0x00, 0x00, 0x80, 0x2a, 0x00,
  0x00, 0x80, 0x27, 0x00, 0x00, 0x93, 0x44, 0x6e, 0x00, 0x95, 0x50, 0x5c,
  0x00, 0x95, 0x44, 0x6e, 0x00, 0xe8, 0x7f, 0x0a, 0x00, 0x89, 0x2b, 0x00,
  0x00, 0x89, 0x1e, 0x00, 0x00, 0x89, 0x28, 0x00, 0x03, 0xe8, 0x7f, 0x0d,
  0x02, 0xe8, 0x00, 0x21, 0x03, 0xe8, 0x7f, 0x30, 0x02, 0xe8, 0x00, 0x38,
  0x02, 0xe8, 0x00, 0x3c, 0x03, 0xe8, 0x00, 0x40, 0x07, 0x85, 0x3a, 0x00,
  0x03, 0x85, 0x41, 0x00, 0x01, 0x85, 0x3e, 0x00, 0x0e, 0x83, 0x44, 0x00,
  0x06, 0x88, 0x5b, 0x00, 0x01, 0x90, 0x2a, 0x62, 0x00, 0x93, 0x46, 0x72,
  0x00, 0x98, 0x59, 0x7f, 0x00, 0x99, 0x2c, 0x7e, 0x00, 0x99, 0x1d, 0x3a,
  0x01, 0x80, 0x2a, 0x00, 0x00, 0x89, 0x1d, 0x00, 0x00, 0x89, 0x2c, 0x00,
  0x10, 0x83, 0x46, 0x00, 0x03, 0x85, 0x44, 0x00, 0x00, 0x88, 0x59, 0x00,
  0x0a, 0x93, 0x44, 0x6e, 0x01, 0x90, 0x26, 0x2a, 0x02, 0x80, 0x26, 0x00,
  0x02, 0x81, 0x22, 0x00, 0x00, 0x85, 0x50, 0x00, 0x09, 0x86, 0x46, 0x00,
  0x00, 0x86, 0x4d, 0x00, 0x01, 0x82, 0x22, 0x00, 0x00, 0x86, 0x4a, 0x00,
  0x03, 0x90, 0x24, 0x7f, 0x00, 0x90, 0x2a, 0x4e, 0x00, 0x90, 0x31, 0x46,
  0x00, 0x91, 0x27, 0x7e, 0x00, 0x92, 0x27, 0x7e, 0x00, 0x96, 0x43, 0x7e,
  0x00, 0x99, 0x24, 0x7a, 0x00, 0x99, 0x1d, 0x3a, 0x00, 0x99, 0x37, 0x7e,
  0x01, 0x80, 0x31, 0x00, 0x00, 0x80, 0x2a, 0x00, 0x00, 0x80, 0x24, 0x00,
  0x00, 0x95, 0x43, 0x7e, 0x00, 0x96, 0x4b, 0x7a, 0x00, 0x96, 0x46, 0x6a,
  0x00, 0x89, 0x37, 0x00, 0x00, 0x89, 0x1d, 0x00, 0x00, 0x89, 0x24, 0x00,
  0x01, 0x95, 0x3f, 0x7e, 0x00, 0x95, 0x46, 0x74, 0x24, 0x83, 0x44, 0x00,
  0x0a, 0x90, 0x2a, 0x64, 0x00, 0x99, 0x2c, 0x62, 0x00, 0x99, 0x1d, 0x3c,
  0x01, 0x80, 0x2a, 0x00, 0x00, 0x93, 0x43, 0x78, 0x00, 0x89, 0x1d, 0x00,
  0x00, 0x89, 0x2c, 0x00, 0x2e, 0xe8, 0x7f, 0x03, 0x01, 0x90, 0x27, 0x64,
  0x00, 0x90, 0x2a, 0x38, 0x00, 0x90, 0x31, 0x46, 0x00, 0x98, 0x5e, 0x7f,
  0x00, 0x99, 0x28, 0x7f, 0x00, 0x99, 0x1e, 0x5a, 0x01, 0x80, 0x31, 0x00,
  0x00, 0x80, 0x2a, 0x00, 0x00, 0x80, 0x27, 0x00, 0x00, 0x94, 0x43, 0x74,
  0x00, 0x89, 0x1e, 0x00, 0x00, 0x89, 0x28, 0x00, 0x01, 0x94, 0x4b, 0x74,
  0x01, 0x94, 0x46, 0x74, 0x00, 0xe8, 0x7f, 0x04, 0x02, 0xe8, 0x00, 0x0c,
  0x03, 0xe8, 0x7f, 0x1e, 0x01, 0x83, 0x43, 0x00, 0x01, 0xe8, 0x7f, 0x27,
  0x02, 0xe8, 0x7f, 0x33, 0x03, 0xe8, 0x7f, 0x39, 0x03, 0xe8, 0x7f, 0x3c,
  0x03, 0xe8, 0x00, 0x40, 0x1a, 0x88, 0x5e, 0x00, 0x01, 0x90, 0x2a, 0x74,
  0x00, 0x98, 0x5c, 0x7f, 0x00, 0x99, 0x2c, 0x5a, 0x00, 0x99, 0x1d, 0x28,
  0x01, 0x80, 0x2a, 0x00, 0x00, 0x89, 0x1d, 0x00, 0x00, 0x89, 0x2c, 0x00,
  0x0d, 0x88, 0x5c, 0x00, 0x10, 0x85, 0x46, 0x00, 0x01, 0x90, 0x26, 0x42,
  0x00, 0x85, 0x3f, 0x00, 0x01, 0x90, 0x2a, 0x38, 0x00, 0x90, 0x27, 0x3c,
  0x01, 0x80, 0x27, 0x00, 0x00, 0x80, 0x2a, 0x00, 0x00, 0x80, 0x26, 0x00,
  0x06, 0x85, 0x43, 0x00, 0x05, 0x86, 0x43, 0x00, 0x01, 0x86, 0x4b, 0x00,
  0x01, 0x82, 0x27, 0x00, 0x00, 0xe8, 0x00, 0x04, 0x02, 0x90, 0x2a, 0x34,
  0x00, 0x90, 0x31, 0x46, 0x00, 0x81, 0x27, 0x00, 0x00, 0x91, 0x26, 0x7e,
  0x00, 0x92, 0x26, 0x7e, 0x00, 0x95, 0x46, 0x6e, 0x00, 0x96, 0x4a, 0x5a,
  0x00, 0x98, 0x5c, 0x7f, 0x00, 0x99, 0x1d, 0x16, 0x01, 0x80, 0x31, 0x00,
  0x00, 0x80, 0x2a, 0x00, 0x00, 0x95, 0x3e, 0x74, 0x00, 0x95, 0x41, 0x6e,
  0x00, 0x89, 0x1d, 0x00, 0x01, 0x96, 0x4d, 0x6e, 0x00, 0xe8, 0x00, 0x0d,
  0x02, 0xe8, 0x00, 0x25, 0x03, 0xe8, 0x7f, 0x30, 0x02, 0xe8, 0x00, 0x38,
  0x03, 0xe8, 0x00, 0x3c, 0x03, 0xe8, 0x00, 0x40, 0x0a, 0x84, 0x43, 0x00,
  0x02, 0x84, 0x4b, 0x00, 0x01, 0x84, 0x46, 0x00, 0x02, 0x90, 0x26, 0x4a,
  0x01, 0x80, 0x26, 0x00, 0x10, 0x88, 0x5c, 0x00, 0x01, 0x90, 0x24, 0x7f,
  0x00, 0x90, 0x2a, 0x64, 0x00, 0x98, 0x5b, 0x7f, 0x00, 0x99, 0x24, 0x7e,
  0x00, 0x99, 0x2c, 0x6a, 0x00, 0x99, 0x1d, 0x34, 0x01, 0x80, 0x2a, 0x00,
  0x00, 0x80, 0x24, 0x00, 0x00, 0x89, 0x1d, 0x00, 0x00, 0x89, 0x2c, 0x00,
  0x00, 0x89, 0x24, 0x00, 0x10, 0x88, 0x5b, 0x00, 0x1c, 0xe8, 0x7f, 0x04,
  0x03, 0x90, 0x27, 0x64, 0x00, 0x90, 0x2a, 0x4e, 0x00, 0x90, 0x26, 0x3a,
  0x00, 0x90, 0x31, 0x46, 0x00, 0x98, 0x5b, 0x7f, 0x00, 0x99, 0x28, 0x7f,
  0x00, 0x99, 0x1e, 0x6a, 0x01, 0x80, 0x31, 0x00, 0x00, 0x80, 0x26, 0x00,
  0x00, 0x80, 0x2a, 0x00, 0x00, 0x80, 0x27, 0x00, 0x00, 0x94, 0x41, 0x6e,
  0x00, 0xe8, 0x7f, 0x0a, 0x00, 0x89, 0x1e, 0x00, 0x00, 0x89, 0x28, 0x00,
  0x02, 0x94, 0x44, 0x60, 0x00, 0xe8, 0x7f, 0x0d, 0x03, 0xe8, 0x00, 0x21,
  0x02, 0xe8, 0x7f, 0x30, 0x03, 0xe8, 0x00, 0x38, 0x02, 0xe8, 0x00, 0x3c,
  0x03, 0xe8, 0x00, 0x40, 0x1f, 0x88, 0x5b, 0x00, 0x01, 0x90, 0x2a, 0x6a,
  0x00, 0x84, 0x41, 0x00, 0x00, 0x98, 0x59, 0x7f, 0x00, 0x99, 0x2c, 0x7e,
  0x00, 0x99, 0x1d, 0x3a, 0x01, 0x80, 0x2a, 0x00, 0x00, 0x84, 0x44, 0x00,
  0x00, 0x89, 0x1d, 0x00, 0x00, 0x89, 0x2c, 0x00, 0x01, 0x94, 0x46, 0x60,
  0x12, 0x88, 0x59, 0x00, 0x02, 0x85, 0x41, 0x00, 0x02, 0x94, 0x3f, 0x60,
  0x00, 0x85, 0x3e, 0x00, 0x01, 0x84, 0x46, 0x00, 0x00, 0x94, 0x43, 0x74,
  0x05, 0x85, 0x46, 0x00, 0x01, 0x90, 0x26, 0x3e, 0x02, 0x80, 0x26, 0x00,
  0x0b, 0x81, 0x26, 0x00, 0x00, 0x82, 0x26, 0x00, 0x00, 0x86, 0x4a, 0x00,
  0x02, 0x86, 0x4d, 0x00, 0x00, 0x86, 0x46, 0x00, 0x02, 0x90, 0x24, 0x7f,
  0x00, 0x90, 0x2a, 0x42, 0x00, 0x90, 0x31, 0x46, 0x00, 0x91, 0x24, 0x7a,
  0x00, 0x92, 0x24, 0x74, 0x00, 0x96, 0x48, 0x7a, 0x00, 0x96, 0x4b, 0x6e,
  0x00, 0x96, 0x43, 0x74, 0x00, 0x99, 0x24, 0x7e, 0x00, 0x99, 0x1d, 0x3a,
  0x01, 0x80, 0x31, 0x00, 0x00, 0x80, 0x2a, 0x00, 0x00, 0x80, 0x24, 0x00,
  0x00, 0x95, 0x3f, 0x6e, 0x00, 0x89, 0x1d, 0x00, 0x00, 0x89, 0x24, 0x00,
  0x02, 0x95, 0x43, 0x7e, 0x00, 0x95, 0x48, 0x7a, 0x2d, 0x90, 0x2a, 0x64,
  0x00, 0x99, 0x2c, 0x7e, 0x00, 0x99, 0x1d, 0x3c, 0x01, 0x80, 0x2a, 0x00,
  0x00, 0x89, 0x1d, 0x00, 0x00, 0x89, 0x2c, 0x00, 0x19, 0x84, 0x3f, 0x00,
  0x04, 0x84, 0x43, 0x00, 0x0a, 0xe8, 0x7f, 0x03, 0x08, 0x90, 0x27, 0x62,
  0x00, 0x90, 0x2a, 0x4e, 0x00, 0x90, 0x31, 0x46, 0x00, 0x98, 0x5e, 0x7f,
  0x00, 0x99, 0x28, 0x7f, 0x00, 0x99, 0x1e, 0x5a, 0x01, 0x80, 0x31, 0x00,
  0x00, 0x80, 0x2a, 0x00, 0x00, 0x80, 0x27, 0x00, 0x00, 0x89, 0x1e, 0x00,
  0x00, 0x89, 0x28, 0x00, 0x02, 0xe8, 0x7f, 0x04, 0x02, 0xe8, 0x00, 0x0c,
  0x03, 0xe8, 0x7f, 0x1e, 0x02, 0xe8, 0x7f, 0x27, 0x02, 0xe8, 0x7f, 0x33,
  0x03, 0xe8, 0x7f, 0x39, 0x02, 0xe8, 0x00, 0x40, 0x1e, 0x88, 0x5e, 0x00,
  0x01, 0x90, 0x2a, 0x5a, 0x00, 0x98, 0x5c, 0x7f, 0x00, 0x99, 0x2c, 0x6a,
  0x00, 0x99, 0x1d, 0x24, 0x01, 0x80, 0x2a, 0x00, 0x00, 0x89, 0x1d, 0x00,
  0x00, 0x89, 0x2c, 0x00, 0x0d, 0x88, 0x5c, 0x00, 0x11, 0x90, 0x26, 0x38,
  0x01, 0x90, 0x2a, 0x3c, 0x00, 0x90, 0x27, 0x3c, 0x01, 0x80, 0x27, 0x00,
  0x00, 0x80, 0x2a, 0x00, 0x00, 0x80, 0x26, 0x00, 0x0e, 0xe8, 0x00, 0x04,
  0x01, 0x90, 0x2a, 0x42, 0x00, 0x90, 0x31, 0x46, 0x00, 0x98, 0x5c, 0x7f,
  0x00, 0x99, 0x1d, 0x34, 0x01, 0x80, 0x31, 0x00, 0x00, 0x80, 0x2a, 0x00,
  0x00, 0x94, 0x3c, 0x74, 0x00, 0x94, 0x43, 0x7e, 0x00, 0x89, 0x1d, 0x00,
  0x01, 0xe8, 0x00, 0x0d, 0x03, 0xe8, 0x00, 0x25, 0x02, 0xe8, 0x7f, 0x30,
  0x03, 0xe8, 0x00, 0x38, 0x02, 0xe8, 0x00, 0x3c, 0x02, 0xe8, 0x00, 0x3e,
  0x03, 0xe8, 0x00, 0x40, 0x03, 0x84, 0x3c, 0x00, 0x01, 0x84, 0x43, 0x00,
  0x05, 0x94, 0x46, 0x6a, 0x00, 0x94, 0x3f, 0x64, 0x04, 0x90, 0x26, 0x44,
  0x01, 0x80, 0x26, 0x00, 0x06, 0x84, 0x46, 0x00, 0x01, 0x84, 0x3f, 0x00,
  0x09, 0x88, 0x5c, 0x00, 0x01, 0x90, 0x24, 0x7f, 0x00, 0x90, 0x2a, 0x64,
  0x00, 0x98, 0x5b, 0x7f, 0x00, 0x99, 0x24, 0x7a, 0x00, 0x99, 0x2c, 0x6a,
  0x00, 0x99, 0x1d, 0x3a, 0x01, 0x80, 0x2a, 0x00, 0x00, 0x80, 0x24, 0x00,
  0x00, 0x89, 0x1d, 0x00, 0x00, 0x89, 0x2c, 0x00, 0x00, 0x89, 0x24, 0x00,
  0x10, 0x88, 0x5b, 0x00, 0x08, 0x94, 0x43, 0x7e, 0x02, 0x94, 0x3c, 0x74,
  0x15, 0x90, 0x27, 0x64, 0x00, 0x90, 0x2a, 0x48, 0x00, 0x90, 0x31, 0x46,
  0x00, 0xe8, 0x7f, 0x04, 0x00, 0x98, 0x5b, 0x7f, 0x00, 0x99, 0x28, 0x7f,
  0x00, 0x99, 0x1e, 0x54, 0x01, 0x80, 0x31, 0x00, 0x00, 0x80, 0x2a, 0x00,
  0x00, 0x80, 0x27, 0x00, 0x00, 0xe8, 0x7f, 0x0a, 0x00, 0x89, 0x1e, 0x00,
  0x00, 0x89, 0x28, 0x00, 0x01, 0x84, 0x43, 0x00, 0x01, 0xe8, 0x7f, 0x0d,
  0x02, 0x84, 0x3c, 0x00, 0x01, 0xe8, 0x00, 0x21, 0x02, 0xe8, 0x7f, 0x30,
  0x03, 0xe8, 0x00, 0x38, 0x02, 0xe8, 0x00, 0x40, 0x0c, 0x94, 0x3f, 0x64,
  0x00, 0x94, 0x46, 0x6a, 0x0d, 0x84, 0x3f, 0x00, 0x05, 0x84, 0x46, 0x00,
  0x04, 0x88, 0x5b, 0x00, 0x01, 0x90, 0x2a, 0x74, 0x00, 0x98, 0x59, 0x7f,
  0x00, 0x99, 0x2c, 0x6a, 0x00, 0x99, 0x1d, 0x16, 0x01, 0x80, 0x2a, 0x00,
  0x00, 0x89, 0x1d, 0x00, 0x00, 0x89, 0x2c, 0x00, 0x05, 0x85, 0x48, 0x00,
  0x05, 0x85, 0x43, 0x00, 0x03, 0x85, 0x3f, 0x00, 0x06, 0x88, 0x59, 0x00,
  0x05, 0x94, 0x3c, 0x74, 0x01, 0x94, 0x43, 0x6a, 0x05, 0x90, 0x26, 0x30,
  0x02, 0x80, 0x26, 0x00, 0x05, 0x81, 0x24, 0x00, 0x06, 0x86, 0x4b, 0x00,
  0x00, 0x86, 0x43, 0x00, 0x02, 0x82, 0x24, 0x00, 0x01, 0xe8, 0x7f, 0x10,
  0x01, 0x90, 0x24, 0x7f, 0x00, 0x90, 0x2a, 0x3c, 0x00, 0x90, 0x31, 0x46,
  0x00, 0x91, 0x29, 0x7e, 0x00, 0x92, 0x29, 0x7a, 0x00, 0x93, 0x44, 0x68,
  0x00, 0x98, 0x5b, 0x74, 0x00, 0x99, 0x24, 0x7e, 0x00, 0x99, 0x1d, 0x3a,
  0x01, 0x80, 0x31, 0x00, 0x00, 0x80, 0x2a, 0x00, 0x00, 0x80, 0x24, 0x00,
  0x00, 0x95, 0x38, 0x7a, 0x00, 0x95, 0x3c, 0x74, 0x00, 0x95, 0x41, 0x6e,
  0x00, 0x96, 0x4d, 0x74, 0x00, 0x96, 0x44, 0x58, 0x00, 0x89, 0x1d, 0x00,
  0x00, 0x89, 0x24, 0x00, 0x01, 0xe8, 0x00, 0x1d, 0x04, 0xe8, 0x00, 0x23,
  0x03, 0xe8, 0x7f, 0x31, 0x01, 0xe8, 0x7f, 0x38, 0x03, 0xe8, 0x00, 0x3c,
  0x03, 0xe8, 0x00, 0x3e, 0x03, 0x84, 0x3c, 0x00, 0x00, 0xe8, 0x00, 0x40,
  0x03, 0x84, 0x43, 0x00, 0x02, 0x94, 0x3a, 0x60, 0x01, 0x94, 0x41, 0x64,
  0x08, 0x83, 0x44, 0x00, 0x06, 0x88, 0x5b, 0x00, 0x09, 0x90, 0x2a, 0x64,
  0x00, 0x99, 0x2c, 0x6a, 0x00, 0x99, 0x1d, 0x34, 0x01, 0x80, 0x2a, 0x00,
  0x00, 0x89, 0x1d, 0x00, 0x00, 0x89, 0x2c, 0x00, 0x01, 0x93, 0x43, 0x64,
  0x0d, 0x83, 0x43, 0x00, 0x11, 0x93, 0x43, 0x7f, 0x0f, 0xe8, 0x7f, 0x07,
  0x01, 0x90, 0x27, 0x64, 0x00, 0x90, 0x2a, 0x62, 0x00, 0x90, 0x31, 0x46,
  0x00, 0x98, 0x5e, 0x74, 0x00, 0x99, 0x28, 0x7f, 0x00, 0x99, 0x1e, 0x5a,
  0x01, 0x80, 0x31, 0x00, 0x00, 0x80, 0x2a, 0x00, 0x00, 0x80, 0x27, 0x00,
  0x00, 0x89, 0x1e, 0x00, 0x00, 0x89, 0x28, 0x00, 0x05, 0xe8, 0x7f, 0x11,
  0x02, 0x84, 0x41, 0x00, 0x00, 0xe8, 0x00, 0x27, 0x03, 0xe8, 0x7f, 0x31,
  0x01, 0x84, 0x3a, 0x00, 0x02, 0xe8, 0x7f, 0x38, 0x02, 0xe8, 0x00, 0x3c,
  0x02, 0xe8, 0x00, 0x40, 0x13, 0x88, 0x5e, 0x00, 0x03, 0x83, 0x43, 0x00,
  0x01, 0x82, 0x29, 0x00, 0x03, 0x81, 0x29, 0x00, 0x04, 0x90, 0x2a, 0x5a,
  0x00, 0x91, 0x28, 0x7e, 0x00, 0x92, 0x28, 0x7e, 0x00, 0x98, 0x5c, 0x6a,
  0x00, 0x99, 0x2c, 0x7e, 0x00, 0x99, 0x1d, 0x32, 0x01, 0x80, 0x2a, 0x00,
  0x00, 0x93, 0x41, 0x78, 0x00, 0x89, 0x1d, 0x00, 0x00, 0x89, 0x2c, 0x00,
  0x0c, 0x83, 0x41, 0x00, 0x0b, 0x88, 0x5c, 0x00, 0x07, 0x90, 0x26, 0x3c,
  0x00, 0x93, 0x41, 0x78, 0x01, 0x90, 0x2a, 0x30, 0x00, 0x90, 0x27, 0x3c,
  0x01, 0x80, 0x27, 0x00, 0x00, 0x80, 0x2a, 0x00, 0x00, 0x80, 0x26, 0x00,
  0x0d, 0xe8, 0x00, 0x05, 0x01, 0x82, 0x28, 0x00, 0x01, 0x90, 0x2a, 0x3c,
  0x00, 0x90, 0x31, 0x46, 0x00, 0x81, 0x28, 0x00, 0x00, 0x91, 0x27, 0x74,
  0x00, 0x92, 0x27, 0x7a, 0x00, 0x98, 0x5c, 0x7a, 0x00, 0x99, 0x1d, 0x3c,
  0x01, 0x80, 0x31, 0x00, 0x00, 0x80, 0x2a, 0x00, 0x00, 0x94, 0x37, 0x7e,
  0x00, 0x89, 0x1d, 0x00, 0x04, 0xe8, 0x7f, 0x14, 0x02, 0xe8, 0x7f, 0x1a,
  0x03, 0xe8, 0x7f, 0x2b, 0x02, 0xe8, 0x7f, 0x35, 0x03, 0xe8, 0x7f, 0x3a,
  0x02, 0xe8, 0x00, 0x40, 0x0d, 0x90, 0x26, 0x58, 0x01, 0x80, 0x26, 0x00,
  0x10, 0x88, 0x5c, 0x00, 0x01, 0x90, 0x24, 0x7f, 0x00, 0x90, 0x2a, 0x64,
  0x00, 0x98, 0x5b, 0x7e, 0x00, 0x99, 0x24, 0x7e, 0x00, 0x99, 0x2c, 0x6a,
  0x00, 0x99, 0x1d, 0x3c, 0x01, 0x80, 0x2a, 0x00, 0x00, 0x80, 0x24, 0x00,
  0x00, 0x89, 0x1d, 0x00, 0x00, 0x89, 0x2c, 0x00, 0x00, 0x89, 0x24, 0x00,
  0x19, 0x83, 0x41, 0x00, 0x01, 0x88, 0x5b, 0x00, 0x0e, 0x84, 0x37, 0x00,
  0x04, 0xe8, 0x00, 0x07, 0x01, 0x82, 0x27, 0x00, 0x01, 0x81, 0x27, 0x00,
  0x01, 0x90, 0x27, 0x64, 0x00, 0x90, 0x2a, 0x62, 0x00, 0x90, 0x26, 0x0c,
  0x00, 0x90, 0x31, 0x46, 0x00, 0x91, 0x26, 0x7e, 0x00, 0x92, 0x26, 0x7e,
  0x00, 0x98, 0x5b, 0x7e, 0x00, 0x99, 0x28, 0x7f, 0x00, 0x99, 0x1e, 0x62,
  0x01, 0x80, 0x31, 0x00, 0x00, 0x80, 0x26, 0x00, 0x00, 0x80, 0x2a, 0x00,
  0x00, 0x80, 0x27, 0x00, 0x00, 0x89, 0x1e, 0x00, 0x00, 0x89, 0x28, 0x00,
  0x01, 0x94, 0x3a, 0x74, 0x02, 0xe8, 0x7f, 0x13, 0x03, 0xe8, 0x00, 0x19,
  0x02, 0xe8, 0x7f, 0x2b, 0x03, 0xe8, 0x7f, 0x35, 0x03, 0xe8, 0x7f, 0x3a,
  0x02, 0xe8, 0x00, 0x40, 0x1a, 0x88, 0x5b, 0x00, 0x05, 0x90, 0x2a, 0x64,
  0x00, 0x98, 0x59, 0x74, 0x00, 0x99, 0x2c, 0x74, 0x00, 0x99, 0x1d, 0x2e,
  0x01, 0x80, 0x2a, 0x00, 0x00, 0x89, 0x1d, 0x00, 0x00, 0x89, 0x2c, 0x00,
  0x12, 0x88, 0x59, 0x00, 0x02, 0x85, 0x38, 0x00, 0x04, 0x85, 0x3c, 0x00,
  0x04, 0x85, 0x41, 0x00, 0x02, 0x90, 0x26, 0x3e, 0x02, 0x80, 0x26, 0x00,
  0x02, 0x81, 0x26, 0x00, 0x09, 0x86, 0x48, 0x00, 0x00, 0x86, 0x44, 0x00,
  0x02, 0x82, 0x26, 0x00, 0x02, 0x90, 0x24, 0x7f, 0x00, 0x90, 0x2a, 0x54,
  0x00, 0x90, 0x31, 0x46, 0x00, 0x91, 0x22, 0x74, 0x00, 0x92, 0x22, 0x6e,
  0x00, 0x96, 0x4a, 0x7e, 0x00, 0x96, 0x46, 0x6e, 0x00, 0x99, 0x24, 0x7e,
  0x00, 0x99, 0x1d, 0x3a, 0x01, 0x80, 0x31, 0x00, 0x00, 0x80, 0x2a, 0x00,
  0x00, 0x80, 0x24, 0x00, 0x00, 0x93, 0x3a, 0x6e, 0x00, 0x95, 0x41, 0x7e,
  0x00, 0x89, 0x1d, 0x00, 0x00, 0x89, 0x24, 0x00, 0x01, 0x95, 0x3e, 0x7e,
  0x00, 0x95, 0x3a, 0x7a, 0x21, 0x83, 0x3a, 0x00, 0x0d, 0x90, 0x2a, 0x74,
  0x00, 0x99, 0x2c, 0x7e, 0x00, 0x99, 0x1d, 0x3c, 0x01, 0x80, 0x2a, 0x00,
  0x00, 0x93, 0x41, 0x6e, 0x00, 0x89, 0x1d, 0x00, 0x00, 0x89, 0x2c, 0x00,
  0x12, 0x83, 0x41, 0x00, 0x19, 0xe8, 0x7f, 0x04, 0x03, 0x85, 0x41, 0x00,
  0x01, 0x90, 0x27, 0x64, 0x00, 0x90, 0x2a, 0x5a, 0x00, 0x90, 0x31, 0x46,
  0x00, 0x98, 0x5e, 0x7f, 0x00, 0x99, 0x28, 0x7f, 0x00, 0x99, 0x1e, 0x5a,
  0x01, 0x80, 0x31, 0x00, 0x00, 0x80, 0x2a, 0x00, 0x00, 0x80, 0x27, 0x00,
  0x00, 0x89, 0x1e, 0x00, 0x00, 0x89, 0x28, 0x00, 0x01, 0x93, 0x41, 0x6e,
  0x00, 0x95, 0x4d, 0x74, 0x01, 0x95, 0x41, 0x58, 0x00, 0xe8, 0x00, 0x0c,
  0x02, 0xe8, 0x7f, 0x1e, 0x03, 0xe8, 0x7f, 0x27, 0x02, 0xe8, 0x7f, 0x33,
  0x02, 0x84, 0x3a, 0x00, 0x00, 0xe8, 0x7f, 0x39, 0x02, 0xe8, 0x7f, 0x3c,
  0x03, 0xe8, 0x00, 0x40, 0x15, 0x83, 0x41, 0x00, 0x09, 0x88, 0x5e, 0x00,
  0x01, 0x90, 0x2a, 0x54, 0x00, 0x98, 0x5c, 0x7f, 0x00, 0x99, 0x2c, 0x74,
  0x00, 0x99, 0x1d, 0x28, 0x01, 0x80, 0x2a, 0x00, 0x00, 0x89, 0x1d, 0x00,
  0x00, 0x89, 0x2c, 0x00, 0x02, 0x93, 0x43, 0x64, 0x0b, 0x88, 0x5c, 0x00,
  0x0c, 0x83, 0x43, 0x00, 0x04, 0x99, 0x24, 0x4a, 0x01, 0x90, 0x26, 0x3a,
  0x00, 0x89, 0x24, 0x00, 0x01, 0x90, 0x2a, 0x34, 0x00, 0x90, 0x27, 0x3c,
  0x00, 0x90, 0x24, 0x7f, 0x01, 0x80, 0x24, 0x00, 0x00, 0x80, 0x27, 0x00,
  0x00, 0x80, 0x2a, 0x00, 0x00, 0x80, 0x26, 0x00, 0x09, 0xe8, 0x00, 0x04,
  0x06, 0x90, 0x24, 0x7f, 0x00, 0x90, 0x2a, 0x42, 0x00, 0x90, 0x31, 0x46,
  0x00, 0x98, 0x5c, 0x7f, 0x00, 0x99, 0x24, 0x6a, 0x00, 0x99, 0x1d, 0x16,
  0x01, 0x80, 0x31, 0x00, 0x00, 0x80, 0x2a, 0x00, 0x00, 0x80, 0x24, 0x00,
  0x00, 0x95, 0x4f, 0x62, 0x00, 0x89, 0x1d, 0x00, 0x00, 0x89, 0x24, 0x00,
  0x01, 0x93, 0x43, 0x7f, 0x00, 0x95, 0x43, 0x7e, 0x00, 0xe8, 0x00, 0x0d,
  0x02, 0xe8, 0x00, 0x25, 0x02, 0x85, 0x4d, 0x00, 0x01, 0xe8, 0x7f, 0x30,
  0x02, 0xe8, 0x00, 0x38, 0x03, 0xe8, 0x00, 0x3c, 0x02, 0xe8, 0x00, 0x3e,
  0x03, 0xe8, 0x00, 0x40, 0x0d, 0x90, 0x26, 0x60, 0x01, 0x80, 0x26, 0x00,
  0x0a, 0x83, 0x43, 0x00, 0x06, 0x88, 0x5c, 0x00, 0x01, 0x90, 0x24, 0x7f,
  0x00, 0x90, 0x2a, 0x64, 0x00, 0x98, 0x5b, 0x7f, 0x00, 0x99, 0x24, 0x7e,
  0x00, 0x99, 0x2c, 0x7e, 0x00, 0x99, 0x1d, 0x34, 0x01, 0x80, 0x2a, 0x00,
  0x00, 0x80, 0x24, 0x00, 0x00, 0x93, 0x44, 0x64, 0x00, 0x89, 0x1d, 0x00,
  0x00, 0x89, 0x2c, 0x00, 0x00, 0x89, 0x24, 0x00, 0x10, 0x88, 0x5b, 0x00,
  0x05, 0x83, 0x44, 0x00, 0x08, 0x99, 0x2b, 0x3a, 0x01, 0x89, 0x2b, 0x00,
  0x09, 0xe8, 0x7f, 0x0a, 0x02, 0x85, 0x43, 0x00, 0x00, 0x85, 0x4f, 0x00,
  0x06, 0x90, 0x27, 0x64, 0x00, 0x90, 0x2a, 0x54, 0x00, 0x90, 0x31, 0x46,
  0x00, 0x98, 0x5b, 0x7f, 0x00, 0x99, 0x28, 0x7f, 0x00, 0x99, 0x1e, 0x6a,
  0x00, 0x99, 0x29, 0x74, 0x01, 0x80, 0x31, 0x00, 0x00, 0x80, 0x2a, 0x00,
  0x00, 0x80, 0x27, 0x00, 0x00, 0x93, 0x44, 0x6e, 0x00, 0x89, 0x29, 0x00,
  0x00, 0x89, 0x1e, 0x00, 0x00, 0x89, 0x28, 0x00, 0x01, 0x95, 0x44, 0x58,
  0x00, 0x95, 0x50, 0x54, 0x01, 0xe8, 0x7f, 0x0d, 0x02, 0xe8, 0x00, 0x21,
  0x03, 0xe8, 0x7f, 0x30, 0x02, 0xe8, 0x00, 0x38, 0x02, 0xe8, 0x00, 0x3c,
  0x02, 0xe8, 0x00, 0x3e, 0x03, 0xe8, 0x00, 0x40, 0x18, 0x83, 0x44, 0x00,
  0x06, 0x88, 0x5b, 0x00, 0x01, 0x90, 0x2a, 0x62, 0x00, 0x98, 0x59, 0x7f,
  0x00, 0x99, 0x2c, 0x7e, 0x00, 0x99, 0x1d, 0x3a, 0x01, 0x80, 0x2a, 0x00,
  0x00, 0x93, 0x46, 0x72, 0x00, 0x89, 0x1d, 0x00, 0x00, 0x89, 0x2c, 0x00,
  0x0b, 0x85, 0x3a, 0x00, 0x02, 0x85, 0x50, 0x00, 0x04, 0x83, 0x46, 0x00,
  0x00, 0x85, 0x3e, 0x00, 0x00, 0x85, 0x41, 0x00, 0x02, 0x88, 0x59, 0x00,
  0x01, 0x81, 0x22, 0x00, 0x03, 0x85, 0x44, 0x00, 0x06, 0x93, 0x44, 0x6e,
  0x01, 0x90, 0x26, 0x2a, 0x02, 0x80, 0x26, 0x00, 0x0c, 0x82, 0x22, 0x00,
  0x00, 0x86, 0x4d, 0x00, 0x00, 0x86, 0x46, 0x00, 0x00, 0x86, 0x4a, 0x00,
  0x03, 0x90, 0x24, 0x7f, 0x00, 0x90, 0x2a, 0x4e, 0x00, 0x90, 0x31, 0x46,
  0x00, 0x91, 0x27, 0x7e, 0x00, 0x92, 0x27, 0x7a, 0x00, 0x95, 0x43, 0x7e,
  0x00, 0x95, 0x46, 0x7a, 0x00, 0x96, 0x46, 0x64, 0x00, 0x99, 0x24, 0x7a,
  0x00, 0x99, 0x1d, 0x3a, 0x00, 0x99, 0x37, 0x7a, 0x01, 0x80, 0x31, 0x00,
  0x00, 0x80, 0x2a, 0x00, 0x00, 0x80, 0x24, 0x00, 0x00, 0x96, 0x4b, 0x74,
  0x00, 0x96, 0x43, 0x74, 0x00, 0x89, 0x37, 0x00, 0x00, 0x89, 0x1d, 0x00,
  0x00, 0x89, 0x24, 0x00, 0x01, 0x95, 0x3f, 0x6e, 0x23, 0x83, 0x44, 0x00,
  0x0b, 0x90, 0x2a, 0x64, 0x00, 0x99, 0x2c, 0x62, 0x00, 0x99, 0x1d, 0x3c,
  0x01, 0x80, 0x2a, 0x00, 0x00, 0x89, 0x1d, 0x00, 0x00, 0x89, 0x2c, 0x00,
  0x01, 0x93, 0x43, 0x78, 0x29, 0xe8, 0x7f, 0x03, 0x05, 0x90, 0x27, 0x64,
  0x00, 0x90, 0x2a, 0x38, 0x00, 0x90, 0x31, 0x46, 0x00, 0x98, 0x5e, 0x7f,
  0x00, 0x99, 0x28, 0x7f, 0x00, 0x99, 0x1e, 0x5a, 0x01, 0x80, 0x31, 0x00,
  0x00, 0x80, 0x2a, 0x00, 0x00, 0x80, 0x27, 0x00, 0x00, 0x89, 0x1e, 0x00,
  0x00, 0x89, 0x28, 0x00, 0x01, 0x94, 0x46, 0x74, 0x00, 0x94, 0x43, 0x74,
  0x01, 0x94, 0x4b, 0x74, 0x00, 0xe8, 0x7f, 0x04, 0x02, 0xe8, 0x00, 0x0c,
  0x03, 0xe8, 0x7f, 0x1e, 0x01, 0x83, 0x43, 0x00, 0x01, 0xe8, 0x7f, 0x27,
  0x02, 0xe8, 0x7f, 0x33, 0x02, 0xe8, 0x7f, 0x39, 0x03, 0xe8, 0x7f, 0x3c,
  0x03, 0xe8, 0x00, 0x40, 0x1b, 0x88, 0x5e, 0x00, 0x01, 0x90, 0x2a, 0x74,
  0x00, 0x98, 0x5c, 0x7f, 0x00, 0x99, 0x2c, 0x5a, 0x00, 0x99, 0x1d, 0x28,
  0x01, 0x80, 0x2a, 0x00, 0x00, 0x89, 0x1d, 0x00, 0x00, 0x89, 0x2c, 0x00,
  0x0d, 0x88, 0x5c, 0x00, 0x11, 0x90, 0x26, 0x42, 0x00, 0x85, 0x3f, 0x00,
  0x01, 0x90, 0x2a, 0x38, 0x00, 0x90, 0x27, 0x3c, 0x01, 0x80, 0x27, 0x00,
  0x00, 0x80, 0x2a, 0x00, 0x00, 0x80, 0x26, 0x00, 0x07, 0x82, 0x27, 0x00,
  0x00, 0x85, 0x46, 0x00, 0x01, 0x85, 0x43, 0x00, 0x04, 0x86, 0x4b, 0x00,
  0x00, 0x86, 0x43, 0x00, 0x00, 0xe8, 0x00, 0x04, 0x02, 0x81, 0x27, 0x00,
  0x01, 0x90, 0x2a, 0x34, 0x00, 0x90, 0x31, 0x46, 0x00, 0x91, 0x26, 0x7e,
  0x00, 0x92, 0x26, 0x7e, 0x00, 0x98, 0x5c, 0x7f, 0x00, 0x99, 0x1d, 0x16,
  0x01, 0x80, 0x31, 0x00, 0x00, 0x80, 0x2a, 0x00, 0x00, 0x95, 0x46, 0x6a,
  0x00, 0x96, 0x4a, 0x62, 0x00, 0x96, 0x4d, 0x64, 0x00, 0x89, 0x1d, 0x00,
  0x01, 0x95, 0x3e, 0x7e, 0x00, 0x95, 0x41, 0x7a, 0x00, 0xe8, 0x00, 0x0d,
  0x02, 0xe8, 0x00, 0x25, 0x03, 0xe8, 0x7f, 0x30, 0x02, 0xe8, 0x00, 0x38,
  0x03, 0xe8, 0x00, 0x3c, 0x02, 0xe8, 0x00, 0x3e, 0x03, 0xe8, 0x00, 0x40,
  0x07, 0x84, 0x43, 0x00, 0x03, 0x84, 0x4b, 0x00, 0x01, 0x84, 0x46, 0x00,
  0x02, 0x90, 0x26, 0x4a, 0x01, 0x80, 0x26, 0x00, 0x10, 0x88, 0x5c, 0x00,
  0x01, 0x90, 0x24, 0x7f, 0x00, 0x90, 0x2a, 0x64, 0x00, 0x98, 0x5b, 0x7f,
  0x00, 0x99, 0x24, 0x7e, 0x00, 0x99, 0x2c, 0x6a, 0x00, 0x99, 0x1d, 0x34,
  0x01, 0x80, 0x2a, 0x00, 0x00, 0x80, 0x24, 0x00, 0x00, 0x89, 0x1d, 0x00,
  0x00, 0x89, 0x2c, 0x00, 0x00, 0x89, 0x24, 0x00, 0x10, 0x88, 0x5b, 0x00,
  0x1d, 0xe8, 0x7f, 0x04, 0x02, 0x90, 0x27, 0x64, 0x00, 0x90, 0x2a, 0x4e,
  0x00, 0x90, 0x26, 0x3a, 0x00, 0x90, 0x31, 0x46, 0x00, 0x98, 0x5b, 0x7f,
  0x00, 0x99, 0x28, 0x7f, 0x00, 0x99, 0x1e, 0x6a, 0x01, 0x80, 0x31, 0x00,
  0x00, 0x80, 0x26, 0x00, 0x00, 0x80, 0x2a, 0x00, 0x00, 0x80, 0x27, 0x00,
  0x00, 0xe8, 0x7f, 0x0a, 0x00, 0x89, 0x1e, 0x00, 0x00, 0x89, 0x28, 0x00,
  0x01, 0x94, 0x41, 0x6e, 0x00, 0x94, 0x44, 0x60, 0x02, 0xe8, 0x7f, 0x0d,
  0x02, 0xe8, 0x00, 0x21, 0x02, 0xe8, 0x7f, 0x30, 0x03, 0xe8, 0x00, 0x38,
  0x02, 0xe8, 0x00, 0x3c, 0x03, 0xe8, 0x00, 0x40, 0x1f, 0x88, 0x5b, 0x00,
  0x01, 0x90, 0x2a, 0x6a, 0x00, 0x84, 0x41, 0x00, 0x00, 0x98, 0x59, 0x7f,
  0x00, 0x99, 0x2c, 0x7e, 0x00, 0x99, 0x1d, 0x3a, 0x01, 0x80, 0x2a, 0x00,
  0x00, 0x84, 0x44, 0x00, 0x00, 0x89, 0x1d, 0x00, 0x00, 0x89, 0x2c, 0x00,
  0x02, 0x94, 0x46, 0x60, 0x0c, 0x85, 0x41, 0x00, 0x05, 0x88, 0x59, 0x00,
  0x01, 0x85, 0x3e, 0x00, 0x05, 0x84, 0x46, 0x00, 0x00, 0x94, 0x3f, 0x60,
  0x00, 0x94, 0x43, 0x74, 0x05, 0x90, 0x26, 0x3e, 0x02, 0x80, 0x26, 0x00,
  0x01, 0x85, 0x46, 0x00, 0x09, 0x82, 0x26, 0x00, 0x01, 0x81, 0x26, 0x00,
  0x00, 0x86, 0x46, 0x00, 0x01, 0x86, 0x4a, 0x00, 0x00, 0x86, 0x4d, 0x00,
  0x03, 0x90, 0x24, 0x7f, 0x00, 0x90, 0x2a, 0x42, 0x00, 0x90, 0x31, 0x46,
  0x00, 0x91, 0x24, 0x7e, 0x00, 0x92, 0x24, 0x6e, 0x00, 0x99, 0x24, 0x7e,
  0x00, 0x99, 0x1d, 0x3a, 0x01, 0x80, 0x31, 0x00, 0x00, 0x80, 0x2a, 0x00,
  0x00, 0x80, 0x24, 0x00, 0x00, 0x95, 0x3f, 0x64, 0x00, 0x96, 0x4b, 0x6e,
  0x00, 0x89, 0x1d, 0x00, 0x00, 0x89, 0x24, 0x00, 0x01, 0x95, 0x48, 0x7a,
  0x00, 0x95, 0x43, 0x7e, 0x00, 0x96, 0x43, 0x74, 0x00, 0x96, 0x48, 0x6e,
  0x2e, 0x90, 0x2a, 0x64, 0x00, 0x99, 0x2c, 0x7e, 0x00, 0x99, 0x1d, 0x3c,
  0x01, 0x80, 0x2a, 0x00, 0x00, 0x89, 0x1d, 0x00, 0x00, 0x89, 0x2c, 0x00,
  0x1a, 0x84, 0x3f, 0x00, 0x03, 0x84, 0x43, 0x00, 0x0f, 0xe8, 0x7f, 0x03,
  0x03, 0x90, 0x27, 0x62, 0x00, 0x90, 0x2a, 0x4e, 0x00, 0x90, 0x31, 0x46,
  0x00, 0x98, 0x5e, 0x7f, 0x00, 0x99, 0x28, 0x7f, 0x00, 0x99, 0x1e, 0x5a,
  0x01, 0x80, 0x31, 0x00, 0x00, 0x80, 0x2a, 0x00, 0x00, 0x80, 0x27, 0x00,
  0x00, 0x89, 0x1e, 0x00, 0x00, 0x89, 0x28, 0x00, 0x02, 0xe8, 0x7f, 0x04,
  0x02, 0xe8, 0x00, 0x0c, 0x03, 0xe8, 0x7f, 0x1e, 0x02, 0xe8, 0x7f, 0x27,
  0x02, 0xe8, 0x7f, 0x33, 0x02, 0xe8, 0x7f, 0x39, 0x03, 0xe8, 0x7f, 0x3c,
  0x03, 0xe8, 0x00, 0x3e, 0x02, 0xe8, 0x00, 0x40, 0x19, 0x88, 0x5e, 0x00,
  0x01, 0x90, 0x2a, 0x5a, 0x00, 0x98, 0x5c, 0x7f, 0x00, 0x99, 0x2c, 0x6a,
  0x00, 0x99, 0x1d, 0x24, 0x01, 0x80, 0x2a, 0x00, 0x00, 0x89, 0x1d, 0x00,
  0x00, 0x89, 0x2c, 0x00, 0x0d, 0x88, 0x5c, 0x00, 0x11, 0x90, 0x26, 0x38,
  0x01, 0x90, 0x2a, 0x3c, 0x00, 0x90, 0x27, 0x3c, 0x01, 0x80, 0x27, 0x00,
  0x00, 0x80, 0x2a, 0x00, 0x00, 0x80, 0x26, 0x00, 0x0c, 0xe8, 0x00, 0x04,
  0x03, 0x90, 0x2a, 0x42, 0x00, 0x90, 0x31, 0x46, 0x00, 0x98, 0x5c, 0x7f,
  0x00, 0x99, 0x1d, 0x34, 0x01, 0x80, 0x31, 0x00, 0x00, 0x80, 0x2a, 0x00,
  0x00, 0x94, 0x3c, 0x74, 0x00, 0x94, 0x43, 0x7e, 0x00, 0x89, 0x1d, 0x00,
  0x01, 0xe8, 0x00, 0x0d, 0x02, 0xe8, 0x00, 0x25, 0x03, 0xe8, 0x7f, 0x30,
  0x02, 0xe8, 0x00, 0x38, 0x03, 0xe8, 0x00, 0x3c, 0x02, 0xe8, 0x00, 0x3e,
  0x03, 0xe8, 0x00, 0x40, 0x05, 0x84, 0x3c, 0x00, 0x00, 0x84, 0x43, 0x00,
  0x03, 0x94, 0x3f, 0x64, 0x00, 0x94, 0x46, 0x6a, 0x05, 0x90, 0x26, 0x44,
  0x01, 0x80, 0x26, 0x00, 0x06, 0x84, 0x3f, 0x00, 0x02, 0x84, 0x46, 0x00,
  0x08, 0x88, 0x5c, 0x00, 0x01, 0x90, 0x24, 0x7f, 0x00, 0x90, 0x2a, 0x64,
  0x00, 0x98, 0x5b, 0x7f, 0x00, 0x99, 0x24, 0x7a, 0x00, 0x99, 0x2c, 0x6a,
  0x00, 0x99, 0x1d, 0x3a, 0x01, 0x80, 0x2a, 0x00, 0x00, 0x80, 0x24, 0x00,
  0x00, 0x89, 0x1d, 0x00, 0x00, 0x89, 0x2c, 0x00, 0x00, 0x89, 0x24, 0x00,
  0x10, 0x88, 0x5b, 0x00, 0x08, 0x94, 0x3c, 0x74, 0x01, 0x94, 0x43, 0x7e,
  0x14, 0xe8, 0x7f, 0x04, 0x02, 0x90, 0x27, 0x64, 0x00, 0x90, 0x2a, 0x48,
  0x00, 0x90, 0x31, 0x46, 0x00, 0x98, 0x5b, 0x7f, 0x00, 0xe8, 0x7f, 0x0a,
  0x00, 0x99, 0x28, 0x7f, 0x00, 0x99, 0x1e, 0x54, 0x01, 0x80, 0x31, 0x00,
  0x00, 0x80, 0x2a, 0x00, 0x00, 0x80, 0x27, 0x00, 0x00, 0x89, 0x1e, 0x00,
  0x00, 0x89, 0x28, 0x00, 0x02, 0x84, 0x43, 0x00, 0x00, 0x84, 0x3c, 0x00,
  0x00, 0xe8, 0x7f, 0x0d, 0x02, 0xe8, 0x00, 0x21, 0x03, 0xe8, 0x7f, 0x30,
  0x03, 0xe8, 0x00, 0x38, 0x02, 0xe8, 0x00, 0x40, 0x0c, 0x94, 0x46, 0x6a,
  0x00, 0x94, 0x3f, 0x64, 0x0e, 0x84, 0x3f, 0x00, 0x02, 0x85, 0x48, 0x00,
  0x02, 0x84, 0x46, 0x00, 0x01, 0x85, 0x43, 0x00, 0x03, 0x88, 0x5b, 0x00,
  0x01, 0x90, 0x2a, 0x74, 0x00, 0x85, 0x3f, 0x00, 0x00, 0x98, 0x59, 0x7f,
  0x00, 0x99, 0x2c, 0x6a, 0x00, 0x99, 0x1d, 0x16, 0x01, 0x80, 0x2a, 0x00,
  0x00, 0x89, 0x1d, 0x00, 0x00, 0x89, 0x2c, 0x00, 0x13, 0x88, 0x59, 0x00,
  0x07, 0x94, 0x43, 0x6a, 0x00, 0x94, 0x3c, 0x74, 0x03, 0x81, 0x24, 0x00,
  0x01, 0x90, 0x26, 0x30, 0x02, 0x80, 0x26, 0x00, 0x0c, 0x86, 0x43, 0x00,
  0x00, 0xe8, 0x7f, 0x10, 0x01, 0x86, 0x4b, 0x00, 0x01, 0x82, 0x24, 0x00,
  0x01, 0x90, 0x24, 0x7f, 0x00, 0x90, 0x2a, 0x3c, 0x00, 0x90, 0x31, 0x46,
  0x00, 0x91, 0x29, 0x74, 0x00, 0x92, 0x29, 0x6e, 0x00, 0x98, 0x5b, 0x74,
  0x00, 0x99, 0x24, 0x7e, 0x00, 0x99, 0x1d, 0x3a, 0x00, 0x99, 0x39, 0x4e,
  0x01, 0x80, 0x31, 0x00, 0x00, 0x80, 0x2a, 0x00, 0x00, 0x80, 0x24, 0x00,
  0x00, 0x95, 0x3c, 0x74, 0x00, 0x89, 0x39, 0x00, 0x00, 0x89, 0x1d, 0x00,
  0x00, 0x89, 0x24, 0x00, 0x01, 0x95, 0x29, 0x7e, 0x00, 0x96, 0x44, 0x60,
  0x00, 0x96, 0x4d, 0x7a, 0x00, 0xe8, 0x00, 0x1d, 0x01, 0x95, 0x35, 0x7e,
  0x00, 0x95, 0x41, 0x7a, 0x00, 0x95, 0x38, 0x7e, 0x02, 0xe8, 0x00, 0x23,
  0x03, 0xe8, 0x7f, 0x31, 0x02, 0xe8, 0x7f, 0x38, 0x03, 0xe8, 0x00, 0x40,
  0x07, 0x84, 0x3c, 0x00, 0x02, 0x84, 0x43, 0x00, 0x04, 0x94, 0x41, 0x64,
  0x01, 0x94, 0x3a, 0x60, 0x0c, 0x88, 0x5b, 0x00, 0x09, 0x90, 0x2a, 0x64,
  0x00, 0x99, 0x2c, 0x6a, 0x00, 0x99, 0x1d, 0x34, 0x01, 0x80, 0x2a, 0x00,
  0x00, 0x89, 0x1d, 0x00, 0x00, 0x89, 0x2c, 0x00, 0x2b, 0xe8, 0x00, 0x08,
  0x04, 0x90, 0x27, 0x64, 0x00, 0x90, 0x2a, 0x62, 0x00, 0x90, 0x31, 0x46,
  0x00, 0x98, 0x5e, 0x74, 0x00, 0x99, 0x28, 0x7f, 0x00, 0x99, 0x1e, 0x5a,
  0x01, 0x80, 0x31, 0x00, 0x00, 0x80, 0x2a, 0x00, 0x00, 0x80, 0x27, 0x00,
  0x00, 0x89, 0x1e, 0x00, 0x00, 0x89, 0x28, 0x00, 0x05, 0xe8, 0x7f, 0x11,
  0x02, 0xe8, 0x00, 0x27, 0x02, 0x84, 0x41, 0x00, 0x01, 0xe8, 0x7f, 0x31,
  0x02, 0x84, 0x3a, 0x00, 0x00, 0xe8, 0x7f, 0x38, 0x03, 0xe8, 0x00, 0x40,
  0x11, 0x85, 0x29, 0x00, 0x01, 0x85, 0x35, 0x00, 0x03, 0x88, 0x5e, 0x00,
  0x02, 0x81, 0x29, 0x00, 0x03, 0x82, 0x29, 0x00, 0x06, 0x90, 0x2a, 0x5a,
  0x00, 0x91, 0x28, 0x7e, 0x00, 0x92, 0x28, 0x74, 0x00, 0x95, 0x34, 0x7e,
  0x00, 0x98, 0x5c, 0x6a, 0x00, 0x99, 0x2c, 0x7e, 0x00, 0x99, 0x1d, 0x32,
  0x01, 0x80, 0x2a, 0x00, 0x00, 0x89, 0x1d, 0x00, 0x00, 0x89, 0x2c, 0x00,
  0x01, 0x95, 0x28, 0x7e, 0x16, 0x88, 0x5c, 0x00, 0x07, 0x90, 0x26, 0x3c,
  0x01, 0x90, 0x2a, 0x30, 0x00, 0x90, 0x27, 0x3c, 0x01, 0x80, 0x27, 0x00,
  0x00, 0x80, 0x2a, 0x00, 0x00, 0x80, 0x26, 0x00, 0x01, 0x85, 0x28, 0x00,
  0x0b, 0xe8, 0x7f, 0x08, 0x01, 0x82, 0x28, 0x00, 0x01, 0x81, 0x28, 0x00,
  0x00, 0x85, 0x34, 0x00, 0x01, 0x90, 0x2a, 0x3c, 0x00, 0x90, 0x31, 0x46,
  0x00, 0x91, 0x27, 0x7a, 0x00, 0x92, 0x27, 0x74, 0x00, 0x98, 0x5c, 0x7a,
  0x00, 0x99, 0x1d, 0x3c, 0x01, 0x80, 0x31, 0x00, 0x00, 0x80, 0x2a, 0x00,
  0x00, 0x89, 0x1d, 0x00, 0x01, 0x95, 0x27, 0x7a, 0x00, 0x95, 0x33, 0x7e,
  0x03, 0xe8, 0x7f, 0x14, 0x02, 0xe8, 0x7f, 0x1a, 0x03, 0xe8, 0x7f, 0x2b,
  0x02, 0xe8, 0x7f, 0x35, 0x02, 0xe8, 0x7f, 0x3a, 0x03, 0xe8, 0x00, 0x40,
  0x0d, 0x90, 0x26, 0x58, 0x01, 0x80, 0x26, 0x00, 0x10, 0x88, 0x5c, 0x00,
  0x01, 0x90, 0x24, 0x7f, 0x00, 0x90, 0x2a, 0x64, 0x00, 0x98, 0x5b, 0x7e,
  0x00, 0x99, 0x24, 0x7e, 0x00, 0x99, 0x2c, 0x6a, 0x00, 0x99, 0x1d, 0x3c,
  0x01, 0x80, 0x2a, 0x00, 0x00, 0x80, 0x24, 0x00, 0x00, 0x89, 0x1d, 0x00,
  0x00, 0x89, 0x2c, 0x00, 0x00, 0x89, 0x24, 0x00, 0x18, 0x85, 0x27, 0x00,
  0x01, 0xc7, 0x1b, 0x01, 0x88, 0x5b, 0x00, 0x0d, 0x85, 0x33, 0x00, 0x05,
  0xe8, 0x00, 0x07, 0x01, 0x81, 0x27, 0x00, 0x00, 0x82, 0x27, 0x00, 0x02,
  0x90, 0x27, 0x64, 0x00, 0x90, 0x2a, 0x62, 0x00, 0x90, 0x26, 0x0c, 0x00,
  0x90, 0x31, 0x46, 0x00, 0x91, 0x26, 0x7e, 0x00, 0x92, 0x26, 0x7e, 0x00,
  0x98, 0x5b, 0x7e, 0x00, 0x99, 0x28, 0x7f, 0x00, 0x99, 0x1e, 0x62, 0x01,
  0x80, 0x31, 0x00, 0x00, 0x80, 0x26, 0x00, 0x00, 0x80, 0x2a, 0x00, 0x00,
  0x80, 0x27, 0x00, 0x00, 0x89, 0x1e, 0x00, 0x00, 0x89, 0x28, 0x00, 0x01,
  0x95, 0x32, 0x7e, 0x00, 0x95, 0x26, 0x7e, 0x00, 0xb7, 0x07, 0x50, 0x00,
  0xe8, 0x7f, 0x08, 0x02, 0xe8, 0x7f, 0x13, 0x03, 0xe8, 0x00, 0x19, 0x02,
  0xe8, 0x7f, 0x2b, 0x03, 0xe8, 0x7f, 0x35, 0x03, 0xe8, 0x7f, 0x3a, 0x02,
  0xe8, 0x00, 0x40, 0x09, 0xb7, 0x0a, 0x1e, 0x11, 0x88, 0x5b, 0x00, 0x05,
  0x90, 0x2a, 0x64, 0x00, 0x98, 0x59, 0x74, 0x00, 0x99, 0x2c, 0x74, 0x00,
  0x99, 0x1d, 0x2e, 0x01, 0x80, 0x2a, 0x00, 0x00, 0x89, 0x1d, 0x00, 0x00,
  0x89, 0x2c, 0x00, 0x12, 0x88, 0x59, 0x00, 0x07, 0xb7, 0x5b, 0x32, 0x04,
  0x85, 0x38, 0x00, 0x01, 0x90, 0x26, 0x3e, 0x02, 0x80, 0x26, 0x00, 0x00,
  0x85, 0x26, 0x00, 0x01, 0x85, 0x41, 0x00, 0x04, 0x85, 0x32, 0x00, 0x01,
  0x85, 0x3c, 0x00, 0x05, 0x81, 0x26, 0x00, 0x01, 0x86, 0x48, 0x00, 0x01,
  0x82, 0x26, 0x00, 0x02, 0x90, 0x24, 0x7f, 0x00, 0x90, 0x2a, 0x54, 0x00,
  0x91, 0x25, 0x7a, 0x00, 0x92, 0x25, 0x6a, 0x00, 0x99, 0x24, 0x7e, 0x00,
  0x99, 0x1d, 0x3a, 0x01, 0x80, 0x2a, 0x00, 0x00, 0x80, 0x24, 0x00, 0x00,
  0x95, 0x38, 0x7e, 0x00, 0x95, 0x31, 0x7a, 0x00, 0x89, 0x1d, 0x00, 0x00,
  0x89, 0x24, 0x00, 0x01, 0x95, 0x3d, 0x7e, 0x00, 0x95, 0x25, 0x7a, 0x00,
  0x95, 0x41, 0x7a, 0x00, 0x96, 0x49, 0x64, 0x00, 0xb7, 0x5d, 0x2d, 0x18,
  0xb7, 0x63, 0x01, 0x16, 0x90, 0x2a, 0x74, 0x00, 0x99, 0x2c, 0x7e, 0x00,
  0x99, 0x1d, 0x3c, 0x01, 0x80, 0x2a, 0x00, 0x00, 0x89, 0x1d, 0x00, 0x00,
  0x89, 0x2c, 0x00, 0x01, 0xb7, 0x62, 0x20, 0x18, 0xb7, 0x06, 0x2c, 0x16,
  0x90, 0x27, 0x64, 0x00, 0x90, 0x2a, 0x5a, 0x00, 0x99, 0x28, 0x7e, 0x00,
  0x99, 0x1e, 0x5a, 0x01, 0x80, 0x2a, 0x00, 0x00, 0x80, 0x27, 0x00, 0x00,
  0x89, 0x1e, 0x00, 0x00, 0x89, 0x28, 0x00, 0x01, 0xb7, 0x62, 0x21, 0x18,
  0xb7, 0x06, 0x5f, 0x16, 0x90, 0x2a, 0x54, 0x00, 0x99, 0x2c, 0x74, 0x00,
  0x99, 0x1d, 0x28, 0x01, 0x80, 0x2a, 0x00, 0x00, 0x89, 0x1d, 0x00, 0x00,
  0x89, 0x2c, 0x00, 0x01, 0xb7, 0x62, 0x63, 0x18, 0xb7, 0x06, 0x43, 0x04,
  0x99, 0x28, 0x26, 0x00, 0x99, 0x24, 0x4a, 0x01, 0x90, 0x26, 0x3a, 0x00,
  0x89, 0x24, 0x00, 0x00, 0x89, 0x28, 0x00, 0x01, 0x90, 0x2a, 0x34, 0x00,
  0x90, 0x27, 0x3c, 0x00, 0x90, 0x24, 0x7f, 0x01, 0x80, 0x24, 0x00, 0x00,
  0x80, 0x27, 0x00, 0x00, 0x80, 0x2a, 0x00, 0x00, 0x80, 0x26, 0x00, 0x0f,
  0x90, 0x24, 0x7f, 0x00, 0x90, 0x2a, 0x42, 0x00, 0x99, 0x24, 0x6a, 0x00,
  0x99, 0x1d, 0x16, 0x01, 0x80, 0x2a, 0x00, 0x00, 0x80, 0x24, 0x00, 0x00,
  0x89, 0x1d, 0x00, 0x00, 0x89, 0x24, 0x00, 0x1d, 0x90, 0x26, 0x60, 0x00,
  0x99, 0x28, 0x38, 0x01, 0x80, 0x26, 0x00, 0x00, 0x89, 0x28, 0x00, 0x11,
  0x90, 0x24, 0x7f, 0x00, 0x90, 0x2a, 0x64, 0x00, 0x99, 0x24, 0x7e, 0x00,
  0x99, 0x2c, 0x7e, 0x00, 0x99, 0x1d, 0x34, 0x01, 0x80, 0x2a, 0x00, 0x00,
  0x80, 0x24, 0x00, 0x00, 0x89, 0x1d, 0x00, 0x00, 0x89, 0x2c, 0x00, 0x00,
  0x89, 0x24, 0x00, 0x01, 0xb7, 0x62, 0x66, 0x18, 0xb7, 0x06, 0x32, 0x16,
  0x90, 0x27, 0x64, 0x00, 0x90, 0x2a, 0x54, 0x00, 0x99, 0x28, 0x7e, 0x00,
  0x99, 0x1e, 0x6a, 0x01, 0x80, 0x2a, 0x00, 0x00, 0x80, 0x27, 0x00, 0x00,
  0x89, 0x1e, 0x00, 0x00, 0x89, 0x28, 0x00, 0x01, 0xb7, 0x64, 0x7f, 0x01,
  0x85, 0x31, 0x00, 0x17, 0xb7, 0x65, 0x7f, 0x12, 0x85, 0x25, 0x00, 0x04,
  0x90, 0x2a, 0x62, 0x00, 0x99, 0x2c, 0x7e, 0x00, 0x99, 0x1d, 0x3a, 0x01,
  0x80, 0x2a, 0x00, 0x00, 0x89, 0x1d, 0x00, 0x00, 0x89, 0x2c, 0x00, 0x17,
  0x99, 0x28, 0x02, 0x01, 0x82, 0x25, 0x00, 0x00, 0x89, 0x28, 0x00, 0x06,
  0x90, 0x26, 0x2a, 0x01, 0x99, 0x28, 0x32, 0x01, 0x80, 0x26, 0x00, 0x00,
  0x89, 0x28, 0x00, 0x07, 0x99, 0x28, 0x3c, 0x01, 0x89, 0x28, 0x00, 0x04,
  0x86, 0x44, 0x00, 0x00, 0x86, 0x4d, 0x00, 0x01, 0x86, 0x49, 0x00, 0x02,
  0x90, 0x24, 0x7a, 0x00, 0x99, 0x24, 0x7a, 0x00, 0x99, 0x28, 0x74, 0x00,
  0x99, 0x39, 0x7e, 0x01, 0x80, 0x24, 0x00, 0x00, 0x89, 0x39, 0x00, 0x00,
  0x89, 0x28, 0x00, 0x00, 0x89, 0x24, 0x00, 0x08, 0x85, 0x38, 0x00, 0x01,
  0x85, 0x41, 0x00, 0x02, 0x85, 0x3d, 0x00, 0x12, 0x99, 0x28, 0x64, 0x01,
  0x89, 0x28, 0x00, 0x0a, 0x81, 0x25, 0x00, 0x05, 0xe9, 0x7f, 0x3d, 0x02,
  0x99, 0x2c, 0x74, 0x01, 0x89, 0x2c, 0x00, 0x02, 0xe9, 0x7f, 0x3c, 0x03,
  0xe9, 0x7f, 0x3b, 0x07, 0xe9, 0x7f, 0x3a, 0x02, 0xe9, 0x00, 0x39, 0x03,
  0xe9, 0x00, 0x38, 0x02, 0xe9, 0x00, 0x37, 0x03, 0xe9, 0x7f, 0x36, 0x04,
  0xe9, 0x7f, 0x35, 0x02, 0xe9, 0x00, 0x35, 0x01, 0x99, 0x2d, 0x7e, 0x01,
  0x89, 0x2d, 0x00, 0x04, 0xe9, 0x00, 0x34, 0x02, 0xe9, 0x00, 0x33, 0x03,
  0xe9, 0x00, 0x32, 0x06, 0xe9, 0x00, 0x31, 0x02, 0xe9, 0x7f, 0x30, 0x05,
  0xe9, 0x7f, 0x2f, 0x01, 0xe9, 0x00, 0x2f, 0x05, 0xe9, 0x00, 0x2e, 0x02,
  0xe9, 0x00, 0x2d, 0x03, 0xe9, 0x7f, 0x2c, 0x02, 0xe9, 0x7f, 0x2b, 0x0a,
  0xe9, 0x7f, 0x2a, 0x02, 0x99, 0x2d, 0x74, 0x01, 0x89, 0x2d, 0x00, 0x04,
  0xe9, 0x7f, 0x29, 0x03, 0xe9, 0x7f, 0x28, 0x04, 0xe9, 0x7f, 0x27, 0x03,
  0xe9, 0x7f, 0x26, 0x03, 0x99, 0x2c, 0x7e, 0x01, 0x89, 0x2c, 0x00, 0x06,
  0xe9, 0x7f, 0x25, 0x07, 0xe9, 0x7f, 0x24, 0x05, 0xe9, 0x7f, 0x23, 0x07,
  0xe9, 0x7f, 0x22, 0x04, 0x99, 0x2b, 0x6a, 0x01, 0x89, 0x2b, 0x00, 0x02,
  0xe9, 0x7f, 0x21, 0x03, 0xe9, 0x7f, 0x20, 0x09, 0xe9, 0x7f, 0x1f, 0x05,
  0xe9, 0x7f, 0x1e, 0x03, 0xe9, 0x7f, 0x1d, 0x02, 0xe9, 0x00, 0x1d, 0x02,
  0xe9, 0x00, 0x1c, 0x03, 0xe9, 0x00, 0x1b, 0x06, 0xe9, 0x00, 0x1a, 0x01,
  0xe9, 0x00, 0x19, 0x0a, 0xe9, 0x00, 0x18, 0x01, 0x99, 0x2b, 0x64, 0x01,
  0x89, 0x2b, 0x00, 0x00, 0xe9, 0x7f, 0x17, 0x02, 0xe9, 0x7f, 0x16, 0x03,
  0xe9, 0x00, 0x16, 0x05, 0xe9, 0x00, 0x15, 0x02, 0xe9, 0x00, 0x13, 0x03,
  0xe9, 0x00, 0x12, 0x01, 0xe9, 0x7f, 0x10, 0x01, 0x90, 0x24, 0x7e, 0x00,
  0x99, 0x24, 0x7e, 0x00, 0x99, 0x2c, 0x7e, 0x01, 0x80, 0x24, 0x00, 0x00,
  0x89, 0x2c, 0x00, 0x00, 0x89, 0x24, 0x00, 0x01, 0xe9, 0x00, 0x0f, 0x03,
  0xe9, 0x7f, 0x0d, 0x02, 0xe9, 0x7f, 0x0c, 0x03, 0xe9, 0x7f, 0x0a, 0x02,
  0xe9, 0x00, 0x09, 0x03, 0xe9, 0x00, 0x08, 0x02, 0xe9, 0x7f, 0x07, 0x07,
  0xe9, 0x7f, 0x06, 0x03, 0xe9, 0x7f, 0x05, 0x02, 0xe9, 0x00, 0x05, 0x01,
  0x99, 0x2b, 0x6a, 0x01, 0x89, 0x2b, 0x00, 0x01, 0xe9, 0x00, 0x04, 0x02,
  0xe9, 0x00, 0x03, 0x03, 0xe9, 0x00, 0x04, 0x0b, 0x99, 0x28, 0x7e, 0x00,
  0x99, 0x29, 0x7a, 0x01, 0x89, 0x29, 0x00, 0x00, 0x89, 0x28, 0x00, 0x00,
  0xe9, 0x00, 0x05, 0x24, 0xe9, 0x00, 0x40, 0x0b, 0x99, 0x2c, 0x7e, 0x00,
  0x99, 0x29, 0x7e, 0x01, 0x89, 0x29, 0x00, 0x00, 0x89, 0x2c, 0x00, 0x2a,
  0xe8, 0x7f, 0x20, 0x05, 0x90, 0x24, 0x7e, 0x00, 0x90, 0x2a, 0x42, 0x00,
  0x90, 0x31, 0x46, 0x00, 0x91, 0x22, 0x7e, 0x00, 0x95, 0x22, 0x6e, 0x00,
  0x98, 0x63, 0x6e, 0x00, 0x99, 0x24, 0x7e, 0x00, 0x99, 0x1d, 0x3a, 0x00,
  0x99, 0x39, 0x50, 0x00, 0x9b, 0x22, 0x7a, 0x01, 0x80, 0x31, 0x00, 0x00,
  0x80, 0x2a, 0x00, 0x00, 0x80, 0x24, 0x00, 0x00, 0x97, 0x22, 0x3a, 0x00,
  0x89, 0x39, 0x00, 0x00, 0x89, 0x1d, 0x00, 0x00, 0x89, 0x24, 0x00, 0x00,
  0x9d, 0x57, 0x60, 0x01, 0xe8, 0x00, 0x28, 0x00, 0x9c, 0x46, 0x7e, 0x03,
  0xe8, 0x7f, 0x2b, 0x02, 0x87, 0x22, 0x00, 0x00, 0xe8, 0x7f, 0x30, 0x03,
  0xe8, 0x00, 0x33, 0x02, 0xe8, 0x00, 0x39, 0x02, 0xe8, 0x7f, 0x3c, 0x04,
  0xe8, 0x00, 0x40, 0x00, 0x8d, 0x57, 0x00, 0x0e, 0x81, 0x22, 0x00, 0x00,
  0x8c, 0x46, 0x00, 0x02, 0x8b, 0x22, 0x00, 0x0e, 0x90, 0x24, 0x7a, 0x00,
  0x90, 0x2a, 0x64, 0x00, 0x91, 0x22, 0x7e, 0x00, 0x99, 0x24, 0x7a, 0x00,
  0x99, 0x2c, 0x7e, 0x00, 0x99, 0x1d, 0x3c, 0x00, 0x9b, 0x22, 0x7a, 0x01,
  0x80, 0x2a, 0x00, 0x00, 0x80, 0x24, 0x00, 0x00, 0x89, 0x1d, 0x00, 0x00,
  0x89, 0x2c, 0x00, 0x00, 0x89, 0x24, 0x00, 0x01, 0x97, 0x22, 0x64, 0x00,
  0x9c, 0x46, 0x6e, 0x04, 0x87, 0x22, 0x00, 0x12, 0x81, 0x22, 0x00, 0x00,
  0x8c, 0x46, 0x00, 0x01, 0x88, 0x63, 0x00, 0x05, 0x98, 0x5b, 0x6a, 0x01,
  0x9d, 0x4f, 0x62, 0x02, 0x8b, 0x22, 0x00, 0x0c, 0x8d, 0x4f, 0x00, 0x03,
  0x90, 0x27, 0x62, 0x00, 0x90, 0x2a, 0x4e, 0x00, 0x90, 0x31, 0x46, 0x00,
  0x99, 0x28, 0x7f, 0x00, 0x99, 0x1e, 0x5a, 0x00, 0x9c, 0x46, 0x1e, 0x01,
  0x80, 0x31, 0x00, 0x00, 0x80, 0x2a, 0x00, 0x00, 0x80, 0x27, 0x00, 0x00,
  0x97, 0x2e, 0x7a, 0x00, 0x97, 0x29, 0x74, 0x00, 0x89, 0x1e, 0x00, 0x00,
  0x89, 0x28, 0x00, 0x13, 0x8c, 0x46, 0x00, 0x0a, 0x90, 0x24, 0x7e, 0x00,
  0x99, 0x24, 0x7e, 0x01, 0x80, 0x24, 0x00, 0x00, 0x89, 0x24, 0x00, 0x04,
  0x87, 0x29, 0x00, 0x02, 0x87, 0x2e, 0x00, 0x0a, 0x88, 0x5b, 0x00, 0x01,
  0x90, 0x2a, 0x5a, 0x00, 0x91, 0x22, 0x7e, 0x00, 0x98, 0x5c, 0x4e, 0x00,
  0x99, 0x2c, 0x6a, 0x00, 0x99, 0x1d, 0x24, 0x00, 0x9b, 0x22, 0x7e, 0x01,
  0x80, 0x2a, 0x00, 0x00, 0x89, 0x1d, 0x00, 0x00, 0x89, 0x2c, 0x00, 0x00,
  0x9c, 0x46, 0x0c, 0x01, 0x97, 0x22, 0x5c, 0x00, 0x9d, 0x50, 0x4e, 0x06,
  0x87, 0x22, 0x00, 0x08, 0x8d, 0x50, 0x00, 0x06, 0x81, 0x22, 0x00, 0x01,
  0x8c, 0x46, 0x00, 0x03, 0x97, 0x2e, 0x5c, 0x00, 0x97, 0x29, 0x74, 0x02,
  0x8b, 0x22, 0x00, 0x03, 0x90, 0x26, 0x38, 0x01, 0x90, 0x2a, 0x3c, 0x00,
  0x90, 0x27, 0x3c, 0x01, 0x80, 0x27, 0x00, 0x00, 0x80, 0x2a, 0x00, 0x00,
  0x80, 0x26, 0x00, 0x02, 0x87, 0x2e, 0x00, 0x00, 0x87, 0x29, 0x00, 0x0a,
  0x88, 0x5c, 0x00, 0x03, 0x90, 0x24, 0x7a, 0x00, 0x90, 0x2a, 0x42, 0x00,
  0x90, 0x31, 0x46, 0x00, 0x91, 0x22, 0x7e, 0x00, 0x98, 0x5e, 0x74, 0x00,
  0x99, 0x24, 0x7a, 0x00, 0x99, 0x1d, 0x34, 0x00, 0x9b, 0x22, 0x7e, 0x01,
  0x80, 0x31, 0x00, 0x00, 0x80, 0x2a, 0x00, 0x00, 0x80, 0x24, 0x00, 0x00,
  0x97, 0x22, 0x3a, 0x00, 0x89, 0x1d, 0x00, 0x00, 0x89, 0x24, 0x00, 0x00,
  0x9c, 0x46, 0x02, 0x00, 0x9d, 0x52, 0x64, 0x05, 0x87, 0x22, 0x00, 0x0c,
  0x8c, 0x46, 0x00, 0x02, 0x8d, 0x52, 0x00, 0x06, 0x97, 0x29, 0x74, 0x00,
  0x97, 0x2e, 0x60, 0x02, 0x81, 0x22, 0x00, 0x02, 0x90, 0x26, 0x44, 0x01,
  0x80, 0x26, 0x00, 0x01, 0x87, 0x2e, 0x00, 0x00, 0x87, 0x29, 0x00, 0x0a,
  0x8b, 0x22, 0x00, 0x06, 0x90, 0x24, 0x74, 0x00, 0x90, 0x2a, 0x64, 0x00,
  0x99, 0x24, 0x74, 0x00, 0x99, 0x2c, 0x6a, 0x00, 0x99, 0x1d, 0x3a, 0x01,
  0x80, 0x2a, 0x00, 0x00, 0x80, 0x24, 0x00, 0x00, 0x89, 0x1d, 0x00, 0x00,
  0x89, 0x2c, 0x00, 0x00, 0x89, 0x24, 0x00, 0x01, 0x97, 0x22, 0x4a, 0x06,
  0x87, 0x22, 0x00, 0x11, 0x97, 0x2e, 0x3c, 0x00, 0x97, 0x29, 0x64, 0x03,
  0x88, 0x5e, 0x00, 0x02, 0x87, 0x2e, 0x00, 0x00, 0x98, 0x60, 0x64, 0x02,
  0x87, 0x29, 0x00, 0x00, 0x9d, 0x54, 0x6a, 0x10, 0x90, 0x27, 0x64, 0x00,
  0x90, 0x2a, 0x48, 0x00, 0x90, 0x31, 0x46, 0x00, 0x99, 0x28, 0x7f, 0x00,
  0x99, 0x1e, 0x54, 0x00, 0x8d, 0x54, 0x00, 0x01, 0x80, 0x31, 0x00, 0x00,
  0x80, 0x2a, 0x00, 0x00, 0x80, 0x27, 0x00, 0x00, 0x89, 0x1e, 0x00, 0x00,
  0x89, 0x28, 0x00, 0x01, 0x97, 0x2e, 0x74, 0x00, 0x97, 0x29, 0x7e, 0x26,
  0x87, 0x29, 0x00, 0x00, 0x87, 0x2e, 0x00, 0x07, 0x88, 0x60, 0x00, 0x01,
  0x90, 0x2a, 0x74, 0x00, 0x98, 0x62, 0x6a, 0x00, 0x99, 0x2c, 0x6a, 0x00,
  0x99, 0x1d, 0x16, 0x01, 0x80, 0x2a, 0x00, 0x00, 0x97, 0x22, 0x64, 0x00,
  0x89, 0x1d, 0x00, 0x00, 0x89, 0x2c, 0x00, 0x01, 0x9d, 0x56, 0x62, 0x05,
  0x87, 0x22, 0x00, 0x0c, 0x8d, 0x56, 0x00, 0x03, 0x85, 0x22, 0x00, 0x02,
  0x97, 0x29, 0x74, 0x02, 0x97, 0x2e, 0x64, 0x05, 0x90, 0x26, 0x30, 0x02,
  0x80, 0x26, 0x00, 0x00, 0x87, 0x29, 0x00, 0x01, 0x87, 0x2e, 0x00, 0x0c,
  0x88, 0x62, 0x00, 0x02, 0x90, 0x24, 0x7e, 0x00, 0x90, 0x2a, 0x3c, 0x00,
  0x90, 0x31, 0x46, 0x00, 0x91, 0x22, 0x7a, 0x00, 0x98, 0x63, 0x74, 0x00,
  0x99, 0x24, 0x7e, 0x00, 0x99, 0x1d, 0x3a, 0x00, 0x9b, 0x22, 0x7e, 0x01,
  0x80, 0x31, 0x00, 0x00, 0x80, 0x2a, 0x00, 0x00, 0x80, 0x24, 0x00, 0x00,
  0x97, 0x22, 0x42, 0x00, 0x89, 0x1d, 0x00, 0x00, 0x89, 0x24, 0x00, 0x00,
  0x9c, 0x46, 0x7e, 0x01, 0x95, 0x22, 0x64, 0x01, 0x9d, 0x57, 0x6e, 0x02,
  0x87, 0x22, 0x00, 0x0f, 0x8d, 0x57, 0x00, 0x0a, 0x81, 0x22, 0x00, 0x03,
  0x8b, 0x22, 0x00, 0x00, 0x8c, 0x46, 0x00, 0x0f, 0x90, 0x24, 0x7e, 0x00,
  0x90, 0x2a, 0x64, 0x00, 0x91, 0x22, 0x7e, 0x00, 0x97, 0x29, 0x5c, 0x00,
  0x99, 0x24, 0x7e, 0x00, 0x99, 0x2c, 0x6a, 0x00, 0x99, 0x1d, 0x34, 0x00,
  0x9b, 0x22, 0x74, 0x00, 0x9c, 0x46, 0x74, 0x01, 0x80, 0x2a, 0x00, 0x00,
  0x80, 0x24, 0x00, 0x00, 0x89, 0x1d, 0x00, 0x00, 0x89, 0x2c, 0x00, 0x00,
  0x89, 0x24, 0x00, 0x07, 0x87, 0x29, 0x00, 0x0d, 0x81, 0x22, 0x00, 0x01,
  0x8c, 0x46, 0x00, 0x02, 0x88, 0x63, 0x00, 0x06, 0x98, 0x5b, 0x6a, 0x02,
  0x9d, 0x4f, 0x62, 0x02, 0x8b, 0x22, 0x00, 0x0d, 0x8d, 0x4f, 0x00, 0x01,
  0x90, 0x27, 0x64, 0x00, 0x90, 0x2a, 0x62, 0x00, 0x90, 0x31, 0x46, 0x00,
  0x99, 0x28, 0x7f, 0x00, 0x99, 0x1e, 0x5a, 0x01, 0x80, 0x31, 0x00, 0x00,
  0x80, 0x2a, 0x00, 0x00, 0x80, 0x27, 0x00, 0x00, 0x97, 0x2e, 0x6e, 0x00,
  0x89, 0x1e, 0x00, 0x00, 0x89, 0x28, 0x00, 0x00, 0x9c, 0x46, 0x34, 0x01,
  0x97, 0x29, 0x7e, 0x15, 0x8c, 0x46, 0x00, 0x07, 0x90, 0x24, 0x7a, 0x00,
  0x99, 0x24, 0x7a, 0x01, 0x80, 0x24, 0x00, 0x00, 0x89, 0x24, 0x00, 0x07,
  0x87, 0x2e, 0x00, 0x00, 0x87, 0x29, 0x00, 0x01, 0x88, 0x5b, 0x00, 0x09,
  0x90, 0x2a, 0x5a, 0x00, 0x91, 0x22, 0x7e, 0x00, 0x98, 0x5c, 0x58, 0x00,
  0x99, 0x2c, 0x7e, 0x00, 0x99, 0x1d, 0x32, 0x00, 0x9b, 0x22, 0x7a, 0x00,
  0x9c, 0x46, 0x16, 0x01, 0x80, 0x2a, 0x00, 0x00, 0x97, 0x22, 0x64, 0x00,
  0x89, 0x1d, 0x00, 0x00, 0x89, 0x2c, 0x00, 0x01, 0x9d, 0x50, 0x54, 0x06,
  0x87, 0x22, 0x00, 0x07, 0x8d, 0x50, 0x00, 0x08, 0x81, 0x22, 0x00, 0x00,
  0x8c, 0x46, 0x00, 0x02, 0x97, 0x2e, 0x64, 0x01, 0x97, 0x29, 0x74, 0x00,
  0x8b, 0x22, 0x00, 0x05, 0x90, 0x26, 0x3c, 0x01, 0x90, 0x2a, 0x30, 0x00,
  0x90, 0x27, 0x3c, 0x01, 0x80, 0x27, 0x00, 0x00, 0x80, 0x2a, 0x00, 0x00,
  0x80, 0x26, 0x00, 0x00, 0x87, 0x2e, 0x00, 0x00, 0x87, 0x29, 0x00, 0x0e,
  0x85, 0x22, 0x00, 0x00, 0x88, 0x5c, 0x00, 0x01, 0x90, 0x24, 0x7e, 0x00,
  0x90, 0x2a, 0x3c, 0x00, 0x90, 0x31, 0x46, 0x00, 0x91, 0x22, 0x7e, 0x00,
  0x98, 0x5e, 0x74, 0x00, 0x99, 0x24, 0x7e, 0x00, 0x99, 0x1d, 0x3c, 0x00,
  0x9b, 0x22, 0x7e, 0x00, 0x9c, 0x46, 0x02, 0x01, 0x80, 0x31, 0x00, 0x00,
  0x80, 0x2a, 0x00, 0x00, 0x80, 0x24, 0x00, 0x00, 0x89, 0x1d, 0x00, 0x00,
  0x89, 0x24, 0x00, 0x00, 0x9d, 0x52, 0x6a, 0x01, 0x97, 0x22, 0x64, 0x06,
  0x87, 0x22, 0x00, 0x06, 0x8c, 0x46, 0x00, 0x02, 0x8d, 0x52, 0x00, 0x08,
  0x88, 0x5e, 0x00, 0x01, 0x97, 0x2e, 0x60, 0x02, 0x81, 0x22, 0x00, 0x00,
  0x97, 0x29, 0x74, 0x03, 0x90, 0x26, 0x58, 0x01, 0x80, 0x26, 0x00, 0x01,
  0x87, 0x2e, 0x00, 0x02, 0x87, 0x29, 0x00, 0x07, 0x8b, 0x22, 0x00, 0x07,
  0x90, 0x2a, 0x64, 0x00, 0x99, 0x2c, 0x6a, 0x00, 0x99, 0x1d, 0x3c, 0x01,
  0x80, 0x2a, 0x00, 0x00, 0x89, 0x1d, 0x00, 0x00, 0x89, 0x2c, 0x00, 0x01,
  0x97, 0x22, 0x64, 0x05, 0x87, 0x22, 0x00, 0x29, 0x90, 0x27, 0x64, 0x00,
  0x90, 0x2a, 0x62, 0x00, 0x99, 0x28, 0x7f, 0x01, 0x80, 0x2a, 0x00, 0x00,
  0x80, 0x27, 0x00, 0x00, 0x89, 0x28, 0x00, 0x01, 0x97, 0x29, 0x7e, 0x01,
  0x97, 0x2e, 0x74, 0x07, 0x87, 0x29, 0x00, 0x03, 0x87, 0x2e, 0x00, 0x23,
  0x90, 0x2a, 0x64, 0x00, 0x99, 0x2c, 0x74, 0x01, 0x80, 0x2a, 0x00, 0x00,
  0x89, 0x2c, 0x00, 0x2f, 0x90, 0x24, 0x7a, 0x00, 0x90, 0x2a, 0x54, 0x00,
  0x90, 0x31, 0x46, 0x00, 0x91, 0x22, 0x7a, 0x00, 0x99, 0x24, 0x7a, 0x00,
  0x99, 0x1d, 0x3a, 0x00, 0x99, 0x39, 0x6e, 0x00, 0x9b, 0x22, 0x7e, 0x01,
  0x80, 0x31, 0x00, 0x00, 0x80, 0x2a, 0x00, 0x00, 0x80, 0x24, 0x00, 0x00,
  0x89, 0x39, 0x00, 0x00, 0x89, 0x1d, 0x00, 0x00, 0x89, 0x24, 0x00, 0x00,
  0x9c, 0x46, 0x7e, 0x01, 0x95, 0x22, 0x6e, 0x1c, 0x8b, 0x22, 0x00, 0x02,
  0x81, 0x22, 0x00, 0x02, 0x93, 0x44, 0x68, 0x00, 0x8c, 0x46, 0x00, 0x0d,
  0x83, 0x44, 0x00, 0x01, 0x90, 0x24, 0x7a, 0x00, 0x90, 0x2a, 0x74, 0x00,
  0x91, 0x22, 0x74, 0x00, 0x99, 0x24, 0x7a, 0x00, 0x99, 0x2c, 0x7e, 0x00,
  0x99, 0x1d, 0x3c, 0x00, 0x9b, 0x22, 0x7e, 0x00, 0x9c, 0x46, 0x74, 0x01,
  0x80, 0x2a, 0x00, 0x00, 0x80, 0x24, 0x00, 0x00, 0x89, 0x1d, 0x00, 0x00,
  0x89, 0x2c, 0x00, 0x00, 0x89, 0x24, 0x00, 0x01, 0x97, 0x22, 0x74, 0x05,
  0x87, 0x22, 0x00, 0x0d, 0x93, 0x44, 0x6e, 0x03, 0x8c, 0x46, 0x00, 0x04,
  0x8b, 0x22, 0x00, 0x03, 0x81, 0x22, 0x00, 0x01, 0x83, 0x44, 0x00, 0x11,
  0x90, 0x27, 0x64, 0x00, 0x90, 0x2a, 0x5a, 0x00, 0x90, 0x31, 0x46, 0x00,
  0x99, 0x28, 0x7f, 0x00, 0x99, 0x1e, 0x5a, 0x01, 0x80, 0x31, 0x00, 0x00,
  0x80, 0x2a, 0x00, 0x00, 0x80, 0x27, 0x00, 0x00, 0x93, 0x44, 0x72, 0x00,
  0x89, 0x1e, 0x00, 0x00, 0x89, 0x28, 0x00, 0x00, 0x9c, 0x46, 0x2a, 0x01,
  0x97, 0x2e, 0x74, 0x00, 0x97, 0x29, 0x7e, 0x13, 0x83, 0x44, 0x00, 0x02,
  0x8c, 0x46, 0x00, 0x07, 0x90, 0x24, 0x7a, 0x00, 0x99, 0x24, 0x7a, 0x01,
  0x80, 0x24, 0x00, 0x00, 0x89, 0x24, 0x00, 0x03, 0x93, 0x43, 0x6e, 0x0a,
  0x87, 0x29, 0x00, 0x00, 0x87, 0x2e, 0x00, 0x04, 0x90, 0x2a, 0x54, 0x00,
  0x91, 0x22, 0x7e, 0x00, 0x99, 0x2c, 0x74, 0x00, 0x99, 0x1d, 0x28, 0x00,
  0x9b, 0x22, 0x7e, 0x00, 0x9c, 0x46, 0x1e, 0x01, 0x80, 0x2a, 0x00, 0x00,
  0x83, 0x43, 0x00, 0x00, 0x97, 0x22, 0x3a, 0x00, 0x89, 0x1d, 0x00, 0x00,
  0x89, 0x2c, 0x00, 0x04, 0x87, 0x22, 0x00, 0x0c, 0x93, 0x43, 0x6e, 0x08,
  0x97, 0x29, 0x6a, 0x00, 0x8b, 0x22, 0x00, 0x00, 0x8c, 0x46, 0x00, 0x01,
  0x81, 0x22, 0x00, 0x00, 0x97, 0x2e, 0x60, 0x05, 0x90, 0x26, 0x3a, 0x01,
  0x90, 0x2a, 0x34, 0x00, 0x90, 0x27, 0x3c, 0x00, 0x83, 0x43, 0x00, 0x01,
  0x80, 0x27, 0x00, 0x00, 0x80, 0x2a, 0x00, 0x00, 0x80, 0x26, 0x00, 0x00,
  0x87, 0x29, 0x00, 0x03, 0x87, 0x2e, 0x00, 0x0c, 0x90, 0x24, 0x7a, 0x00,
  0x90, 0x2a, 0x42, 0x00, 0x90, 0x31, 0x46, 0x00, 0x91, 0x22, 0x7e, 0x00,
  0x99, 0x24, 0x7a, 0x00, 0x99, 0x1d, 0x16, 0x00, 0x9b, 0x22, 0x7e, 0x01,
  0x80, 0x31, 0x00, 0x00, 0x80, 0x2a, 0x00, 0x00, 0x80, 0x24, 0x00, 0x00,
  0x93, 0x43, 0x78, 0x00, 0x97, 0x22, 0x32, 0x00, 0x89, 0x1d, 0x00, 0x00,
  0x89, 0x24, 0x00, 0x00, 0x9c, 0x46, 0x02, 0x04, 0x87, 0x22, 0x00, 0x0c,
  0x8c, 0x46, 0x00, 0x05, 0x83, 0x43, 0x00, 0x04, 0x97, 0x2e, 0x50, 0x00,
  0x97, 0x29, 0x6a, 0x04, 0x90, 0x26, 0x60, 0x01, 0x80, 0x26, 0x00, 0x01,
  0x8b, 0x22, 0x00, 0x01, 0x87, 0x29, 0x00, 0x00, 0x87, 0x2e, 0x00, 0x02,
  0x81, 0x22, 0x00, 0x00, 0x93, 0x41, 0x68, 0x0d, 0x90, 0x24, 0x7e, 0x00,
  0x90, 0x2a, 0x64, 0x00, 0x99, 0x24, 0x7e, 0x00, 0x99, 0x2c, 0x7e, 0x00,
  0x99, 0x1d, 0x34, 0x01, 0x80, 0x2a, 0x00, 0x00, 0x80, 0x24, 0x00, 0x00,
  0x83, 0x41, 0x00, 0x00, 0x89, 0x1d, 0x00, 0x00, 0x89, 0x2c, 0x00, 0x00,
  0x89, 0x24, 0x00, 0x11, 0x93, 0x41, 0x68, 0x0c, 0x83, 0x41, 0x00, 0x12,
  0x90, 0x27, 0x64, 0x00, 0x90, 0x2a, 0x54, 0x00, 0x90, 0x31, 0x46, 0x00,
  0x99, 0x28, 0x7f, 0x00, 0x99, 0x1e, 0x6a, 0x01, 0x80, 0x31, 0x00, 0x00,
  0x80, 0x2a, 0x00, 0x00, 0x80, 0x27, 0x00, 0x00, 0x93, 0x41, 0x6e, 0x00,
  0x89, 0x1e, 0x00, 0x00, 0x89, 0x28, 0x00, 0x01, 0x97, 0x2e, 0x6e, 0x00,
  0x97, 0x29, 0x7a, 0x0e, 0x83, 0x41, 0x00, 0x10, 0x93, 0x3f, 0x64, 0x07,
  0x87, 0x29, 0x00, 0x00, 0x87, 0x2e, 0x00, 0x06, 0x83, 0x3f, 0x00, 0x03,
  0x90, 0x24, 0x6e, 0x00, 0x90, 0x2a, 0x62, 0x00, 0x99, 0x24, 0x6e, 0x00,
  0x99, 0x2c, 0x7e, 0x00, 0x99, 0x1d, 0x3a, 0x01, 0x80, 0x2a, 0x00, 0x00,
  0x80, 0x24, 0x00, 0x00, 0x97, 0x22, 0x42, 0x00, 0x89, 0x1d, 0x00, 0x00,
  0x89, 0x2c, 0x00, 0x00, 0x89, 0x24, 0x00, 0x05, 0x87, 0x22, 0x00, 0x0c,
  0x93, 0x3f, 0x64, 0x07, 0x97, 0x2e, 0x60, 0x02, 0x97, 0x29, 0x6e, 0x04,
  0x90, 0x26, 0x2a, 0x02, 0x80, 0x26, 0x00, 0x00, 0x87, 0x2e, 0x00, 0x01,
  0x85, 0x22, 0x00, 0x00, 0x87, 0x29, 0x00, 0x01, 0x83, 0x3f, 0x00, 0x0d,
  0x90, 0x24, 0x7e, 0x00, 0x90, 0x2a, 0x4e, 0x00, 0x90, 0x31, 0x46, 0x00,
  0x91, 0x22, 0x7e, 0x00, 0x99, 0x24, 0x7e, 0x00, 0x99, 0x1d, 0x3a, 0x00,
  0x9b, 0x22, 0x7e, 0x01, 0x80, 0x31, 0x00, 0x00, 0x80, 0x2a, 0x00, 0x00,
  0x80, 0x24, 0x00, 0x00, 0x93, 0x3e, 0x78, 0x00, 0x89, 0x1d, 0x00, 0x00,
  0x89, 0x24, 0x00, 0x00, 0x9c, 0x46, 0x7e, 0x01, 0x95, 0x22, 0x6e, 0x00,
  0x97, 0x22, 0x6a, 0x07, 0x87, 0x22, 0x00, 0x12, 0x81, 0x22, 0x00, 0x00,
  0x8b, 0x22, 0x00, 0x05, 0x8c, 0x46, 0x00, 0x0d, 0x83, 0x3e, 0x00, 0x03,
  0x90, 0x24, 0x7e, 0x00, 0x90, 0x2a, 0x64, 0x00, 0x91, 0x22, 0x7a, 0x00,
  0x99, 0x24, 0x7e, 0x00, 0x99, 0x2c, 0x62, 0x00, 0x99, 0x1d, 0x3c, 0x00,
  0x9b, 0x22, 0x7a, 0x01, 0x80, 0x2a, 0x00, 0x00, 0x80, 0x24, 0x00, 0x00,
  0x93, 0x3f, 0x64, 0x00, 0x97, 0x29, 0x6a, 0x00, 0x89, 0x1d, 0x00, 0x00,
  0x89, 0x2c, 0x00, 0x00, 0x89, 0x24, 0x00, 0x00, 0x9c, 0x46, 0x7a, 0x01,
  0x97, 0x2e, 0x50, 0x06, 0x87, 0x29, 0x00, 0x01, 0x87, 0x2e, 0x00, 0x0e,
  0x83, 0x3f, 0x00, 0x03, 0x8c, 0x46, 0x00, 0x01, 0x8b, 0x22, 0x00, 0x01,
  0x81, 0x22, 0x00, 0x05, 0x93, 0x41, 0x64, 0x0f, 0x90, 0x27, 0x64, 0x00,
  0x90, 0x2a, 0x38, 0x00, 0x90, 0x31, 0x46, 0x00, 0x99, 0x28, 0x7f, 0x00,
  0x99, 0x1e, 0x5a, 0x01, 0x80, 0x31, 0x00, 0x00, 0x80, 0x2a, 0x00, 0x00,
  0x80, 0x27, 0x00, 0x00, 0x89, 0x1e, 0x00, 0x00, 0x89, 0x28, 0x00, 0x00,
  0x9c, 0x46, 0x32, 0x01, 0x97, 0x2e, 0x74, 0x00, 0x97, 0x29, 0x7e, 0x14,
  0x8c, 0x46, 0x00, 0x08, 0x90, 0x24, 0x74, 0x00, 0x99, 0x24, 0x74, 0x01,
  0x80, 0x24, 0x00, 0x00, 0x89, 0x24, 0x00, 0x0a, 0x87, 0x29, 0x00, 0x04,
  0x87, 0x2e, 0x00, 0x03, 0x90, 0x2a, 0x74, 0x00, 0x91, 0x22, 0x7a, 0x00,
  0x99, 0x2c, 0x5a, 0x00, 0x99, 0x1d, 0x28, 0x00, 0x9b, 0x22, 0x7e, 0x01,
  0x80, 0x2a, 0x00, 0x00, 0x97, 0x22, 0x60, 0x00, 0x89, 0x1d, 0x00, 0x00,
  0x89, 0x2c, 0x00, 0x00, 0x9c, 0x46, 0x16, 0x06, 0x87, 0x22, 0x00, 0x10,
  0x8c, 0x46, 0x00, 0x02, 0x97, 0x2e, 0x50, 0x00, 0x97, 0x29, 0x60, 0x00,
  0x8b, 0x22, 0x00, 0x01, 0x81, 0x22, 0x00, 0x01, 0x83, 0x41, 0x00, 0x04,
  0x90, 0x26, 0x42, 0x01, 0x90, 0x2a, 0x38, 0x00, 0x90, 0x27, 0x3c, 0x01,
  0x80, 0x27, 0x00, 0x00, 0x80, 0x2a, 0x00, 0x00, 0x80, 0x26, 0x00, 0x01,
  0x87, 0x2e, 0x00, 0x00, 0x87, 0x29, 0x00, 0x0e, 0x90, 0x24, 0x7a, 0x00,
  0x90, 0x2a, 0x34, 0x00, 0x90, 0x31, 0x46, 0x00, 0x91, 0x22, 0x7e, 0x00,
  0x99, 0x24, 0x7a, 0x00, 0x99, 0x1d, 0x16, 0x00, 0x9b, 0x22, 0x7e, 0x01,
  0x80, 0x31, 0x00, 0x00, 0x80, 0x2a, 0x00, 0x00, 0x80, 0x24, 0x00, 0x00,
  0x89, 0x1d, 0x00, 0x00, 0x89, 0x24, 0x00, 0x00, 0x9c, 0x46, 0x08, 0x01,
  0x97, 0x22, 0x4a, 0x06, 0x87, 0x22, 0x00, 0x0a, 0x8c, 0x46, 0x00, 0x07,
  0x97, 0x2e, 0x5c, 0x01, 0x97, 0x29, 0x6e, 0x04, 0x90, 0x26, 0x4a, 0x01,
  0x80, 0x26, 0x00, 0x01, 0x8b, 0x22, 0x00, 0x01, 0x87, 0x29, 0x00, 0x01,
  0x81, 0x22, 0x00, 0x00, 0x87, 0x2e, 0x00, 0x0e, 0x90, 0x24, 0x6e, 0x00,
  0x90, 0x2a, 0x64, 0x00, 0x99, 0x24, 0x6e, 0x00, 0x99, 0x2c, 0x6a, 0x00,
  0x99, 0x1d, 0x34, 0x01, 0x80, 0x2a, 0x00, 0x00, 0x80, 0x24, 0x00, 0x00,
  0x97, 0x22, 0x5c, 0x00, 0x89, 0x1d, 0x00, 0x00, 0x89, 0x2c, 0x00, 0x00,
  0x89, 0x24, 0x00, 0x06, 0x87, 0x22, 0x00, 0x12, 0x97, 0x22, 0x42, 0x06,
  0x87, 0x22, 0x00, 0x11, 0x90, 0x27, 0x64, 0x00, 0x90, 0x2a, 0x4e, 0x00,
  0x90, 0x26, 0x3a, 0x00, 0x90, 0x31, 0x46, 0x00, 0x99, 0x28, 0x7f, 0x00,
  0x99, 0x1e, 0x6a, 0x01, 0x80, 0x31, 0x00, 0x00, 0x80, 0x26, 0x00, 0x00,
  0x80, 0x2a, 0x00, 0x00, 0x80, 0x27, 0x00, 0x00, 0x89, 0x1e, 0x00, 0x00,
  0x89, 0x28, 0x00, 0x02, 0x97, 0x29, 0x6a, 0x00, 0x97, 0x2e, 0x3c, 0x04,
  0x87, 0x2e, 0x00, 0x04, 0x87, 0x29, 0x00, 0x10, 0x97, 0x22, 0x3c, 0x04,
  0x87, 0x22, 0x00, 0x11, 0x90, 0x2a, 0x6a, 0x00, 0x99, 0x2c, 0x7e, 0x00,
  0x99, 0x1d, 0x3a, 0x01, 0x80, 0x2a, 0x00, 0x00, 0x97, 0x29, 0x64, 0x00,
  0x89, 0x1d, 0x00, 0x00, 0x89, 0x2c, 0x00, 0x08, 0x87, 0x29, 0x00, 0x0f,
  0x97, 0x2e, 0x6a, 0x01, 0x85, 0x22, 0x00, 0x00, 0x97, 0x29, 0x6a, 0x06,
  0x90, 0x26, 0x3e, 0x01, 0x87, 0x2e, 0x00, 0x01, 0x80, 0x26, 0x00, 0x00,
  0x87, 0x29, 0x00, 0x0f, 0x90, 0x24, 0x74, 0x00, 0x90, 0x2a, 0x42, 0x00,
  0x90, 0x31, 0x46, 0x00, 0x91, 0x22, 0x7e, 0x00, 0x99, 0x24, 0x74, 0x00,
  0x99, 0x1d, 0x3a, 0x00, 0x9b, 0x22, 0x7e, 0x00, 0x9c, 0x46, 0x7e, 0x01,
  0x80, 0x31, 0x00, 0x00, 0x80, 0x2a, 0x00, 0x00, 0x80, 0x24, 0x00, 0x00,
  0x89, 0x1d, 0x00, 0x00, 0x89, 0x24, 0x00, 0x01, 0x95, 0x22, 0x74, 0x00,
  0x97, 0x22, 0x6e, 0x06, 0x87, 0x22, 0x00, 0x16, 0x8b, 0x22, 0x00, 0x01,
  0x81, 0x22, 0x00, 0x01, 0x93, 0x44, 0x68, 0x00, 0x8c, 0x46, 0x00, 0x10,
  0x90, 0x24, 0x7e, 0x00, 0x90, 0x2a, 0x64, 0x00, 0x91, 0x22, 0x7a, 0x00,
  0x83, 0x44, 0x00, 0x00, 0x99, 0x24, 0x7e, 0x00, 0x99, 0x2c, 0x7e, 0x00,
  0x99, 0x1d, 0x3c, 0x00, 0x9b, 0x22, 0x7e, 0x00, 0x9c, 0x46, 0x6e, 0x01,
  0x80, 0x2a, 0x00, 0x00, 0x80, 0x24, 0x00, 0x00, 0x89, 0x1d, 0x00, 0x00,
  0x89, 0x2c, 0x00, 0x00, 0x89, 0x24, 0x00, 0x01, 0x97, 0x22, 0x6a, 0x05,
  0x87, 0x22, 0x00, 0x0b, 0x93, 0x44, 0x6e, 0x03, 0x8c, 0x46, 0x00, 0x07,
  0x81, 0x22, 0x00, 0x01, 0x8b, 0x22, 0x00, 0x06, 0x83, 0x44, 0x00, 0x0d,
  0x90, 0x27, 0x62, 0x00, 0x90, 0x2a, 0x4e, 0x00, 0x90, 0x31, 0x46, 0x00,
  0x97, 0x2e, 0x6e, 0x00, 0x99, 0x28, 0x7f, 0x00, 0x99, 0x1e, 0x5a, 0x01,
  0x80, 0x31, 0x00, 0x00, 0x80, 0x2a, 0x00, 0x00, 0x80, 0x27, 0x00, 0x00,
  0x97, 0x29, 0x7e, 0x00, 0x89, 0x1e, 0x00, 0x00, 0x89, 0x28, 0x00, 0x00,
  0x9c, 0x46, 0x18, 0x02, 0x93, 0x44, 0x6e, 0x14, 0x83, 0x44, 0x00, 0x03,
  0x8c, 0x46, 0x00, 0x04, 0x90, 0x24, 0x7a, 0x00, 0x99, 0x24, 0x7a, 0x01,
  0x80, 0x24, 0x00, 0x00, 0x89, 0x24, 0x00, 0x02, 0x93, 0x43, 0x78, 0x04,
  0x87, 0x2e, 0x00, 0x03, 0x87, 0x29, 0x00, 0x08, 0x90, 0x2a, 0x5a, 0x00,
  0x91, 0x22, 0x7e, 0x00, 0x99, 0x2c, 0x6a, 0x00, 0x99, 0x1d, 0x24, 0x00,
  0x9b, 0x22, 0x7e, 0x00, 0x9c, 0x46, 0x02, 0x01, 0x80, 0x2a, 0x00, 0x00,
  0x83, 0x43, 0x00, 0x00, 0x97, 0x22, 0x6a, 0x00, 0x89, 0x1d, 0x00, 0x00,
  0x89, 0x2c, 0x00, 0x07, 0x87, 0x22, 0x00, 0x09, 0x93, 0x43, 0x6e, 0x07,
  0x97, 0x2e, 0x5c, 0x00, 0x8c, 0x46, 0x00, 0x01, 0x97, 0x29, 0x6a, 0x02,
  0x81, 0x22, 0x00, 0x00, 0x8b, 0x22, 0x00, 0x04, 0x90, 0x26, 0x38, 0x01,
  0x90, 0x2a, 0x3c, 0x00, 0x90, 0x27, 0x3c, 0x01, 0x80, 0x27, 0x00, 0x00,
  0x80, 0x2a, 0x00, 0x00, 0x80, 0x26, 0x00, 0x01, 0x83, 0x43, 0x00, 0x02,
  0x87, 0x29, 0x00, 0x01, 0x87, 0x2e, 0x00, 0x0b, 0x90, 0x24, 0x7a, 0x00,
  0x90, 0x2a, 0x42, 0x00, 0x90, 0x31, 0x46, 0x00, 0x91, 0x22, 0x7e, 0x00,
  0x99, 0x24, 0x7a, 0x00, 0x99, 0x1d, 0x34, 0x00, 0x9b, 0x22, 0x7e, 0x01,
  0x80, 0x31, 0x00, 0x00, 0x80, 0x2a, 0x00, 0x00, 0x80, 0x24, 0x00, 0x00,
  0x97, 0x22, 0x3a, 0x00, 0x89, 0x1d, 0x00, 0x00, 0x89, 0x24, 0x00, 0x00,
  0x9c, 0x46, 0x02, 0x02, 0x93, 0x43, 0x66, 0x04, 0x87, 0x22, 0x00, 0x04,
  0x8c, 0x46, 0x00, 0x0b, 0x83, 0x43, 0x00, 0x03, 0x97, 0x2e, 0x46, 0x01,
  0x97, 0x29, 0x60, 0x04, 0x90, 0x26, 0x44, 0x01, 0x80, 0x26, 0x00, 0x02,
  0x8b, 0x22, 0x00, 0x01, 0x93, 0x41, 0x6e, 0x00, 0x87, 0x2e, 0x00, 0x03,
  0x87, 0x29, 0x00, 0x01, 0x81, 0x22, 0x00, 0x0a, 0x90, 0x24, 0x7e, 0x00,
  0x90, 0x2a, 0x64, 0x00, 0x99, 0x24, 0x7e, 0x00, 0x99, 0x2c, 0x6a, 0x00,
  0x99, 0x1d, 0x3a, 0x01, 0x80, 0x2a, 0x00, 0x00, 0x80, 0x24, 0x00, 0x00,
  0x89, 0x1d, 0x00, 0x00, 0x89, 0x2c, 0x00, 0x00, 0x89, 0x24, 0x00, 0x02,
  0x97, 0x22, 0x5c, 0x06, 0x87, 0x22, 0x00, 0x27, 0x90, 0x27, 0x64, 0x00,
  0x90, 0x2a, 0x48, 0x00, 0x90, 0x31, 0x46, 0x00, 0x99, 0x28, 0x7f, 0x00,
  0x99, 0x1e, 0x54, 0x01, 0x80, 0x31, 0x00, 0x00, 0x80, 0x2a, 0x00, 0x00,
  0x80, 0x27, 0x00, 0x00, 0x97, 0x29, 0x7a, 0x00, 0x89, 0x1e, 0x00, 0x00,
  0x89, 0x28, 0x00, 0x01, 0x97, 0x2e, 0x6e, 0x0b, 0x83, 0x41, 0x00, 0x1d,
  0x87, 0x29, 0x00, 0x02, 0x87, 0x2e, 0x00, 0x04, 0x90, 0x2a, 0x74, 0x00,
  0x99, 0x2c, 0x6a, 0x00, 0x99, 0x1d, 0x16, 0x01, 0x80, 0x2a, 0x00, 0x00,
  0x93, 0x3f, 0x6e, 0x00, 0x89, 0x1d, 0x00, 0x00, 0x89, 0x2c, 0x00, 0x01,
  0x97, 0x22, 0x58, 0x06, 0x87, 0x22, 0x00, 0x11, 0x85, 0x22, 0x00, 0x00,
  0x97, 0x29, 0x6e, 0x02, 0x97, 0x2e, 0x54, 0x04, 0x90, 0x26, 0x30, 0x02,
  0x80, 0x26, 0x00, 0x01, 0x87, 0x29, 0x00, 0x02, 0x87, 0x2e, 0x00, 0x0c,
  0x90, 0x24, 0x7a, 0x00, 0x90, 0x2a, 0x3c, 0x00, 0x90, 0x31, 0x46, 0x00,
  0x91, 0x22, 0x7e, 0x00, 0x99, 0x24, 0x7a, 0x00, 0x99, 0x1d, 0x3a, 0x00,
  0x9b, 0x22, 0x7e, 0x01, 0x80, 0x31, 0x00, 0x00, 0x80, 0x2a, 0x00, 0x00,
  0x80, 0x24, 0x00, 0x00, 0x97, 0x22, 0x60, 0x00, 0x89, 0x1d, 0x00, 0x00,
  0x89, 0x24, 0x00, 0x00, 0x9c, 0x46, 0x7e, 0x01, 0x95, 0x22, 0x74, 0x06,
  0x87, 0x22, 0x00, 0x12, 0x83, 0x3f, 0x00, 0x00, 0x8b, 0x22, 0x00, 0x05,
  0x81, 0x22, 0x00, 0x02, 0x8c, 0x46, 0x00, 0x0f, 0x90, 0x24, 0x7e, 0x00,
  0x90, 0x2a, 0x64, 0x00, 0x91, 0x22, 0x7e, 0x00, 0x99, 0x24, 0x7e, 0x00,
  0x99, 0x2c, 0x6a, 0x00, 0x99, 0x1d, 0x34, 0x00, 0x9b, 0x22, 0x7e, 0x01,
  0x80, 0x2a, 0x00, 0x00, 0x80, 0x24, 0x00, 0x00, 0x97, 0x29, 0x64, 0x00,
  0x89, 0x1d, 0x00, 0x00, 0x89, 0x2c, 0x00, 0x00, 0x89, 0x24, 0x00, 0x01,
  0x9c, 0x46, 0x64, 0x09, 0x87, 0x29, 0x00, 0x0e, 0x8c, 0x46, 0x00, 0x03,
  0x8b, 0x22, 0x00, 0x04, 0x81, 0x22, 0x00, 0x10, 0x90, 0x27, 0x64, 0x00,
  0x90, 0x2a, 0x62, 0x00, 0x90, 0x31, 0x46, 0x00, 0x99, 0x28, 0x7f, 0x00,
  0x99, 0x1e, 0x5a, 0x01, 0x80, 0x31, 0x00, 0x00, 0x80, 0x2a, 0x00, 0x00,
  0x80, 0x27, 0x00, 0x00, 0x93, 0x44, 0x78, 0x00, 0x97, 0x29, 0x7a, 0x00,
  0x97, 0x2e, 0x6e, 0x00, 0x89, 0x1e, 0x00, 0x00, 0x89, 0x28, 0x00, 0x01,
  0x9c, 0x46, 0x1a, 0x17, 0x8c, 0x46, 0x00, 0x05, 0x90, 0x24, 0x7e, 0x00,
  0x99, 0x24, 0x7e, 0x01, 0x80, 0x24, 0x00, 0x00, 0x89, 0x24, 0x00, 0x0a,
  0x87, 0x2e, 0x00, 0x00, 0x87, 0x29, 0x00, 0x04, 0x83, 0x44, 0x00, 0x03,
  0x90, 0x2a, 0x5a, 0x00, 0x91, 0x22, 0x7e, 0x00, 0x99, 0x2c, 0x7e, 0x00,
  0x99, 0x1d, 0x32, 0x00, 0x9b, 0x22, 0x7a, 0x01, 0x80, 0x2a, 0x00, 0x00,
  0x93, 0x46, 0x64, 0x00, 0x89, 0x1d, 0x00, 0x00, 0x89, 0x2c, 0x00, 0x01,
  0x97, 0x22, 0x6a, 0x01, 0x9c, 0x46, 0x08, 0x07, 0x87, 0x22, 0x00, 0x0d,
  0x83, 0x46, 0x00, 0x02, 0x97, 0x29, 0x6a, 0x00, 0x8c, 0x46, 0x00, 0x01,
  0x97, 0x2e, 0x5c, 0x02, 0x8b, 0x22, 0x00, 0x01, 0x81, 0x22, 0x00, 0x02,
  0x90, 0x26, 0x3c, 0x01, 0x90, 0x2a, 0x30, 0x00, 0x90, 0x27, 0x3c, 0x01,
  0x80, 0x27, 0x00, 0x00, 0x80, 0x2a, 0x00, 0x00, 0x80, 0x26, 0x00, 0x00,
  0x93, 0x48, 0x78, 0x01, 0x87, 0x29, 0x00, 0x00, 0x87, 0x2e, 0x00, 0x02,
  0x85, 0x22, 0x00, 0x0c, 0x90, 0x24, 0x74, 0x00, 0x90, 0x2a, 0x3c, 0x00,
  0x90, 0x31, 0x46, 0x00, 0x91, 0x20, 0x7e, 0x00, 0x99, 0x24, 0x74, 0x00,
  0x99, 0x1d, 0x3c, 0x00, 0x9b, 0x20, 0x7e, 0x01, 0x80, 0x31, 0x00, 0x00,
  0x80, 0x2a, 0x00, 0x00, 0x80, 0x24, 0x00, 0x00, 0x95, 0x20, 0x7e, 0x00,
  0x97, 0x20, 0x58, 0x00, 0x89, 0x1d, 0x00, 0x00, 0x89, 0x24, 0x00, 0x01,
  0x9c, 0x46, 0x06, 0x04, 0x87, 0x20, 0x00, 0x09, 0x8c, 0x46, 0x00, 0x0b,
  0x97, 0x27, 0x64, 0x04, 0x90, 0x26, 0x58, 0x01, 0x80, 0x26, 0x00, 0x04,
  0x87, 0x27, 0x00, 0x0d, 0x90, 0x24, 0x7e, 0x00, 0x90, 0x2a, 0x64, 0x00,
  0x99, 0x24, 0x7e, 0x00, 0x99, 0x2c, 0x6a, 0x00, 0x99, 0x1d, 0x3c, 0x01,
  0x80, 0x2a, 0x00, 0x00, 0x80, 0x24, 0x00, 0x00, 0x89, 0x1d, 0x00, 0x00,
  0x89, 0x2c, 0x00, 0x00, 0x89, 0x24, 0x00, 0x01, 0x8b, 0x20, 0x00, 0x01,
  0x97, 0x20, 0x5c, 0x03, 0x87, 0x20, 0x00, 0x0c, 0x81, 0x20, 0x00, 0x1e,
  0x90, 0x27, 0x64, 0x00, 0x90, 0x2a, 0x62, 0x00, 0x90, 0x26, 0x0c, 0x00,
  0x90, 0x31, 0x46, 0x00, 0x99, 0x28, 0x7f, 0x00, 0x99, 0x1e, 0x62, 0x01,
  0x80, 0x31, 0x00, 0x00, 0x80, 0x26, 0x00, 0x00, 0x80, 0x2a, 0x00, 0x00,
  0x80, 0x27, 0x00, 0x00, 0x97, 0x27, 0x7a, 0x00, 0x97, 0x2c, 0x7e, 0x00,
  0x89, 0x1e, 0x00, 0x00, 0x89, 0x28, 0x00, 0x2c, 0x87, 0x2c, 0x00, 0x00,
  0x87, 0x27, 0x00, 0x03, 0x90, 0x2a, 0x64, 0x00, 0x99, 0x2c, 0x74, 0x00,
  0x99, 0x1d, 0x2e, 0x01, 0x80, 0x2a, 0x00, 0x00, 0x89, 0x1d, 0x00, 0x00,
  0x89, 0x2c, 0x00, 0x01, 0x97, 0x20, 0x6a, 0x06, 0x87, 0x20, 0x00, 0x10,
  0x97, 0x27, 0x74, 0x01, 0x97, 0x2c, 0x60, 0x01, 0x83, 0x48, 0x00, 0x05,
  0x90, 0x26, 0x3e, 0x02, 0x80, 0x26, 0x00, 0x01, 0x87, 0x27, 0x00, 0x02,
  0x87, 0x2c, 0x00, 0x01, 0x85, 0x20, 0x00, 0x0b, 0x90, 0x24, 0x7e, 0x00,
  0x90, 0x2a, 0x54, 0x00, 0x90, 0x31, 0x46, 0x00, 0x91, 0x1d, 0x7e, 0x00,
  0x99, 0x24, 0x7e, 0x00, 0x99, 0x1d, 0x3a, 0x00, 0x99, 0x37, 0x7a, 0x00,
  0x9b, 0x1d, 0x7e, 0x01, 0x80, 0x31, 0x00, 0x00, 0x80, 0x2a, 0x00, 0x00,
  0x80, 0x24, 0x00, 0x00, 0x95, 0x3c, 0x7a, 0x00, 0x97, 0x1d, 0x7a, 0x00,
  0x89, 0x37, 0x00, 0x00, 0x89, 0x1d, 0x00, 0x00, 0x89, 0x24, 0x00, 0x00,
  0x9c, 0x46, 0x74, 0x01, 0x95, 0x35, 0x6a, 0x01, 0x93, 0x44, 0x72, 0x00,
  0x95, 0x1d, 0x74, 0x06, 0x87, 0x1d, 0x00, 0x14, 0x8b, 0x1d, 0x00, 0x02,
  0x81, 0x1d, 0x00, 0x02, 0x8c, 0x46, 0x00, 0x0f, 0x90, 0x24, 0x7e, 0x00,
  0x90, 0x2a, 0x74, 0x00, 0x91, 0x1d, 0x7e, 0x00, 0x99, 0x24, 0x7e, 0x00,
  0x99, 0x2c, 0x7e, 0x00, 0x99, 0x1d, 0x3c, 0x00, 0x9b, 0x1d, 0x7e, 0x00,
  0x9c, 0x46, 0x64, 0x01, 0x80, 0x2a, 0x00, 0x00, 0x80, 0x24, 0x00, 0x00,
  0x89, 0x1d, 0x00, 0x00, 0x89, 0x2c, 0x00, 0x00, 0x89, 0x24, 0x00, 0x01,
  0x97, 0x24, 0x6e, 0x01, 0x97, 0x29, 0x4e, 0x06, 0x87, 0x29, 0x00, 0x01,
  0x87, 0x24, 0x00, 0x11, 0x8c, 0x46, 0x00, 0x05, 0x8b, 0x1d, 0x00, 0x07,
  0x81, 0x1d, 0x00, 0x09, 0x90, 0x27, 0x64, 0x00, 0x90, 0x2a, 0x5a, 0x00,
  0x90, 0x31, 0x46, 0x00, 0x99, 0x28, 0x7f, 0x00, 0x99, 0x1e, 0x5a, 0x01,
  0x80, 0x31, 0x00, 0x00, 0x80, 0x2a, 0x00, 0x00, 0x80, 0x27, 0x00, 0x00,
  0x89, 0x1e, 0x00, 0x00, 0x89, 0x28, 0x00, 0x00, 0x9c, 0x46, 0x24, 0x02,
  0x97, 0x29, 0x7a, 0x00, 0x97, 0x24, 0x74, 0x14, 0x8c, 0x46, 0x00, 0x07,
  0x90, 0x24, 0x7a, 0x00, 0x99, 0x24, 0x7a, 0x01, 0x80, 0x24, 0x00, 0x00,
  0x89, 0x24, 0x00, 0x0f, 0x87, 0x24, 0x00, 0x00, 0x87, 0x29, 0x00, 0x02,
  0x90, 0x2a, 0x54, 0x00, 0x91, 0x1d, 0x7e, 0x00, 0x99, 0x2c, 0x74, 0x00,
  0x99, 0x1d, 0x28, 0x00, 0x9b, 0x1d, 0x74, 0x01, 0x80, 0x2a, 0x00, 0x00,
  0x97, 0x1d, 0x64, 0x00, 0x89, 0x1d, 0x00, 0x00, 0x89, 0x2c, 0x00, 0x00,
  0x9c, 0x46, 0x02, 0x07, 0x87, 0x1d, 0x00, 0x0f, 0x8c, 0x46, 0x00, 0x01,
  0x81, 0x1d, 0x00, 0x01, 0x97, 0x24, 0x6a, 0x01, 0x97, 0x29, 0x64, 0x02,
  0x8b, 0x1d, 0x00, 0x03, 0x90, 0x26, 0x3a, 0x01, 0x90, 0x2a, 0x34, 0x00,
  0x90, 0x27, 0x3c, 0x01, 0x80, 0x27, 0x00, 0x00, 0x80, 0x2a, 0x00, 0x00,
  0x80, 0x26, 0x00, 0x01, 0x87, 0x24, 0x00, 0x02, 0x85, 0x35, 0x00, 0x01,
  0x83, 0x44, 0x00, 0x00, 0x85, 0x3c, 0x00, 0x00, 0x87, 0x29, 0x00, 0x09,
  0x85, 0x1d, 0x00, 0x02, 0x90, 0x24, 0x7a, 0x00, 0x90, 0x2a, 0x42, 0x00,
  0x90, 0x31, 0x46, 0x00, 0x91, 0x22, 0x7e, 0x00, 0x99, 0x24, 0x7a, 0x00,
  0x99, 0x1d, 0x16, 0x00, 0x9b, 0x22, 0x7e, 0x01, 0x80, 0x31, 0x00, 0x00,
  0x80, 0x2a, 0x00, 0x00, 0x80, 0x24, 0x00, 0x00, 0x97, 0x22, 0x6e, 0x00,
  0x89, 0x1d, 0x00, 0x00, 0x89, 0x24, 0x00, 0x00, 0x9c, 0x46, 0x02, 0x01,
  0x93, 0x43, 0x7f, 0x01, 0x95, 0x35, 0x64, 0x00, 0x95, 0x3e, 0x7e, 0x00,
  0x95, 0x22, 0x74, 0x08, 0x87, 0x22, 0x00, 0x03, 0x8c, 0x46, 0x00, 0x0b,
  0x97, 0x2e, 0x60, 0x01, 0x97, 0x29, 0x6e, 0x04, 0x90, 0x26, 0x60, 0x01,
  0x80, 0x26, 0x00, 0x04, 0x87, 0x29, 0x00, 0x02, 0x87, 0x2e, 0x00, 0x08,
  0x8b, 0x22, 0x00, 0x03, 0x90, 0x24, 0x7a, 0x00, 0x90, 0x2a, 0x64, 0x00,
  0x99, 0x24, 0x7a, 0x00, 0x99, 0x2c, 0x7e, 0x00, 0x99, 0x1d, 0x34, 0x01,
  0x80, 0x2a, 0x00, 0x00, 0x80, 0x24, 0x00, 0x00, 0x89, 0x1d, 0x00, 0x00,
  0x89, 0x2c, 0x00, 0x00, 0x89, 0x24, 0x00, 0x02, 0x97, 0x22, 0x64, 0x04,
  0x83, 0x43, 0x00, 0x03, 0x87, 0x22, 0x00, 0x0a, 0x81, 0x22, 0x00, 0x0f,
  0x93, 0x41, 0x78, 0x0d, 0x90, 0x27, 0x64, 0x00, 0x90, 0x2a, 0x54, 0x00,
  0x90, 0x31, 0x46, 0x00, 0x99, 0x28, 0x7f, 0x00, 0x99, 0x1e, 0x6a, 0x01,
  0x80, 0x31, 0x00, 0x00, 0x80, 0x2a, 0x00, 0x00, 0x80, 0x27, 0x00, 0x00,
  0x89, 0x1e, 0x00, 0x00, 0x89, 0x28, 0x00, 0x02, 0x97, 0x2e, 0x74, 0x00,
  0x97, 0x29, 0x74, 0x2a, 0x87, 0x29, 0x00, 0x02, 0x87, 0x2e, 0x00, 0x01,
  0x90, 0x2a, 0x62, 0x00, 0x99, 0x2c, 0x7e, 0x00, 0x99, 0x1d, 0x3a, 0x01,
  0x80, 0x2a, 0x00, 0x00, 0x89, 0x1d, 0x00, 0x00, 0x89, 0x2c, 0x00, 0x01,
  0x97, 0x22, 0x5c, 0x06, 0x87, 0x22, 0x00, 0x11, 0x97, 0x29, 0x6a, 0x00,
  0x97, 0x2e, 0x6a, 0x04, 0x83, 0x41, 0x00, 0x01, 0x85, 0x35, 0x00, 0x01,
  0x90, 0x26, 0x2a, 0x00, 0x85, 0x3e, 0x00, 0x02, 0x80, 0x26, 0x00, 0x00,
  0x87, 0x29, 0x00, 0x01, 0x87, 0x2e, 0x00, 0x03, 0x85, 0x22, 0x00, 0x0b,
  0x90, 0x24, 0x7e, 0x00, 0x90, 0x2a, 0x4e, 0x00, 0x90, 0x31, 0x46, 0x00,
  0x91, 0x1d, 0x7e, 0x00, 0x99, 0x24, 0x7e, 0x00, 0x99, 0x1d, 0x3a, 0x00,
  0x99, 0x37, 0x74, 0x00, 0x9b, 0x1d, 0x7e, 0x01, 0x80, 0x31, 0x00, 0x00,
  0x80, 0x2a, 0x00, 0x00, 0x80, 0x24, 0x00, 0x00, 0x95, 0x1d, 0x74, 0x00,
  0x97, 0x1d, 0x74, 0x00, 0x89, 0x37, 0x00, 0x00, 0x89, 0x1d, 0x00, 0x00,
  0x89, 0x24, 0x00, 0x01, 0x95, 0x35, 0x6e, 0x00, 0x95, 0x3c, 0x7a, 0x00,
  0x9c, 0x46, 0x7e, 0x0a, 0x87, 0x1d, 0x00, 0x10, 0x8b, 0x1d, 0x00, 0x03,
  0x81, 0x1d, 0x00, 0x02, 0x8c, 0x46, 0x00, 0x0f, 0x90, 0x24, 0x74, 0x00,
  0x90, 0x2a, 0x64, 0x00, 0x91, 0x1d, 0x7e, 0x00, 0x99, 0x24, 0x74, 0x00,
  0x99, 0x2c, 0x62, 0x00, 0x99, 0x1d, 0x3c, 0x00, 0x9b, 0x1d, 0x7a, 0x01,
  0x80, 0x2a, 0x00, 0x00, 0x80, 0x24, 0x00, 0x00, 0x89, 0x1d, 0x00, 0x00,
  0x89, 0x2c, 0x00, 0x00, 0x89, 0x24, 0x00, 0x00, 0x9c, 0x46, 0x46, 0x02,
  0x93, 0x44, 0x68, 0x00, 0x97, 0x1d, 0x74, 0x05, 0x87, 0x1d, 0x00, 0x10,
  0x83, 0x44, 0x00, 0x01, 0x97, 0x24, 0x64, 0x00, 0x8b, 0x1d, 0x00, 0x01,
  0x8c, 0x46, 0x00, 0x07, 0x87, 0x24, 0x00, 0x06, 0x81, 0x1d, 0x00, 0x09,
  0x90, 0x27, 0x64, 0x00, 0x90, 0x2a, 0x38, 0x00, 0x90, 0x31, 0x46, 0x00,
  0x97, 0x24, 0x6e, 0x00, 0x99, 0x28, 0x7f, 0x00, 0x99, 0x1e, 0x5a, 0x00,
  0x9c, 0x46, 0x2c, 0x01, 0x80, 0x31, 0x00, 0x00, 0x80, 0x2a, 0x00, 0x00,
  0x80, 0x27, 0x00, 0x00, 0x89, 0x1e, 0x00, 0x00, 0x89, 0x28, 0x00, 0x01,
  0x93, 0x44, 0x64, 0x00, 0x97, 0x29, 0x74, 0x18, 0x8c, 0x46, 0x00, 0x04,
  0x90, 0x24, 0x74, 0x00, 0x99, 0x24, 0x74, 0x01, 0x80, 0x24, 0x00, 0x00,
  0x89, 0x24, 0x00, 0x09, 0x83, 0x44, 0x00, 0x06, 0x87, 0x24, 0x00, 0x00,
  0x87, 0x29, 0x00, 0x02, 0x90, 0x2a, 0x74, 0x00, 0x91, 0x1d, 0x7e, 0x00,
  0x99, 0x2c, 0x5a, 0x00, 0x99, 0x1d, 0x28, 0x00, 0x9b, 0x1d, 0x7e, 0x00,
  0x9c, 0x46, 0x16, 0x01, 0x80, 0x2a, 0x00, 0x00, 0x97, 0x1d, 0x6a, 0x00,
  0x89, 0x1d, 0x00, 0x00, 0x89, 0x2c, 0x00, 0x01, 0x93, 0x43, 0x6e, 0x08,
  0x87, 0x1d, 0x00, 0x0c, 0x8c, 0x46, 0x00, 0x01, 0x83, 0x43, 0x00, 0x01,
  0x81, 0x1d, 0x00, 0x00, 0x97, 0x24, 0x6a, 0x02, 0x97, 0x29, 0x6e, 0x00,
  0x8b, 0x1d, 0x00, 0x05, 0x90, 0x26, 0x42, 0x01, 0x90, 0x2a, 0x38, 0x00,
  0x90, 0x27, 0x3c, 0x01, 0x80, 0x27, 0x00, 0x00, 0x80, 0x2a, 0x00, 0x00,
  0x80, 0x26, 0x00, 0x00, 0x87, 0x24, 0x00, 0x03, 0x87, 0x29, 0x00, 0x01,
  0x85, 0x35, 0x00, 0x03, 0x85, 0x3c, 0x00, 0x04, 0x85, 0x1d, 0x00, 0x04,
  0x90, 0x24, 0x7a, 0x00, 0x90, 0x2a, 0x34, 0x00, 0x90, 0x31, 0x46, 0x00,
  0x91, 0x22, 0x7e, 0x00, 0x97, 0x22, 0x58, 0x00, 0x99, 0x24, 0x7a, 0x00,
  0x99, 0x1d, 0x16, 0x00, 0x9b, 0x22, 0x7a, 0x01, 0x80, 0x31, 0x00, 0x00,
  0x80, 0x2a, 0x00, 0x00, 0x80, 0x24, 0x00, 0x00, 0x95, 0x3e, 0x7e, 0x00,
  0x89, 0x1d, 0x00, 0x00, 0x89, 0x24, 0x00, 0x01, 0x93, 0x43, 0x78, 0x00,
  0x95, 0x22, 0x7a, 0x00, 0x95, 0x35, 0x6e, 0x07, 0x87, 0x22, 0x00, 0x0f,
  0x97, 0x29, 0x6a, 0x02, 0x97, 0x2e, 0x5c, 0x04, 0x90, 0x26, 0x4a, 0x01,
  0x80, 0x26, 0x00, 0x02, 0x87, 0x29, 0x00, 0x02, 0x87, 0x2e, 0x00, 0x00,
  0x8b, 0x22, 0x00, 0x0d, 0x90, 0x24, 0x7e, 0x00, 0x90, 0x2a, 0x64, 0x00,
  0x99, 0x24, 0x7e, 0x00, 0x99, 0x2c, 0x6a, 0x00, 0x99, 0x1d, 0x34, 0x01,
  0x80, 0x2a, 0x00, 0x00, 0x80, 0x24, 0x00, 0x00, 0x97, 0x22, 0x6a, 0x00,
  0x89, 0x1d, 0x00, 0x00, 0x89, 0x2c, 0x00, 0x00, 0x89, 0x24, 0x00, 0x07,
  0x87, 0x22, 0x00, 0x0a, 0x83, 0x43, 0x00, 0x02, 0x81, 0x22, 0x00, 0x0d,
  0x93, 0x41, 0x72, 0x0f, 0x90, 0x27, 0x64, 0x00, 0x90, 0x2a, 0x4e, 0x00,
  0x90, 0x26, 0x3a, 0x00, 0x90, 0x31, 0x46, 0x00, 0x99, 0x28, 0x7f, 0x00,
  0x99, 0x1e, 0x6a, 0x01, 0x80, 0x31, 0x00, 0x00, 0x80, 0x26, 0x00, 0x00,
  0x80, 0x2a, 0x00, 0x00, 0x80, 0x27, 0x00, 0x00, 0x89, 0x1e, 0x00, 0x00,
  0x89, 0x28, 0x00, 0x01, 0x97, 0x2e, 0x74, 0x00, 0x97, 0x29, 0x7a, 0x2a,
  0x87, 0x29, 0x00, 0x03, 0x87, 0x2e, 0x00, 0x01, 0x90, 0x2a, 0x6a, 0x00,
  0x99, 0x2c, 0x7e, 0x00, 0x99, 0x1d, 0x3a, 0x01, 0x80, 0x2a, 0x00, 0x00,
  0x89, 0x1d, 0x00, 0x00, 0x89, 0x2c, 0x00, 0x01, 0x97, 0x22, 0x6e, 0x07,
  0x87, 0x22, 0x00, 0x10, 0x97, 0x2e, 0x6e, 0x01, 0x97, 0x29, 0x74, 0x03,
  0x85, 0x3e, 0x00, 0x01, 0x83, 0x41, 0x00, 0x01, 0x90, 0x26, 0x3e, 0x02,
  0x80, 0x26, 0x00, 0x01, 0x87, 0x2e, 0x00, 0x00, 0x87, 0x29, 0x00, 0x01,
  0x85, 0x35, 0x00, 0x03, 0x85, 0x22, 0x00, 0x0a, 0x90, 0x24, 0x7e, 0x00,
  0x90, 0x2a, 0x42, 0x00, 0x90, 0x31, 0x46, 0x00, 0x91, 0x1d, 0x7e, 0x00,
  0x95, 0x1d, 0x74, 0x00, 0x99, 0x24, 0x7e, 0x00, 0x99, 0x1d, 0x3a, 0x00,
  0x99, 0x37, 0x74, 0x00, 0x9b, 0x1d, 0x74, 0x00, 0x9c, 0x46, 0x7e, 0x01,
  0x80, 0x31, 0x00, 0x00, 0x80, 0x2a, 0x00, 0x00, 0x80, 0x24, 0x00, 0x00,
  0x93, 0x3f, 0x72, 0x00, 0x89, 0x37, 0x00, 0x00, 0x89, 0x1d, 0x00, 0x00,
  0x89, 0x24, 0x00, 0x01, 0x95, 0x3c, 0x7e, 0x00, 0x95, 0x35, 0x6e, 0x00,
  0x97, 0x1d, 0x7e, 0x0a, 0x87, 0x1d, 0x00, 0x0f, 0x8b, 0x1d, 0x00, 0x05,
  0x8c, 0x46, 0x00, 0x02, 0x81, 0x1d, 0x00, 0x0e, 0x90, 0x24, 0x7e, 0x00,
  0x90, 0x2a, 0x64, 0x00, 0x91, 0x1d, 0x7e, 0x00, 0x97, 0x29, 0x6a, 0x00,
  0x99, 0x24, 0x7e, 0x00, 0x99, 0x2c, 0x7e, 0x00, 0x99, 0x1d, 0x3c, 0x00,
  0x9b, 0x1d, 0x7a, 0x01, 0x80, 0x2a, 0x00, 0x00, 0x80, 0x24, 0x00, 0x00,
  0x83, 0x3f, 0x00, 0x00, 0x89, 0x1d, 0x00, 0x00, 0x89, 0x2c, 0x00, 0x00,
  0x89, 0x24, 0x00, 0x00, 0x9c, 0x46, 0x50, 0x01, 0x97, 0x24, 0x6a, 0x06,
  0x87, 0x29, 0x00, 0x03, 0x87, 0x24, 0x00, 0x0c, 0x8b, 0x1d, 0x00, 0x04,
  0x8c, 0x46, 0x00, 0x09, 0x93, 0x3f, 0x68, 0x09, 0x81, 0x1d, 0x00, 0x03,
  0x90, 0x27, 0x62, 0x00, 0x90, 0x2a, 0x4e, 0x00, 0x90, 0x31, 0x46, 0x00,
  0x99, 0x28, 0x7f, 0x00, 0x99, 0x1e, 0x5a, 0x01, 0x80, 0x31, 0x00, 0x00,
  0x80, 0x2a, 0x00, 0x00, 0x80, 0x27, 0x00, 0x00, 0x97, 0x29, 0x7a, 0x00,
  0x89, 0x1e, 0x00, 0x00, 0x89, 0x28, 0x00, 0x00, 0x9c, 0x46, 0x28, 0x01,
  0x97, 0x24, 0x7e, 0x15, 0x8c, 0x46, 0x00, 0x07, 0x90, 0x24, 0x74, 0x00,
  0x83, 0x3f, 0x00, 0x00, 0x99, 0x24, 0x74, 0x01, 0x80, 0x24, 0x00, 0x00,
  0x89, 0x24, 0x00, 0x0d, 0x87, 0x24, 0x00, 0x00, 0x87, 0x29, 0x00, 0x04,
  0x90, 0x2a, 0x5a, 0x00, 0x91, 0x1d, 0x7e, 0x00, 0x99, 0x2c, 0x6a, 0x00,
  0x99, 0x1d, 0x24, 0x00, 0x9b, 0x1d, 0x7a, 0x01, 0x80, 0x2a, 0x00, 0x00,
  0x97, 0x1d, 0x64, 0x00, 0x89, 0x1d, 0x00, 0x00, 0x89, 0x2c, 0x00, 0x00,
  0x9c, 0x46, 0x22, 0x01, 0x93, 0x3f, 0x72, 0x09, 0x87, 0x1d, 0x00, 0x0b,
  0x81, 0x1d, 0x00, 0x02, 0x97, 0x24, 0x64, 0x01, 0x97, 0x29, 0x6e, 0x01,
  0x8b, 0x1d, 0x00, 0x00, 0x8c, 0x46, 0x00, 0x05, 0x90, 0x26, 0x38, 0x01,
  0x90, 0x2a, 0x3c, 0x00, 0x90, 0x27, 0x3c, 0x01, 0x80, 0x27, 0x00, 0x00,
  0x80, 0x2a, 0x00, 0x00, 0x80, 0x26, 0x00, 0x00, 0x83, 0x3f, 0x00, 0x02,
  0x85, 0x3c, 0x00, 0x01, 0x87, 0x24, 0x00, 0x01, 0x85, 0x35, 0x00, 0x02,
  0x87, 0x29, 0x00, 0x01, 0x85, 0x1d, 0x00, 0x08, 0x90, 0x24, 0x7e, 0x00,
  0x90, 0x2a, 0x42, 0x00, 0x90, 0x31, 0x46, 0x00, 0x91, 0x22, 0x7e, 0x00,
  0x93, 0x41, 0x78, 0x00, 0x99, 0x24, 0x7e, 0x00, 0x99, 0x1d, 0x34, 0x00,
  0x9b, 0x22, 0x7e, 0x01, 0x80, 0x31, 0x00, 0x00, 0x80, 0x2a, 0x00, 0x00,
  0x80, 0x24, 0x00, 0x00, 0x95, 0x22, 0x7a, 0x00, 0x95, 0x3e, 0x7e, 0x00,
  0x95, 0x35, 0x6a, 0x00, 0x89, 0x1d, 0x00, 0x00, 0x89, 0x24, 0x00, 0x01,
  0x97, 0x22, 0x60, 0x00, 0x9c, 0x46, 0x1c, 0x08, 0x87, 0x22, 0x00, 0x08,
  0x8c, 0x46, 0x00, 0x08, 0x97, 0x29, 0x6a, 0x00, 0x97, 0x2e, 0x64, 0x04,
  0x90, 0x26, 0x44, 0x01, 0x80, 0x26, 0x00, 0x05, 0x87, 0x2e, 0x00, 0x00,
  0x87, 0x29, 0x00, 0x0b, 0x8b, 0x22, 0x00, 0x01, 0x90, 0x24, 0x7a, 0x00,
  0x90, 0x2a, 0x64, 0x00, 0x99, 0x24, 0x7a, 0x00, 0x99, 0x2c, 0x6a, 0x00,
  0x99, 0x1d, 0x3a, 0x01, 0x80, 0x2a, 0x00, 0x00, 0x80, 0x24, 0x00, 0x00,
  0x97, 0x22, 0x58, 0x00, 0x89, 0x1d, 0x00, 0x00, 0x89, 0x2c, 0x00, 0x00,
  0x89, 0x24, 0x00, 0x03, 0x83, 0x41, 0x00, 0x06, 0x87, 0x22, 0x00, 0x11,
  0x81, 0x22, 0x00, 0x03, 0x99, 0x2d, 0x38, 0x01, 0x89, 0x2d, 0x00, 0x01,
  0x93, 0x3f, 0x72, 0x10, 0x90, 0x27, 0x64, 0x00, 0x90, 0x2a, 0x48, 0x00,
  0x90, 0x31, 0x46, 0x00, 0x99, 0x28, 0x7f, 0x00, 0x99, 0x1e, 0x54, 0x00,
  0x99, 0x2b, 0x7e, 0x01, 0x80, 0x31, 0x00, 0x00, 0x80, 0x2a, 0x00, 0x00,
  0x80, 0x27, 0x00, 0x00, 0x97, 0x29, 0x7e, 0x00, 0x97, 0x22, 0x7a, 0x00,
  0x89, 0x2b, 0x00, 0x00, 0x89, 0x1e, 0x00, 0x00, 0x89, 0x28, 0x00, 0x01,
  0x97, 0x2e, 0x74, 0x1c, 0x87, 0x22, 0x00, 0x0b, 0x83, 0x3f, 0x00, 0x06,
  0x87, 0x2e, 0x00, 0x01, 0x90, 0x2a, 0x74, 0x00, 0x87, 0x29, 0x00, 0x00,
  0x99, 0x2c, 0x6a, 0x00, 0x99, 0x1d, 0x16, 0x01, 0x80, 0x2a, 0x00, 0x00,
  0x89, 0x1d, 0x00, 0x00, 0x89, 0x2c, 0x00, 0x01, 0x93, 0x3e, 0x7f, 0x01,
  0x97, 0x22, 0x5c, 0x09, 0x87, 0x22, 0x00, 0x0d, 0x97, 0x29, 0x5c, 0x00,
  0x97, 0x2e, 0x54, 0x06, 0x90, 0x26, 0x30, 0x02, 0x80, 0x26, 0x00, 0x00,
  0x83, 0x3e, 0x00, 0x00, 0x85, 0x35, 0x00, 0x01, 0x85, 0x3e, 0x00, 0x00,
  0x87, 0x29, 0x00, 0x01, 0x87, 0x2e, 0x00, 0x05, 0x85, 0x22, 0x00, 0x03,
  0xe8, 0x7f, 0x20, 0x05, 0x90, 0x24, 0x7a, 0x00, 0x90, 0x2a, 0x3c, 0x00,
  0x90, 0x31, 0x46, 0x00, 0x91, 0x1b, 0x7e, 0x00, 0x98, 0x63, 0x6e, 0x00,
  0x99, 0x24, 0x7a, 0x00, 0x99, 0x1d, 0x3a, 0x00, 0x99, 0x39, 0x4a, 0x00,
  0x9b, 0x1b, 0x7e, 0x00, 0x9c, 0x46, 0x7e, 0x01, 0x80, 0x31, 0x00, 0x00,
  0x80, 0x2a, 0x00, 0x00, 0x80, 0x24, 0x00, 0x00, 0x93, 0x3f, 0x64, 0x00,
  0x95, 0x1b, 0x7a, 0x00, 0x89, 0x39, 0x00, 0x00, 0x89, 0x1d, 0x00, 0x00,
  0x89, 0x24, 0x00, 0x00, 0x9d, 0x57, 0x60, 0x01, 0x95, 0x3f, 0x74, 0x00,
  0x95, 0x3a, 0x6e, 0x00, 0xe8, 0x00, 0x28, 0x01, 0x97, 0x27, 0x6a, 0x00,
  0x97, 0x1b, 0x74, 0x02, 0xe8, 0x7f, 0x2b, 0x02, 0xe8, 0x7f, 0x30, 0x03,
  0x87, 0x27, 0x00, 0x00, 0xe8, 0x00, 0x33, 0x02, 0x87, 0x1b, 0x00, 0x00,
  0xe8, 0x00, 0x40, 0x07, 0x8d, 0x57, 0x00, 0x09, 0xeb, 0x00, 0x3f, 0x03,
  0xeb, 0x00, 0x3e, 0x00, 0x8c, 0x46, 0x00, 0x04, 0xeb, 0x00, 0x3d, 0x03,
  0xeb, 0x00, 0x3c, 0x03, 0xeb, 0x00, 0x3b, 0x03, 0xeb, 0x00, 0x3a, 0x03,
  0xeb, 0x00, 0x39, 0x01, 0x90, 0x24, 0x7e, 0x00, 0x90, 0x2a, 0x64, 0x00,
  0x99, 0x24, 0x7e, 0x00, 0x99, 0x2c, 0x6a, 0x00, 0x99, 0x1d, 0x34, 0x01,
  0x80, 0x2a, 0x00, 0x00, 0x80, 0x24, 0x00, 0x00, 0x89, 0x1d, 0x00, 0x00,
  0x89, 0x2c, 0x00, 0x00, 0x89, 0x24, 0x00, 0x00, 0xeb, 0x00, 0x38, 0x00,
  0x9c, 0x46, 0x3c, 0x01, 0xeb, 0x00, 0x37, 0x01, 0x97, 0x27, 0x6a, 0x00,
  0x97, 0x1b, 0x64, 0x02, 0xeb, 0x00, 0x36, 0x02, 0xeb, 0x00, 0x35, 0x01,
  0x87, 0x1b, 0x00, 0x02, 0x87, 0x27, 0x00, 0x00, 0xeb, 0x00, 0x34, 0x01,
  0x83, 0x3f, 0x00, 0x01, 0xeb, 0x00, 0x32, 0x03, 0xeb, 0x00, 0x31, 0x04,
  0xeb, 0x00, 0x2f, 0x01, 0xeb, 0x7f, 0x2c, 0x02, 0xeb, 0x7f, 0x2b, 0x02,
  0x88, 0x63, 0x00, 0x01, 0xeb, 0x00, 0x29, 0x00, 0x8c, 0x46, 0x00, 0x02,
  0xeb, 0x00, 0x26, 0x03, 0x98, 0x5b, 0x6a, 0x00, 0xeb, 0x7f, 0x24, 0x02,
  0x9d, 0x4f, 0x62, 0x01, 0x93, 0x37, 0x78, 0x01, 0x81, 0x1b, 0x00, 0x00,
  0xeb, 0x00, 0x22, 0x01, 0xeb, 0x00, 0x1e, 0x03, 0xeb, 0x00, 0x1c, 0x02,
  0xeb, 0x00, 0x19, 0x03, 0xeb, 0x7f, 0x15, 0x02, 0xeb, 0x00, 0x14, 0x01,
  0x8d, 0x4f, 0x00, 0x02, 0x90, 0x27, 0x64, 0x00, 0x90, 0x2a, 0x62, 0x00,
  0x90, 0x31, 0x46, 0x00, 0x99, 0x28, 0x7f, 0x00, 0x99, 0x1e, 0x5a, 0x00,
  0xeb, 0x7f, 0x10, 0x01, 0x80, 0x31, 0x00, 0x00, 0x80, 0x2a, 0x00, 0x00,
  0x80, 0x27, 0x00, 0x00, 0x89, 0x1e, 0x00, 0x00, 0x89, 0x28, 0x00, 0x01,
  0x97, 0x27, 0x7e, 0x00, 0x97, 0x1b, 0x7e, 0x00, 0x9c, 0x46, 0x1e, 0x01,
  0xeb, 0x7f, 0x0b, 0x02, 0xeb, 0x00, 0x09, 0x03, 0x8b, 0x1b, 0x00, 0x00,
  0xeb, 0x7f, 0x06, 0x02, 0xeb, 0x7f, 0x04, 0x03, 0xeb, 0x7f, 0x03, 0x02,
  0xeb, 0x7f, 0x02, 0x06, 0xeb, 0x7f, 0x01, 0x02, 0xeb, 0x7f, 0x00, 0x01,
  0x8c, 0x46, 0x00, 0x01, 0x87, 0x1b, 0x00, 0x05, 0x90, 0x24, 0x7a, 0x00,
  0x99, 0x24, 0x7a, 0x01, 0x80, 0x24, 0x00, 0x00, 0x89, 0x24, 0x00, 0x05,
  0x87, 0x27, 0x00, 0x03, 0x83, 0x37, 0x00, 0x08, 0x88, 0x5b, 0x00, 0x01,
  0x90, 0x2a, 0x5a, 0x00, 0x98, 0x5c, 0x4e, 0x00, 0x99, 0x2c, 0x7e, 0x00,
  0x99, 0x1d, 0x32, 0x01, 0x80, 0x2a, 0x00, 0x00, 0x89, 0x1d, 0x00, 0x00,
  0x89, 0x2c, 0x00, 0x00, 0x9d, 0x50, 0x4e, 0x01, 0x97, 0x1b, 0x60, 0x00,
  0x9c, 0x46, 0x02, 0x09, 0x87, 0x1b, 0x00, 0x03, 0x8c, 0x46, 0x00, 0x01,
  0x8d, 0x50, 0x00, 0x0b, 0x97, 0x27, 0x7e, 0x05, 0x90, 0x26, 0x3c, 0x01,
  0x90, 0x2a, 0x30, 0x00, 0x90, 0x27, 0x3c, 0x01, 0x80, 0x27, 0x00, 0x00,
  0x80, 0x2a, 0x00, 0x00, 0x80, 0x26, 0x00, 0x05, 0x87, 0x27, 0x00, 0x07,
  0x88, 0x5c, 0x00, 0x03, 0x90, 0x24, 0x7e, 0x00, 0x90, 0x2a, 0x3c, 0x00,
  0x90, 0x31, 0x46, 0x00, 0x98, 0x5e, 0x74, 0x00, 0x99, 0x24, 0x7e, 0x00,
  0x99, 0x1d, 0x3c, 0x01, 0x80, 0x31, 0x00, 0x00, 0x80, 0x2a, 0x00, 0x00,
  0x80, 0x24, 0x00, 0x00, 0x89, 0x1d, 0x00, 0x00, 0x89, 0x24, 0x00, 0x01,
  0x97, 0x1b, 0x58, 0x00, 0x9d, 0x52, 0x64, 0x06, 0x87, 0x1b, 0x00, 0x0d,
  0x8d, 0x52, 0x00, 0x03, 0xeb, 0x00, 0x40, 0x02, 0x97, 0x27, 0x60, 0x04,
  0x90, 0x26, 0x58, 0x01, 0x80, 0x26, 0x00, 0x03, 0x87, 0x27, 0x00, 0x0e,
  0x90, 0x24, 0x7e, 0x00, 0x90, 0x2a, 0x64, 0x00, 0x99, 0x24, 0x7e, 0x00,
  0x99, 0x2c, 0x6a, 0x00, 0x99, 0x1d, 0x3c, 0x01, 0x80, 0x2a, 0x00, 0x00,
  0x80, 0x24, 0x00, 0x00, 0x89, 0x1d, 0x00, 0x00, 0x89, 0x2c, 0x00, 0x00,
  0x89, 0x24, 0x00, 0x01, 0x97, 0x1b, 0x6a, 0x0e, 0x87, 0x1b, 0x00, 0x0c,
  0x88, 0x5e, 0x00, 0x02, 0x98, 0x60, 0x64, 0x02, 0x9d, 0x54, 0x6a, 0x10,
  0x90, 0x27, 0x64, 0x00, 0x90, 0x2a, 0x62, 0x00, 0x90, 0x26, 0x0c, 0x00,
  0x90, 0x31, 0x46, 0x00, 0x97, 0x27, 0x7a, 0x00, 0x99, 0x28, 0x7f, 0x00,
  0x99, 0x1e, 0x62, 0x00, 0x8d, 0x54, 0x00, 0x01, 0x80, 0x31, 0x00, 0x00,
  0x80, 0x26, 0x00, 0x00, 0x80, 0x2a, 0x00, 0x00, 0x80, 0x27, 0x00, 0x00,
  0x97, 0x1b, 0x7a, 0x00, 0x89, 0x1e, 0x00, 0x00, 0x89, 0x28, 0x00, 0x21,
  0x87, 0x1b, 0x00, 0x03, 0x87, 0x27, 0x00, 0x0a, 0x88, 0x60, 0x00, 0x01,
  0x90, 0x2a, 0x64, 0x00, 0x98, 0x62, 0x6a, 0x00, 0x99, 0x2c, 0x74, 0x00,
  0x99, 0x1d, 0x2e, 0x01, 0x80, 0x2a, 0x00, 0x00, 0x89, 0x1d, 0x00, 0x00,
  0x89, 0x2c, 0x00, 0x01, 0x97, 0x1b, 0x32, 0x00, 0x9d, 0x56, 0x62, 0x06,
  0x87, 0x1b, 0x00, 0x0a, 0x8d, 0x56, 0x00, 0x08, 0x97, 0x27, 0x6e, 0x05,
  0x90, 0x26, 0x3e, 0x02, 0x80, 0x26, 0x00, 0x03, 0x87, 0x27, 0x00, 0x0a,
  0x88, 0x62, 0x00, 0x02, 0x90, 0x24, 0x7a, 0x00, 0x90, 0x2a, 0x54, 0x00,
  0x90, 0x31, 0x46, 0x00, 0x98, 0x63, 0x74, 0x00, 0x99, 0x24, 0x7a, 0x00,
  0x99, 0x1d, 0x3a, 0x01, 0x80, 0x31, 0x00, 0x00, 0x80, 0x2a, 0x00, 0x00,
  0x80, 0x24, 0x00, 0x00, 0x89, 0x1d, 0x00, 0x00, 0x89, 0x24, 0x00, 0x00,
  0x9d, 0x57, 0x6e, 0x01, 0x97, 0x1b, 0x64, 0x08, 0x87, 0x1b, 0x00, 0x0a,
  0x8d, 0x57, 0x00, 0x1c, 0x90, 0x24, 0x7e, 0x00, 0x90, 0x2a, 0x74, 0x00,
  0x99, 0x24, 0x7e, 0x00, 0x99, 0x2c, 0x7e, 0x00, 0x99, 0x1d, 0x3c, 0x01,
  0x80, 0x2a, 0x00, 0x00, 0x80, 0x24, 0x00, 0x00, 0x89, 0x1d, 0x00, 0x00,
  0x89, 0x2c, 0x00, 0x00, 0x89, 0x24, 0x00, 0x01, 0x97, 0x27, 0x3e, 0x08,
  0x87, 0x27, 0x00, 0x0e, 0x88, 0x63, 0x00, 0x06, 0x98, 0x5b, 0x6a, 0x01,
  0x9d, 0x4f, 0x62, 0x0e, 0x8d, 0x4f, 0x00, 0x03, 0x90, 0x27, 0x64, 0x00,
  0x90, 0x2a, 0x5a, 0x00, 0x90, 0x31, 0x46, 0x00, 0x99, 0x28, 0x7f, 0x00,
  0x99, 0x1e, 0x5a, 0x01, 0x80, 0x31, 0x00, 0x00, 0x80, 0x2a, 0x00, 0x00,
  0x80, 0x27, 0x00, 0x00, 0x89, 0x1e, 0x00, 0x00, 0x89, 0x28, 0x00, 0x02,
  0x97, 0x27, 0x7a, 0x00, 0x97, 0x1b, 0x6e, 0x1b, 0x90, 0x24, 0x7a, 0x00,
  0x99, 0x24, 0x7a, 0x01, 0x80, 0x24, 0x00, 0x00, 0x87, 0x1b, 0x00, 0x00,
  0x89, 0x24, 0x00, 0x03, 0x87, 0x27, 0x00, 0x05, 0x88, 0x5b, 0x00, 0x09,
  0x90, 0x2a, 0x54, 0x00, 0x98, 0x5c, 0x58, 0x00, 0x99, 0x2c, 0x74, 0x00,
  0x99, 0x1d, 0x28, 0x01, 0x80, 0x2a, 0x00, 0x00, 0x97, 0x1b, 0x4e, 0x00,
  0x89, 0x1d, 0x00, 0x00, 0x89, 0x2c, 0x00, 0x00, 0x9d, 0x50, 0x54, 0x06,
  0x87, 0x1b, 0x00, 0x09, 0x8d, 0x50, 0x00, 0x09, 0x97, 0x27, 0x6e, 0x06,
  0x90, 0x26, 0x3a, 0x01, 0x90, 0x2a, 0x34, 0x00, 0x90, 0x27, 0x3c, 0x01,
  0x80, 0x27, 0x00, 0x00, 0x80, 0x2a, 0x00, 0x00, 0x80, 0x26, 0x00, 0x02,
  0x87, 0x27, 0x00, 0x0c, 0x88, 0x5c, 0x00, 0x01, 0x90, 0x24, 0x7a, 0x00,
  0x90, 0x2a, 0x42, 0x00, 0x90, 0x31, 0x46, 0x00, 0x98, 0x5e, 0x74, 0x00,
  0x99, 0x24, 0x7a, 0x00, 0x99, 0x1d, 0x16, 0x01, 0x80, 0x31, 0x00, 0x00,
  0x80, 0x2a, 0x00, 0x00, 0x80, 0x24, 0x00, 0x00, 0x97, 0x1b, 0x44, 0x00,
  0x89, 0x1d, 0x00, 0x00, 0x89, 0x24, 0x00, 0x01, 0x9d, 0x52, 0x6a, 0x03,
  0x85, 0x3f, 0x00, 0x00, 0x87, 0x1b, 0x00, 0x02, 0x85, 0x3a, 0x00, 0x09,
  0x8d, 0x52, 0x00, 0x07, 0x85, 0x1b, 0x00, 0x01, 0x97, 0x27, 0x60, 0x00,
  0x88, 0x5e, 0x00, 0x06, 0x90, 0x26, 0x60, 0x01, 0x80, 0x26, 0x00, 0x02,
  0x87, 0x27, 0x00, 0x0f, 0x90, 0x24, 0x7e, 0x00, 0x90, 0x2a, 0x64, 0x00,
  0x99, 0x24, 0x7e, 0x00, 0x99, 0x2c, 0x7e, 0x00, 0x99, 0x1d, 0x34, 0x01,
  0x80, 0x2a, 0x00, 0x00, 0x80, 0x24, 0x00, 0x00, 0x89, 0x1d, 0x00, 0x00,
  0x89, 0x2c, 0x00, 0x00, 0x89, 0x24, 0x00, 0x01, 0x97, 0x1b, 0x3e, 0x06,
  0x87, 0x1b, 0x00, 0x11, 0x97, 0x27, 0x4e, 0x0a, 0x87, 0x27, 0x00, 0x0d,
  0x90, 0x27, 0x64, 0x00, 0x90, 0x2a, 0x54, 0x00, 0x90, 0x31, 0x46, 0x00,
  0x99, 0x28, 0x7f, 0x00, 0x99, 0x1e, 0x6a, 0x00, 0x99, 0x2b, 0x6a, 0x00,
  0x99, 0x29, 0x7a, 0x01, 0x80, 0x31, 0x00, 0x00, 0x80, 0x2a, 0x00, 0x00,
  0x80, 0x27, 0x00, 0x00, 0x97, 0x1b, 0x58, 0x00, 0x89, 0x29, 0x00, 0x00,
  0x89, 0x2b, 0x00, 0x00, 0x89, 0x1e, 0x00, 0x00, 0x89, 0x28, 0x00, 0x06,
  0x87, 0x1b, 0x00, 0x12, 0x97, 0x27, 0x3c, 0x01, 0x97, 0x22, 0x42, 0x06,
  0x87, 0x22, 0x00, 0x01, 0x87, 0x27, 0x00, 0x0f, 0x90, 0x2a, 0x62, 0x00,
  0x99, 0x2c, 0x7e, 0x00, 0x99, 0x1d, 0x3a, 0x01, 0x80, 0x2a, 0x00, 0x00,
  0x89, 0x1d, 0x00, 0x00, 0x89, 0x2c, 0x00, 0x01, 0x97, 0x1b, 0x58, 0x06,
  0x87, 0x1b, 0x00, 0x12, 0x97, 0x22, 0x46, 0x00, 0x97, 0x27, 0x60, 0x04,
  0x87, 0x22, 0x00, 0x01, 0x90, 0x26, 0x2a, 0x02, 0x80, 0x26, 0x00, 0x03,
  0x87, 0x27, 0x00, 0x0c, 0x90, 0x24, 0x7a, 0x00, 0x90, 0x2a, 0x4e, 0x00,
  0x90, 0x31, 0x46, 0x00, 0x91, 0x1d, 0x7e, 0x00, 0x99, 0x24, 0x7a, 0x00,
  0x99, 0x1d, 0x3a, 0x00, 0x99, 0x37, 0x7e, 0x00, 0x9b, 0x1d, 0x7e, 0x01,
  0x80, 0x31, 0x00, 0x00, 0x80, 0x2a, 0x00, 0x00, 0x80, 0x24, 0x00, 0x00,
  0x93, 0x46, 0x72, 0x00, 0x95, 0x1d, 0x74, 0x00, 0x95, 0x35, 0x74, 0x00,
  0x89, 0x37, 0x00, 0x00, 0x89, 0x1d, 0x00, 0x00, 0x89, 0x24, 0x00, 0x01,
  0x95, 0x3c, 0x74, 0x00, 0x97, 0x1d, 0x7e, 0x00, 0x9c, 0x46, 0x7e, 0x18,
  0x8b, 0x1d, 0x00, 0x05, 0x81, 0x1d, 0x00, 0x02, 0x8c, 0x46, 0x00, 0x01,
  0x87, 0x1d, 0x00, 0x0e, 0x90, 0x24, 0x7a, 0x00, 0x90, 0x2a, 0x64, 0x00,
  0x91, 0x1d, 0x7e, 0x00, 0x99, 0x24, 0x7a, 0x00, 0x99, 0x2c, 0x62, 0x00,
  0x99, 0x1d, 0x3c, 0x00, 0x9b, 0x1d, 0x7e, 0x01, 0x80, 0x2a, 0x00, 0x00,
  0x80, 0x24, 0x00, 0x00, 0x97, 0x24, 0x5c, 0x00, 0x89, 0x1d, 0x00, 0x00,
  0x89, 0x2c, 0x00, 0x00, 0x89, 0x24, 0x00, 0x00, 0x9c, 0x46, 0x6e, 0x08,
  0x87, 0x24, 0x00, 0x14, 0x8b, 0x1d, 0x00, 0x01, 0x8c, 0x46, 0x00, 0x12,
  0x90, 0x27, 0x64, 0x00, 0x90, 0x2a, 0x38, 0x00, 0x90, 0x31, 0x46, 0x00,
  0x99, 0x28, 0x7f, 0x00, 0x99, 0x1e, 0x5a, 0x00, 0x9c, 0x46, 0x30, 0x01,
  0x80, 0x31, 0x00, 0x00, 0x80, 0x2a, 0x00, 0x00, 0x80, 0x27, 0x00, 0x00,
  0x97, 0x29, 0x7a, 0x00, 0x89, 0x1e, 0x00, 0x00, 0x89, 0x28, 0x00, 0x01,
  0x97, 0x24, 0x7a, 0x06, 0x81, 0x1d, 0x00, 0x12, 0x8c, 0x46, 0x00, 0x04,
  0x90, 0x24, 0x7e, 0x00, 0x99, 0x24, 0x7e, 0x01, 0x80, 0x24, 0x00, 0x00,
  0x89, 0x24, 0x00, 0x0c, 0x87, 0x24, 0x00, 0x00, 0x87, 0x29, 0x00, 0x05,
  0x90, 0x2a, 0x74, 0x00, 0x91, 0x1d, 0x7e, 0x00, 0x99, 0x2c, 0x5a, 0x00,
  0x99, 0x1d, 0x28, 0x00, 0x9b, 0x1d, 0x7e, 0x01, 0x80, 0x2a, 0x00, 0x00,
  0x97, 0x1d, 0x60, 0x00, 0x89, 0x1d, 0x00, 0x00, 0x89, 0x2c, 0x00, 0x00,
  0x9c, 0x46, 0x10, 0x09, 0x87, 0x1d, 0x00, 0x0f, 0x83, 0x46, 0x00, 0x01,
  0x81, 0x1d, 0x00, 0x00, 0x97, 0x29, 0x64, 0x00, 0x97, 0x24, 0x64, 0x00,
  0x8c, 0x46, 0x00, 0x01, 0x8b, 0x1d, 0x00, 0x04, 0x90, 0x26, 0x42, 0x01,
  0x90, 0x2a, 0x38, 0x00, 0x90, 0x27, 0x3c, 0x01, 0x80, 0x27, 0x00, 0x00,
  0x80, 0x2a, 0x00, 0x00, 0x80, 0x26, 0x00, 0x00, 0x87, 0x24, 0x00, 0x02,
  0x85, 0x35, 0x00, 0x01, 0x87, 0x29, 0x00, 0x01, 0x85, 0x3c, 0x00, 0x08,
  0x85, 0x1d, 0x00, 0x03, 0x90, 0x24, 0x7a, 0x00, 0x90, 0x2a, 0x34, 0x00,
  0x90, 0x31, 0x46, 0x00, 0x91, 0x22, 0x74, 0x00, 0x93, 0x43, 0x7f, 0x00,
  0x95, 0x3e, 0x7e, 0x00, 0x99, 0x24, 0x7a, 0x00, 0x99, 0x1d, 0x16, 0x00,
  0x9b, 0x22, 0x7a, 0x01, 0x80, 0x31, 0x00, 0x00, 0x80, 0x2a, 0x00, 0x00,
  0x80, 0x24, 0x00, 0x00, 0x89, 0x1d, 0x00, 0x00, 0x89, 0x24, 0x00, 0x01,
  0x95, 0x22, 0x74, 0x00, 0x95, 0x3a, 0x64, 0x01, 0x97, 0x22, 0x58, 0x07,
  0x87, 0x22, 0x00, 0x10, 0x97, 0x2e, 0x64, 0x04, 0x90, 0x26, 0x4a, 0x01,
  0x80, 0x26, 0x00, 0x03, 0x87, 0x2e, 0x00, 0x0a, 0xeb, 0x00, 0x3f, 0x04,
  0x90, 0x24, 0x7e, 0x00, 0x90, 0x2a, 0x64, 0x00, 0x99, 0x24, 0x7e, 0x00,
  0x99, 0x2c, 0x6a, 0x00, 0x99, 0x1d, 0x34, 0x00, 0xeb, 0x00, 0x3e, 0x01,
  0x80, 0x2a, 0x00, 0x00, 0x80, 0x24, 0x00, 0x00, 0x89, 0x1d, 0x00, 0x00,
  0x89, 0x2c, 0x00, 0x00, 0x89, 0x24, 0x00, 0x01, 0x97, 0x22, 0x5c, 0x01,
  0xeb, 0x7f, 0x3c, 0x02, 0xeb, 0x7f, 0x3b, 0x01, 0x83, 0x43, 0x00, 0x01,
  0x87, 0x22, 0x00, 0x00, 0xeb, 0x7f, 0x38, 0x03, 0xeb, 0x7f, 0x34, 0x02,
  0xeb, 0x7f, 0x32, 0x03, 0xeb, 0x7f, 0x2e, 0x02, 0xeb, 0x00, 0x29, 0x02,
  0x81, 0x22, 0x00, 0x01, 0xeb, 0x00, 0x26, 0x02, 0xeb, 0x00, 0x22, 0x02,
  0xeb, 0x7f, 0x1d, 0x03, 0xeb, 0x00, 0x1b, 0x03, 0xeb, 0x00, 0x18, 0x01,
  0x93, 0x41, 0x78, 0x01, 0xeb, 0x7f, 0x14, 0x03, 0xeb, 0x7f, 0x12, 0x03,
  0xeb, 0x7f, 0x0f, 0x02, 0xeb, 0x00, 0x0b, 0x03, 0xeb, 0x00, 0x09, 0x02,
  0x8b, 0x22, 0x00, 0x00, 0xeb, 0x00, 0x08, 0x03, 0x90, 0x27, 0x64, 0x00,
  0x90, 0x2a, 0x4e, 0x00, 0x90, 0x26, 0x3a, 0x00, 0x90, 0x31, 0x46, 0x00,
  0x97, 0x2e, 0x7a, 0x00, 0x99, 0x28, 0x7f, 0x00, 0x99, 0x1e, 0x6a, 0x01,
  0x80, 0x31, 0x00, 0x00, 0x80, 0x26, 0x00, 0x00, 0x80, 0x2a, 0x00, 0x00,
  0x80, 0x27, 0x00, 0x00, 0x89, 0x1e, 0x00, 0x00, 0x89, 0x28, 0x00, 0x01,
  0x97, 0x29, 0x7e, 0x19, 0xeb, 0x00, 0x40, 0x03, 0x90, 0x24, 0x28, 0x00,
  0x99, 0x24, 0x28, 0x01, 0x80, 0x24, 0x00, 0x00, 0x89, 0x24, 0x00, 0x0d,
  0x87, 0x29, 0x00, 0x00, 0x87, 0x2e, 0x00, 0x04, 0x90, 0x24, 0x74, 0x00,
  0x90, 0x2a, 0x6a, 0x00, 0x99, 0x24, 0x74, 0x00, 0x99, 0x2c, 0x7e, 0x00,
  0x99, 0x1d, 0x3a, 0x01, 0x80, 0x2a, 0x00, 0x00, 0x80, 0x24, 0x00, 0x00,
  0x97, 0x22, 0x5c, 0x00, 0x89, 0x1d, 0x00, 0x00, 0x89, 0x2c, 0x00, 0x00,
  0x89, 0x24, 0x00, 0x06, 0x87, 0x22, 0x00, 0x08, 0x83, 0x41, 0x00, 0x0a,
  0x97, 0x29, 0x74, 0x01, 0x85, 0x3e, 0x00, 0x00, 0x97, 0x2e, 0x64, 0x05,
  0x90, 0x26, 0x3e, 0x02, 0x80, 0x26, 0x00, 0x01, 0x85, 0x3a, 0x00, 0x00,
  0x87, 0x29, 0x00, 0x02, 0x87, 0x2e, 0x00, 0x03, 0x85, 0x22, 0x00, 0x09,
  0x90, 0x24, 0x7a, 0x00, 0x90, 0x2a, 0x42, 0x00, 0x90, 0x31, 0x46, 0x00,
  0x91, 0x1d, 0x7a, 0x00, 0x99, 0x24, 0x7a, 0x00, 0x99, 0x1d, 0x3a, 0x00,
  0x99, 0x37, 0x7a, 0x00, 0x9b, 0x1d, 0x7e, 0x01, 0x80, 0x31, 0x00, 0x00,
  0x80, 0x2a, 0x00, 0x00, 0x80, 0x24, 0x00, 0x00, 0x95, 0x3c, 0x7a, 0x00,
  0x95, 0x35, 0x7a, 0x00, 0x89, 0x37, 0x00, 0x00, 0x89, 0x1d, 0x00, 0x00,
  0x89, 0x24, 0x00, 0x01, 0x95, 0x1d, 0x7e, 0x00, 0x97, 0x1d, 0x6a, 0x00,
  0x9c, 0x46, 0x7e, 0x04, 0x87, 0x1d, 0x00, 0x14, 0x97, 0x29, 0x60, 0x01,
  0x81, 0x1d, 0x00, 0x00, 0x97, 0x24, 0x6a, 0x01, 0x8b, 0x1d, 0x00, 0x04,
  0x8c, 0x46, 0x00, 0x02, 0x87, 0x24, 0x00, 0x01, 0x87, 0x29, 0x00, 0x0d,
  0x90, 0x24, 0x7e, 0x00, 0x90, 0x2a, 0x64, 0x00, 0x91, 0x1d, 0x7e, 0x00,
  0x93, 0x46, 0x6e, 0x00, 0x99, 0x24, 0x7e, 0x00, 0x99, 0x2c, 0x7e, 0x00,
  0x99, 0x1d, 0x3c, 0x00, 0x9b, 0x1d, 0x7e, 0x00, 0x9c, 0x46, 0x4a, 0x01,
  0x80, 0x2a, 0x00, 0x00, 0x80, 0x24, 0x00, 0x00, 0x89, 0x1d, 0x00, 0x00,
  0x89, 0x2c, 0x00, 0x00, 0x89, 0x24, 0x00, 0x02, 0x97, 0x1d, 0x6e, 0x03,
  0x87, 0x1d, 0x00, 0x0b, 0x83, 0x46, 0x00, 0x07, 0x8c, 0x46, 0x00, 0x01,
  0x97, 0x24, 0x58, 0x09, 0x87, 0x24, 0x00, 0x01, 0x8b, 0x1d, 0x00, 0x0d,
  0x90, 0x27, 0x62, 0x00, 0x90, 0x2a, 0x4e, 0x00, 0x90, 0x31, 0x46, 0x00,
  0x97, 0x1d, 0x6e, 0x00, 0x99, 0x28, 0x7f, 0x00, 0x99, 0x1e, 0x5a, 0x01,
  0x80, 0x31, 0x00, 0x00, 0x80, 0x2a, 0x00, 0x00, 0x80, 0x27, 0x00, 0x00,
  0x93, 0x46, 0x7e, 0x00, 0x89, 0x1e, 0x00, 0x00, 0x89, 0x28, 0x00, 0x00,
  0x9c, 0x46, 0x18, 0x01, 0x81, 0x1d, 0x00, 0x05, 0x87, 0x1d, 0x00, 0x0a,
  0x83, 0x46, 0x00, 0x08, 0x97, 0x29, 0x6e, 0x00, 0x8c, 0x46, 0x00, 0x01,
  0x97, 0x24, 0x74, 0x04, 0x90, 0x24, 0x7a, 0x00, 0x99, 0x24, 0x7a, 0x01,
  0x80, 0x24, 0x00, 0x00, 0x89, 0x24, 0x00, 0x01, 0x93, 0x46, 0x68, 0x01,
  0x87, 0x29, 0x00, 0x02, 0x87, 0x24, 0x00, 0x0d, 0x90, 0x2a, 0x5a, 0x00,
  0x91, 0x1d, 0x7e, 0x00, 0x83, 0x46, 0x00, 0x00, 0x99, 0x2c, 0x6a, 0x00,
  0x99, 0x1d, 0x24, 0x00, 0x9b, 0x1d, 0x7e, 0x01, 0x80, 0x2a, 0x00, 0x00,
  0x97, 0x1d, 0x6a, 0x00, 0x89, 0x1d, 0x00, 0x00, 0x89, 0x2c, 0x00, 0x00,
  0x9c, 0x46, 0x0c, 0x03, 0x93, 0x48, 0x78, 0x05, 0x87, 0x1d, 0x00, 0x0e,
  0x83, 0x48, 0x00, 0x01, 0x8c, 0x46, 0x00, 0x01, 0x97, 0x24, 0x5c, 0x00,
  0x8b, 0x1d, 0x00, 0x06, 0x90, 0x26, 0x38, 0x01, 0x90, 0x2a, 0x3c, 0x00,
  0x90, 0x27, 0x3c, 0x01, 0x80, 0x27, 0x00, 0x00, 0x80, 0x2a, 0x00, 0x00,
  0x80, 0x26, 0x00, 0x00, 0x85, 0x35, 0x00, 0x01, 0x87, 0x24, 0x00, 0x01,
  0x81, 0x1d, 0x00, 0x03, 0x85, 0x3c, 0x00, 0x07, 0x85, 0x1d, 0x00, 0x03,
  0x90, 0x24, 0x7a, 0x00, 0x90, 0x2a, 0x42, 0x00, 0x90, 0x31, 0x46, 0x00,
  0x91, 0x22, 0x7e, 0x00, 0x99, 0x24, 0x7a, 0x00, 0x99, 0x1d, 0x34, 0x00,
  0x9b, 0x22, 0x7e, 0x01, 0x80, 0x31, 0x00, 0x00, 0x80, 0x2a, 0x00, 0x00,
  0x80, 0x24, 0x00, 0x00, 0x95, 0x22, 0x7e, 0x00, 0x89, 0x1d, 0x00, 0x00,
  0x89, 0x24, 0x00, 0x01, 0x93, 0x43, 0x7f, 0x01, 0x95, 0x3e, 0x7e, 0x00,
  0x95, 0x3a, 0x7a, 0x00, 0x97, 0x22, 0x6a, 0x07, 0x87, 0x22, 0x00, 0x10,
  0x97, 0x29, 0x6e, 0x01, 0x97, 0x2e, 0x60, 0x03, 0x90, 0x26, 0x44, 0x01,
  0x80, 0x26, 0x00, 0x05, 0x87, 0x29, 0x00, 0x00, 0x87, 0x2e, 0x00, 0x0c,
  0x90, 0x24, 0x7e, 0x00, 0x90, 0x2a, 0x64, 0x00, 0x99, 0x24, 0x7e, 0x00,
  0x99, 0x2c, 0x6a, 0x00, 0x99, 0x1d, 0x3a, 0x01, 0x80, 0x2a, 0x00, 0x00,
  0x80, 0x24, 0x00, 0x00, 0x89, 0x1d, 0x00, 0x00, 0x89, 0x2c, 0x00, 0x00,
  0x89, 0x24, 0x00, 0x01, 0x97, 0x22, 0x5c, 0x01, 0xeb, 0x00, 0x3f, 0x02,
  0xeb, 0x00, 0x3e, 0x03, 0x87, 0x22, 0x00, 0x01, 0x83, 0x43, 0x00, 0x01,
  0xeb, 0x00, 0x3d, 0x03, 0xeb, 0x00, 0x3c, 0x04, 0xeb, 0x7f, 0x3b, 0x01,
  0xeb, 0x7f, 0x3a, 0x02, 0xeb, 0x7f, 0x38, 0x02, 0x81, 0x22, 0x00, 0x01,
  0xeb, 0x7f, 0x37, 0x03, 0xeb, 0x00, 0x35, 0x02, 0xeb, 0x00, 0x32, 0x03,
  0xeb, 0x7f, 0x30, 0x01, 0x93, 0x41, 0x6e, 0x01, 0xeb, 0x7f, 0x2d, 0x03,
  0xeb, 0x7f, 0x29, 0x02, 0xeb, 0x7f, 0x27, 0x03, 0xeb, 0x7f, 0x23, 0x02,
  0xeb, 0x00, 0x1e, 0x03, 0xeb, 0x00, 0x1b, 0x02, 0x90, 0x27, 0x64, 0x00,
  0x90, 0x2a, 0x48, 0x00, 0x90, 0x31, 0x46, 0x00, 0x99, 0x28, 0x7f, 0x00,
  0x99, 0x1e, 0x54, 0x00, 0xeb, 0x7f, 0x16, 0x01, 0x80, 0x31, 0x00, 0x00,
  0x80, 0x2a, 0x00, 0x00, 0x80, 0x27, 0x00, 0x00, 0x89, 0x1e, 0x00, 0x00,
  0x89, 0x28, 0x00, 0x02, 0x97, 0x2e, 0x74, 0x00, 0x97, 0x29, 0x7e, 0x00,
  0xeb, 0x7f, 0x11, 0x02, 0xeb, 0x00, 0x0f, 0x03, 0xeb, 0x7f, 0x0d, 0x03,
  0xeb, 0x00, 0x0a, 0x01, 0x8b, 0x22, 0x00, 0x18, 0xeb, 0x00, 0x40, 0x0b,
  0x87, 0x2e, 0x00, 0x00, 0x87, 0x29, 0x00, 0x01, 0x90, 0x2a, 0x74, 0x00,
  0x99, 0x2c, 0x6a, 0x00, 0x99, 0x1d, 0x16, 0x01, 0x80, 0x2a, 0x00, 0x00,
  0x89, 0x1d, 0x00, 0x00, 0x89, 0x2c, 0x00, 0x01, 0x97, 0x22, 0x42, 0x05,
  0x87, 0x22, 0x00, 0x0f, 0x83, 0x41, 0x00, 0x04, 0x97, 0x29, 0x7a, 0x00,
  0x97, 0x2e, 0x6e, 0x03, 0x85, 0x3e, 0x00, 0x02, 0x90, 0x26, 0x30, 0x02,
  0x80, 0x26, 0x00, 0x02, 0x87, 0x29, 0x00, 0x00, 0x87, 0x2e, 0x00, 0x02,
  0x85, 0x3a, 0x00, 0x00, 0x85, 0x22, 0x00, 0x0b, 0x90, 0x24, 0x7a, 0x00,
  0x90, 0x2a, 0x3c, 0x00, 0x90, 0x31, 0x46, 0x00, 0x91, 0x1d, 0x7e, 0x00,
  0x99, 0x24, 0x7a, 0x00, 0x99, 0x1d, 0x3a, 0x00, 0x99, 0x37, 0x6a, 0x00,
  0x9b, 0x1d, 0x7e, 0x00, 0x9c, 0x46, 0x7e, 0x01, 0x80, 0x31, 0x00, 0x00,
  0x80, 0x2a, 0x00, 0x00, 0x80, 0x24, 0x00, 0x00, 0x93, 0x3f, 0x72, 0x00,
  0x95, 0x1d, 0x7a, 0x00, 0x97, 0x1d, 0x64, 0x00, 0x89, 0x37, 0x00, 0x00,
  0x89, 0x1d, 0x00, 0x00, 0x89, 0x24, 0x00, 0x02, 0x95, 0x35, 0x74, 0x00,
  0x95, 0x3c, 0x74, 0x03, 0x87, 0x1d, 0x00, 0x15, 0x8b, 0x1d, 0x00, 0x03,
  0x81, 0x1d, 0x00, 0x01, 0x8c, 0x46, 0x00, 0x11, 0x90, 0x24, 0x7a, 0x00,
  0x90, 0x2a, 0x64, 0x00, 0x91, 0x1d, 0x7e, 0x00, 0x99, 0x24, 0x7a, 0x00,
  0x99, 0x2c, 0x6a, 0x00, 0x99, 0x1d, 0x34, 0x00, 0x9b, 0x1d, 0x7e, 0x00,
  0x9c, 0x46, 0x60, 0x01, 0x80, 0x2a, 0x00, 0x00, 0x80, 0x24, 0x00, 0x00,
  0x89, 0x1d, 0x00, 0x00, 0x89, 0x2c, 0x00, 0x00, 0x89, 0x24, 0x00, 0x01,
  0x97, 0x24, 0x64, 0x00, 0x97, 0x29, 0x6a, 0x04, 0x83, 0x3f, 0x00, 0x03,
  0x87, 0x24, 0x00, 0x04, 0x87, 0x29, 0x00, 0x0c, 0x8c, 0x46, 0x00, 0x07,
  0x93, 0x3f, 0x64, 0x08, 0x81, 0x1d, 0x00, 0x00, 0x8b, 0x1d, 0x00, 0x08,
  0x90, 0x27, 0x64, 0x00, 0x90, 0x2a, 0x62, 0x00, 0x90, 0x31, 0x46, 0x00,
  0x99, 0x28, 0x7f, 0x00, 0x99, 0x1e, 0x5a, 0x00, 0x9c, 0x46, 0x1e, 0x01,
  0x80, 0x31, 0x00, 0x00, 0x80, 0x2a, 0x00, 0x00, 0x80, 0x27, 0x00, 0x00,
  0x89, 0x1e, 0x00, 0x00, 0x89, 0x28, 0x00, 0x01, 0x97, 0x24, 0x7e, 0x00,
  0x97, 0x29, 0x7a, 0x14, 0x8c, 0x46, 0x00, 0x08, 0x90, 0x24, 0x7e, 0x00,
  0x99, 0x24, 0x7e, 0x01, 0x80, 0x24, 0x00, 0x00, 0x89, 0x24, 0x00, 0x04,
  0x83, 0x3f, 0x00, 0x02, 0x87, 0x24, 0x00, 0x04, 0x87, 0x29, 0x00, 0x07,
  0x90, 0x2a, 0x5a, 0x00, 0x91, 0x1d, 0x7e, 0x00, 0x99, 0x2c, 0x7e, 0x00,
  0x99, 0x1d, 0x32, 0x00, 0x9b, 0x1d, 0x7e, 0x01, 0x80, 0x2a, 0x00, 0x00,
  0x93, 0x3f, 0x68, 0x00, 0x97, 0x1d, 0x4e, 0x00, 0x89, 0x1d, 0x00, 0x00,
  0x89, 0x2c, 0x00, 0x00, 0x9c, 0x46, 0x1a, 0x07, 0x87, 0x1d, 0x00, 0x0c,
  0x8c, 0x46, 0x00, 0x02, 0x8b, 0x1d, 0x00, 0x03, 0x97, 0x29, 0x60, 0x01,
  0x97, 0x24, 0x4e, 0x05, 0x90, 0x26, 0x3c, 0x01, 0x90, 0x2a, 0x30, 0x00,
  0x90, 0x27, 0x3c, 0x00, 0x87, 0x24, 0x00, 0x01, 0x80, 0x27, 0x00, 0x00,
  0x80, 0x2a, 0x00, 0x00, 0x80, 0x26, 0x00, 0x01, 0x85, 0x35, 0x00, 0x01,
  0x81, 0x1d, 0x00, 0x00, 0x87, 0x29, 0x00, 0x03, 0x83, 0x3f, 0x00, 0x01,
  0x85, 0x3c, 0x00, 0x05, 0x85, 0x1d, 0x00, 0x04, 0x90, 0x24, 0x7a, 0x00,
  0x90, 0x2a, 0x3c, 0x00, 0x90, 0x31, 0x46, 0x00, 0x91, 0x22, 0x74, 0x00,
  0x99, 0x24, 0x7a, 0x00, 0x99, 0x1d, 0x3c, 0x00, 0x9b, 0x22, 0x7a, 0x01,
  0x80, 0x31, 0x00, 0x00, 0x80, 0x2a, 0x00, 0x00, 0x80, 0x24, 0x00, 0x00,
  0x93, 0x41, 0x78, 0x00, 0x97, 0x22, 0x58, 0x00, 0x89, 0x1d, 0x00, 0x00,
  0x89, 0x24, 0x00, 0x01, 0x95, 0x22, 0x6e, 0x00, 0x95, 0x3a, 0x74, 0x01,
  0x95, 0x3e, 0x74, 0x07, 0x87, 0x22, 0x00, 0x0f, 0x97, 0x29, 0x6a, 0x01,
  0x97, 0x2e, 0x5c, 0x04, 0x90, 0x26, 0x58, 0x01, 0x80, 0x26, 0x00, 0x03,
  0x87, 0x29, 0x00, 0x01, 0x87, 0x2e, 0x00, 0x0d, 0x90, 0x24, 0x7e, 0x00,
  0x90, 0x2a, 0x64, 0x00, 0x99, 0x24, 0x7e, 0x00, 0x99, 0x2c, 0x6a, 0x00,
  0x99, 0x1d, 0x3c, 0x01, 0x80, 0x2a, 0x00, 0x00, 0x80, 0x24, 0x00, 0x00,
  0x97, 0x22, 0x5c, 0x00, 0x89, 0x1d, 0x00, 0x00, 0x89, 0x2c, 0x00, 0x00,
  0x89, 0x24, 0x00, 0x09, 0x83, 0x41, 0x00, 0x00, 0x87, 0x22, 0x00, 0x01,
  0xeb, 0x00, 0x3f, 0x03, 0xeb, 0x7f, 0x3e, 0x06, 0xeb, 0x7f, 0x3d, 0x03,
  0xeb, 0x7f, 0x3b, 0x01, 0xeb, 0x7f, 0x3a, 0x03, 0xeb, 0x7f, 0x37, 0x02,
  0xeb, 0x7f, 0x33, 0x01, 0x99, 0x2d, 0x2a, 0x01, 0x93, 0x3f, 0x78, 0x00,
  0x89, 0x2d, 0x00, 0x01, 0xeb, 0x7f, 0x31, 0x03, 0xeb, 0x7f, 0x2e, 0x02,
  0x81, 0x22, 0x00, 0x00, 0xeb, 0x00, 0x2b, 0x03, 0xeb, 0x00, 0x29, 0x02,
  0xeb, 0x00, 0x25, 0x03, 0xeb, 0x00, 0x1f, 0x02, 0xeb, 0x00, 0x1c, 0x01,
  0x90, 0x27, 0x64, 0x00, 0x90, 0x2a, 0x62, 0x00, 0x90, 0x26, 0x0c, 0x00,
  0x90, 0x31, 0x46, 0x00, 0x97, 0x29, 0x6e, 0x00, 0x99, 0x28, 0x7f, 0x00,
  0x99, 0x1e, 0x62, 0x00, 0x99, 0x2b, 0x74, 0x01, 0x80, 0x31, 0x00, 0x00,
  0x80, 0x26, 0x00, 0x00, 0x80, 0x2a, 0x00, 0x00, 0x80, 0x27, 0x00, 0x00,
  0x97, 0x22, 0x74, 0x00, 0x89, 0x2b, 0x00, 0x00, 0x89, 0x1e, 0x00, 0x00,
  0x89, 0x28, 0x00, 0x01, 0x97, 0x2e, 0x6e, 0x00, 0xeb, 0x7f, 0x17, 0x03,
  0xeb, 0x7f, 0x12, 0x02, 0xeb, 0x00, 0x10, 0x02, 0x8b, 0x22, 0x00, 0x01,
  0xeb, 0x00, 0x0f, 0x07, 0x87, 0x22, 0x00, 0x0d, 0x90, 0x24, 0x28, 0x00,
  0x99, 0x24, 0x28, 0x01, 0x80, 0x24, 0x00, 0x00, 0x89, 0x24, 0x00, 0x01,
  0xeb, 0x00, 0x40, 0x08, 0x83, 0x3f, 0x00, 0x02, 0x87, 0x29, 0x00, 0x02,
  0x87, 0x2e, 0x00, 0x04, 0x90, 0x24, 0x74, 0x00, 0x90, 0x2a, 0x64, 0x00,
  0x99, 0x24, 0x74, 0x00, 0x99, 0x2c, 0x74, 0x00, 0x99, 0x1d, 0x2e, 0x01,
  0x80, 0x2a, 0x00, 0x00, 0x80, 0x24, 0x00, 0x00, 0x97, 0x22, 0x60, 0x00,
  0x89, 0x1d, 0x00, 0x00, 0x89, 0x2c, 0x00, 0x00, 0x89, 0x24, 0x00, 0x02,
  0x93, 0x3e, 0x78, 0x08, 0x87, 0x22, 0x00, 0x0e, 0x97, 0x29, 0x50, 0x01,
  0x97, 0x2e, 0x60, 0x03, 0x85, 0x22, 0x00, 0x02, 0x90, 0x26, 0x3e, 0x01,
  0x85, 0x3e, 0x00, 0x01, 0x80, 0x26, 0x00, 0x01, 0x85, 0x3a, 0x00, 0x01,
  0x87, 0x29, 0x00, 0x04, 0x83, 0x3e, 0x00, 0x01, 0x87, 0x2e, 0x00, 0x08,
  0x90, 0x24, 0x7f, 0x00, 0x90, 0x2a, 0x54, 0x00, 0x90, 0x31, 0x46, 0x00,
  0x91, 0x1b, 0x7e, 0x00, 0x95, 0x3f, 0x74, 0x00, 0xe8, 0x7f, 0x20, 0x00,
  0x98, 0x63, 0x6e, 0x00, 0x99, 0x24, 0x7e, 0x00, 0x99, 0x1d, 0x3a, 0x00,
  0x99, 0x39, 0x58, 0x00, 0x9b, 0x1b, 0x7e, 0x01, 0x80, 0x31, 0x00, 0x00,
  0x80, 0x2a, 0x00, 0x00, 0x80, 0x24, 0x00, 0x00, 0x97, 0x1b, 0x74, 0x00,
  0x97, 0x27, 0x4e, 0x00, 0x89, 0x39, 0x00, 0x00, 0x89, 0x1d, 0x00, 0x00,
  0x89, 0x24, 0x00, 0x00, 0x9d, 0x57, 0x60, 0x01, 0x93, 0x3f, 0x7e, 0x00,
  0x95, 0x1b, 0x7e, 0x00, 0xe8, 0x00, 0x28, 0x03, 0xe8, 0x7f, 0x2b, 0x02,
  0xe8, 0x7f, 0x30, 0x03, 0x87, 0x27, 0x00, 0x00, 0xe8, 0x00, 0x33, 0x02,
  0xe8, 0x00, 0x39, 0x02, 0xe8, 0x00, 0x40, 0x01, 0x87, 0x1b, 0x00, 0x03,
  0x8d, 0x57, 0x00, 0x11, 0x81, 0x1b, 0x00, 0x01, 0x8b, 0x1b, 0x00, 0x0c,
  0x90, 0x2a, 0x74, 0x00, 0x91, 0x1b, 0x7e, 0x00, 0x99, 0x2c, 0x7e, 0x00,
  0x99, 0x1d, 0x3c, 0x00, 0x9b, 0x1b, 0x7e, 0x01, 0x80, 0x2a, 0x00, 0x00,
  0x89, 0x1d, 0x00, 0x00, 0x89, 0x2c, 0x00, 0x02, 0x97, 0x1b, 0x3c, 0x05,
  0x87, 0x1b, 0x00, 0x10, 0x88, 0x63, 0x00, 0x03, 0x8b, 0x1b, 0x00, 0x02,
  0x81, 0x1b, 0x00, 0x01, 0x98, 0x5b, 0x6a, 0x02, 0x9d, 0x4f, 0x62, 0x0e,
  0x8d, 0x4f, 0x00, 0x02, 0x90, 0x27, 0x64, 0x00, 0x90, 0x2a, 0x5a, 0x00,
  0x90, 0x31, 0x46, 0x00, 0x99, 0x28, 0x7f, 0x00, 0x99, 0x1e, 0x5a, 0x01,
  0x80, 0x31, 0x00, 0x00, 0x80, 0x2a, 0x00, 0x00, 0x80, 0x27, 0x00, 0x00,
  0x97, 0x27, 0x7a, 0x00, 0x89, 0x1e, 0x00, 0x00, 0x89, 0x28, 0x00, 0x02,
  0x97, 0x1b, 0x74, 0x08, 0x87, 0x1b, 0x00, 0x04, 0x87, 0x27, 0x00, 0x05,
  0x83, 0x3f, 0x00, 0x0a, 0x9b, 0x1b, 0x64, 0x0c, 0x8b, 0x1b, 0x00, 0x05,
  0x88, 0x5b, 0x00, 0x01, 0x90, 0x2a, 0x54, 0x00, 0x91, 0x1b, 0x7a, 0x00,
  0x98, 0x5c, 0x4e, 0x00, 0x99, 0x2c, 0x74, 0x00, 0x99, 0x1d, 0x28, 0x00,
  0x9b, 0x1b, 0x7e, 0x00, 0x9d, 0x50, 0x4e, 0x01, 0x80, 0x2a, 0x00, 0x00,
  0x89, 0x1d, 0x00, 0x00, 0x89, 0x2c, 0x00, 0x01, 0x97, 0x1b, 0x64, 0x04,
  0x87, 0x1b, 0x00, 0x0a, 0x8d, 0x50, 0x00, 0x07, 0x8b, 0x1b, 0x00, 0x02,
  0x97, 0x27, 0x74, 0x05, 0x99, 0x24, 0x4a, 0x01, 0x90, 0x26, 0x3a, 0x00,
  0x89, 0x24, 0x00, 0x01, 0x90, 0x2a, 0x34, 0x00, 0x90, 0x27, 0x3c, 0x00,
  0x90, 0x24, 0x7f, 0x01, 0x80, 0x24, 0x00, 0x00, 0x80, 0x27, 0x00, 0x00,
  0x80, 0x2a, 0x00, 0x00, 0x80, 0x26, 0x00, 0x01, 0x81, 0x1b, 0x00, 0x02,
  0x87, 0x27, 0x00, 0x09, 0x88, 0x5c, 0x00, 0x03, 0x90, 0x24, 0x7f, 0x00,
  0x90, 0x2a, 0x42, 0x00, 0x90, 0x31, 0x46, 0x00, 0x91, 0x1b, 0x7e, 0x00,
  0x98, 0x5e, 0x74, 0x00, 0x99, 0x24, 0x6a, 0x00, 0x99, 0x1d, 0x16, 0x00,
  0x9b, 0x1b, 0x7e, 0x01, 0x80, 0x31, 0x00, 0x00, 0x80, 0x2a, 0x00, 0x00,
  0x80, 0x24, 0x00, 0x00, 0x97, 0x1b, 0x3a, 0x00, 0x89, 0x1d, 0x00, 0x00,
  0x89, 0x24, 0x00, 0x00, 0x9d, 0x52, 0x64, 0x04, 0x87, 0x1b, 0x00, 0x0e,
  0x8d, 0x52, 0x00, 0x07, 0x97, 0x27, 0x74, 0x04, 0x90, 0x26, 0x60, 0x01,
  0x80, 0x26, 0x00, 0x04, 0x87, 0x27, 0x00, 0x08, 0xeb, 0x7f, 0x3f, 0x02,
  0xeb, 0x00, 0x3e, 0x02, 0xeb, 0x00, 0x3d, 0x01, 0x90, 0x24, 0x7f, 0x00,
  0x90, 0x2a, 0x64, 0x00, 0x99, 0x24, 0x7e, 0x00, 0x99, 0x2c, 0x7e, 0x00,
  0x99, 0x1d, 0x34, 0x01, 0x80, 0x2a, 0x00, 0x00, 0x80, 0x24, 0x00, 0x00,
  0x97, 0x1b, 0x34, 0x00, 0x89, 0x1d, 0x00, 0x00, 0x89, 0x2c, 0x00, 0x00,
  0x89, 0x24, 0x00, 0x01, 0x81, 0x1b, 0x00, 0x00, 0xeb, 0x7f, 0x3b, 0x02,
  0xeb, 0x00, 0x37, 0x01, 0x87, 0x1b, 0x00, 0x01, 0xeb, 0x7f, 0x34, 0x03,
  0xeb, 0x7f, 0x2f, 0x02, 0xeb, 0x7f, 0x29, 0x03, 0xeb, 0x7f, 0x26, 0x02,
  0xeb, 0x00, 0x22, 0x03, 0xeb, 0x7f, 0x1c, 0x04, 0xeb, 0x00, 0x1a, 0x01,
  0xeb, 0x7f, 0x16, 0x01, 0x97, 0x27, 0x60, 0x02, 0xeb, 0x00, 0x12, 0x01,
  0x88, 0x5e, 0x00, 0x01, 0xeb, 0x00, 0x10, 0x01, 0x98, 0x60, 0x64, 0x02,
  0x87, 0x27, 0x00, 0x00, 0xeb, 0x00, 0x0e, 0x00, 0x9d, 0x54, 0x6a, 0x02,
  0xeb, 0x7f, 0x0e, 0x02, 0x8b, 0x1b, 0x00, 0x0c, 0x90, 0x27, 0x64, 0x00,
  0x90, 0x2a, 0x54, 0x00, 0x90, 0x31, 0x46, 0x00, 0x99, 0x28, 0x7f, 0x00,
  0x99, 0x1e, 0x6a, 0x00, 0x8d, 0x54, 0x00, 0x01, 0x80, 0x31, 0x00, 0x00,
  0x80, 0x2a, 0x00, 0x00, 0x80, 0x27, 0x00, 0x00, 0x89, 0x1e, 0x00, 0x00,
  0x89, 0x28, 0x00, 0x0a, 0xeb, 0x00, 0x40, 0x0e, 0x97, 0x27, 0x64, 0x08,
  0x87, 0x27, 0x00, 0x0e, 0x88, 0x60, 0x00, 0x01, 0x90, 0x2a, 0x62, 0x00,
  0x98, 0x62, 0x6a, 0x00, 0x99, 0x2c, 0x7e, 0x00, 0x99, 0x1d, 0x3a, 0x01,
  0x80, 0x2a, 0x00, 0x00, 0x89, 0x1d, 0x00, 0x00, 0x89, 0x2c, 0x00, 0x00,
  0x9d, 0x56, 0x62, 0x11, 0x8d, 0x56, 0x00, 0x08, 0x97, 0x27, 0x74, 0x05,
  0x90, 0x26, 0x2a, 0x02, 0x80, 0x26, 0x00, 0x02, 0x87, 0x27, 0x00, 0x0a,
  0x85, 0x3f, 0x00, 0x00, 0x85, 0x1b, 0x00, 0x01, 0x88, 0x62, 0x00, 0x02,
  0x90, 0x24, 0x7f, 0x00, 0x90, 0x2a, 0x4e, 0x00, 0x90, 0x31, 0x46, 0x00,
  0x91, 0x1b, 0x7e, 0x00, 0x95, 0x1b, 0x7a, 0x00, 0x98, 0x63, 0x74, 0x00,
  0x99, 0x24, 0x7a, 0x00, 0x99, 0x1d, 0x3a, 0x00, 0x9b, 0x1b, 0x7a, 0x01,
  0x80, 0x31, 0x00, 0x00, 0x80, 0x2a, 0x00, 0x00, 0x80, 0x24, 0x00, 0x00,
  0x89, 0x1d, 0x00, 0x00, 0x89, 0x24, 0x00, 0x01, 0x97, 0x1b, 0x3e, 0x00,
  0x9d, 0x57, 0x6e, 0x03, 0x87, 0x1b, 0x00, 0x10, 0x8d, 0x57, 0x00, 0x05,
  0x97, 0x27, 0x50, 0x04, 0x8b, 0x1b, 0x00, 0x03, 0x87, 0x27, 0x00, 0x02,
  0x81, 0x1b, 0x00, 0x0d, 0x90, 0x2a, 0x64, 0x00, 0x91, 0x1b, 0x7e, 0x00,
  0x99, 0x2c, 0x62, 0x00, 0x99, 0x1d, 0x3c, 0x00, 0x9b, 0x1b, 0x6e, 0x01,
  0x80, 0x2a, 0x00, 0x00, 0x89, 0x1d, 0x00, 0x00, 0x89, 0x2c, 0x00, 0x01,
  0x97, 0x1b, 0x5c, 0x07, 0x87, 0x1b, 0x00, 0x0f, 0x88, 0x63, 0x00, 0x05,
  0x81, 0x1b, 0x00, 0x01, 0x98, 0x5b, 0x6a, 0x03, 0x9d, 0x4f, 0x62, 0x0c,
  0x8b, 0x1b, 0x00, 0x01, 0x8d, 0x4f, 0x00, 0x02, 0x90, 0x27, 0x64, 0x00,
  0x90, 0x2a, 0x38, 0x00, 0x90, 0x31, 0x46, 0x00, 0x99, 0x28, 0x7f, 0x00,
  0x99, 0x1e, 0x5a, 0x01, 0x80, 0x31, 0x00, 0x00, 0x80, 0x2a, 0x00, 0x00,
  0x80, 0x27, 0x00, 0x00, 0x89, 0x1e, 0x00, 0x00, 0x89, 0x28, 0x00, 0x02,
  0x97, 0x1b, 0x7a, 0x00, 0x97, 0x27, 0x7e, 0x0c, 0x87, 0x1b, 0x00, 0x0f,
  0x9b, 0x1b, 0x6e, 0x07, 0x87, 0x27, 0x00, 0x02, 0x88, 0x5b, 0x00, 0x05,
  0x8b, 0x1b, 0x00, 0x04, 0x90, 0x2a, 0x74, 0x00, 0x91, 0x1b, 0x7a, 0x00,
  0x98, 0x5c, 0x58, 0x00, 0x99, 0x2c, 0x5a, 0x00, 0x99, 0x1d, 0x28, 0x00,
  0x9b, 0x1b, 0x58, 0x01, 0x80, 0x2a, 0x00, 0x00, 0x97, 0x1b, 0x64, 0x00,
  0x89, 0x1d, 0x00, 0x00, 0x89, 0x2c, 0x00, 0x01, 0x9d, 0x50, 0x54, 0x06,
  0x87, 0x1b, 0x00, 0x08, 0x8d, 0x50, 0x00, 0x07, 0x8b, 0x1b, 0x00, 0x01,
  0x97, 0x27, 0x6e, 0x07, 0x90, 0x26, 0x42, 0x01, 0x90, 0x2a, 0x38, 0x00,
  0x90, 0x27, 0x3c, 0x01, 0x80, 0x27, 0x00, 0x00, 0x80, 0x2a, 0x00, 0x00,
  0x80, 0x26, 0x00, 0x01, 0x81, 0x1b, 0x00, 0x00, 0x87, 0x27, 0x00, 0x0d,
  0x88, 0x5c, 0x00, 0x01, 0x90, 0x2a, 0x34, 0x00, 0x90, 0x31, 0x46, 0x00,
  0x91, 0x1b, 0x7e, 0x00, 0x98, 0x5e, 0x74, 0x00, 0x99, 0x1d, 0x16, 0x00,
  0x9b, 0x1b, 0x7e, 0x01, 0x80, 0x31, 0x00, 0x00, 0x80, 0x2a, 0x00, 0x00,
  0x89, 0x1d, 0x00, 0x00, 0x9d, 0x52, 0x6a, 0x01, 0x97, 0x1b, 0x44, 0x05,
  0x87, 0x1b, 0x00, 0x0a, 0x8d, 0x52, 0x00, 0x07, 0x88, 0x5e, 0x00, 0x02,
  0x97, 0x27, 0x6a, 0x04, 0x90, 0x26, 0x4a, 0x01, 0x80, 0x26, 0x00, 0x00,
  0x8b, 0x1b, 0x00, 0x04, 0x87, 0x27, 0x00, 0x0d, 0x90, 0x24, 0x7f, 0x00,
  0x90, 0x2a, 0x64, 0x00, 0x99, 0x24, 0x7e, 0x00, 0x99, 0x2c, 0x6a, 0x00,
  0x99, 0x1d, 0x34, 0x01, 0x80, 0x2a, 0x00, 0x00, 0x80, 0x24, 0x00, 0x00,
  0x97, 0x1b, 0x42, 0x00, 0x89, 0x1d, 0x00, 0x00, 0x89, 0x2c, 0x00, 0x00,
  0x89, 0x24, 0x00, 0x01, 0x81, 0x1b, 0x00, 0x04, 0x87, 0x1b, 0x00, 0x18,
  0x9b, 0x27, 0x4a, 0x0b, 0x8b, 0x27, 0x00, 0x06, 0xeb, 0x7f, 0x20, 0x01,
  0x90, 0x27, 0x64, 0x00, 0x90, 0x2a, 0x4e, 0x00, 0x90, 0x26, 0x3a, 0x00,
  0x90, 0x31, 0x46, 0x00, 0x99, 0x28, 0x7f, 0x00, 0x99, 0x1e, 0x6a, 0x00,
  0x9b, 0x29, 0x74, 0x01, 0x80, 0x31, 0x00, 0x00, 0x80, 0x26, 0x00, 0x00,
  0x80, 0x2a, 0x00, 0x00, 0x80, 0x27, 0x00, 0x00, 0x89, 0x1e, 0x00, 0x00,
  0x89, 0x28, 0x00, 0x01, 0x97, 0x27, 0x74, 0x00, 0x97, 0x1b, 0x64, 0x01,
  0xeb, 0x00, 0x1e, 0x02, 0xeb, 0x00, 0x25, 0x02, 0x87, 0x1b, 0x00, 0x01,
  0xeb, 0x7f, 0x32, 0x04, 0xeb, 0x00, 0x39, 0x01, 0x87, 0x27, 0x00, 0x00,
  0xeb, 0x7f, 0x3c, 0x02, 0xeb, 0x00, 0x40, 0x0e, 0x8b, 0x29, 0x00, 0x01,
  0x9b, 0x2b, 0x5a, 0x12, 0x90, 0x2a, 0x6a, 0x00, 0x99, 0x2c, 0x7e, 0x00,
  0x99, 0x1d, 0x3a, 0x00, 0x9b, 0x27, 0x6a, 0x01, 0x80, 0x2a, 0x00, 0x00,
  0x89, 0x1d, 0x00, 0x00, 0x89, 0x2c, 0x00, 0x01, 0x97, 0x1b, 0x58, 0x04,
  0x8b, 0x2b, 0x00, 0x00, 0xeb, 0x00, 0x3f, 0x01, 0x87, 0x1b, 0x00, 0x02,
  0xeb, 0x7f, 0x3e, 0x02, 0xeb, 0x7f, 0x3d, 0x03, 0xeb, 0x00, 0x3c, 0x02,
  0xeb, 0x00, 0x3b, 0x03, 0xeb, 0x00, 0x39, 0x03, 0xeb, 0x7f, 0x35, 0x04,
  0x97, 0x27, 0x6e, 0x00, 0xeb, 0x7f, 0x33, 0x02, 0xeb, 0x7f, 0x2d, 0x02,
  0x85, 0x1b, 0x00, 0x00, 0xeb, 0x00, 0x23, 0x01, 0x90, 0x26, 0x3e, 0x01,
  0xeb, 0x00, 0x1e, 0x01, 0x80, 0x26, 0x00, 0x02, 0xeb, 0x00, 0x16, 0x01,
  0x87, 0x27, 0x00, 0x02, 0x8b, 0x27, 0x00, 0x00, 0xeb, 0x7f, 0x0f, 0x03,
  0xeb, 0x7f, 0x10, 0x03, 0xeb, 0x00, 0x1c, 0x03, 0xeb, 0x00, 0x2e, 0x01,
  0x90, 0x24, 0x7f, 0x00, 0x90, 0x2a, 0x42, 0x00, 0x90, 0x31, 0x46, 0x00,
  0x91, 0x1b, 0x7a, 0x00, 0x98, 0x63, 0x6e, 0x00, 0x99, 0x24, 0x7e, 0x00,
  0x99, 0x1d, 0x3a, 0x00, 0x99, 0x37, 0x74, 0x00, 0x9b, 0x1b, 0x7a, 0x01,
  0x80, 0x31, 0x00, 0x00, 0x80, 0x2a, 0x00, 0x00, 0x80, 0x24, 0x00, 0x00,
  0x95, 0x3b, 0x7e, 0x00, 0x89, 0x37, 0x00, 0x00, 0x89, 0x1d, 0x00, 0x00,
  0x89, 0x24, 0x00, 0x01, 0x95, 0x3f, 0x7e, 0x00, 0x95, 0x36, 0x7a, 0x00,
  0x97, 0x1b, 0x64, 0x02, 0xeb, 0x00, 0x37, 0x02, 0xeb, 0x7f, 0x3b, 0x02,
  0x87, 0x1b, 0x00, 0x00, 0xeb, 0x7f, 0x3d, 0x03, 0xeb, 0x7f, 0x3e, 0x03,
  0xeb, 0x00, 0x3f, 0x02, 0xeb, 0x00, 0x40, 0x06, 0x8b, 0x1b, 0x00, 0x03,
  0x97, 0x27, 0x4e, 0x06, 0x87, 0x27, 0x00, 0x03, 0x81, 0x1b, 0x00, 0x0e,
  0x90, 0x2a, 0x64, 0x00, 0x91, 0x1b, 0x7e, 0x00, 0x99, 0x2c, 0x7e, 0x00,
  0x99, 0x1d, 0x3c, 0x00, 0x9b, 0x1b, 0x7a, 0x01, 0x80, 0x2a, 0x00, 0x00,
  0x97, 0x1b, 0x58, 0x00, 0x89, 0x1d, 0x00, 0x00, 0x89, 0x2c, 0x00, 0x06,
  0x87, 0x1b, 0x00, 0x08, 0x88, 0x63, 0x00, 0x0a, 0x8b, 0x1b, 0x00, 0x05,
  0x98, 0x5a, 0x74, 0x01, 0x81, 0x1b, 0x00, 0x11, 0x90, 0x27, 0x62, 0x00,
  0x90, 0x2a, 0x4e, 0x00, 0x90, 0x31, 0x46, 0x00, 0x99, 0x28, 0x7f, 0x00,
  0x99, 0x1e, 0x5a, 0x01, 0x80, 0x31, 0x00, 0x00, 0x80, 0x2a, 0x00, 0x00,
  0x80, 0x27, 0x00, 0x00, 0x97, 0x27, 0x7e, 0x00, 0x89, 0x1e, 0x00, 0x00,
  0x89, 0x28, 0x00, 0x01, 0x97, 0x1b, 0x74, 0x16, 0x87, 0x1b, 0x00, 0x0d,
  0x87, 0x27, 0x00, 0x0a, 0x88, 0x5a, 0x00, 0x01, 0x90, 0x2a, 0x5a, 0x00,
  0x91, 0x1b, 0x74, 0x00, 0x98, 0x5c, 0x58, 0x00, 0x99, 0x2c, 0x6a, 0x00,
  0x99, 0x1d, 0x24, 0x00, 0x9b, 0x1b, 0x7e, 0x01, 0x80, 0x2a, 0x00, 0x00,
  0x89, 0x1d, 0x00, 0x00, 0x89, 0x2c, 0x00, 0x01, 0x97, 0x1b, 0x60, 0x07,
  0x87, 0x1b, 0x00, 0x0e, 0x8b, 0x1b, 0x00, 0x04, 0x97, 0x27, 0x6e, 0x01,
  0x85, 0x36, 0x00, 0x00, 0x85, 0x3f, 0x00, 0x02, 0x81, 0x1b, 0x00, 0x01,
  0x90, 0x26, 0x38, 0x00, 0x85, 0x3b, 0x00, 0x01, 0x90, 0x2a, 0x3c, 0x00,
  0x90, 0x27, 0x3c, 0x01, 0x80, 0x27, 0x00, 0x00, 0x80, 0x2a, 0x00, 0x00,
  0x80, 0x26, 0x00, 0x05, 0x87, 0x27, 0x00, 0x09, 0x88, 0x5c, 0x00, 0x01,
  0x90, 0x2a, 0x42, 0x00, 0x90, 0x31, 0x46, 0x00, 0x91, 0x1b, 0x7a, 0x00,
  0x95, 0x3f, 0x74, 0x00, 0x98, 0x5e, 0x74, 0x00, 0x99, 0x1d, 0x34, 0x00,
  0x9a, 0x52, 0x7e, 0x00, 0x9b, 0x1b, 0x7e, 0x01, 0x80, 0x31, 0x00, 0x00,
  0x80, 0x2a, 0x00, 0x00, 0x95, 0x3c, 0x7a, 0x00, 0x89, 0x1d, 0x00, 0x01,
  0x95, 0x38, 0x7e, 0x01, 0x97, 0x1b, 0x3e, 0x03, 0x87, 0x1b, 0x00, 0x14,
  0x97, 0x27, 0x6e, 0x04, 0x90, 0x26, 0x44, 0x01, 0x80, 0x26, 0x00, 0x02,
  0xeb, 0x00, 0x3f, 0x03, 0x87, 0x27, 0x00, 0x01, 0xeb, 0x00, 0x3d, 0x02,
  0xeb, 0x00, 0x3c, 0x01, 0xeb, 0x00, 0x37, 0x03, 0xeb, 0x7f, 0x31, 0x02,
  0xeb, 0x00, 0x2f, 0x03, 0x90, 0x24, 0x7f, 0x00, 0x90, 0x2a, 0x64, 0x00,
  0x99, 0x24, 0x7a, 0x00, 0x99, 0x2c, 0x6a, 0x00, 0x99, 0x1d, 0x3a, 0x00,
  0xeb, 0x00, 0x2b, 0x01, 0x80, 0x2a, 0x00, 0x00, 0x80, 0x24, 0x00, 0x00,
  0x89, 0x1d, 0x00, 0x00, 0x89, 0x2c, 0x00, 0x00, 0x89, 0x24, 0x00, 0x01,
  0x81, 0x1b, 0x00, 0x00, 0x97, 0x1b, 0x34, 0x02, 0xeb, 0x00, 0x25, 0x01,
  0xeb, 0x00, 0x22, 0x03, 0xeb, 0x00, 0x1c, 0x02, 0xeb, 0x00, 0x14, 0x03,
  0x87, 0x1b, 0x00, 0x00, 0xeb, 0x00, 0x10, 0x02, 0x8b, 0x1b, 0x00, 0x00,
  0xeb, 0x00, 0x0a, 0x03, 0xeb, 0x7f, 0x05, 0x03, 0xeb, 0x7f, 0x03, 0x03,
  0x88, 0x5e, 0x00, 0x00, 0xeb, 0x00, 0x03, 0x06, 0x98, 0x60, 0x6a, 0x0e,
  0xeb, 0x00, 0x40, 0x04, 0x90, 0x27, 0x64, 0x00, 0x90, 0x2a, 0x48, 0x00,
  0x90, 0x31, 0x46, 0x00, 0x99, 0x28, 0x7f, 0x00, 0x99, 0x1e, 0x54, 0x00,
  0x9b, 0x27, 0x7a, 0x01, 0x80, 0x31, 0x00, 0x00, 0x80, 0x2a, 0x00, 0x00,
  0x80, 0x27, 0x00, 0x00, 0x97, 0x27, 0x7e, 0x00, 0x97, 0x1b, 0x5c, 0x00,
  0x89, 0x1e, 0x00, 0x00, 0x89, 0x28, 0x00, 0x01, 0x97, 0x1d, 0x64, 0x0f,
  0x87, 0x1d, 0x00, 0x09, 0x87, 0x1b, 0x00, 0x04, 0x9b, 0x29, 0x5c, 0x03,
  0x8b, 0x27, 0x00, 0x0c, 0x87, 0x27, 0x00, 0x02, 0x88, 0x60, 0x00, 0x00,
  0x8b, 0x29, 0x00, 0x01, 0x90, 0x2a, 0x74, 0x00, 0x98, 0x62, 0x6a, 0x00,
  0x99, 0x2c, 0x6a, 0x00, 0x99, 0x1d, 0x16, 0x00, 0x9b, 0x2b, 0x74, 0x01,
  0x80, 0x2a, 0x00, 0x00, 0x89, 0x1d, 0x00, 0x00, 0x89, 0x2c, 0x00, 0x01,
  0x97, 0x1b, 0x44, 0x08, 0xeb, 0x00, 0x3f, 0x03, 0xeb, 0x7f, 0x3e, 0x01,
  0x87, 0x1b, 0x00, 0x03, 0xeb, 0x00, 0x3a, 0x01, 0xeb, 0x7f, 0x2f, 0x03,
  0xeb, 0x00, 0x21, 0x02, 0x85, 0x3f, 0x00, 0x00, 0x85, 0x38, 0x00, 0x00,
  0xeb, 0x7f, 0x19, 0x03, 0x97, 0x27, 0x6e, 0x00, 0xeb, 0x00, 0x0e, 0x02,
  0x8a, 0x52, 0x00, 0x01, 0xeb, 0x7f, 0x07, 0x01, 0x85, 0x3c, 0x00, 0x01,
  0x90, 0x26, 0x30, 0x00, 0xeb, 0x00, 0x04, 0x02, 0x80, 0x26, 0x00, 0x01,
  0xeb, 0x7f, 0x02, 0x04, 0x87, 0x27, 0x00, 0x00, 0xeb, 0x00, 0x03, 0x03,
  0x88, 0x62, 0x00, 0x00, 0xeb, 0x00, 0x04, 0x01, 0x8b, 0x2b, 0x00, 0x00,
  0xeb, 0x7f, 0x07, 0x03, 0xeb, 0x7f, 0x12, 0x02, 0xeb, 0x7f, 0x22, 0x01,
  0x90, 0x24, 0x7f, 0x00, 0x90, 0x31, 0x4e, 0x00, 0x91, 0x22, 0x7a, 0x00,
  0x97, 0x1b, 0x64, 0x00, 0x99, 0x24, 0x7e, 0x00, 0x99, 0x2a, 0x7e, 0x00,
  0x99, 0x37, 0x7e, 0x00, 0x9b, 0x22, 0x6e, 0x01, 0x80, 0x31, 0x00, 0x00,
  0x80, 0x24, 0x00, 0x00, 0x89, 0x37, 0x00, 0x00, 0x89, 0x2a, 0x00, 0x00,
  0x89, 0x24, 0x00, 0x01, 0x95, 0x3a, 0x7e, 0x00, 0x95, 0x3e, 0x7e, 0x00,
  0xeb, 0x00, 0x31, 0x01, 0x95, 0x35, 0x7e, 0x02, 0xeb, 0x7f, 0x38, 0x04,
  0xeb, 0x00, 0x3c, 0x01, 0xeb, 0x00, 0x3e, 0x01, 0x87, 0x1b, 0x00, 0x02,
  0xeb, 0x00, 0x3f, 0x02, 0xeb, 0x00, 0x40, 0x0a, 0x97, 0x27, 0x6a, 0x05,
  0x99, 0x30, 0x7a, 0x01, 0x89, 0x30, 0x00, 0x02, 0x95, 0x46, 0x7e, 0x04,
  0x87, 0x27, 0x00, 0x0b, 0x90, 0x31, 0x42, 0x00, 0x99, 0x2a, 0x7e, 0x01,
  0x80, 0x31, 0x00, 0x00, 0x89, 0x2a, 0x00, 0x0d, 0x95, 0x3c, 0x60, 0x07,
  0x95, 0x48, 0x6e, 0x03, 0x85, 0x46, 0x00, 0x06, 0x99, 0x2f, 0x60, 0x01,
  0x89, 0x2f, 0x00, 0x11, 0x90, 0x27, 0x64, 0x00, 0x90, 0x2a, 0x62, 0x00,
  0x90, 0x31, 0x4e, 0x00, 0x85, 0x3e, 0x00, 0x00, 0x99, 0x28, 0x7f, 0x00,
  0x99, 0x2a, 0x7e, 0x00, 0x99, 0x2d, 0x74, 0x01, 0x80, 0x31, 0x00, 0x00,
  0x80, 0x2a, 0x00, 0x00, 0x80, 0x27, 0x00, 0x00, 0x89, 0x2d, 0x00, 0x00,
  0x89, 0x2a, 0x00, 0x00, 0x89, 0x28, 0x00, 0x01, 0x85, 0x3c, 0x00, 0x00,
  0x95, 0x3e, 0x7e, 0x00, 0x97, 0x2e, 0x6a, 0x00, 0x97, 0x29, 0x64, 0x00,
  0x97, 0x22, 0x7e, 0x01, 0x95, 0x4a, 0x7e, 0x04, 0x85, 0x48, 0x00, 0x16,
  0x87, 0x22, 0x00, 0x01, 0x99, 0x2d, 0x60, 0x01, 0x85, 0x4a, 0x00, 0x00,
  0x89, 0x2d, 0x00, 0x01, 0x87, 0x29, 0x00, 0x01, 0x95, 0x3f, 0x6e, 0x00,
  0x87, 0x2e, 0x00, 0x04, 0x95, 0x4b, 0x60, 0x02, 0x81, 0x22, 0x00, 0x09,
  0x90, 0x2a, 0x5a, 0x00, 0x90, 0x31, 0x30, 0x00, 0x99, 0x2a, 0x7e, 0x01,
  0x80, 0x31, 0x00, 0x00, 0x80, 0x2a, 0x00, 0x00, 0x89, 0x2a, 0x00, 0x11,
  0x85, 0x3f, 0x00, 0x03, 0x95, 0x41, 0x74, 0x01, 0x95, 0x4d, 0x6a, 0x04,
  0x97, 0x2e, 0x5c, 0x00, 0x97, 0x29, 0x74, 0x03, 0x85, 0x4b, 0x00, 0x01,
  0x99, 0x2b, 0x4e, 0x01, 0x90, 0x26, 0x3c, 0x00, 0x89, 0x2b, 0x00, 0x01,
  0x90, 0x2a, 0x30, 0x00, 0x90, 0x27, 0x3c, 0x01, 0x80, 0x27, 0x00, 0x00,
  0x80, 0x2a, 0x00, 0x00, 0x80, 0x26, 0x00, 0x01, 0x87, 0x29, 0x00, 0x00,
  0x87, 0x2e, 0x00, 0x0e, 0x90, 0x2a, 0x3c, 0x00, 0x90, 0x31, 0x48, 0x00,
  0x99, 0x2a, 0x7e, 0x00, 0x99, 0x29, 0x6e, 0x01, 0x80, 0x31, 0x00, 0x00,
  0x80, 0x2a, 0x00, 0x00, 0x89, 0x29, 0x00, 0x00, 0x89, 0x2a, 0x00, 0x03,
  0x85, 0x41, 0x00, 0x03, 0x95, 0x43, 0x74, 0x03, 0x95, 0x4f, 0x7e, 0x04,
  0x85, 0x4d, 0x00, 0x0c, 0x97, 0x29, 0x46, 0x04, 0x90, 0x26, 0x58, 0x00,
  0x99, 0x29, 0x60, 0x01, 0x80, 0x26, 0x00, 0x00, 0x89, 0x29, 0x00, 0x01,
  0x87, 0x29, 0x00, 0x02, 0x85, 0x4f, 0x00, 0x02, 0x85, 0x43, 0x00, 0x01,
  0x95, 0x44, 0x6e, 0x01, 0x95, 0x50, 0x74, 0x0a, 0x90, 0x24, 0x7f, 0x00,
  0x90, 0x2a, 0x64, 0x00, 0x90, 0x31, 0x48, 0x00, 0x99, 0x24, 0x7e, 0x00,
  0x99, 0x2a, 0x7e, 0x01, 0x80, 0x31, 0x00, 0x00, 0x80, 0x2a, 0x00, 0x00,
  0x80, 0x24, 0x00, 0x00, 0x89, 0x2a, 0x00, 0x00, 0x89, 0x24, 0x00, 0x13,
  0x95, 0x52, 0x74, 0x00, 0x95, 0x46, 0x6e, 0x01, 0x85, 0x44, 0x00, 0x04,
  0x97, 0x29, 0x6a, 0x03, 0x85, 0x50, 0x00, 0x02, 0x99, 0x2b, 0x54, 0x01,
  0x87, 0x29, 0x00, 0x00, 0x89, 0x2b, 0x00, 0x11, 0x90, 0x27, 0x64, 0x00,
  0x90, 0x2a, 0x62, 0x00, 0x90, 0x26, 0x0c, 0x00, 0x90, 0x31, 0x5a, 0x00,
  0x99, 0x28, 0x7f, 0x00, 0x99, 0x2a, 0x7e, 0x00, 0x99, 0x29, 0x74, 0x01,
  0x80, 0x31, 0x00, 0x00, 0x80, 0x26, 0x00, 0x00, 0x80, 0x2a, 0x00, 0x00,
  0x80, 0x27, 0x00, 0x00, 0x89, 0x29, 0x00, 0x00, 0x89, 0x2a, 0x00, 0x00,
  0x89, 0x28, 0x00, 0x01, 0x97, 0x22, 0x3a, 0x01, 0x95, 0x48, 0x74, 0x02,
  0x95, 0x54, 0x7a, 0x03, 0x87, 0x22, 0x00, 0x02, 0x85, 0x52, 0x00, 0x00,
  0x85, 0x46, 0x00, 0x0f, 0x97, 0x29, 0x6a, 0x00, 0x97, 0x2e, 0x42, 0x06,
  0x87, 0x2e, 0x00, 0x02, 0x87, 0x29, 0x00, 0x0d, 0x85, 0x54, 0x00, 0x02,
  0x90, 0x2a, 0x64, 0x00, 0x90, 0x31, 0x42, 0x00, 0x85, 0x48, 0x00, 0x00,
  0x99, 0x2a, 0x7e, 0x00, 0x99, 0x29, 0x64, 0x01, 0x80, 0x31, 0x00, 0x00,
  0x80, 0x2a, 0x00, 0x00, 0x89, 0x29, 0x00, 0x00, 0x89, 0x2a, 0x00, 0x01,
  0x95, 0x56, 0x74, 0x00, 0x95, 0x4a, 0x7e, 0x01, 0x97, 0x22, 0x58, 0x04,
  0x87, 0x22, 0x00, 0x10, 0x85, 0x3a, 0x00, 0x01, 0x85, 0x3e, 0x00, 0x00,
  0x85, 0x35, 0x00, 0x02, 0x97, 0x29, 0x6a, 0x05, 0x90, 0x26, 0x3e, 0x02,
  0x80, 0x26, 0x00, 0x01, 0x87, 0x29, 0x00, 0x0d, 0x85, 0x4a, 0x00, 0x00,
  0x85, 0x56, 0x00, 0x01, 0x90, 0x24, 0x7f, 0x00, 0x90, 0x2a, 0x4e, 0x00,
  0x90, 0x31, 0x46, 0x00, 0x91, 0x27, 0x7e, 0x00, 0x92, 0x27, 0x7e, 0x00,
  0x99, 0x24, 0x7a, 0x00, 0x99, 0x1d, 0x3a, 0x00, 0x99, 0x37, 0x7e, 0x00,
  0x9e, 0x3f, 0x6e, 0x01, 0x80, 0x31, 0x00, 0x00, 0x80, 0x2a, 0x00, 0x00,
  0x80, 0x24, 0x00, 0x00, 0x95, 0x3f, 0x7e, 0x00, 0x89, 0x37, 0x00, 0x00,
  0x89, 0x1d, 0x00, 0x00, 0x89, 0x24, 0x00, 0x00, 0x9e, 0x46, 0x7a, 0x01,
  0x95, 0x4b, 0x74, 0x00, 0x96, 0x43, 0x74, 0x00, 0x96, 0x4b, 0x7a, 0x00,
  0x96, 0x46, 0x6e, 0x00, 0x9e, 0x43, 0x7e, 0x01, 0x95, 0x46, 0x7e, 0x00,
  0x95, 0x57, 0x7a, 0x00, 0x95, 0x43, 0x7e, 0x04, 0x8b, 0x22, 0x00, 0x29,
  0x90, 0x2a, 0x64, 0x00, 0x99, 0x2c, 0x62, 0x00, 0x99, 0x1d, 0x3c, 0x01,
  0x80, 0x2a, 0x00, 0x00, 0x89, 0x1d, 0x00, 0x00, 0x89, 0x2c, 0x00, 0x06,
  0x85, 0x4b, 0x00, 0x21, 0x8e, 0x3f, 0x00, 0x01, 0x8e, 0x46, 0x00, 0x02,
  0x8e, 0x43, 0x00, 0x01, 0xe8, 0x00, 0x07, 0x02, 0x85, 0x57, 0x00, 0x02,
  0x90, 0x27, 0x64, 0x00, 0x90, 0x2a, 0x38, 0x00, 0x90, 0x31, 0x46, 0x00,
  0x98, 0x5e, 0x7f, 0x00, 0x99, 0x28, 0x7f, 0x00, 0x99, 0x1e, 0x5a, 0x01,
  0x80, 0x31, 0x00, 0x00, 0x80, 0x2a, 0x00, 0x00, 0x80, 0x27, 0x00, 0x00,
  0x94, 0x46, 0x74, 0x00, 0x94, 0x43, 0x74, 0x00, 0x89, 0x1e, 0x00, 0x00,
  0x89, 0x28, 0x00, 0x01, 0x94, 0x4b, 0x74, 0x02, 0xe8, 0x00, 0x02, 0x04,
  0xe8, 0x7f, 0x03, 0x02, 0xe8, 0x7f, 0x04, 0x03, 0xe8, 0x00, 0x0c, 0x02,
  0xe8, 0x7f, 0x1e, 0x03, 0xe8, 0x7f, 0x27, 0x03, 0xe8, 0x7f, 0x33, 0x02,
  0xe8, 0x7f, 0x39, 0x03, 0xe8, 0x7f, 0x3c, 0x02, 0xe8, 0x00, 0x40, 0x13,
  0x88, 0x5e, 0x00, 0x01, 0x90, 0x2a, 0x74, 0x00, 0x98, 0x5c, 0x7f, 0x00,
  0x99, 0x2c, 0x5a, 0x00, 0x99, 0x1d, 0x28, 0x01, 0x80, 0x2a, 0x00, 0x00,
  0x89, 0x1d, 0x00, 0x00, 0x89, 0x2c, 0x00, 0x04, 0x85, 0x3f, 0x00, 0x06,
  0x85, 0x43, 0x00, 0x03, 0x88, 0x5c, 0x00, 0x08, 0x85, 0x46, 0x00, 0x09,
  0x90, 0x26, 0x42, 0x01, 0x90, 0x2a, 0x38, 0x00, 0x90, 0x27, 0x3c, 0x01,
  0x80, 0x27, 0x00, 0x00, 0x80, 0x2a, 0x00, 0x00, 0x80, 0x26, 0x00, 0x08,
  0x82, 0x27, 0x00, 0x01, 0xe8, 0x00, 0x0f, 0x01, 0x81, 0x27, 0x00, 0x03,
  0x86, 0x43, 0x00, 0x00, 0x86, 0x4b, 0x00, 0x02, 0x90, 0x2a, 0x34, 0x00,
  0x90, 0x31, 0x46, 0x00, 0x91, 0x26, 0x7e, 0x00, 0x92, 0x26, 0x7e, 0x00,
  0x98, 0x5c, 0x7f, 0x00, 0x99, 0x1d, 0x16, 0x01, 0x80, 0x31, 0x00, 0x00,
  0x80, 0x2a, 0x00, 0x00, 0x95, 0x46, 0x74, 0x00, 0x95, 0x3e, 0x7e, 0x00,
  0x96, 0x4a, 0x7e, 0x00, 0x89, 0x1d, 0x00, 0x01, 0x95, 0x41, 0x7a, 0x00,
  0x96, 0x4d, 0x6a, 0x02, 0xe8, 0x00, 0x05, 0x03, 0xe8, 0x00, 0x04, 0x02,
  0xe8, 0x00, 0x0d, 0x02, 0xe8, 0x00, 0x25, 0x03, 0xe8, 0x7f, 0x30, 0x02,
  0xe8, 0x00, 0x38, 0x03, 0xe8, 0x00, 0x3c, 0x02, 0xe8, 0x00, 0x40, 0x01,
  0x84, 0x43, 0x00, 0x04, 0x84, 0x46, 0x00, 0x00, 0x84, 0x4b, 0x00, 0x04,
  0x90, 0x26, 0x4a, 0x01, 0x80, 0x26, 0x00, 0x10, 0x88, 0x5c, 0x00, 0x01,
  0x90, 0x24, 0x7f, 0x00, 0x90, 0x2a, 0x64, 0x00, 0x98, 0x5b, 0x7f, 0x00,
  0x99, 0x24, 0x7e, 0x00, 0x99, 0x2c, 0x6a, 0x00, 0x99, 0x1d, 0x34, 0x01,
  0x80, 0x2a, 0x00, 0x00, 0x80, 0x24, 0x00, 0x00, 0x89, 0x1d, 0x00, 0x00,
  0x89, 0x2c, 0x00, 0x00, 0x89, 0x24, 0x00, 0x10, 0x88, 0x5b, 0x00, 0x1f,
  0x90, 0x27, 0x64, 0x00, 0x90, 0x2a, 0x4e, 0x00, 0x90, 0x26, 0x3a, 0x00,
  0x90, 0x31, 0x46, 0x00, 0xe8, 0x7f, 0x04, 0x00, 0x98, 0x5b, 0x7f, 0x00,
  0x99, 0x28, 0x7f, 0x00, 0x99, 0x1e, 0x6a, 0x01, 0x80, 0x31, 0x00, 0x00,
  0x80, 0x26, 0x00, 0x00, 0x80, 0x2a, 0x00, 0x00, 0x80, 0x27, 0x00, 0x00,
  0x89, 0x1e, 0x00, 0x00, 0x89, 0x28, 0x00, 0x01, 0x94, 0x44, 0x60, 0x01,
  0x94, 0x41, 0x6e, 0x00, 0xe8, 0x7f, 0x0d, 0x02, 0xe8, 0x00, 0x21, 0x03,
  0xe8, 0x7f, 0x30, 0x03, 0xe8, 0x00, 0x38, 0x02, 0xe8, 0x00, 0x40, 0x15,
  0x85, 0x41, 0x00, 0x04, 0x85, 0x3e, 0x00, 0x09, 0x88, 0x5b, 0x00, 0x01,
  0x90, 0x2a, 0x6a, 0x00, 0x84, 0x41, 0x00, 0x00, 0x84, 0x44, 0x00, 0x00,
  0x98, 0x59, 0x7f, 0x00, 0x99, 0x2c, 0x7e, 0x00, 0x99, 0x1d, 0x3a, 0x01,
  0x80, 0x2a, 0x00, 0x00, 0x94, 0x46, 0x60, 0x00, 0x89, 0x1d, 0x00, 0x00,
  0x89, 0x2c, 0x00, 0x13, 0x88, 0x59, 0x00, 0x04, 0x84, 0x46, 0x00, 0x00,
  0x94, 0x43, 0x74, 0x01, 0x94, 0x3f, 0x60, 0x06, 0x90, 0x26, 0x3e, 0x00,
  0x85, 0x46, 0x00, 0x02, 0x80, 0x26, 0x00, 0x0b, 0x82, 0x26, 0x00, 0x01,
  0x81, 0x26, 0x00, 0x00, 0x86, 0x4a, 0x00, 0x01, 0x86, 0x4d, 0x00, 0x00,
  0x86, 0x46, 0x00, 0x02, 0x90, 0x24, 0x7f, 0x00, 0x90, 0x2a, 0x42, 0x00,
  0x90, 0x31, 0x46, 0x00, 0x91, 0x24, 0x7e, 0x00, 0x92, 0x24, 0x7e, 0x00,
  0x96, 0x4b, 0x6e, 0x00, 0x99, 0x24, 0x7e, 0x00, 0x99, 0x1d, 0x3a, 0x01,
  0x80, 0x31, 0x00, 0x00, 0x80, 0x2a, 0x00, 0x00, 0x80, 0x24, 0x00, 0x00,
  0x96, 0x48, 0x7a, 0x00, 0x89, 0x1d, 0x00, 0x00, 0x89, 0x24, 0x00, 0x01,
  0x95, 0x3f, 0x7a, 0x00, 0x96, 0x43, 0x7e, 0x01, 0x95, 0x43, 0x7e, 0x00,
  0x95, 0x48, 0x7e, 0x2d, 0x90, 0x2a, 0x64, 0x00, 0x99, 0x2c, 0x7e, 0x00,
  0x99, 0x1d, 0x3c, 0x01, 0x80, 0x2a, 0x00, 0x00, 0x89, 0x1d, 0x00, 0x00,
  0x89, 0x2c, 0x00, 0x19, 0x84, 0x3f, 0x00, 0x02, 0x84, 0x43, 0x00, 0x13,
  0xe8, 0x00, 0x00, 0x01, 0x90, 0x27, 0x62, 0x00, 0x90, 0x2a, 0x4e, 0x00,
  0x90, 0x31, 0x46, 0x00, 0x98, 0x5e, 0x7f, 0x00, 0x99, 0x28, 0x7f, 0x00,
  0x99, 0x1e, 0x5a, 0x01, 0x80, 0x31, 0x00, 0x00, 0x80, 0x2a, 0x00, 0x00,
  0x80, 0x27, 0x00, 0x00, 0x89, 0x1e, 0x00, 0x00, 0x89, 0x28, 0x00, 0x07,
  0xe8, 0x7f, 0x03, 0x02, 0xe8, 0x7f, 0x04, 0x03, 0xe8, 0x00, 0x0c, 0x02,
  0xe8, 0x7f, 0x1e, 0x03, 0xe8, 0x7f, 0x27, 0x03, 0xe8, 0x7f, 0x33, 0x02,
  0xe8, 0x7f, 0x39, 0x03, 0xe8, 0x7f, 0x3c, 0x02, 0xe8, 0x00, 0x40, 0x13,
  0x88, 0x5e, 0x00, 0x01, 0x90, 0x2a, 0x5a, 0x00, 0x98, 0x5c, 0x7f, 0x00,
  0x99, 0x2c, 0x6a, 0x00, 0x99, 0x1d, 0x24, 0x01, 0x80, 0x2a, 0x00, 0x00,
  0x89, 0x1d, 0x00, 0x00, 0x89, 0x2c, 0x00, 0x0d, 0x88, 0x5c, 0x00, 0x11,
  0x90, 0x26, 0x38, 0x01, 0x90, 0x2a, 0x3c, 0x00, 0x90, 0x27, 0x3c, 0x01,
  0x80, 0x27, 0x00, 0x00, 0x80, 0x2a, 0x00, 0x00, 0x80, 0x26, 0x00, 0x0e,
  0xe8, 0x00, 0x0f, 0x01, 0x90, 0x2a, 0x42, 0x00, 0x90, 0x31, 0x46, 0x00,
  0x94, 0x43, 0x7e, 0x00, 0x98, 0x5c, 0x7f, 0x00, 0x99, 0x1d, 0x34, 0x01,
  0x80, 0x31, 0x00, 0x00, 0x80, 0x2a, 0x00, 0x00, 0x94, 0x3c, 0x74, 0x00,
  0x89, 0x1d, 0x00, 0x03, 0xe8, 0x00, 0x05, 0x03, 0xe8, 0x00, 0x04, 0x02,
  0xe8, 0x00, 0x0d, 0x02, 0xe8, 0x00, 0x25, 0x03, 0xe8, 0x7f, 0x30, 0x02,
  0xe8, 0x00, 0x38, 0x03, 0xe8, 0x00, 0x40, 0x01, 0x84, 0x43, 0x00, 0x01,
  0x84, 0x3c, 0x00, 0x04, 0x94, 0x3f, 0x64, 0x01, 0x94, 0x46, 0x6a, 0x04,
  0x90, 0x26, 0x44, 0x01, 0x80, 0x26, 0x00, 0x06, 0x84, 0x3f, 0x00, 0x01,
  0x84, 0x46, 0x00, 0x09, 0x88, 0x5c, 0x00, 0x01, 0x90, 0x24, 0x7f, 0x00,
  0x90, 0x2a, 0x64, 0x00, 0x98, 0x5b, 0x7f, 0x00, 0x99, 0x24, 0x7a, 0x00,
  0x99, 0x2c, 0x6a, 0x00, 0x99, 0x1d, 0x3a, 0x01, 0x80, 0x2a, 0x00, 0x00,
  0x80, 0x24, 0x00, 0x00, 0x89, 0x1d, 0x00, 0x00, 0x89, 0x2c, 0x00, 0x00,
  0x89, 0x24, 0x00, 0x10, 0x88, 0x5b, 0x00, 0x07, 0x94, 0x43, 0x7e, 0x01,
  0x94, 0x3c, 0x74, 0x17, 0x90, 0x27, 0x64, 0x00, 0x90, 0x2a, 0x48, 0x00,
  0x90, 0x31, 0x46, 0x00, 0x84, 0x43, 0x00, 0x00, 0xe8, 0x7f, 0x04, 0x00,
  0x98, 0x5b, 0x7f, 0x00, 0x99, 0x28, 0x7f, 0x00, 0x99, 0x1e, 0x54, 0x01,
  0x80, 0x31, 0x00, 0x00, 0x80, 0x2a, 0x00, 0x00, 0x80, 0x27, 0x00, 0x00,
  0x89, 0x1e, 0x00, 0x00, 0x89, 0x28, 0x00, 0x02, 0x84, 0x3c, 0x00, 0x00,
  0xe8, 0x7f, 0x0d, 0x02, 0xe8, 0x00, 0x21, 0x03, 0xe8, 0x7f, 0x30, 0x01,
  0x85, 0x48, 0x00, 0x01, 0x85, 0x43, 0x00, 0x01, 0xe8, 0x00, 0x38, 0x02,
  0x85, 0x3f, 0x00, 0x00, 0xe8, 0x00, 0x40, 0x0b, 0x94, 0x3f, 0x64, 0x03,
  0x94, 0x46, 0x6a, 0x0b, 0x84, 0x3f, 0x00, 0x05, 0x84, 0x46, 0x00, 0x04,
  0x88, 0x5b, 0x00, 0x01, 0x90, 0x2a, 0x74, 0x00, 0x98, 0x59, 0x7f, 0x00,
  0x99, 0x2c, 0x6a, 0x00, 0x99, 0x1d, 0x16, 0x01, 0x80, 0x2a, 0x00, 0x00,
  0x89, 0x1d, 0x00, 0x00, 0x89, 0x2c, 0x00, 0x13, 0x88, 0x59, 0x00, 0x05,
  0x94, 0x3c, 0x74, 0x01, 0x94, 0x43, 0x6a, 0x03, 0x81, 0x24, 0x00, 0x02,
  0x90, 0x26, 0x30, 0x02, 0x80, 0x26, 0x00, 0x0b, 0x86, 0x4b, 0x00, 0x01,
  0x86, 0x48, 0x00, 0x01, 0x86, 0x43, 0x00, 0x01, 0x82, 0x24, 0x00, 0x00,
  0xe8, 0x7f, 0x10, 0x01, 0x90, 0x24, 0x7f, 0x00, 0x90, 0x2a, 0x3c, 0x00,
  0x90, 0x31, 0x46, 0x00, 0x91, 0x29, 0x7e, 0x00, 0x92, 0x29, 0x74, 0x00,
  0x96, 0x44, 0x5c, 0x00, 0x96, 0x48, 0x4e, 0x00, 0x98, 0x5b, 0x74, 0x00,
  0x99, 0x24, 0x7e, 0x00, 0x99, 0x1d, 0x3a, 0x00, 0x99, 0x37, 0x64, 0x01,
  0x80, 0x31, 0x00, 0x00, 0x80, 0x2a, 0x00, 0x00, 0x80, 0x24, 0x00, 0x00,
  0x93, 0x44, 0x78, 0x00, 0x95, 0x41, 0x7a, 0x00, 0x96, 0x4d, 0x7a, 0x00,
  0x89, 0x37, 0x00, 0x00, 0x89, 0x1d, 0x00, 0x00, 0x89, 0x24, 0x00, 0x01,
  0x95, 0x38, 0x7e, 0x00, 0x95, 0x3c, 0x7e, 0x00, 0xe8, 0x00, 0x1d, 0x03,
  0xe8, 0x00, 0x23, 0x03, 0xe8, 0x7f, 0x31, 0x02, 0xe8, 0x7f, 0x38, 0x03,
  0xe8, 0x00, 0x3c, 0x02, 0xe8, 0x00, 0x40, 0x04, 0x84, 0x3c, 0x00, 0x04,
  0x84, 0x43, 0x00, 0x01, 0x94, 0x3a, 0x60, 0x00, 0x94, 0x41, 0x64, 0x0f,
  0x88, 0x5b, 0x00, 0x02, 0x83, 0x44, 0x00, 0x07, 0x90, 0x2a, 0x64, 0x00,
  0x99, 0x2c, 0x6a, 0x00, 0x99, 0x1d, 0x34, 0x01, 0x80, 0x2a, 0x00, 0x00,
  0x93, 0x43, 0x78, 0x00, 0x89, 0x1d, 0x00, 0x00, 0x89, 0x2c, 0x00, 0x11,
  0x83, 0x43, 0x00, 0x1d, 0xe8, 0x7f, 0x07, 0x01, 0x90, 0x27, 0x64, 0x00,
  0x90, 0x2a, 0x62, 0x00, 0x90, 0x31, 0x46, 0x00, 0x98, 0x5e, 0x74, 0x00,
  0x99, 0x28, 0x7f, 0x00, 0x99, 0x1e, 0x5a, 0x01, 0x80, 0x31, 0x00, 0x00,
  0x80, 0x2a, 0x00, 0x00, 0x80, 0x27, 0x00, 0x00, 0x89, 0x1e, 0x00, 0x00,
  0x89, 0x28, 0x00, 0x01, 0x93, 0x43, 0x7f, 0x04, 0x84, 0x41, 0x00, 0x00,
  0xe8, 0x7f, 0x11, 0x02, 0xe8, 0x00, 0x27, 0x02, 0x84, 0x3a, 0x00, 0x01,
  0xe8, 0x7f, 0x31, 0x02, 0xe8, 0x7f, 0x38, 0x03, 0xe8, 0x00, 0x40, 0x12,
  0x81, 0x29, 0x00, 0x03, 0x88, 0x5e, 0x00, 0x05, 0x82, 0x29, 0x00, 0x00,
  0x83, 0x43, 0x00, 0x06, 0x90, 0x2a, 0x5a, 0x00, 0x91, 0x28, 0x7e, 0x00,
  0x92, 0x28, 0x74, 0x00, 0x93, 0x41, 0x6e, 0x00, 0x98, 0x5c, 0x6a, 0x00,
  0x99, 0x2c, 0x7e, 0x00, 0x99, 0x1d, 0x32, 0x01, 0x80, 0x2a, 0x00, 0x00,
  0x89, 0x1d, 0x00, 0x00, 0x89, 0x2c, 0x00, 0x0d, 0x83, 0x41, 0x00, 0x0a,
  0x88, 0x5c, 0x00, 0x06, 0x93, 0x41, 0x68, 0x01, 0x90, 0x26, 0x3c, 0x01,
  0x90, 0x2a, 0x30, 0x00, 0x90, 0x27, 0x3c, 0x01, 0x80, 0x27, 0x00, 0x00,
  0x80, 0x2a, 0x00, 0x00, 0x80, 0x26, 0x00, 0x0b, 0x82, 0x28, 0x00, 0x01,
  0x81, 0x28, 0x00, 0x02, 0xe8, 0x00, 0x05, 0x01, 0x90, 0x2a, 0x3c, 0x00,
  0x90, 0x31, 0x46, 0x00, 0x91, 0x27, 0x7a, 0x00, 0x92, 0x27, 0x6e, 0x00,
  0x98, 0x5c, 0x7a, 0x00, 0x99, 0x1d, 0x3c, 0x01, 0x80, 0x31, 0x00, 0x00,
  0x80, 0x2a, 0x00, 0x00, 0x89, 0x1d, 0x00, 0x01, 0x94, 0x37, 0x7e, 0x00,
  0xe8, 0x7f, 0x08, 0x03, 0xe8, 0x7f, 0x14, 0x02, 0xe8, 0x7f, 0x1a, 0x03,
  0xe8, 0x7f, 0x2b, 0x02, 0xe8, 0x7f, 0x35, 0x02, 0xe8, 0x7f, 0x3a, 0x03,
  0xe8, 0x00, 0x40, 0x0d, 0x90, 0x26, 0x58, 0x01, 0x80, 0x26, 0x00, 0x10,
  0x88, 0x5c, 0x00, 0x01, 0x90, 0x24, 0x7f, 0x00, 0x90, 0x2a, 0x64, 0x00,
  0x98, 0x5b, 0x7e, 0x00, 0x99, 0x24, 0x7e, 0x00, 0x99, 0x2c, 0x6a, 0x00,
  0x99, 0x1d, 0x3c, 0x01, 0x80, 0x2a, 0x00, 0x00, 0x80, 0x24, 0x00, 0x00,
  0x89, 0x1d, 0x00, 0x00, 0x89, 0x2c, 0x00, 0x00, 0x89, 0x24, 0x00, 0x15,
  0x83, 0x41, 0x00, 0x05, 0x88, 0x5b, 0x00, 0x0e, 0x84, 0x37, 0x00, 0x04,
  0x81, 0x27, 0x00, 0x01, 0x82, 0x27, 0x00, 0x01, 0xe8, 0x00, 0x07, 0x01,
  0x90, 0x27, 0x64, 0x00, 0x90, 0x2a, 0x62, 0x00, 0x90, 0x26, 0x0c, 0x00,
  0x90, 0x31, 0x46, 0x00, 0x91, 0x26, 0x7e, 0x00, 0x92, 0x26, 0x7e, 0x00,
  0x98, 0x5b, 0x7e, 0x00, 0x99, 0x28, 0x7f, 0x00, 0x99, 0x1e, 0x62, 0x01,
  0x80, 0x31, 0x00, 0x00, 0x80, 0x26, 0x00, 0x00, 0x80, 0x2a, 0x00, 0x00,
  0x80, 0x27, 0x00, 0x00, 0x94, 0x3a, 0x74, 0x00, 0x89, 0x1e, 0x00, 0x00,
  0x89, 0x28, 0x00, 0x03, 0xe8, 0x7f, 0x13, 0x03, 0xe8, 0x00, 0x19, 0x02,
  0xe8, 0x7f, 0x2b, 0x03, 0xe8, 0x7f, 0x35, 0x03, 0xe8, 0x7f, 0x3a, 0x02,
  0xe8, 0x00, 0x40, 0x1a, 0x88, 0x5b, 0x00, 0x05, 0x90, 0x2a, 0x64, 0x00,
  0x98, 0x59, 0x74, 0x00, 0x99, 0x2c, 0x74, 0x00, 0x99, 0x1d, 0x2e, 0x01,
  0x80, 0x2a, 0x00, 0x00, 0x89, 0x1d, 0x00, 0x00, 0x89, 0x2c, 0x00, 0x0b,
  0x85, 0x3c, 0x00, 0x03, 0x85, 0x38, 0x00, 0x04, 0x88, 0x59, 0x00, 0x09,
  0x85, 0x41, 0x00, 0x03, 0x90, 0x26, 0x3e, 0x02, 0x80, 0x26, 0x00, 0x01,
  0x81, 0x26, 0x00, 0x07, 0x82, 0x26, 0x00, 0x03, 0x86, 0x48, 0x00, 0x00,
  0x86, 0x44, 0x00, 0x04, 0x90, 0x24, 0x7f, 0x00, 0x90, 0x2a, 0x54, 0x00,
  0x90, 0x31, 0x46, 0x00, 0x91, 0x22, 0x6a, 0x00, 0x92, 0x22, 0x7a, 0x00,
  0x93, 0x3a, 0x72, 0x00, 0x99, 0x24, 0x7e, 0x00, 0x99, 0x1d, 0x3a, 0x01,
  0x80, 0x31, 0x00, 0x00, 0x80, 0x2a, 0x00, 0x00, 0x80, 0x24, 0x00, 0x00,
  0x95, 0x3e, 0x7e, 0x00, 0x95, 0x3a, 0x7e, 0x00, 0x96, 0x4a, 0x6a, 0x00,
  0x89, 0x1d, 0x00, 0x00, 0x89, 0x24, 0x00, 0x01, 0x95, 0x41, 0x74, 0x01,
  0x96, 0x46, 0x6a, 0x20, 0x83, 0x3a, 0x00, 0x0d, 0x90, 0x2a, 0x74, 0x00,
  0x99, 0x2c, 0x7e, 0x00, 0x99, 0x1d, 0x3c, 0x01, 0x80, 0x2a, 0x00, 0x00,
  0x89, 0x1d, 0x00, 0x00, 0x89, 0x2c, 0x00, 0x01, 0x93, 0x41, 0x64, 0x12,
  0x83, 0x41, 0x00, 0x1b, 0xe8, 0x00, 0x07, 0x01, 0x90, 0x27, 0x64, 0x00,
  0x90, 0x2a, 0x5a, 0x00, 0x90, 0x31, 0x46, 0x00, 0x85, 0x41, 0x00, 0x00,
  0x98, 0x5e, 0x7f, 0x00, 0x99, 0x28, 0x7f, 0x00, 0x99, 0x1e, 0x5a, 0x01,
  0x80, 0x31, 0x00, 0x00, 0x80, 0x2a, 0x00, 0x00, 0x80, 0x27, 0x00, 0x00,
  0x93, 0x41, 0x7e, 0x00, 0x95, 0x41, 0x6a, 0x00, 0x89, 0x1e, 0x00, 0x00,
  0x89, 0x28, 0x00, 0x01, 0x95, 0x4d, 0x60, 0x02, 0xe8, 0x00, 0x02, 0x04,
  0xe8, 0x7f, 0x03, 0x02, 0xe8, 0x7f, 0x04, 0x02, 0x84, 0x3a, 0x00, 0x01,
  0xe8, 0x00, 0x0c, 0x02, 0xe8, 0x7f, 0x1e, 0x03, 0xe8, 0x7f, 0x27, 0x03,
  0xe8, 0x7f, 0x33, 0x02, 0xe8, 0x7f, 0x39, 0x03, 0xe8, 0x7f, 0x3c, 0x02,
  0xe8, 0x00, 0x40, 0x0c, 0x83, 0x41, 0x00, 0x07, 0x88, 0x5e, 0x00, 0x01,
  0x90, 0x2a, 0x54, 0x00, 0x93, 0x43, 0x6e, 0x00, 0x98, 0x5c, 0x7f, 0x00,
  0x99, 0x2c, 0x74, 0x00, 0x99, 0x1d, 0x28, 0x01, 0x80, 0x2a, 0x00, 0x00,
  0x89, 0x1d, 0x00, 0x00, 0x89, 0x2c, 0x00, 0x0d, 0x88, 0x5c, 0x00, 0x09,
  0x83, 0x43, 0x00, 0x07, 0x99, 0x24, 0x4a, 0x01, 0x90, 0x26, 0x3a, 0x00,
  0x89, 0x24, 0x00, 0x01, 0x90, 0x2a, 0x34, 0x00, 0x90, 0x27, 0x3c, 0x00,
  0x90, 0x24, 0x7f, 0x01, 0x80, 0x24, 0x00, 0x00, 0x80, 0x27, 0x00, 0x00,
  0x80, 0x2a, 0x00, 0x00, 0x80, 0x26, 0x00, 0x09, 0xe8, 0x00, 0x0f, 0x05,
  0x85, 0x4d, 0x00, 0x01, 0x90, 0x24, 0x7f, 0x00, 0x90, 0x2a, 0x42, 0x00,
  0x90, 0x31, 0x46, 0x00, 0x98, 0x5c, 0x7f, 0x00, 0x99, 0x24, 0x6a, 0x00,
  0x99, 0x1d, 0x16, 0x01, 0x80, 0x31, 0x00, 0x00, 0x80, 0x2a, 0x00, 0x00,
  0x80, 0x24, 0x00, 0x00, 0x93, 0x43, 0x78, 0x00, 0x95, 0x43, 0x7e, 0x00,
  0x89, 0x1d, 0x00, 0x00, 0x89, 0x24, 0x00, 0x01, 0x95, 0x4f, 0x74, 0x02,
  0xe8, 0x00, 0x05, 0x03, 0xe8, 0x00, 0x04, 0x02, 0xe8, 0x00, 0x0d, 0x02,
  0xe8, 0x00, 0x25, 0x03, 0xe8, 0x7f, 0x30, 0x02, 0xe8, 0x00, 0x38, 0x03,
  0xe8, 0x00, 0x40, 0x0b, 0x90, 0x26, 0x60, 0x01, 0x80, 0x26, 0x00, 0x08,
  0x83, 0x43, 0x00, 0x08, 0x88, 0x5c, 0x00, 0x01, 0x90, 0x24, 0x7f, 0x00,
  0x90, 0x2a, 0x64, 0x00, 0x93, 0x44, 0x64, 0x00, 0x98, 0x5b, 0x7f, 0x00,
  0x99, 0x24, 0x7e, 0x00, 0x99, 0x2c, 0x7e, 0x00, 0x99, 0x1d, 0x34, 0x01,
  0x80, 0x2a, 0x00, 0x00, 0x80, 0x24, 0x00, 0x00, 0x89, 0x1d, 0x00, 0x00,
  0x89, 0x2c, 0x00, 0x00, 0x89, 0x24, 0x00, 0x10, 0x88, 0x5b, 0x00, 0x02,
  0x83, 0x44, 0x00, 0x15, 0x85, 0x4f, 0x00, 0x02, 0x85, 0x43, 0x00, 0x04,
  0xe8, 0x7f, 0x04, 0x02, 0x90, 0x27, 0x64, 0x00, 0x90, 0x2a, 0x54, 0x00,
  0x90, 0x31, 0x46, 0x00, 0x93, 0x44, 0x72, 0x00, 0x98, 0x5b, 0x7f, 0x00,
  0x99, 0x28, 0x7f, 0x00, 0x99, 0x1e, 0x6a, 0x01, 0x80, 0x31, 0x00, 0x00,
  0x80, 0x2a, 0x00, 0x00, 0x80, 0x27, 0x00, 0x00, 0xe8, 0x7f, 0x0a, 0x00,
  0x89, 0x1e, 0x00, 0x00, 0x89, 0x28, 0x00, 0x01, 0x95, 0x44, 0x6e, 0x01,
  0x95, 0x50, 0x5c, 0x00, 0xe8, 0x7f, 0x0d, 0x02, 0xe8, 0x00, 0x21, 0x03,
  0xe8, 0x7f, 0x30, 0x03, 0xe8, 0x00, 0x38, 0x02, 0xe8, 0x00, 0x40, 0x0a,
  0x85, 0x3a, 0x00, 0x02, 0x85, 0x41, 0x00, 0x02, 0x85, 0x3e, 0x00, 0x12,
  0x83, 0x44, 0x00, 0x02, 0x88, 0x5b, 0x00, 0x01, 0x90, 0x2a, 0x62, 0x00,
  0x98, 0x59, 0x7f, 0x00, 0x99, 0x2c, 0x7e, 0x00, 0x99, 0x1d, 0x3a, 0x01,
  0x80, 0x2a, 0x00, 0x00, 0x89, 0x1d, 0x00, 0x00, 0x89, 0x2c, 0x00, 0x02,
  0x93, 0x46, 0x64, 0x11, 0x83, 0x46, 0x00, 0x00, 0x88, 0x59, 0x00, 0x01,
  0x85, 0x44, 0x00, 0x0a, 0x90, 0x26, 0x2a, 0x00, 0x93, 0x44, 0x72, 0x02,
  0x80, 0x26, 0x00, 0x02, 0x81, 0x22, 0x00, 0x03, 0x85, 0x50, 0x00, 0x07,
  0x82, 0x22, 0x00, 0x01, 0x86, 0x4a, 0x00, 0x00, 0x86, 0x4d, 0x00, 0x01,
  0x86, 0x46, 0x00, 0x01, 0x90, 0x24, 0x7f, 0x00, 0x90, 0x2a, 0x4e, 0x00,
  0x90, 0x31, 0x46, 0x00, 0x91, 0x27, 0x7e, 0x00, 0x92, 0x27, 0x7e, 0x00,
  0x99, 0x24, 0x7a, 0x00, 0x99, 0x1d, 0x3a, 0x00, 0x99, 0x39, 0x50, 0x01,
  0x80, 0x31, 0x00, 0x00, 0x80, 0x2a, 0x00, 0x00, 0x80, 0x24, 0x00, 0x00,
  0x96, 0x4b, 0x7a, 0x00, 0x89, 0x39, 0x00, 0x00, 0x89, 0x1d, 0x00, 0x00,
  0x89, 0x24, 0x00, 0x00, 0x9e, 0x46, 0x7e, 0x00, 0x9e, 0x3f, 0x7e, 0x00,
  0x9e, 0x43, 0x7e, 0x01, 0x95, 0x43, 0x7e, 0x00, 0x95, 0x46, 0x74, 0x00,
  0x95, 0x3f, 0x7e, 0x00, 0x96, 0x46, 0x6a, 0x00, 0x96, 0x43, 0x7e, 0x2d,
  0x83, 0x44, 0x00, 0x01, 0x90, 0x2a, 0x64, 0x00, 0x93, 0x43, 0x6e, 0x00,
  0x99, 0x2c, 0x62, 0x00, 0x99, 0x1d, 0x3c, 0x01, 0x80, 0x2a, 0x00, 0x00,
  0x89, 0x1d, 0x00, 0x00, 0x89, 0x2c, 0x00, 0x2c, 0x83, 0x43, 0x00, 0x02,
  0xe8, 0x00, 0x07, 0x01, 0x90, 0x27, 0x64, 0x00, 0x90, 0x2a, 0x38, 0x00,
  0x90, 0x31, 0x46, 0x00, 0x98, 0x5e, 0x7f, 0x00, 0x99, 0x28, 0x7f, 0x00,
  0x99, 0x1e, 0x5a, 0x01, 0x80, 0x31, 0x00, 0x00, 0x80, 0x2a, 0x00, 0x00,
  0x80, 0x27, 0x00, 0x00, 0x94, 0x43, 0x74, 0x00, 0x94, 0x46, 0x74, 0x00,
  0x89, 0x1e, 0x00, 0x00, 0x89, 0x28, 0x00, 0x01, 0x94, 0x4b, 0x74, 0x01,
  0xe8, 0x00, 0x02, 0x04, 0x8e, 0x3f, 0x00, 0x01, 0xe8, 0x7f, 0x03, 0x02,
  0xe8, 0x7f, 0x04, 0x00, 0x8e, 0x43, 0x00, 0x02, 0x8e, 0x46, 0x00, 0x01,
  0xe8, 0x00, 0x0c, 0x02, 0xe8, 0x7f, 0x1e, 0x03, 0xe8, 0x7f, 0x27, 0x03,
  0xe8, 0x7f, 0x33, 0x02, 0xe8, 0x7f, 0x39, 0x03, 0xe8, 0x7f, 0x3c, 0x02,
  0xe8, 0x00, 0x40, 0x13, 0x88, 0x5e, 0x00, 0x01, 0x90, 0x2a, 0x74, 0x00,
  0x98, 0x5c, 0x7f, 0x00, 0x99, 0x2c, 0x5a, 0x00, 0x99, 0x1d, 0x28, 0x01,
  0x80, 0x2a, 0x00, 0x00, 0x89, 0x1d, 0x00, 0x00, 0x89, 0x2c, 0x00, 0x0d,
  0x88, 0x5c, 0x00, 0x0e, 0x85, 0x46, 0x00, 0x03, 0x90, 0x26, 0x42, 0x01,
  0x90, 0x2a, 0x38, 0x00, 0x90, 0x27, 0x3c, 0x00, 0x85, 0x3f, 0x00, 0x01,
  0x80, 0x27, 0x00, 0x00, 0x80, 0x2a, 0x00, 0x00, 0x80, 0x26, 0x00, 0x07,
  0x85, 0x43, 0x00, 0x05, 0x86, 0x4b, 0x00, 0x00, 0x86, 0x43, 0x00, 0x01,
  0x82, 0x27, 0x00, 0x01, 0xe8, 0x00, 0x0f, 0x01, 0x90, 0x2a, 0x34, 0x00,
  0x90, 0x31, 0x46, 0x00, 0x81, 0x27, 0x00, 0x00, 0x91, 0x26, 0x7e, 0x00,
  0x92, 0x26, 0x7e, 0x00, 0x96, 0x4a, 0x5a, 0x00, 0x98, 0x5c, 0x7f, 0x00,
  0x99, 0x1d, 0x16, 0x01, 0x80, 0x31, 0x00, 0x00, 0x80, 0x2a, 0x00, 0x00,
  0x95, 0x46, 0x6e, 0x00, 0x89, 0x1d, 0x00, 0x01, 0x95, 0x3e, 0x74, 0x00,
  0x95, 0x41, 0x6e, 0x00, 0x96, 0x4d, 0x6e, 0x02, 0xe8, 0x00, 0x05, 0x03,
  0xe8, 0x00, 0x04, 0x02, 0xe8, 0x00, 0x0d, 0x02, 0xe8, 0x00, 0x25, 0x03,
  0xe8, 0x7f, 0x30, 0x02, 0xe8, 0x00, 0x38, 0x03, 0xe8, 0x00, 0x40, 0x03,
  0x84, 0x43, 0x00, 0x05, 0x84, 0x46, 0x00, 0x00, 0x84, 0x4b, 0x00, 0x03,
  0x90, 0x26, 0x4a, 0x01, 0x80, 0x26, 0x00, 0x10, 0x88, 0x5c, 0x00, 0x01,
  0x90, 0x24, 0x7f, 0x00, 0x90, 0x2a, 0x64, 0x00, 0x98, 0x5b, 0x7f, 0x00,
  0x99, 0x24, 0x7e, 0x00, 0x99, 0x2c, 0x6a, 0x00, 0x99, 0x1d, 0x34, 0x01,
  0x80, 0x2a, 0x00, 0x00, 0x80, 0x24, 0x00, 0x00, 0x89, 0x1d, 0x00, 0x00,
  0x89, 0x2c, 0x00, 0x00, 0x89, 0x24, 0x00, 0x10, 0x88, 0x5b, 0x00, 0x1d,
  0xe8, 0x7f, 0x04, 0x02, 0x90, 0x27, 0x64, 0x00, 0x90, 0x2a, 0x4e, 0x00,
  0x90, 0x26, 0x3a, 0x00, 0x90, 0x31, 0x46, 0x00, 0x98, 0x5b, 0x7f, 0x00,
  0x99, 0x28, 0x7f, 0x00, 0x99, 0x1e, 0x6a, 0x01, 0x80, 0x31, 0x00, 0x00,
  0x80, 0x26, 0x00, 0x00, 0x80, 0x2a, 0x00, 0x00, 0x80, 0x27, 0x00, 0x00,
  0xe8, 0x7f, 0x0a, 0x00, 0x89, 0x1e, 0x00, 0x00, 0x89, 0x28, 0x00, 0x01,
  0x94, 0x44, 0x60, 0x00, 0x94, 0x41, 0x6e, 0x01, 0xe8, 0x7f, 0x0d, 0x02,
  0xe8, 0x00, 0x21, 0x03, 0xe8, 0x7f, 0x30, 0x03, 0xe8, 0x00, 0x38, 0x02,
  0xe8, 0x00, 0x40, 0x22, 0x84, 0x44, 0x00, 0x00, 0x88, 0x5b, 0x00, 0x01,
  0x90, 0x2a, 0x6a, 0x00, 0x84, 0x41, 0x00, 0x00, 0x94, 0x46, 0x60, 0x00,
  0x98, 0x59, 0x7f, 0x00, 0x99, 0x2c, 0x7e, 0x00, 0x99, 0x1d, 0x3a, 0x01,
  0x80, 0x2a, 0x00, 0x00, 0x89, 0x1d, 0x00, 0x00, 0x89, 0x2c, 0x00, 0x13,
  0x88, 0x59, 0x00, 0x02, 0x85, 0x41, 0x00, 0x01, 0x84, 0x46, 0x00, 0x01,
  0x94, 0x3f, 0x60, 0x00, 0x85, 0x3e, 0x00, 0x02, 0x94, 0x43, 0x74, 0x05,
  0x90, 0x26, 0x3e, 0x00, 0x85, 0x46, 0x00, 0x02, 0x80, 0x26, 0x00, 0x0b,
  0x81, 0x26, 0x00, 0x00, 0x82, 0x26, 0x00, 0x01, 0x86, 0x4a, 0x00, 0x01,
  0x86, 0x4d, 0x00, 0x01, 0x86, 0x46, 0x00, 0x01, 0x90, 0x24, 0x7f, 0x00,
  0x90, 0x2a, 0x42, 0x00, 0x90, 0x31, 0x46, 0x00, 0x91, 0x24, 0x7a, 0x00,
  0x92, 0x24, 0x74, 0x00, 0x96, 0x4b, 0x6e, 0x00, 0x96, 0x43, 0x74, 0x00,
  0x99, 0x24, 0x7e, 0x00, 0x99, 0x1d, 0x3a, 0x01, 0x80, 0x31, 0x00, 0x00,
  0x80, 0x2a, 0x00, 0x00, 0x80, 0x24, 0x00, 0x00, 0x95, 0x43, 0x7e, 0x00,
  0x89, 0x1d, 0x00, 0x00, 0x89, 0x24, 0x00, 0x01, 0x95, 0x48, 0x7a, 0x00,
  0x95, 0x3f, 0x6e, 0x2e, 0x90, 0x2a, 0x64, 0x00, 0x99, 0x2c, 0x7e, 0x00,
  0x99, 0x1d, 0x3c, 0x01, 0x80, 0x2a, 0x00, 0x00, 0x89, 0x1d, 0x00, 0x00,
  0x89, 0x2c, 0x00, 0x19, 0x84, 0x3f, 0x00, 0x04, 0x84, 0x43, 0x00, 0x11,
  0xe8, 0x00, 0x07, 0x01, 0x90, 0x27, 0x62, 0x00, 0x90, 0x2a, 0x4e, 0x00,
  0x90, 0x31, 0x46, 0x00, 0x98, 0x5e, 0x7f, 0x00, 0x99, 0x28, 0x7f, 0x00,
  0x99, 0x1e, 0x5a, 0x01, 0x80, 0x31, 0x00, 0x00, 0x80, 0x2a, 0x00, 0x00,
  0x80, 0x27, 0x00, 0x00, 0x89, 0x1e, 0x00, 0x00, 0x89, 0x28, 0x00, 0x03,
  0xe8, 0x00, 0x02, 0x04, 0xe8, 0x7f, 0x03, 0x02, 0xe8, 0x7f, 0x04, 0x03,
  0xe8, 0x00, 0x0c, 0x02, 0xe8, 0x7f, 0x1e, 0x03, 0xe8, 0x7f, 0x27, 0x03,
  0xe8, 0x7f, 0x33, 0x02, 0xe8, 0x7f, 0x39, 0x03, 0xe8, 0x7f, 0x3c, 0x02,
  0xe8, 0x00, 0x3e, 0x02, 0xe8, 0x00, 0x40, 0x11, 0x88, 0x5e, 0x00, 0x01,
  0x90, 0x2a, 0x5a, 0x00, 0x98, 0x5c, 0x7f, 0x00, 0x99, 0x2c, 0x6a, 0x00,
  0x99, 0x1d, 0x24, 0x01, 0x80, 0x2a, 0x00, 0x00, 0x89, 0x1d, 0x00, 0x00,
  0x89, 0x2c, 0x00, 0x0d, 0x88, 0x5c, 0x00, 0x11, 0x90, 0x26, 0x38, 0x01,
  0x90, 0x2a, 0x3c, 0x00, 0x90, 0x27, 0x3c, 0x01, 0x80, 0x27, 0x00, 0x00,
  0x80, 0x2a, 0x00, 0x00, 0x80, 0x26, 0x00, 0x0e, 0xe8, 0x00, 0x0f, 0x01,
  0x90, 0x2a, 0x42, 0x00, 0x90, 0x31, 0x46, 0x00, 0x98, 0x5c, 0x7f, 0x00,
  0x99, 0x1d, 0x34, 0x01, 0x80, 0x31, 0x00, 0x00, 0x80, 0x2a, 0x00, 0x00,
  0x94, 0x43, 0x7e, 0x00, 0x89, 0x1d, 0x00, 0x01, 0x94, 0x3c, 0x74, 0x02,
  0xe8, 0x00, 0x05, 0x03, 0xe8, 0x00, 0x04, 0x02, 0xe8, 0x00, 0x0d, 0x02,
  0xe8, 0x00, 0x25, 0x03, 0xe8, 0x7f, 0x30, 0x02, 0xe8, 0x00, 0x38, 0x03,
  0xe8, 0x00, 0x3c, 0x02, 0x84, 0x43, 0x00, 0x00, 0xe8, 0x00, 0x40, 0x02,
  0x84, 0x3c, 0x00, 0x02, 0x94, 0x3f, 0x64, 0x01, 0x94, 0x46, 0x6a, 0x04,
  0x90, 0x26, 0x44, 0x01, 0x80, 0x26, 0x00, 0x05, 0x84, 0x3f, 0x00, 0x02,
  0x84, 0x46, 0x00, 0x09, 0x88, 0x5c, 0x00, 0x01, 0x90, 0x24, 0x7f, 0x00,
  0x90, 0x2a, 0x64, 0x00, 0x98, 0x5b, 0x7f, 0x00, 0x99, 0x24, 0x7a, 0x00,
  0x99, 0x2c, 0x6a, 0x00, 0x99, 0x1d, 0x3a, 0x01, 0x80, 0x2a, 0x00, 0x00,
  0x80, 0x24, 0x00, 0x00, 0x89, 0x1d, 0x00, 0x00, 0x89, 0x2c, 0x00, 0x00,
  0x89, 0x24, 0x00, 0x10, 0x88, 0x5b, 0x00, 0x08, 0x94, 0x43, 0x7e, 0x01,
  0x94, 0x3c, 0x74, 0x14, 0xe8, 0x7f, 0x04, 0x02, 0x90, 0x27, 0x64, 0x00,
  0x90, 0x2a, 0x48, 0x00, 0x90, 0x31, 0x46, 0x00, 0x98, 0x5b, 0x7f, 0x00,
  0x99, 0x28, 0x7f, 0x00, 0x99, 0x1e, 0x54, 0x01, 0x80, 0x31, 0x00, 0x00,
  0x80, 0x2a, 0x00, 0x00, 0x80, 0x27, 0x00, 0x00, 0x84, 0x43, 0x00, 0x00,
  0xe8, 0x7f, 0x0a, 0x00, 0x89, 0x1e, 0x00, 0x00, 0x89, 0x28, 0x00, 0x02,
  0xe8, 0x7f, 0x0d, 0x01, 0x84, 0x3c, 0x00, 0x01, 0xe8, 0x00, 0x21, 0x03,
  0xe8, 0x7f, 0x30, 0x03, 0xe8, 0x00, 0x38, 0x02, 0xe8, 0x00, 0x40, 0x0d,
  0x94, 0x3f, 0x64, 0x02, 0x94, 0x46, 0x6a, 0x0b, 0x84, 0x3f, 0x00, 0x04,
  0x84, 0x46, 0x00, 0x04, 0x88, 0x5b, 0x00, 0x01, 0x90, 0x2a, 0x74, 0x00,
  0x98, 0x59, 0x7f, 0x00, 0x99, 0x2c, 0x6a, 0x00, 0x99, 0x1d, 0x16, 0x01,
  0x80, 0x2a, 0x00, 0x00, 0x89, 0x1d, 0x00, 0x00, 0x89, 0x2c, 0x00, 0x05,
  0x85, 0x48, 0x00, 0x06, 0x85, 0x43, 0x00, 0x03, 0x85, 0x3f, 0x00, 0x05,
  0x88, 0x59, 0x00, 0x04, 0x94, 0x43, 0x6a, 0x02, 0x94, 0x3c, 0x74, 0x05,
  0x90, 0x26, 0x30, 0x02, 0x80, 0x26, 0x00, 0x05, 0x81, 0x24, 0x00, 0x06,
  0x86, 0x4b, 0x00, 0x00, 0x86, 0x43, 0x00, 0x02, 0x82, 0x24, 0x00, 0x02,
  0x90, 0x24, 0x7f, 0x00, 0x90, 0x2a, 0x42, 0x00, 0x91, 0x1f, 0x7e, 0x00,
  0x99, 0x24, 0x7e, 0x00, 0x99, 0x1d, 0x3a, 0x00, 0x99, 0x37, 0x7a, 0x00,
  0x9e, 0x43, 0x6a, 0x01, 0x80, 0x2a, 0x00, 0x00, 0x80, 0x24, 0x00, 0x00,
  0x93, 0x44, 0x72, 0x00, 0x95, 0x37, 0x6a, 0x00, 0x96, 0x4f, 0x7e, 0x00,
  0x96, 0x46, 0x74, 0x00, 0x96, 0x4a, 0x7e, 0x00, 0x89, 0x37, 0x00, 0x00,
  0x89, 0x1d, 0x00, 0x00, 0x89, 0x24, 0x00, 0x01, 0x95, 0x3e, 0x74, 0x00,
  0x95, 0x3a, 0x64, 0x00, 0x9e, 0x46, 0x7a, 0x12, 0x84, 0x3c, 0x00, 0x03,
  0x84, 0x43, 0x00, 0x02, 0x94, 0x41, 0x64, 0x01, 0x94, 0x3a, 0x60, 0x12,
  0x83, 0x44, 0x00, 0x04, 0x90, 0x2a, 0x64, 0x00, 0x99, 0x2c, 0x7e, 0x00,
  0x99, 0x1d, 0x3c, 0x01, 0x80, 0x2a, 0x00, 0x00, 0x93, 0x43, 0x6e, 0x00,
  0x89, 0x1d, 0x00, 0x00, 0x89, 0x2c, 0x00, 0x23, 0x85, 0x3a, 0x00, 0x07,
  0x83, 0x43, 0x00, 0x05, 0x90, 0x27, 0x62, 0x00, 0x90, 0x2a, 0x4e, 0x00,
  0x99, 0x28, 0x7f, 0x00, 0x99, 0x1e, 0x5a, 0x01, 0x80, 0x2a, 0x00, 0x00,
  0x80, 0x27, 0x00, 0x00, 0x89, 0x1e, 0x00, 0x00, 0x89, 0x28, 0x00, 0x02,
  0x93, 0x3f, 0x64, 0x03, 0x84, 0x41, 0x00, 0x06, 0x84, 0x3a, 0x00, 0x1c,
  0x83, 0x3f, 0x00, 0x08, 0x90, 0x2a, 0x5a, 0x00, 0x99, 0x2c, 0x6a, 0x00,
  0x99, 0x1d, 0x24, 0x01, 0x80, 0x2a, 0x00, 0x00, 0x89, 0x1d, 0x00, 0x00,
  0x89, 0x2c, 0x00, 0x01, 0x93, 0x37, 0x7f, 0x1d, 0x90, 0x26, 0x38, 0x01,
  0x90, 0x2a, 0x3c, 0x00, 0x90, 0x27, 0x3c, 0x00, 0x8e, 0x46, 0x00, 0x00,
  0x8e, 0x43, 0x00, 0x01, 0x80, 0x27, 0x00, 0x00, 0x80, 0x2a, 0x00, 0x00,
  0x80, 0x26, 0x00, 0x01, 0x81, 0x1f, 0x00, 0x00, 0x85, 0x37, 0x00, 0x04,
  0x85, 0x3e, 0x00, 0x07, 0x86, 0x4a, 0x00, 0x00, 0x86, 0x46, 0x00, 0x01,
  0x83, 0x37, 0x00, 0x02, 0x90, 0x2a, 0x42, 0x00, 0x91, 0x24, 0x74, 0x00,
  0x96, 0x48, 0x7a, 0x00, 0x99, 0x1d, 0x34, 0x00, 0x9e, 0x3f, 0x6e, 0x01,
  0x80, 0x2a, 0x00, 0x00, 0x96, 0x4b, 0x6e, 0x00, 0x89, 0x1d, 0x00, 0x00,
  0x9e, 0x43, 0x6e, 0x01, 0x93, 0x3a, 0x64, 0x00, 0x95, 0x37, 0x6a, 0x00,
  0x95, 0x3f, 0x6e, 0x00, 0x95, 0x3c, 0x7a, 0x01, 0x94, 0x37, 0x7e, 0x1b,
  0x90, 0x26, 0x44, 0x01, 0x80, 0x26, 0x00, 0x11, 0x90, 0x24, 0x7f, 0x00,
  0x90, 0x2a, 0x64, 0x00, 0x99, 0x24, 0x7a, 0x00, 0x99, 0x2c, 0x6a, 0x00,
  0x99, 0x1d, 0x3a, 0x01, 0x80, 0x2a, 0x00, 0x00, 0x80, 0x24, 0x00, 0x00,
  0x89, 0x1d, 0x00, 0x00, 0x89, 0x2c, 0x00, 0x00, 0x89, 0x24, 0x00, 0x29,
  0x84, 0x37, 0x00, 0x06, 0x90, 0x27, 0x64, 0x00, 0x90, 0x2a, 0x48, 0x00,
  0x99, 0x28, 0x7f, 0x00, 0x99, 0x1e, 0x54, 0x01, 0x80, 0x2a, 0x00, 0x00,
  0x80, 0x27, 0x00, 0x00, 0x89, 0x1e, 0x00, 0x00, 0x89, 0x28, 0x00, 0x01,
  0x94, 0x3a, 0x74, 0x25, 0x83, 0x3a, 0x00, 0x09, 0x90, 0x2a, 0x74, 0x00,
  0x99, 0x2c, 0x6a, 0x00, 0x99, 0x1d, 0x16, 0x01, 0x80, 0x2a, 0x00, 0x00,
  0x89, 0x1d, 0x00, 0x00, 0x89, 0x2c, 0x00, 0x1a, 0x85, 0x37, 0x00, 0x04,
  0x90, 0x26, 0x30, 0x00, 0x85, 0x3f, 0x00, 0x01, 0x85, 0x3c, 0x00, 0x01,
  0x80, 0x26, 0x00, 0x00, 0x8e, 0x3f, 0x00, 0x02, 0x81, 0x24, 0x00, 0x03,
  0x8e, 0x43, 0x00, 0x06, 0x86, 0x48, 0x00, 0x01, 0x86, 0x4b, 0x00, 0x03,
  0x90, 0x24, 0x7f, 0x00, 0x90, 0x2a, 0x3c, 0x00, 0x91, 0x1f, 0x7e, 0x00,
  0x96, 0x46, 0x74, 0x00, 0x99, 0x24, 0x7e, 0x00, 0x99, 0x1d, 0x3a, 0x01,
  0x80, 0x2a, 0x00, 0x00, 0x80, 0x24, 0x00, 0x00, 0x95, 0x37, 0x7e, 0x00,
  0x95, 0x3a, 0x5c, 0x00, 0x96, 0x4a, 0x7e, 0x00, 0x89, 0x1d, 0x00, 0x00,
  0x89, 0x24, 0x00, 0x00, 0x9e, 0x46, 0x74, 0x00, 0x9e, 0x43, 0x74, 0x01,
  0x93, 0x43, 0x78, 0x00, 0x95, 0x3e, 0x7e, 0x2e, 0x90, 0x2a, 0x64, 0x00,
  0x83, 0x43, 0x00, 0x00, 0x99, 0x2c, 0x6a, 0x00, 0x99, 0x1d, 0x34, 0x01,
  0x80, 0x2a, 0x00, 0x00, 0x93, 0x41, 0x68, 0x00, 0x89, 0x1d, 0x00, 0x00,
  0x89, 0x2c, 0x00, 0x2d, 0x83, 0x41, 0x00, 0x02, 0x90, 0x27, 0x64, 0x00,
  0x90, 0x2a, 0x62, 0x00, 0x93, 0x3f, 0x68, 0x00, 0x99, 0x28, 0x7f, 0x00,
  0x99, 0x1e, 0x5a, 0x01, 0x80, 0x2a, 0x00, 0x00, 0x80, 0x27, 0x00, 0x00,
  0x89, 0x1e, 0x00, 0x00, 0x89, 0x28, 0x00, 0x0c, 0x84, 0x3a, 0x00, 0x23,
  0x90, 0x2a, 0x5a, 0x00, 0x83, 0x3f, 0x00, 0x00, 0x99, 0x2c, 0x7e, 0x00,
  0x99, 0x1d, 0x32, 0x01, 0x80, 0x2a, 0x00, 0x00, 0x93, 0x3e, 0x66, 0x00,
  0x89, 0x1d, 0x00, 0x00, 0x89, 0x2c, 0x00, 0x1e, 0x90, 0x26, 0x3c, 0x01,
  0x90, 0x2a, 0x30, 0x00, 0x90, 0x27, 0x3c, 0x01, 0x80, 0x27, 0x00, 0x00,
  0x80, 0x2a, 0x00, 0x00, 0x80, 0x26, 0x00, 0x03, 0x85, 0x37, 0x00, 0x03,
  0x85, 0x3a, 0x00, 0x00, 0x85, 0x3e, 0x00, 0x02, 0x81, 0x1f, 0x00, 0x03,
  0x86, 0x46, 0x00, 0x00, 0x8e, 0x46, 0x00, 0x01, 0x86, 0x4a, 0x00, 0x01,
  0x8e, 0x43, 0x00, 0x01, 0x83, 0x3e, 0x00, 0x01, 0x90, 0x2a, 0x3c, 0x00,
  0x91, 0x24, 0x74, 0x00, 0x95, 0x37, 0x7e, 0x00, 0x99, 0x1d, 0x3c, 0x01,
  0x80, 0x2a, 0x00, 0x00, 0x93, 0x3a, 0x6e, 0x00, 0x95, 0x3f, 0x74, 0x00,
  0x96, 0x4b, 0x6a, 0x00, 0x96, 0x48, 0x74, 0x00, 0x89, 0x1d, 0x00, 0x00,
  0x9e, 0x43, 0x74, 0x01, 0x95, 0x3c, 0x74, 0x00, 0x9e, 0x3f, 0x6a, 0x1c,
  0x90, 0x26, 0x58, 0x01, 0x80, 0x26, 0x00, 0x11, 0x90, 0x24, 0x7f, 0x00,
  0x90, 0x2a, 0x64, 0x00, 0x99, 0x24, 0x7e, 0x00, 0x99, 0x2c, 0x6a, 0x00,
  0x99, 0x1d, 0x3c, 0x01, 0x80, 0x2a, 0x00, 0x00, 0x80, 0x24, 0x00, 0x00,
  0x89, 0x1d, 0x00, 0x00, 0x89, 0x2c, 0x00, 0x00, 0x89, 0x24, 0x00, 0x2f,
  0x90, 0x27, 0x64, 0x00, 0x90, 0x2a, 0x62, 0x00, 0x90, 0x26, 0x0c, 0x00,
  0x99, 0x28, 0x7f, 0x00, 0x99, 0x1e, 0x62, 0x01, 0x80, 0x26, 0x00, 0x00,
  0x80, 0x2a, 0x00, 0x00, 0x80, 0x27, 0x00, 0x00, 0x89, 0x1e, 0x00, 0x00,
  0x89, 0x28, 0x00, 0x18, 0x83, 0x3a, 0x00, 0x17, 0x90, 0x2a, 0x64, 0x00,
  0x99, 0x2c, 0x74, 0x00, 0x99, 0x1d, 0x2e, 0x01, 0x80, 0x2a, 0x00, 0x00,
  0x89, 0x1d, 0x00, 0x00, 0x89, 0x2c, 0x00, 0x1a, 0x85, 0x37, 0x00, 0x04,
  0x90, 0x26, 0x3e, 0x02, 0x80, 0x26, 0x00, 0x04, 0x85, 0x3c, 0x00, 0x02,
  0x8e, 0x3f, 0x00, 0x01, 0x85, 0x3f, 0x00, 0x03, 0x8e, 0x43, 0x00, 0x02,
  0x86, 0x4b, 0x00, 0x00, 0x86, 0x4f, 0x00, 0x00, 0x86, 0x48, 0x00, 0x01,
  0x81, 0x24, 0x00, 0x02, 0x90, 0x24, 0x7f, 0x00, 0x90, 0x2a, 0x54, 0x00,
  0x91, 0x1f, 0x7e, 0x00, 0x96, 0x4f, 0x74, 0x00, 0x99, 0x24, 0x7e, 0x00,
  0x99, 0x1d, 0x3a, 0x01, 0x80, 0x2a, 0x00, 0x00, 0x80, 0x24, 0x00, 0x00,
  0x96, 0x4a, 0x7e, 0x00, 0x96, 0x46, 0x6a, 0x00, 0x89, 0x1d, 0x00, 0x00,
  0x89, 0x24, 0x00, 0x00, 0x9e, 0x46, 0x74, 0x01, 0x93, 0x43, 0x7f, 0x00,
  0x95, 0x3a, 0x54, 0x00, 0x95, 0x3e, 0x74, 0x00, 0x95, 0x37, 0x7e, 0x00,
  0x9e, 0x43, 0x7e, 0x2e, 0x90, 0x2a, 0x74, 0x00, 0x83, 0x43, 0x00, 0x00,
  0x99, 0x2c, 0x7e, 0x00, 0x99, 0x1d, 0x3c, 0x01, 0x80, 0x2a, 0x00, 0x00,
  0x93, 0x3f, 0x64, 0x00, 0x89, 0x1d, 0x00, 0x00, 0x89, 0x2c, 0x00, 0x2e,
  0x83, 0x3f, 0x00, 0x01, 0x90, 0x27, 0x64, 0x00, 0x90, 0x2a, 0x5a, 0x00,
  0x99, 0x28, 0x7f, 0x00, 0x99, 0x1e, 0x5a, 0x01, 0x80, 0x2a, 0x00, 0x00,
  0x80, 0x27, 0x00, 0x00, 0x93, 0x41, 0x6e, 0x00, 0x89, 0x1e, 0x00, 0x00,
  0x89, 0x28, 0x00, 0x2a, 0x83, 0x41, 0x00, 0x05, 0x90, 0x2a, 0x54, 0x00,
  0x99, 0x2c, 0x74, 0x00, 0x99, 0x1d, 0x28, 0x01, 0x80, 0x2a, 0x00, 0x00,
  0x93, 0x43, 0x6e, 0x00, 0x89, 0x1d, 0x00, 0x00, 0x89, 0x2c, 0x00, 0x18,
  0x83, 0x43, 0x00, 0x05, 0x99, 0x24, 0x4a, 0x01, 0x90, 0x26, 0x3a, 0x00,
  0x89, 0x24, 0x00, 0x01, 0x90, 0x2a, 0x34, 0x00, 0x90, 0x27, 0x3c, 0x00,
  0x90, 0x24, 0x7f, 0x00, 0x93, 0x3f, 0x68, 0x00, 0x85, 0x3a, 0x00, 0x01,
  0x80, 0x24, 0x00, 0x00, 0x80, 0x27, 0x00, 0x00, 0x80, 0x2a, 0x00, 0x00,
  0x80, 0x26, 0x00, 0x01, 0x85, 0x3e, 0x00, 0x05, 0x85, 0x37, 0x00, 0x02,
  0x81, 0x1f, 0x00, 0x03, 0x86, 0x4f, 0x00, 0x00, 0x8e, 0x46, 0x00, 0x01,
  0x86, 0x4a, 0x00, 0x00, 0x86, 0x46, 0x00, 0x01, 0x8e, 0x43, 0x00, 0x02,
  0x90, 0x24, 0x7f, 0x00, 0x90, 0x2a, 0x42, 0x00, 0x91, 0x20, 0x7e, 0x00,
  0x96, 0x47, 0x74, 0x00, 0x99, 0x24, 0x6a, 0x00, 0x99, 0x1d, 0x16, 0x01,
  0x80, 0x2a, 0x00, 0x00, 0x80, 0x24, 0x00, 0x00, 0x95, 0x3f, 0x74, 0x00,
  0x95, 0x3b, 0x7e, 0x00, 0x96, 0x50, 0x74, 0x00, 0x89, 0x1d, 0x00, 0x00,
  0x89, 0x24, 0x00, 0x00, 0x9e, 0x44, 0x60, 0x00, 0x9e, 0x3f, 0x6a, 0x01,
  0x95, 0x44, 0x60, 0x00, 0x96, 0x4b, 0x6e, 0x1c, 0x90, 0x26, 0x60, 0x01,
  0x80, 0x26, 0x00, 0x11, 0x90, 0x24, 0x7f, 0x00, 0x90, 0x2a, 0x64, 0x00,
  0x83, 0x3f, 0x00, 0x00, 0x93, 0x3b, 0x6e, 0x00, 0x99, 0x24, 0x7e, 0x00,
  0x99, 0x2c, 0x7e, 0x00, 0x99, 0x1d, 0x34, 0x01, 0x80, 0x2a, 0x00, 0x00,
  0x80, 0x24, 0x00, 0x00, 0x89, 0x1d, 0x00, 0x00, 0x89, 0x2c, 0x00, 0x00,
  0x89, 0x24, 0x00, 0x2f, 0x90, 0x27, 0x64, 0x00, 0x90, 0x2a, 0x54, 0x00,
  0x99, 0x28, 0x7f, 0x00, 0x99, 0x1e, 0x6a, 0x01, 0x80, 0x2a, 0x00, 0x00,
  0x80, 0x27, 0x00, 0x00, 0x89, 0x1e, 0x00, 0x00, 0x89, 0x28, 0x00, 0x2f,
  0x90, 0x2a, 0x62, 0x00, 0x99, 0x2c, 0x7e, 0x00, 0x99, 0x1d, 0x3a, 0x01,
  0x80, 0x2a, 0x00, 0x00, 0x89, 0x1d, 0x00, 0x00, 0x89, 0x2c, 0x00, 0x1e,
  0x90, 0x26, 0x2a, 0x02, 0x80, 0x26, 0x00, 0x0f, 0x90, 0x24, 0x7f, 0x00,
  0x90, 0x2a, 0x4e, 0x00, 0x99, 0x24, 0x7a, 0x00, 0x99, 0x1d, 0x3a, 0x01,
  0x80, 0x2a, 0x00, 0x00, 0x80, 0x24, 0x00, 0x00, 0x89, 0x1d, 0x00, 0x00,
  0x89, 0x24, 0x00, 0x2f, 0x90, 0x2a, 0x64, 0x00, 0x99, 0x2c, 0x62, 0x00,
  0x99, 0x1d, 0x3c, 0x01, 0x80, 0x2a, 0x00, 0x00, 0x89, 0x1d, 0x00, 0x00,
  0x89, 0x2c, 0x00, 0x2f, 0x90, 0x27, 0x64, 0x00, 0x90, 0x2a, 0x38, 0x00,
  0x99, 0x28, 0x7f, 0x00, 0x99, 0x1e, 0x5a, 0x01, 0x80, 0x2a, 0x00, 0x00,
  0x80, 0x27, 0x00, 0x00, 0x89, 0x1e, 0x00, 0x00, 0x89, 0x28, 0x00, 0x0b,
  0x83, 0x3b, 0x00, 0x24, 0x90, 0x2a, 0x74, 0x00, 0x99, 0x2c, 0x5a, 0x00,
  0x99, 0x1d, 0x28, 0x01, 0x80, 0x2a, 0x00, 0x00, 0x89, 0x1d, 0x00, 0x00,
  0x89, 0x2c, 0x00, 0x1e, 0x90, 0x26, 0x42, 0x01, 0x90, 0x2a, 0x38, 0x00,
  0x90, 0x27, 0x3c, 0x01, 0x80, 0x27, 0x00, 0x00, 0x80, 0x2a, 0x00, 0x00,
  0x80, 0x26, 0x00, 0x0c, 0x86, 0x47, 0x00, 0x00, 0x86, 0x50, 0x00, 0x01,
  0x86, 0x4b, 0x00, 0x02, 0x90, 0x2a, 0x34, 0x00, 0x99, 0x1d, 0x16, 0x01,
  0x80, 0x2a, 0x00, 0x00, 0x89, 0x1d, 0x00, 0x04, 0x85, 0x44, 0x00, 0x00,
  0x85, 0x3b, 0x00, 0x00, 0x85, 0x3f, 0x00, 0x19, 0x90, 0x26, 0x4a, 0x01,
  0x80, 0x26, 0x00, 0x09, 0x81, 0x20, 0x00, 0x08, 0x90, 0x24, 0x7f, 0x00,
  0x90, 0x2a, 0x64, 0x00, 0x99, 0x24, 0x7e, 0x00, 0x99, 0x2c, 0x6a, 0x00,
  0x99, 0x1d, 0x34, 0x01, 0x80, 0x2a, 0x00, 0x00, 0x80, 0x24, 0x00, 0x00,
  0x89, 0x1d, 0x00, 0x00, 0x89, 0x2c, 0x00, 0x00, 0x89, 0x24, 0x00, 0x1d,
  0x99, 0x2f, 0x46, 0x01, 0x89, 0x2f, 0x00, 0x11, 0x90, 0x27, 0x64, 0x00,
  0x90, 0x2a, 0x4e, 0x00, 0x90, 0x26, 0x3a, 0x00, 0x93, 0x3e, 0x72, 0x00,
  0x99, 0x28, 0x7f, 0x00, 0x99, 0x1e, 0x6a, 0x00, 0x99, 0x2b, 0x7a, 0x01,
  0x80, 0x26, 0x00, 0x00, 0x80, 0x2a, 0x00, 0x00, 0x80, 0x27, 0x00, 0x00,
  0x89, 0x2b, 0x00, 0x00, 0x89, 0x1e, 0x00, 0x00, 0x89, 0x28, 0x00, 0x2f,
  0x90, 0x2a, 0x6a, 0x00, 0x99, 0x2c, 0x7e, 0x00, 0x99, 0x1d, 0x3a, 0x01,
  0x80, 0x2a, 0x00, 0x00, 0x89, 0x1d, 0x00, 0x00, 0x89, 0x2c, 0x00, 0x1e,
  0x90, 0x26, 0x3e, 0x02, 0x80, 0x26, 0x00, 0x0b, 0x8e, 0x44, 0x00, 0x02,
  0x8e, 0x3f, 0x00, 0x01, 0x83, 0x3e, 0x00, 0x01, 0x90, 0x24, 0x7f, 0x00,
  0x90, 0x2a, 0x42, 0x00, 0x91, 0x1b, 0x7e, 0x00, 0x93, 0x3f, 0x78, 0x00,
  0x99, 0x24, 0x7e, 0x00, 0x99, 0x1d, 0x3a, 0x00, 0x99, 0x37, 0x7e, 0x01,
  0x80, 0x2a, 0x00, 0x00, 0x80, 0x24, 0x00, 0x00, 0x89, 0x37, 0x00, 0x00,
  0x89, 0x1d, 0x00, 0x00, 0x89, 0x24, 0x00, 0x00, 0x9e, 0x43, 0x62, 0x00,
  0x9e, 0x3a, 0x5c, 0x01, 0x95, 0x1b, 0x7e, 0x2e, 0x90, 0x2a, 0x64, 0x00,
  0x99, 0x2c, 0x7e, 0x00, 0x99, 0x1d, 0x3c, 0x01, 0x80, 0x2a, 0x00, 0x00,
  0x89, 0x1d, 0x00, 0x00, 0x89, 0x2c, 0x00, 0x2f, 0x90, 0x27, 0x62, 0x00,
  0x90, 0x2a, 0x4e, 0x00, 0x99, 0x28, 0x7f, 0x00, 0x99, 0x1e, 0x5a, 0x01,
  0x80, 0x2a, 0x00, 0x00, 0x80, 0x27, 0x00, 0x00, 0x89, 0x1e, 0x00, 0x00,
  0x89, 0x28, 0x00, 0x2f, 0x90, 0x2a, 0x5a, 0x00, 0x99, 0x2c, 0x6a, 0x00,
  0x99, 0x1d, 0x24, 0x01, 0x80, 0x2a, 0x00, 0x00, 0x83, 0x3f, 0x00, 0x00,
  0x89, 0x1d, 0x00, 0x00, 0x89, 0x2c, 0x00, 0x1e, 0x90, 0x26, 0x38, 0x01,
  0x90, 0x2a, 0x3c, 0x00, 0x90, 0x27, 0x3c, 0x01, 0x80, 0x27, 0x00, 0x00,
  0x80, 0x2a, 0x00, 0x00, 0x80, 0x26, 0x00, 0x0f, 0x90, 0x2a, 0x42, 0x00,
  0x99, 0x1d, 0x34, 0x01, 0x80, 0x2a, 0x00, 0x00, 0x89, 0x1d, 0x00, 0x01,
  0x95, 0x41, 0x7e, 0x1c, 0x90, 0x26, 0x44, 0x01, 0x80, 0x26, 0x00, 0x11,
  0x90, 0x24, 0x7f, 0x00, 0x90, 0x2a, 0x64, 0x00, 0x99, 0x24, 0x7a, 0x00,
  0x99, 0x2c, 0x6a, 0x00, 0x99, 0x1d, 0x3a, 0x01, 0x80, 0x2a, 0x00, 0x00,
  0x80, 0x24, 0x00, 0x00, 0x89, 0x1d, 0x00, 0x00, 0x89, 0x2c, 0x00, 0x00,
  0x89, 0x24, 0x00, 0x2f, 0x90, 0x27, 0x64, 0x00, 0x90, 0x2a, 0x48, 0x00,
  0x85, 0x41, 0x00, 0x00, 0x95, 0x3f, 0x74, 0x00, 0x99, 0x28, 0x7f, 0x00,
  0x99, 0x1e, 0x54, 0x01, 0x80, 0x2a, 0x00, 0x00, 0x80, 0x27, 0x00, 0x00,
  0x89, 0x1e, 0x00, 0x00, 0x89, 0x28, 0x00, 0x2f, 0x90, 0x2a, 0x74, 0x00,
  0x99, 0x2c, 0x6a, 0x00, 0x99, 0x1d, 0x16, 0x01, 0x80, 0x2a, 0x00, 0x00,
  0x89, 0x1d, 0x00, 0x00, 0x89, 0x2c, 0x00, 0x11, 0x85, 0x1b, 0x00, 0x0d,
  0x90, 0x26, 0x30, 0x02, 0x80, 0x26, 0x00, 0x03, 0x81, 0x1b, 0x00, 0x0a,
  0x85, 0x3f, 0x00, 0x02, 0x90, 0x24, 0x7f, 0x00, 0x90, 0x2a, 0x3c, 0x00,
  0x91, 0x1b, 0x7e, 0x00, 0x99, 0x24, 0x7e, 0x00, 0x99, 0x1d, 0x3a, 0x01,
  0x80, 0x2a, 0x00, 0x00, 0x80, 0x24, 0x00, 0x00, 0x89, 0x1d, 0x00, 0x00,
  0x89, 0x24, 0x00, 0x01, 0x95, 0x1b, 0x7e, 0x2e, 0x90, 0x2a, 0x64, 0x00,
  0x99, 0x2c, 0x6a, 0x00, 0x99, 0x1d, 0x34, 0x01, 0x80, 0x2a, 0x00, 0x00,
  0x89, 0x1d, 0x00, 0x00, 0x89, 0x2c, 0x00, 0x2f, 0x90, 0x27, 0x64, 0x00,
  0x90, 0x2a, 0x62, 0x00, 0x99, 0x28, 0x7f, 0x00, 0x99, 0x1e, 0x5a, 0x01,
  0x80, 0x2a, 0x00, 0x00, 0x80, 0x27, 0x00, 0x00, 0x89, 0x1e, 0x00, 0x00,
  0x89, 0x28, 0x00, 0x2f, 0x90, 0x2a, 0x5a, 0x00, 0x99, 0x2c, 0x7e, 0x00,
  0x99, 0x1d, 0x32, 0x01, 0x80, 0x2a, 0x00, 0x00, 0x89, 0x1d, 0x00, 0x00,
  0x89, 0x2c, 0x00, 0x1e, 0x90, 0x26, 0x3c, 0x01, 0x90, 0x2a, 0x30, 0x00,
  0x90, 0x27, 0x3c, 0x01, 0x80, 0x27, 0x00, 0x00, 0x80, 0x2a, 0x00, 0x00,
  0x80, 0x26, 0x00, 0x0f, 0x90, 0x2a, 0x3c, 0x00, 0x99, 0x1d, 0x3c, 0x01,
  0x80, 0x2a, 0x00, 0x00, 0x95, 0x41, 0x7e, 0x00, 0x89, 0x1d, 0x00, 0x1d,
  0x90, 0x26, 0x58, 0x01, 0x80, 0x26, 0x00, 0x11, 0x90, 0x24, 0x7f, 0x00,
  0x90, 0x2a, 0x64, 0x00, 0x99, 0x24, 0x7e, 0x00, 0x99, 0x2c, 0x6a, 0x00,
  0x99, 0x1d, 0x3c, 0x01, 0x80, 0x2a, 0x00, 0x00, 0x80, 0x24, 0x00, 0x00,
  0x89, 0x1d, 0x00, 0x00, 0x89, 0x2c, 0x00, 0x00, 0x89, 0x24, 0x00, 0x2e,
  0x85, 0x41, 0x00, 0x01, 0x90, 0x27, 0x64, 0x00, 0x90, 0x2a, 0x62, 0x00,
  0x90, 0x26, 0x0c, 0x00, 0x99, 0x28, 0x7f, 0x00, 0x99, 0x1e, 0x62, 0x01,
  0x80, 0x26, 0x00, 0x00, 0x80, 0x2a, 0x00, 0x00, 0x80, 0x27, 0x00, 0x00,
  0x89, 0x1e, 0x00, 0x00, 0x89, 0x28, 0x00, 0x01, 0x95, 0x3f, 0x7a, 0x2e,
  0x90, 0x2a, 0x64, 0x00, 0x99, 0x2c, 0x74, 0x00, 0x99, 0x1d, 0x2e, 0x01,
  0x80, 0x2a, 0x00, 0x00, 0x89, 0x1d, 0x00, 0x00, 0x89, 0x2c, 0x00, 0x12,
  0x85, 0x1b, 0x00, 0x08, 0x81, 0x1b, 0x00, 0x04, 0x90, 0x26, 0x3e, 0x02,
  0x80, 0x26, 0x00, 0x07, 0x85, 0x3f, 0x00, 0x08, 0x90, 0x24, 0x7f, 0x00,
  0x90, 0x2a, 0x54, 0x00, 0x91, 0x1b, 0x7e, 0x00, 0x99, 0x24, 0x7e, 0x00,
  0x99, 0x1d, 0x3a, 0x01, 0x80, 0x2a, 0x00, 0x00, 0x80, 0x24, 0x00, 0x00,
  0x95, 0x1b, 0x7a, 0x00, 0x89, 0x1d, 0x00, 0x00, 0x89, 0x24, 0x00, 0x2f,
  0x90, 0x2a, 0x74, 0x00, 0x99, 0x2c, 0x7e, 0x00, 0x99, 0x1d, 0x3c, 0x01,
  0x80, 0x2a, 0x00, 0x00, 0x89, 0x1d, 0x00, 0x00, 0x89, 0x2c, 0x00, 0x2f,
  0x90, 0x27, 0x64, 0x00, 0x90, 0x2a, 0x5a, 0x00, 0x99, 0x28, 0x7f, 0x00,
  0x99, 0x1e, 0x5a, 0x01, 0x80, 0x2a, 0x00, 0x00, 0x80, 0x27, 0x00, 0x00,
  0x89, 0x1e, 0x00, 0x00, 0x89, 0x28, 0x00, 0x2f, 0x90, 0x2a, 0x54, 0x00,
  0x99, 0x2c, 0x74, 0x00, 0x99, 0x1d, 0x28, 0x01, 0x80, 0x2a, 0x00, 0x00,
  0x89, 0x1d, 0x00, 0x00, 0x89, 0x2c, 0x00, 0x1d, 0x99, 0x24, 0x4a, 0x01,
  0x90, 0x26, 0x3a, 0x00, 0x89, 0x24, 0x00, 0x01, 0x90, 0x2a, 0x34, 0x00,
  0x90, 0x27, 0x3c, 0x00, 0x90, 0x24, 0x7f, 0x01, 0x80, 0x24, 0x00, 0x00,
  0x80, 0x27, 0x00, 0x00, 0x80, 0x2a, 0x00, 0x00, 0x80, 0x26, 0x00, 0x0f,
  0x90, 0x24, 0x7f, 0x00, 0x90, 0x2a, 0x42, 0x00, 0x99, 0x24, 0x6a, 0x00,
  0x99, 0x1d, 0x16, 0x01, 0x80, 0x2a, 0x00, 0x00, 0x80, 0x24, 0x00, 0x00,
  0x89, 0x1d, 0x00, 0x00, 0x89, 0x24, 0x00, 0x02, 0x95, 0x41, 0x74, 0x1b,
  0x90, 0x26, 0x60, 0x01, 0x80, 0x26, 0x00, 0x11, 0x90, 0x24, 0x7f, 0x00,
  0x90, 0x2a, 0x64, 0x00, 0x99, 0x24, 0x7e, 0x00, 0x99, 0x2c, 0x7e, 0x00,
  0x99, 0x1d, 0x34, 0x01, 0x80, 0x2a, 0x00, 0x00, 0x80, 0x24, 0x00, 0x00,
  0x89, 0x1d, 0x00, 0x00, 0x89, 0x2c, 0x00, 0x00, 0x89, 0x24, 0x00, 0x2f,
  0x90, 0x27, 0x64, 0x00, 0x90, 0x2a, 0x54, 0x00, 0x85, 0x41, 0x00, 0x00,
  0x99, 0x28, 0x7f, 0x00, 0x99, 0x1e, 0x6a, 0x01, 0x80, 0x2a, 0x00, 0x00,
  0x80, 0x27, 0x00, 0x00, 0x89, 0x1e, 0x00, 0x00, 0x89, 0x28, 0x00, 0x01,
  0x95, 0x3f, 0x74, 0x2e, 0x90, 0x2a, 0x62, 0x00, 0x99, 0x2c, 0x7e, 0x00,
  0x99, 0x1d, 0x3a, 0x01, 0x80, 0x2a, 0x00, 0x00, 0x89, 0x1d, 0x00, 0x00,
  0x89, 0x2c, 0x00, 0x1e, 0x90, 0x26, 0x2a, 0x02, 0x80, 0x26, 0x00, 0x01,
  0x85, 0x1b, 0x00, 0x0b, 0x81, 0x1b, 0x00, 0x00, 0x8e, 0x43, 0x00, 0x00,
  0x8e, 0x3a, 0x00, 0x03, 0x90, 0x24, 0x7f, 0x00, 0x85, 0x3f, 0x00, 0x00,
  0x99, 0x24, 0x7a, 0x01, 0x80, 0x24, 0x00, 0x00, 0x89, 0x24, 0x00, 0x00,
  0x9e, 0x1b, 0x6e, 0x02, 0x95, 0x1b, 0x7e, 0x81, 0x72, 0x8e, 0x1b, 0x00,
  0x81, 0x0c, 0xff, 0x2f, 0x00
};
unsigned int example_mid_len = 43853;
